M48
;GenerationSoftware,Autodesk,EAGLE,9.5.1*%
;CreationDate,2020-09-11T11:07:09Z*%
FMAT,2
ICI,OFF
METRIC,TZ,000.000
T12C0.813
T11C0.900
T10C1.000
T9C1.016
T8C1.300
T7C1.500
T6C1.600
T5C2.000
T4C2.550
T3C2.800
T2C3.000
T1C3.200
%
G90
M71
T1
X209550Y168656
X260350Y157734
X209550Y25146
X260350Y168656
X209550Y157734
X209550Y301244
X192024Y21590
X260350Y301244
X260350Y25146
X295910Y325120
X13970Y325120
X15240Y-1270
X297180Y1270
X192024Y72390
X59436Y72390
X59436Y21590
T2
X83058Y88392
X53340Y106426
T3
X23460Y124200
X98460Y124200
X98460Y155200
X23460Y155200
T4
X27940Y49710
X27940Y26850
X27940Y112850
X27940Y97970
X27940Y17600
X27940Y41730
X27940Y2720
X27940Y88720
X27940Y73840
X27940Y64590
T5
X68834Y210820
X25146Y182880
X68834Y182880
X25146Y210820
T6
X32780Y42415
X32780Y73155
X32780Y49025
X32780Y65275
X32780Y26165
X32780Y89405
X32780Y2035
X32780Y18285
X32780Y97285
X32780Y113535
T7
X88392Y106426
X48768Y88392
X48768Y106426
X88392Y88392
T8
X133350Y254762
X128270Y254762
X76200Y254762
X60960Y254762
X111760Y303022
X106680Y303022
X101600Y303022
X55880Y254762
X62230Y303022
X111760Y254762
X106680Y254762
X101600Y254762
X57150Y303022
X52070Y303022
X86360Y303022
X165100Y303022
X160020Y303022
X154940Y303022
X81280Y303022
X76200Y303022
X165100Y254762
X46990Y320040
X52070Y320040
X64770Y320040
X69850Y320040
X160020Y254762
X154940Y254762
X50800Y254762
X191770Y320040
X289560Y224790
X138430Y303022
X133350Y303022
X128270Y303022
X82550Y320040
X87630Y320040
X100330Y320040
X105410Y320040
X289560Y316230
X289560Y311150
X289560Y306070
X289560Y138430
X289560Y133350
X289560Y128270
X289560Y119380
X289560Y114300
X289560Y109220
X289560Y100330
X289560Y95250
X289560Y90170
X289560Y81280
X289560Y76200
X289560Y71120
X289560Y62230
X289560Y57150
X289560Y52070
X289560Y43180
X289560Y38100
X289560Y33020
X289560Y24130
X289560Y19050
X289560Y13970
X198120Y5080
X193040Y5080
X187960Y5080
X177800Y5080
X172720Y5080
X167640Y5080
X157480Y5080
X152400Y5080
X147320Y5080
X289560Y294640
X289560Y289560
X289560Y284480
X137160Y5080
X132080Y5080
X127000Y5080
X116840Y5080
X111760Y5080
X106680Y5080
X116840Y320040
X91440Y5080
X86360Y5080
X77470Y5080
X72390Y5080
X67310Y5080
X58420Y5080
X53340Y5080
X48260Y5080
X289560Y274320
X289560Y269240
X289560Y264160
X289560Y255270
X289560Y250190
X289560Y245110
X289560Y234950
X289560Y229870
X289560Y214630
X289560Y209550
X289560Y204470
X289560Y195580
X96520Y5080
X289560Y185420
X289560Y176530
X289560Y171450
X289560Y166370
X289560Y156210
X289560Y151130
X289560Y146050
X121920Y320040
X134620Y320040
X139700Y320040
X152400Y320040
X157480Y320040
X168910Y320040
X173990Y320040
X29210Y320040
X34290Y320040
X186690Y320040
X86360Y254762
X81280Y254762
X138430Y254762
X289560Y190500
T9
X99060Y190500
X99060Y193040
X99060Y195580
X99060Y198120
X99060Y200660
X99060Y203200
X99060Y205740
X28960Y155200
X31500Y155200
X34040Y155200
X36580Y155200
X39120Y155200
X41660Y155200
X44200Y155200
X46740Y155200
X49280Y155200
X51820Y155200
X54360Y155200
X56900Y155200
X59440Y155200
X61980Y155200
X64520Y155200
X67060Y155200
X161290Y273050
X158750Y273050
X161290Y224790
X158750Y224790
X134620Y273050
X132080Y273050
X134620Y224790
X132080Y224790
X107950Y273050
X105410Y273050
X107950Y224790
X105410Y224790
X82550Y273050
X80010Y273050
X82550Y224790
X80010Y224790
X58420Y273050
X55880Y273050
X57150Y224790
X54610Y224790
X147320Y285750
X147320Y288290
X147320Y290830
X44450Y241300
X44450Y243840
X44450Y246380
X147320Y241300
X147320Y243840
X147320Y246380
X120650Y285750
X120650Y288290
X120650Y290830
X120650Y241300
X120650Y243840
X120650Y246380
X95250Y285750
X95250Y288290
X95250Y290830
X93980Y241300
X93980Y243840
X93980Y246380
X69850Y285750
X69850Y288290
X69850Y241300
X69850Y243840
X69850Y246380
X44450Y285750
X44450Y288290
X44450Y290830
X279400Y306070
X279400Y308610
X279400Y311150
X279400Y128270
X279400Y130810
X279400Y133350
X279400Y109220
X279400Y111760
X279400Y114300
X279400Y90170
X279400Y92710
X279400Y95250
X279400Y71120
X279400Y73660
X279400Y76200
X279400Y52070
X279400Y54610
X279400Y57150
X279400Y33020
X279400Y35560
X279400Y38100
X279400Y13970
X279400Y16510
X279400Y19050
X186690Y13970
X189230Y13970
X191770Y13970
X166370Y13970
X168910Y13970
X171450Y13970
X146050Y13970
X148590Y13970
X151130Y13970
X279400Y284480
X279400Y287020
X279400Y289560
X125730Y13970
X128270Y13970
X130810Y13970
X105410Y13970
X107950Y13970
X110490Y13970
X85090Y13970
X87630Y13970
X90170Y13970
X66040Y13970
X68580Y13970
X71120Y13970
X46990Y13970
X49530Y13970
X52070Y13970
X279400Y264160
X279400Y266700
X279400Y269240
X279400Y245110
X279400Y247650
X279400Y250190
X279400Y223520
X279400Y226060
X279400Y228600
X279400Y204470
X279400Y207010
X279400Y209550
X279400Y185420
X279400Y187960
X279400Y190500
X279400Y166370
X279400Y168910
X279400Y171450
X279400Y146050
X279400Y148590
X279400Y151130
X137160Y105410
X106680Y123190
X106680Y120650
X106680Y118110
X106680Y115570
X106680Y113030
X106680Y110490
X106680Y107950
X106680Y125730
X154940Y128270
X154940Y125730
X154940Y123190
X154940Y120650
X154940Y118110
X154940Y115570
X154940Y113030
X154940Y130810
X106680Y146050
X106680Y143510
X106680Y140970
X106680Y138430
X106680Y135890
X106680Y133350
X106680Y130810
X106680Y148590
X154940Y151130
X154940Y148590
X154940Y146050
X154940Y143510
X154940Y140970
X154940Y138430
X154940Y135890
X154940Y153670
X154940Y172720
X154940Y170180
X154940Y167640
X154940Y165100
X154940Y162560
X154940Y160020
X154940Y157480
X154940Y175260
X134620Y102870
X134620Y105410
X137160Y102870
X139700Y102870
X139700Y105410
X142240Y102870
X142240Y105410
X144780Y102870
X144780Y105410
X147320Y102870
X147320Y105410
X149860Y102870
X149860Y105410
X152400Y102870
X152400Y105410
X114300Y102870
X114300Y105410
X116840Y102870
X116840Y105410
X69850Y290830
X119380Y102870
X119380Y105410
X121920Y102870
X121920Y105410
X124460Y102870
X124460Y105410
X127000Y102870
X127000Y105410
X129540Y102870
X129540Y105410
X132080Y102870
X132080Y105410
X111760Y105410
X111760Y102870
X154940Y105410
X154940Y102870
X107950Y78740
X110490Y78740
X113030Y78740
X115570Y78740
X118110Y78740
X120650Y78740
X123190Y78740
X125730Y78740
X128270Y78740
X130810Y78740
X201930Y227330
X201930Y229870
X201930Y232410
X201930Y234950
X201930Y237490
X201930Y240030
X201930Y242570
X201930Y245110
X201930Y247650
X201930Y250190
X199390Y81280
X199390Y83820
X199390Y86360
X199390Y88900
X199390Y91440
X199390Y93980
X199390Y96520
X199390Y99060
X199390Y101600
X199390Y104140
X90881Y174269
X84379Y174269
X90881Y178791
X84379Y178791
X279400Y316230
X279400Y318770
X279400Y321310
X279400Y137160
X279400Y139700
X279400Y142240
X279400Y118110
X279400Y120650
X279400Y123190
X279400Y99060
X279400Y101600
X279400Y104140
X279400Y80010
X279400Y82550
X279400Y85090
X279400Y60960
X279400Y63500
X279400Y66040
X279400Y41910
X279400Y44450
X279400Y46990
X279400Y22860
X279400Y25400
X279400Y27940
X195580Y13970
X198120Y13970
X200660Y13970
X175260Y13970
X177800Y13970
X180340Y13970
X154940Y13970
X157480Y13970
X160020Y13970
X279400Y293370
X279400Y295910
X279400Y298450
X134620Y13970
X137160Y13970
X139700Y13970
X114300Y13970
X116840Y13970
X119380Y13970
X93980Y13970
X96520Y13970
X99060Y13970
X74930Y13970
X77470Y13970
X80010Y13970
X55880Y13970
X58420Y13970
X60960Y13970
X279400Y273050
X279400Y275590
X279400Y278130
X279400Y254000
X279400Y256540
X279400Y259080
X279400Y232410
X279400Y234950
X279400Y237490
X279400Y213360
X279400Y215900
X279400Y218440
X279400Y194310
X279400Y196850
X279400Y199390
X279400Y175260
X279400Y177800
X279400Y180340
X279400Y154940
X279400Y157480
X279400Y160020
X106680Y166370
X106680Y163830
X15062Y288290
X106680Y161290
X106680Y158750
X106680Y156210
X106680Y153670
X154940Y177800
X154940Y180340
X106680Y168910
X106680Y171450
X20498Y288290
X17780Y288290
T10
X69850Y190500
X210820Y249555
X210820Y177800
X210820Y180340
X210820Y182880
X210820Y83185
X210820Y85725
X23500Y298490
X29210Y162560
X31750Y162560
X34290Y162560
X36830Y162560
X39370Y162560
X41910Y162560
X44450Y162560
X46990Y162560
X49530Y162560
X52070Y162560
X54610Y162560
X57150Y162560
X59690Y162560
X62230Y162560
X64770Y162560
X67310Y162560
X67310Y173990
X67310Y171450
X67310Y168910
X67310Y166370
X210820Y88265
X210820Y90805
X210820Y93345
X210820Y95885
X210820Y98425
X210820Y100965
X210820Y103505
X210820Y106045
X20200Y303490
X26500Y303490
X210820Y34290
X210820Y36830
X67310Y203200
X210820Y39370
X120015Y71120
X122555Y71120
X125095Y71120
X127635Y71120
X69850Y203200
X67310Y200660
X130175Y71120
X132715Y71120
X135255Y71120
X137795Y71120
X140335Y71120
X68580Y71120
X71120Y71120
X73660Y71120
X69850Y200660
X67310Y198120
X69850Y193040
X67310Y190500
X117475Y71120
X69850Y198120
X67310Y195580
X69850Y195580
X67310Y193040
X210820Y226695
X210820Y229235
X210820Y231775
X210820Y234315
X210820Y236855
X210820Y239395
X210820Y241935
X210820Y244475
X210820Y247015
T11
X30240Y57660
X32780Y37860
X32780Y106940
X30240Y107960
X30240Y103880
X30240Y8630
X30240Y53580
X32780Y54600
X30240Y55620
X32780Y56640
X30240Y79750
X32780Y58680
X30240Y59700
X32780Y60720
X30240Y77710
X32780Y78730
X32780Y80770
X30240Y81790
X32780Y82810
X30240Y83830
X32780Y84850
X30240Y6590
X32780Y7610
X30240Y36840
X32780Y9650
X30240Y10670
X32780Y11690
X30240Y12710
X32780Y13730
X30240Y101840
X32780Y102860
X32780Y108980
X32780Y104900
X30240Y105920
X30240Y30720
X32780Y31740
X30240Y32760
X32780Y33780
X30240Y34800
X32780Y35820
T12
X26670Y288290
X17780Y274320
X20320Y274320
X34290Y299212
X34290Y302768
X26670Y278130
M30