M48
;GenerationSoftware,Autodesk,EAGLE,9.5.1*%
;CreationDate,2020-09-11T11:08:35Z*%
FMAT,2
ICI,OFF
METRIC,TZ,000.000
T6C0.813
T5C0.900
T4C1.300
T3C1.600
T2C2.550
T1C3.200
%
G90
M71
T1
X20320Y68580
X67310Y68580
X67310Y36830
X20320Y36830
T2
X44630Y60960
X59510Y60960
T3
X43945Y56120
X60195Y56120
T4
X27940Y43180
X33020Y43180
X38100Y43180
X48260Y43180
X53340Y43180
X58420Y43180
X29210Y60960
X29210Y55880
T5
X48500Y58660
X49520Y56120
X50540Y58660
X51560Y56120
X52580Y58660
X53600Y56120
X54620Y58660
X55640Y56120
T6
X38100Y71120
X38100Y60960
X29210Y68580
X31750Y68580
M30