M48
;GenerationSoftware,Autodesk,EAGLE,9.5.1*%
;CreationDate,2020-09-11T11:09:11Z*%
FMAT,2
ICI,OFF
METRIC,TZ,000.000
T5C0.813
T4C0.900
T3C1.600
T2C2.550
T1C3.200
%
G90
M71
T1
X92710Y73660
X92710Y7620
X5080Y72390
X5080Y7620
T2
X29030Y10160
X14150Y10160
X54430Y10160
X39550Y10160
X78560Y10160
X63680Y10160
X14150Y71120
X29030Y71120
X38280Y71120
X53160Y71120
X63680Y71120
X78560Y71120
X90170Y48080
X90170Y33200
T3
X85330Y32515
X85330Y48765
X62995Y66280
X79245Y66280
X13465Y66280
X29715Y66280
X37595Y66280
X53845Y66280
X55115Y15000
X38865Y15000
X29715Y15000
X13465Y15000
X79245Y15000
X62995Y15000
T4
X25160Y12460
X24140Y15000
X23120Y12460
X22100Y15000
X21080Y12460
X20060Y15000
X19040Y12460
X18020Y15000
X50560Y12460
X49540Y15000
X48520Y12460
X47500Y15000
X46480Y12460
X45460Y15000
X44440Y12460
X43420Y15000
X74690Y12460
X73670Y15000
X72650Y12460
X71630Y15000
X70610Y12460
X69590Y15000
X68570Y12460
X67550Y15000
X18020Y68820
X19040Y66280
X20060Y68820
X21080Y66280
X22100Y68820
X23120Y66280
X24140Y68820
X25160Y66280
X42150Y68820
X43170Y66280
X44190Y68820
X45210Y66280
X46230Y68820
X47250Y66280
X48270Y68820
X49290Y66280
X67550Y68820
X68570Y66280
X69590Y68820
X70610Y66280
X71630Y68820
X72650Y66280
X73670Y68820
X74690Y66280
X87870Y44210
X85330Y43190
X87870Y42170
X85330Y41150
X87870Y40130
X85330Y39110
X87870Y38090
X85330Y37070
T5
X87630Y60960
X85090Y60960
X92710Y66040
X92710Y55880
X27940Y30480
X25400Y30480
X15240Y22860
X17780Y22860
X22860Y30480
X20320Y30480
X15240Y30480
X17780Y30480
X20320Y22860
X22860Y22860
X25400Y22860
X27940Y22860
X53340Y30480
X50800Y30480
X40640Y22860
X43180Y22860
X48260Y30480
X45720Y30480
X40640Y30480
X43180Y30480
X45720Y22860
X48260Y22860
X50800Y22860
X53340Y22860
X77470Y30480
X74930Y30480
X64770Y22860
X67310Y22860
X72390Y30480
X69850Y30480
X64770Y30480
X67310Y30480
X69850Y22860
X72390Y22860
X74930Y22860
X77470Y22860
X15240Y49530
X17780Y49530
X27940Y57150
X25400Y57150
X20320Y49530
X22860Y49530
X27940Y49530
X25400Y49530
X22860Y57150
X20320Y57150
X17780Y57150
X15240Y57150
X39370Y49530
X41910Y49530
X52070Y57150
X49530Y57150
X44450Y49530
X46990Y49530
X52070Y49530
X49530Y49530
X46990Y57150
X44450Y57150
X41910Y57150
X39370Y57150
X63500Y49530
X66040Y49530
X76200Y57150
X73660Y57150
X68580Y49530
X71120Y49530
X76200Y49530
X73660Y49530
X71120Y57150
X68580Y57150
X66040Y57150
X63500Y57150
M30