G04 EAGLE Gerber RS-274X export*
G75*
%MOMM*%
%FSLAX34Y34*%
%LPD*%
%INSilkscreen Bottom*%
%IPPOS*%
%AMOC8*
5,1,8,0,0,1.08239X$1,22.5*%
G01*
%ADD10C,0.203200*%


D10*
X133400Y36350D02*
X133400Y134620D01*
X133400Y165100D02*
X133400Y180350D01*
X298400Y180350D01*
X298400Y165100D01*
X298400Y134620D02*
X298400Y36350D01*
X133400Y36350D01*
X387400Y36350D02*
X387400Y134620D01*
X387400Y165100D02*
X387400Y180350D01*
X552400Y180350D01*
X552400Y165100D01*
X552400Y134620D02*
X552400Y36350D01*
X387400Y36350D01*
X628700Y36350D02*
X628700Y134620D01*
X628700Y165100D02*
X628700Y180350D01*
X793700Y180350D01*
X793700Y165100D01*
X793700Y134620D02*
X793700Y36350D01*
X628700Y36350D01*
X298400Y678180D02*
X298400Y776450D01*
X298400Y647700D02*
X298400Y632450D01*
X133400Y632450D01*
X133400Y647700D01*
X133400Y678180D02*
X133400Y776450D01*
X298400Y776450D01*
X539700Y776450D02*
X539700Y678180D01*
X539700Y647700D02*
X539700Y632450D01*
X374700Y632450D01*
X374700Y647700D01*
X374700Y678180D02*
X374700Y776450D01*
X539700Y776450D01*
X793700Y776450D02*
X793700Y678180D01*
X793700Y647700D02*
X793700Y632450D01*
X628700Y632450D01*
X628700Y647700D01*
X628700Y678180D02*
X628700Y776450D01*
X793700Y776450D01*
X868680Y323900D02*
X966950Y323900D01*
X838200Y323900D02*
X822950Y323900D01*
X822950Y488900D01*
X838200Y488900D01*
X868680Y488900D02*
X966950Y488900D01*
X966950Y323900D01*
M02*
