G04 EAGLE Gerber RS-274X export*
G75*
%MOMM*%
%FSLAX34Y34*%
%LPD*%
%IN*%
%IPPOS*%
%AMOC8*
5,1,8,0,0,1.08239X$1,22.5*%
G01*
%ADD10C,0.254000*%


D10*
X228600Y152400D02*
X1698500Y165100D01*
X1698500Y1714400D01*
X228600Y1714400D01*
X228600Y152400D01*
X511175Y1294880D02*
X511107Y1293843D01*
X510971Y1292813D01*
X510769Y1291793D01*
X510500Y1290789D01*
X510165Y1289805D01*
X509768Y1288845D01*
X509308Y1287913D01*
X508788Y1287012D01*
X508211Y1286148D01*
X507578Y1285324D01*
X506893Y1284542D01*
X506158Y1283807D01*
X505376Y1283122D01*
X504552Y1282489D01*
X503688Y1281912D01*
X502787Y1281392D01*
X501855Y1280932D01*
X500895Y1280535D01*
X499911Y1280200D01*
X498907Y1279931D01*
X497887Y1279729D01*
X496857Y1279593D01*
X495820Y1279525D01*
X494780Y1279525D01*
X493743Y1279593D01*
X492713Y1279729D01*
X491693Y1279931D01*
X490689Y1280200D01*
X489705Y1280535D01*
X488745Y1280932D01*
X487813Y1281392D01*
X486912Y1281912D01*
X486048Y1282489D01*
X485224Y1283122D01*
X484442Y1283807D01*
X483707Y1284542D01*
X483022Y1285324D01*
X482389Y1286148D01*
X481812Y1287012D01*
X481292Y1287913D01*
X480832Y1288845D01*
X480435Y1289805D01*
X480100Y1290789D01*
X479831Y1291793D01*
X479629Y1292813D01*
X479493Y1293843D01*
X479425Y1294880D01*
X479425Y1295920D01*
X479493Y1296957D01*
X479629Y1297987D01*
X479831Y1299007D01*
X480100Y1300011D01*
X480435Y1300995D01*
X480832Y1301955D01*
X481292Y1302887D01*
X481812Y1303788D01*
X482389Y1304652D01*
X483022Y1305476D01*
X483707Y1306258D01*
X484442Y1306993D01*
X485224Y1307678D01*
X486048Y1308311D01*
X486912Y1308888D01*
X487813Y1309408D01*
X488745Y1309868D01*
X489705Y1310265D01*
X490689Y1310600D01*
X491693Y1310869D01*
X492713Y1311071D01*
X493743Y1311207D01*
X494780Y1311275D01*
X495820Y1311275D01*
X496857Y1311207D01*
X497887Y1311071D01*
X498907Y1310869D01*
X499911Y1310600D01*
X500895Y1310265D01*
X501855Y1309868D01*
X502787Y1309408D01*
X503688Y1308888D01*
X504552Y1308311D01*
X505376Y1307678D01*
X506158Y1306993D01*
X506893Y1306258D01*
X507578Y1305476D01*
X508211Y1304652D01*
X508788Y1303788D01*
X509308Y1302887D01*
X509768Y1301955D01*
X510165Y1300995D01*
X510500Y1300011D01*
X510769Y1299007D01*
X510971Y1297987D01*
X511107Y1296957D01*
X511175Y1295920D01*
X511175Y1294880D01*
X1019175Y1142480D02*
X1019107Y1141443D01*
X1018971Y1140413D01*
X1018769Y1139393D01*
X1018500Y1138389D01*
X1018165Y1137405D01*
X1017768Y1136445D01*
X1017308Y1135513D01*
X1016788Y1134612D01*
X1016211Y1133748D01*
X1015578Y1132924D01*
X1014893Y1132142D01*
X1014158Y1131407D01*
X1013376Y1130722D01*
X1012552Y1130089D01*
X1011688Y1129512D01*
X1010787Y1128992D01*
X1009855Y1128532D01*
X1008895Y1128135D01*
X1007911Y1127800D01*
X1006907Y1127531D01*
X1005887Y1127329D01*
X1004857Y1127193D01*
X1003820Y1127125D01*
X1002780Y1127125D01*
X1001743Y1127193D01*
X1000713Y1127329D01*
X999693Y1127531D01*
X998689Y1127800D01*
X997705Y1128135D01*
X996745Y1128532D01*
X995813Y1128992D01*
X994912Y1129512D01*
X994048Y1130089D01*
X993224Y1130722D01*
X992442Y1131407D01*
X991707Y1132142D01*
X991022Y1132924D01*
X990389Y1133748D01*
X989812Y1134612D01*
X989292Y1135513D01*
X988832Y1136445D01*
X988435Y1137405D01*
X988100Y1138389D01*
X987831Y1139393D01*
X987629Y1140413D01*
X987493Y1141443D01*
X987425Y1142480D01*
X987425Y1143520D01*
X987493Y1144557D01*
X987629Y1145587D01*
X987831Y1146607D01*
X988100Y1147611D01*
X988435Y1148595D01*
X988832Y1149555D01*
X989292Y1150487D01*
X989812Y1151388D01*
X990389Y1152252D01*
X991022Y1153076D01*
X991707Y1153858D01*
X992442Y1154593D01*
X993224Y1155278D01*
X994048Y1155911D01*
X994912Y1156488D01*
X995813Y1157008D01*
X996745Y1157468D01*
X997705Y1157865D01*
X998689Y1158200D01*
X999693Y1158469D01*
X1000713Y1158671D01*
X1001743Y1158807D01*
X1002780Y1158875D01*
X1003820Y1158875D01*
X1004857Y1158807D01*
X1005887Y1158671D01*
X1006907Y1158469D01*
X1007911Y1158200D01*
X1008895Y1157865D01*
X1009855Y1157468D01*
X1010787Y1157008D01*
X1011688Y1156488D01*
X1012552Y1155911D01*
X1013376Y1155278D01*
X1014158Y1154593D01*
X1014893Y1153858D01*
X1015578Y1153076D01*
X1016211Y1152252D01*
X1016788Y1151388D01*
X1017308Y1150487D01*
X1017768Y1149555D01*
X1018165Y1148595D01*
X1018500Y1147611D01*
X1018769Y1146607D01*
X1018971Y1145587D01*
X1019107Y1144557D01*
X1019175Y1143520D01*
X1019175Y1142480D01*
X1019175Y863080D02*
X1019107Y862043D01*
X1018971Y861013D01*
X1018769Y859993D01*
X1018500Y858989D01*
X1018165Y858005D01*
X1017768Y857045D01*
X1017308Y856113D01*
X1016788Y855212D01*
X1016211Y854348D01*
X1015578Y853524D01*
X1014893Y852742D01*
X1014158Y852007D01*
X1013376Y851322D01*
X1012552Y850689D01*
X1011688Y850112D01*
X1010787Y849592D01*
X1009855Y849132D01*
X1008895Y848735D01*
X1007911Y848400D01*
X1006907Y848131D01*
X1005887Y847929D01*
X1004857Y847793D01*
X1003820Y847725D01*
X1002780Y847725D01*
X1001743Y847793D01*
X1000713Y847929D01*
X999693Y848131D01*
X998689Y848400D01*
X997705Y848735D01*
X996745Y849132D01*
X995813Y849592D01*
X994912Y850112D01*
X994048Y850689D01*
X993224Y851322D01*
X992442Y852007D01*
X991707Y852742D01*
X991022Y853524D01*
X990389Y854348D01*
X989812Y855212D01*
X989292Y856113D01*
X988832Y857045D01*
X988435Y858005D01*
X988100Y858989D01*
X987831Y859993D01*
X987629Y861013D01*
X987493Y862043D01*
X987425Y863080D01*
X987425Y864120D01*
X987493Y865157D01*
X987629Y866187D01*
X987831Y867207D01*
X988100Y868211D01*
X988435Y869195D01*
X988832Y870155D01*
X989292Y871087D01*
X989812Y871988D01*
X990389Y872852D01*
X991022Y873676D01*
X991707Y874458D01*
X992442Y875193D01*
X993224Y875878D01*
X994048Y876511D01*
X994912Y877088D01*
X995813Y877608D01*
X996745Y878068D01*
X997705Y878465D01*
X998689Y878800D01*
X999693Y879069D01*
X1000713Y879271D01*
X1001743Y879407D01*
X1002780Y879475D01*
X1003820Y879475D01*
X1004857Y879407D01*
X1005887Y879271D01*
X1006907Y879069D01*
X1007911Y878800D01*
X1008895Y878465D01*
X1009855Y878068D01*
X1010787Y877608D01*
X1011688Y877088D01*
X1012552Y876511D01*
X1013376Y875878D01*
X1014158Y875193D01*
X1014893Y874458D01*
X1015578Y873676D01*
X1016211Y872852D01*
X1016788Y871988D01*
X1017308Y871087D01*
X1017768Y870155D01*
X1018165Y869195D01*
X1018500Y868211D01*
X1018769Y867207D01*
X1018971Y866187D01*
X1019107Y865157D01*
X1019175Y864120D01*
X1019175Y863080D01*
X498475Y812280D02*
X498407Y811243D01*
X498271Y810213D01*
X498069Y809193D01*
X497800Y808189D01*
X497465Y807205D01*
X497068Y806245D01*
X496608Y805313D01*
X496088Y804412D01*
X495511Y803548D01*
X494878Y802724D01*
X494193Y801942D01*
X493458Y801207D01*
X492676Y800522D01*
X491852Y799889D01*
X490988Y799312D01*
X490087Y798792D01*
X489155Y798332D01*
X488195Y797935D01*
X487211Y797600D01*
X486207Y797331D01*
X485187Y797129D01*
X484157Y796993D01*
X483120Y796925D01*
X482080Y796925D01*
X481043Y796993D01*
X480013Y797129D01*
X478993Y797331D01*
X477989Y797600D01*
X477005Y797935D01*
X476045Y798332D01*
X475113Y798792D01*
X474212Y799312D01*
X473348Y799889D01*
X472524Y800522D01*
X471742Y801207D01*
X471007Y801942D01*
X470322Y802724D01*
X469689Y803548D01*
X469112Y804412D01*
X468592Y805313D01*
X468132Y806245D01*
X467735Y807205D01*
X467400Y808189D01*
X467131Y809193D01*
X466929Y810213D01*
X466793Y811243D01*
X466725Y812280D01*
X466725Y813320D01*
X466793Y814357D01*
X466929Y815387D01*
X467131Y816407D01*
X467400Y817411D01*
X467735Y818395D01*
X468132Y819355D01*
X468592Y820287D01*
X469112Y821188D01*
X469689Y822052D01*
X470322Y822876D01*
X471007Y823658D01*
X471742Y824393D01*
X472524Y825078D01*
X473348Y825711D01*
X474212Y826288D01*
X475113Y826808D01*
X476045Y827268D01*
X477005Y827665D01*
X477989Y828000D01*
X478993Y828269D01*
X480013Y828471D01*
X481043Y828607D01*
X482080Y828675D01*
X483120Y828675D01*
X484157Y828607D01*
X485187Y828471D01*
X486207Y828269D01*
X487211Y828000D01*
X488195Y827665D01*
X489155Y827268D01*
X490087Y826808D01*
X490988Y826288D01*
X491852Y825711D01*
X492676Y825078D01*
X493458Y824393D01*
X494193Y823658D01*
X494878Y822876D01*
X495511Y822052D01*
X496088Y821188D01*
X496608Y820287D01*
X497068Y819355D01*
X497465Y818395D01*
X497800Y817411D01*
X498069Y816407D01*
X498271Y815387D01*
X498407Y814357D01*
X498475Y813320D01*
X498475Y812280D01*
X356101Y865450D02*
X357100Y865371D01*
X358089Y865215D01*
X359064Y864981D01*
X360016Y864671D01*
X360942Y864288D01*
X361835Y863833D01*
X362689Y863309D01*
X363500Y862721D01*
X364261Y862070D01*
X364970Y861361D01*
X365621Y860600D01*
X366209Y859789D01*
X366733Y858935D01*
X367188Y858042D01*
X367571Y857116D01*
X367881Y856164D01*
X368115Y855189D01*
X368271Y854200D01*
X368350Y853201D01*
X368350Y852199D01*
X368271Y851200D01*
X368115Y850211D01*
X367881Y849236D01*
X367571Y848284D01*
X367188Y847358D01*
X366733Y846465D01*
X366209Y845611D01*
X365621Y844800D01*
X364970Y844039D01*
X364261Y843330D01*
X363500Y842679D01*
X362689Y842091D01*
X361835Y841567D01*
X360942Y841112D01*
X360016Y840729D01*
X359064Y840419D01*
X358089Y840185D01*
X357100Y840029D01*
X356101Y839950D01*
X355099Y839950D01*
X354100Y840029D01*
X353111Y840185D01*
X352136Y840419D01*
X351184Y840729D01*
X350258Y841112D01*
X349365Y841567D01*
X348511Y842091D01*
X347700Y842679D01*
X346939Y843330D01*
X346230Y844039D01*
X345579Y844800D01*
X344991Y845611D01*
X344467Y846465D01*
X344012Y847358D01*
X343629Y848284D01*
X343319Y849236D01*
X343085Y850211D01*
X342929Y851200D01*
X342850Y852199D01*
X342850Y853201D01*
X342929Y854200D01*
X343085Y855189D01*
X343319Y856164D01*
X343629Y857116D01*
X344012Y858042D01*
X344467Y858935D01*
X344991Y859789D01*
X345579Y860600D01*
X346230Y861361D01*
X346939Y862070D01*
X347700Y862721D01*
X348511Y863309D01*
X349365Y863833D01*
X350258Y864288D01*
X351184Y864671D01*
X352136Y864981D01*
X353111Y865215D01*
X354100Y865371D01*
X355099Y865450D01*
X356101Y865450D01*
X356101Y1014250D02*
X357100Y1014171D01*
X358089Y1014015D01*
X359064Y1013781D01*
X360016Y1013471D01*
X360942Y1013088D01*
X361835Y1012633D01*
X362689Y1012109D01*
X363500Y1011521D01*
X364261Y1010870D01*
X364970Y1010161D01*
X365621Y1009400D01*
X366209Y1008589D01*
X366733Y1007735D01*
X367188Y1006842D01*
X367571Y1005916D01*
X367881Y1004964D01*
X368115Y1003989D01*
X368271Y1003000D01*
X368350Y1002001D01*
X368350Y1000999D01*
X368271Y1000000D01*
X368115Y999011D01*
X367881Y998036D01*
X367571Y997084D01*
X367188Y996158D01*
X366733Y995265D01*
X366209Y994411D01*
X365621Y993600D01*
X364970Y992839D01*
X364261Y992130D01*
X363500Y991479D01*
X362689Y990891D01*
X361835Y990367D01*
X360942Y989912D01*
X360016Y989529D01*
X359064Y989219D01*
X358089Y988985D01*
X357100Y988829D01*
X356101Y988750D01*
X355099Y988750D01*
X354100Y988829D01*
X353111Y988985D01*
X352136Y989219D01*
X351184Y989529D01*
X350258Y989912D01*
X349365Y990367D01*
X348511Y990891D01*
X347700Y991479D01*
X346939Y992130D01*
X346230Y992839D01*
X345579Y993600D01*
X344991Y994411D01*
X344467Y995265D01*
X344012Y996158D01*
X343629Y997084D01*
X343319Y998036D01*
X343085Y999011D01*
X342929Y1000000D01*
X342850Y1000999D01*
X342850Y1002001D01*
X342929Y1003000D01*
X343085Y1003989D01*
X343319Y1004964D01*
X343629Y1005916D01*
X344012Y1006842D01*
X344467Y1007735D01*
X344991Y1008589D01*
X345579Y1009400D01*
X346230Y1010161D01*
X346939Y1010870D01*
X347700Y1011521D01*
X348511Y1012109D01*
X349365Y1012633D01*
X350258Y1013088D01*
X351184Y1013471D01*
X352136Y1013781D01*
X353111Y1014015D01*
X354100Y1014171D01*
X355099Y1014250D01*
X356101Y1014250D01*
X312100Y535500D02*
X312029Y534503D01*
X311886Y533513D01*
X311674Y532536D01*
X311392Y531576D01*
X311043Y530639D01*
X310627Y529729D01*
X310148Y528852D01*
X309607Y528010D01*
X309008Y527210D01*
X308353Y526454D01*
X307646Y525747D01*
X306890Y525092D01*
X306090Y524493D01*
X305248Y523952D01*
X304371Y523473D01*
X303461Y523057D01*
X302524Y522708D01*
X301565Y522426D01*
X300587Y522214D01*
X299598Y522071D01*
X298600Y522000D01*
X297600Y522000D01*
X296603Y522071D01*
X295613Y522214D01*
X294636Y522426D01*
X293676Y522708D01*
X292739Y523057D01*
X291829Y523473D01*
X290952Y523952D01*
X290110Y524493D01*
X289310Y525092D01*
X288554Y525747D01*
X287847Y526454D01*
X287192Y527210D01*
X286593Y528010D01*
X286052Y528852D01*
X285573Y529729D01*
X285157Y530639D01*
X284808Y531576D01*
X284526Y532536D01*
X284314Y533513D01*
X284171Y534503D01*
X284100Y535500D01*
X284100Y536500D01*
X284171Y537498D01*
X284314Y538487D01*
X284526Y539465D01*
X284808Y540424D01*
X285157Y541361D01*
X285573Y542271D01*
X286052Y543148D01*
X286593Y543990D01*
X287192Y544790D01*
X287847Y545546D01*
X288554Y546253D01*
X289310Y546908D01*
X290110Y547507D01*
X290952Y548048D01*
X291829Y548527D01*
X292739Y548943D01*
X293676Y549292D01*
X294636Y549574D01*
X295613Y549786D01*
X296603Y549929D01*
X297600Y550000D01*
X298600Y550000D01*
X299598Y549929D01*
X300587Y549786D01*
X301565Y549574D01*
X302524Y549292D01*
X303461Y548943D01*
X304371Y548527D01*
X305248Y548048D01*
X306090Y547507D01*
X306890Y546908D01*
X307646Y546253D01*
X308353Y545546D01*
X309008Y544790D01*
X309607Y543990D01*
X310148Y543148D01*
X310627Y542271D01*
X311043Y541361D01*
X311392Y540424D01*
X311674Y539465D01*
X311886Y538487D01*
X312029Y537498D01*
X312100Y536500D01*
X312100Y535500D01*
X312100Y225500D02*
X312029Y224503D01*
X311886Y223513D01*
X311674Y222536D01*
X311392Y221576D01*
X311043Y220639D01*
X310627Y219729D01*
X310148Y218852D01*
X309607Y218010D01*
X309008Y217210D01*
X308353Y216454D01*
X307646Y215747D01*
X306890Y215092D01*
X306090Y214493D01*
X305248Y213952D01*
X304371Y213473D01*
X303461Y213057D01*
X302524Y212708D01*
X301565Y212426D01*
X300587Y212214D01*
X299598Y212071D01*
X298600Y212000D01*
X297600Y212000D01*
X296603Y212071D01*
X295613Y212214D01*
X294636Y212426D01*
X293676Y212708D01*
X292739Y213057D01*
X291829Y213473D01*
X290952Y213952D01*
X290110Y214493D01*
X289310Y215092D01*
X288554Y215747D01*
X287847Y216454D01*
X287192Y217210D01*
X286593Y218010D01*
X286052Y218852D01*
X285573Y219729D01*
X285157Y220639D01*
X284808Y221576D01*
X284526Y222536D01*
X284314Y223513D01*
X284171Y224503D01*
X284100Y225500D01*
X284100Y226500D01*
X284171Y227498D01*
X284314Y228487D01*
X284526Y229465D01*
X284808Y230424D01*
X285157Y231361D01*
X285573Y232271D01*
X286052Y233148D01*
X286593Y233990D01*
X287192Y234790D01*
X287847Y235546D01*
X288554Y236253D01*
X289310Y236908D01*
X290110Y237507D01*
X290952Y238048D01*
X291829Y238527D01*
X292739Y238943D01*
X293676Y239292D01*
X294636Y239574D01*
X295613Y239786D01*
X296603Y239929D01*
X297600Y240000D01*
X298600Y240000D01*
X299598Y239929D01*
X300587Y239786D01*
X301565Y239574D01*
X302524Y239292D01*
X303461Y238943D01*
X304371Y238527D01*
X305248Y238048D01*
X306090Y237507D01*
X306890Y236908D01*
X307646Y236253D01*
X308353Y235546D01*
X309008Y234790D01*
X309607Y233990D01*
X310148Y233148D01*
X310627Y232271D01*
X311043Y231361D01*
X311392Y230424D01*
X311674Y229465D01*
X311886Y228487D01*
X312029Y227498D01*
X312100Y226500D01*
X312100Y225500D01*
X1062100Y535500D02*
X1062029Y534503D01*
X1061886Y533513D01*
X1061674Y532536D01*
X1061392Y531576D01*
X1061043Y530639D01*
X1060627Y529729D01*
X1060148Y528852D01*
X1059607Y528010D01*
X1059008Y527210D01*
X1058353Y526454D01*
X1057646Y525747D01*
X1056890Y525092D01*
X1056090Y524493D01*
X1055248Y523952D01*
X1054371Y523473D01*
X1053461Y523057D01*
X1052524Y522708D01*
X1051565Y522426D01*
X1050587Y522214D01*
X1049598Y522071D01*
X1048600Y522000D01*
X1047600Y522000D01*
X1046603Y522071D01*
X1045613Y522214D01*
X1044636Y522426D01*
X1043676Y522708D01*
X1042739Y523057D01*
X1041829Y523473D01*
X1040952Y523952D01*
X1040110Y524493D01*
X1039310Y525092D01*
X1038554Y525747D01*
X1037847Y526454D01*
X1037192Y527210D01*
X1036593Y528010D01*
X1036052Y528852D01*
X1035573Y529729D01*
X1035157Y530639D01*
X1034808Y531576D01*
X1034526Y532536D01*
X1034314Y533513D01*
X1034171Y534503D01*
X1034100Y535500D01*
X1034100Y536500D01*
X1034171Y537498D01*
X1034314Y538487D01*
X1034526Y539465D01*
X1034808Y540424D01*
X1035157Y541361D01*
X1035573Y542271D01*
X1036052Y543148D01*
X1036593Y543990D01*
X1037192Y544790D01*
X1037847Y545546D01*
X1038554Y546253D01*
X1039310Y546908D01*
X1040110Y547507D01*
X1040952Y548048D01*
X1041829Y548527D01*
X1042739Y548943D01*
X1043676Y549292D01*
X1044636Y549574D01*
X1045613Y549786D01*
X1046603Y549929D01*
X1047600Y550000D01*
X1048600Y550000D01*
X1049598Y549929D01*
X1050587Y549786D01*
X1051565Y549574D01*
X1052524Y549292D01*
X1053461Y548943D01*
X1054371Y548527D01*
X1055248Y548048D01*
X1056090Y547507D01*
X1056890Y546908D01*
X1057646Y546253D01*
X1058353Y545546D01*
X1059008Y544790D01*
X1059607Y543990D01*
X1060148Y543148D01*
X1060627Y542271D01*
X1061043Y541361D01*
X1061392Y540424D01*
X1061674Y539465D01*
X1061886Y538487D01*
X1062029Y537498D01*
X1062100Y536500D01*
X1062100Y535500D01*
X1062100Y225500D02*
X1062029Y224503D01*
X1061886Y223513D01*
X1061674Y222536D01*
X1061392Y221576D01*
X1061043Y220639D01*
X1060627Y219729D01*
X1060148Y218852D01*
X1059607Y218010D01*
X1059008Y217210D01*
X1058353Y216454D01*
X1057646Y215747D01*
X1056890Y215092D01*
X1056090Y214493D01*
X1055248Y213952D01*
X1054371Y213473D01*
X1053461Y213057D01*
X1052524Y212708D01*
X1051565Y212426D01*
X1050587Y212214D01*
X1049598Y212071D01*
X1048600Y212000D01*
X1047600Y212000D01*
X1046603Y212071D01*
X1045613Y212214D01*
X1044636Y212426D01*
X1043676Y212708D01*
X1042739Y213057D01*
X1041829Y213473D01*
X1040952Y213952D01*
X1040110Y214493D01*
X1039310Y215092D01*
X1038554Y215747D01*
X1037847Y216454D01*
X1037192Y217210D01*
X1036593Y218010D01*
X1036052Y218852D01*
X1035573Y219729D01*
X1035157Y220639D01*
X1034808Y221576D01*
X1034526Y222536D01*
X1034314Y223513D01*
X1034171Y224503D01*
X1034100Y225500D01*
X1034100Y226500D01*
X1034171Y227498D01*
X1034314Y228487D01*
X1034526Y229465D01*
X1034808Y230424D01*
X1035157Y231361D01*
X1035573Y232271D01*
X1036052Y233148D01*
X1036593Y233990D01*
X1037192Y234790D01*
X1037847Y235546D01*
X1038554Y236253D01*
X1039310Y236908D01*
X1040110Y237507D01*
X1040952Y238048D01*
X1041829Y238527D01*
X1042739Y238943D01*
X1043676Y239292D01*
X1044636Y239574D01*
X1045613Y239786D01*
X1046603Y239929D01*
X1047600Y240000D01*
X1048600Y240000D01*
X1049598Y239929D01*
X1050587Y239786D01*
X1051565Y239574D01*
X1052524Y239292D01*
X1053461Y238943D01*
X1054371Y238527D01*
X1055248Y238048D01*
X1056090Y237507D01*
X1056890Y236908D01*
X1057646Y236253D01*
X1058353Y235546D01*
X1059008Y234790D01*
X1059607Y233990D01*
X1060148Y233148D01*
X1060627Y232271D01*
X1061043Y231361D01*
X1061392Y230424D01*
X1061674Y229465D01*
X1061886Y228487D01*
X1062029Y227498D01*
X1062100Y226500D01*
X1062100Y225500D01*
X721120Y1617444D02*
X721044Y1616376D01*
X720891Y1615315D01*
X720663Y1614268D01*
X720361Y1613240D01*
X719987Y1612236D01*
X719542Y1611261D01*
X719028Y1610321D01*
X718449Y1609420D01*
X717807Y1608562D01*
X717105Y1607752D01*
X716348Y1606995D01*
X715538Y1606293D01*
X714680Y1605651D01*
X713779Y1605072D01*
X712839Y1604558D01*
X711864Y1604113D01*
X710860Y1603739D01*
X709832Y1603437D01*
X708785Y1603209D01*
X707724Y1603056D01*
X706656Y1602980D01*
X705584Y1602980D01*
X704516Y1603056D01*
X703455Y1603209D01*
X702408Y1603437D01*
X701380Y1603739D01*
X700376Y1604113D01*
X699401Y1604558D01*
X698461Y1605072D01*
X697560Y1605651D01*
X696702Y1606293D01*
X695892Y1606995D01*
X695135Y1607752D01*
X694433Y1608562D01*
X693791Y1609420D01*
X693212Y1610321D01*
X692698Y1611261D01*
X692253Y1612236D01*
X691879Y1613240D01*
X691577Y1614268D01*
X691349Y1615315D01*
X691196Y1616376D01*
X691120Y1617444D01*
X691120Y1618516D01*
X691196Y1619584D01*
X691349Y1620645D01*
X691577Y1621692D01*
X691879Y1622720D01*
X692253Y1623724D01*
X692698Y1624699D01*
X693212Y1625639D01*
X693791Y1626540D01*
X694433Y1627398D01*
X695135Y1628208D01*
X695892Y1628965D01*
X696702Y1629667D01*
X697560Y1630309D01*
X698461Y1630888D01*
X699401Y1631402D01*
X700376Y1631847D01*
X701380Y1632221D01*
X702408Y1632523D01*
X703455Y1632751D01*
X704516Y1632904D01*
X705584Y1632980D01*
X706656Y1632980D01*
X707724Y1632904D01*
X708785Y1632751D01*
X709832Y1632523D01*
X710860Y1632221D01*
X711864Y1631847D01*
X712839Y1631402D01*
X713779Y1630888D01*
X714680Y1630309D01*
X715538Y1629667D01*
X716348Y1628965D01*
X717105Y1628208D01*
X717807Y1627398D01*
X718449Y1626540D01*
X719028Y1625639D01*
X719542Y1624699D01*
X719987Y1623724D01*
X720361Y1622720D01*
X720663Y1621692D01*
X720891Y1620645D01*
X721044Y1619584D01*
X721120Y1618516D01*
X721120Y1617444D01*
X1018300Y1437104D02*
X1018224Y1436036D01*
X1018071Y1434975D01*
X1017843Y1433928D01*
X1017541Y1432900D01*
X1017167Y1431896D01*
X1016722Y1430921D01*
X1016208Y1429981D01*
X1015629Y1429080D01*
X1014987Y1428222D01*
X1014285Y1427412D01*
X1013528Y1426655D01*
X1012718Y1425953D01*
X1011860Y1425311D01*
X1010959Y1424732D01*
X1010019Y1424218D01*
X1009044Y1423773D01*
X1008040Y1423399D01*
X1007012Y1423097D01*
X1005965Y1422869D01*
X1004904Y1422716D01*
X1003836Y1422640D01*
X1002764Y1422640D01*
X1001696Y1422716D01*
X1000635Y1422869D01*
X999588Y1423097D01*
X998560Y1423399D01*
X997556Y1423773D01*
X996581Y1424218D01*
X995641Y1424732D01*
X994740Y1425311D01*
X993882Y1425953D01*
X993072Y1426655D01*
X992315Y1427412D01*
X991613Y1428222D01*
X990971Y1429080D01*
X990392Y1429981D01*
X989878Y1430921D01*
X989433Y1431896D01*
X989059Y1432900D01*
X988757Y1433928D01*
X988529Y1434975D01*
X988376Y1436036D01*
X988300Y1437104D01*
X988300Y1438176D01*
X988376Y1439244D01*
X988529Y1440305D01*
X988757Y1441352D01*
X989059Y1442380D01*
X989433Y1443384D01*
X989878Y1444359D01*
X990392Y1445299D01*
X990971Y1446200D01*
X991613Y1447058D01*
X992315Y1447868D01*
X993072Y1448625D01*
X993882Y1449327D01*
X994740Y1449969D01*
X995641Y1450548D01*
X996581Y1451062D01*
X997556Y1451507D01*
X998560Y1451881D01*
X999588Y1452183D01*
X1000635Y1452411D01*
X1001696Y1452564D01*
X1002764Y1452640D01*
X1003836Y1452640D01*
X1004904Y1452564D01*
X1005965Y1452411D01*
X1007012Y1452183D01*
X1008040Y1451881D01*
X1009044Y1451507D01*
X1010019Y1451062D01*
X1010959Y1450548D01*
X1011860Y1449969D01*
X1012718Y1449327D01*
X1013528Y1448625D01*
X1014285Y1447868D01*
X1014987Y1447058D01*
X1015629Y1446200D01*
X1016208Y1445299D01*
X1016722Y1444359D01*
X1017167Y1443384D01*
X1017541Y1442380D01*
X1017843Y1441352D01*
X1018071Y1440305D01*
X1018224Y1439244D01*
X1018300Y1438176D01*
X1018300Y1437104D01*
X1447299Y607750D02*
X1446300Y607829D01*
X1445311Y607985D01*
X1444336Y608219D01*
X1443384Y608529D01*
X1442458Y608912D01*
X1441565Y609367D01*
X1440711Y609891D01*
X1439900Y610479D01*
X1439139Y611130D01*
X1438430Y611839D01*
X1437779Y612600D01*
X1437191Y613411D01*
X1436667Y614265D01*
X1436212Y615158D01*
X1435829Y616084D01*
X1435519Y617036D01*
X1435285Y618011D01*
X1435129Y619000D01*
X1435050Y619999D01*
X1435050Y621001D01*
X1435129Y622000D01*
X1435285Y622989D01*
X1435519Y623964D01*
X1435829Y624916D01*
X1436212Y625842D01*
X1436667Y626735D01*
X1437191Y627589D01*
X1437779Y628400D01*
X1438430Y629161D01*
X1439139Y629870D01*
X1439900Y630521D01*
X1440711Y631109D01*
X1441565Y631633D01*
X1442458Y632088D01*
X1443384Y632471D01*
X1444336Y632781D01*
X1445311Y633015D01*
X1446300Y633171D01*
X1447299Y633250D01*
X1448301Y633250D01*
X1449300Y633171D01*
X1450289Y633015D01*
X1451264Y632781D01*
X1452216Y632471D01*
X1453142Y632088D01*
X1454035Y631633D01*
X1454889Y631109D01*
X1455700Y630521D01*
X1456461Y629870D01*
X1457170Y629161D01*
X1457821Y628400D01*
X1458409Y627589D01*
X1458933Y626735D01*
X1459388Y625842D01*
X1459771Y624916D01*
X1460081Y623964D01*
X1460315Y622989D01*
X1460471Y622000D01*
X1460550Y621001D01*
X1460550Y619999D01*
X1460471Y619000D01*
X1460315Y618011D01*
X1460081Y617036D01*
X1459771Y616084D01*
X1459388Y615158D01*
X1458933Y614265D01*
X1458409Y613411D01*
X1457821Y612600D01*
X1457170Y611839D01*
X1456461Y611130D01*
X1455700Y610479D01*
X1454889Y609891D01*
X1454035Y609367D01*
X1453142Y608912D01*
X1452216Y608529D01*
X1451264Y608219D01*
X1450289Y607985D01*
X1449300Y607829D01*
X1448301Y607750D01*
X1447299Y607750D01*
X1447299Y458950D02*
X1446300Y459029D01*
X1445311Y459185D01*
X1444336Y459419D01*
X1443384Y459729D01*
X1442458Y460112D01*
X1441565Y460567D01*
X1440711Y461091D01*
X1439900Y461679D01*
X1439139Y462330D01*
X1438430Y463039D01*
X1437779Y463800D01*
X1437191Y464611D01*
X1436667Y465465D01*
X1436212Y466358D01*
X1435829Y467284D01*
X1435519Y468236D01*
X1435285Y469211D01*
X1435129Y470200D01*
X1435050Y471199D01*
X1435050Y472201D01*
X1435129Y473200D01*
X1435285Y474189D01*
X1435519Y475164D01*
X1435829Y476116D01*
X1436212Y477042D01*
X1436667Y477935D01*
X1437191Y478789D01*
X1437779Y479600D01*
X1438430Y480361D01*
X1439139Y481070D01*
X1439900Y481721D01*
X1440711Y482309D01*
X1441565Y482833D01*
X1442458Y483288D01*
X1443384Y483671D01*
X1444336Y483981D01*
X1445311Y484215D01*
X1446300Y484371D01*
X1447299Y484450D01*
X1448301Y484450D01*
X1449300Y484371D01*
X1450289Y484215D01*
X1451264Y483981D01*
X1452216Y483671D01*
X1453142Y483288D01*
X1454035Y482833D01*
X1454889Y482309D01*
X1455700Y481721D01*
X1456461Y481070D01*
X1457170Y480361D01*
X1457821Y479600D01*
X1458409Y478789D01*
X1458933Y477935D01*
X1459388Y477042D01*
X1459771Y476116D01*
X1460081Y475164D01*
X1460315Y474189D01*
X1460471Y473200D01*
X1460550Y472201D01*
X1460550Y471199D01*
X1460471Y470200D01*
X1460315Y469211D01*
X1460081Y468236D01*
X1459771Y467284D01*
X1459388Y466358D01*
X1458933Y465465D01*
X1458409Y464611D01*
X1457821Y463800D01*
X1457170Y463039D01*
X1456461Y462330D01*
X1455700Y461679D01*
X1454889Y461091D01*
X1454035Y460567D01*
X1453142Y460112D01*
X1452216Y459729D01*
X1451264Y459419D01*
X1450289Y459185D01*
X1449300Y459029D01*
X1448301Y458950D01*
X1447299Y458950D01*
X1447299Y379150D02*
X1446300Y379229D01*
X1445311Y379385D01*
X1444336Y379619D01*
X1443384Y379929D01*
X1442458Y380312D01*
X1441565Y380767D01*
X1440711Y381291D01*
X1439900Y381879D01*
X1439139Y382530D01*
X1438430Y383239D01*
X1437779Y384000D01*
X1437191Y384811D01*
X1436667Y385665D01*
X1436212Y386558D01*
X1435829Y387484D01*
X1435519Y388436D01*
X1435285Y389411D01*
X1435129Y390400D01*
X1435050Y391399D01*
X1435050Y392401D01*
X1435129Y393400D01*
X1435285Y394389D01*
X1435519Y395364D01*
X1435829Y396316D01*
X1436212Y397242D01*
X1436667Y398135D01*
X1437191Y398989D01*
X1437779Y399800D01*
X1438430Y400561D01*
X1439139Y401270D01*
X1439900Y401921D01*
X1440711Y402509D01*
X1441565Y403033D01*
X1442458Y403488D01*
X1443384Y403871D01*
X1444336Y404181D01*
X1445311Y404415D01*
X1446300Y404571D01*
X1447299Y404650D01*
X1448301Y404650D01*
X1449300Y404571D01*
X1450289Y404415D01*
X1451264Y404181D01*
X1452216Y403871D01*
X1453142Y403488D01*
X1454035Y403033D01*
X1454889Y402509D01*
X1455700Y401921D01*
X1456461Y401270D01*
X1457170Y400561D01*
X1457821Y399800D01*
X1458409Y398989D01*
X1458933Y398135D01*
X1459388Y397242D01*
X1459771Y396316D01*
X1460081Y395364D01*
X1460315Y394389D01*
X1460471Y393400D01*
X1460550Y392401D01*
X1460550Y391399D01*
X1460471Y390400D01*
X1460315Y389411D01*
X1460081Y388436D01*
X1459771Y387484D01*
X1459388Y386558D01*
X1458933Y385665D01*
X1458409Y384811D01*
X1457821Y384000D01*
X1457170Y383239D01*
X1456461Y382530D01*
X1455700Y381879D01*
X1454889Y381291D01*
X1454035Y380767D01*
X1453142Y380312D01*
X1452216Y379929D01*
X1451264Y379619D01*
X1450289Y379385D01*
X1449300Y379229D01*
X1448301Y379150D01*
X1447299Y379150D01*
X1447299Y230350D02*
X1446300Y230429D01*
X1445311Y230585D01*
X1444336Y230819D01*
X1443384Y231129D01*
X1442458Y231512D01*
X1441565Y231967D01*
X1440711Y232491D01*
X1439900Y233079D01*
X1439139Y233730D01*
X1438430Y234439D01*
X1437779Y235200D01*
X1437191Y236011D01*
X1436667Y236865D01*
X1436212Y237758D01*
X1435829Y238684D01*
X1435519Y239636D01*
X1435285Y240611D01*
X1435129Y241600D01*
X1435050Y242599D01*
X1435050Y243601D01*
X1435129Y244600D01*
X1435285Y245589D01*
X1435519Y246564D01*
X1435829Y247516D01*
X1436212Y248442D01*
X1436667Y249335D01*
X1437191Y250189D01*
X1437779Y251000D01*
X1438430Y251761D01*
X1439139Y252470D01*
X1439900Y253121D01*
X1440711Y253709D01*
X1441565Y254233D01*
X1442458Y254688D01*
X1443384Y255071D01*
X1444336Y255381D01*
X1445311Y255615D01*
X1446300Y255771D01*
X1447299Y255850D01*
X1448301Y255850D01*
X1449300Y255771D01*
X1450289Y255615D01*
X1451264Y255381D01*
X1452216Y255071D01*
X1453142Y254688D01*
X1454035Y254233D01*
X1454889Y253709D01*
X1455700Y253121D01*
X1456461Y252470D01*
X1457170Y251761D01*
X1457821Y251000D01*
X1458409Y250189D01*
X1458933Y249335D01*
X1459388Y248442D01*
X1459771Y247516D01*
X1460081Y246564D01*
X1460315Y245589D01*
X1460471Y244600D01*
X1460550Y243601D01*
X1460550Y242599D01*
X1460471Y241600D01*
X1460315Y240611D01*
X1460081Y239636D01*
X1459771Y238684D01*
X1459388Y237758D01*
X1458933Y236865D01*
X1458409Y236011D01*
X1457821Y235200D01*
X1457170Y234439D01*
X1456461Y233730D01*
X1455700Y233079D01*
X1454889Y232491D01*
X1454035Y231967D01*
X1453142Y231512D01*
X1452216Y231129D01*
X1451264Y230819D01*
X1450289Y230585D01*
X1449300Y230429D01*
X1448301Y230350D01*
X1447299Y230350D01*
X1255450Y292601D02*
X1255529Y293600D01*
X1255685Y294589D01*
X1255919Y295564D01*
X1256229Y296516D01*
X1256612Y297442D01*
X1257067Y298335D01*
X1257591Y299189D01*
X1258179Y300000D01*
X1258830Y300761D01*
X1259539Y301470D01*
X1260300Y302121D01*
X1261111Y302709D01*
X1261965Y303233D01*
X1262858Y303688D01*
X1263784Y304071D01*
X1264736Y304381D01*
X1265711Y304615D01*
X1266700Y304771D01*
X1267699Y304850D01*
X1268701Y304850D01*
X1269700Y304771D01*
X1270689Y304615D01*
X1271664Y304381D01*
X1272616Y304071D01*
X1273542Y303688D01*
X1274435Y303233D01*
X1275289Y302709D01*
X1276100Y302121D01*
X1276861Y301470D01*
X1277570Y300761D01*
X1278221Y300000D01*
X1278809Y299189D01*
X1279333Y298335D01*
X1279788Y297442D01*
X1280171Y296516D01*
X1280481Y295564D01*
X1280715Y294589D01*
X1280871Y293600D01*
X1280950Y292601D01*
X1280950Y291599D01*
X1280871Y290600D01*
X1280715Y289611D01*
X1280481Y288636D01*
X1280171Y287684D01*
X1279788Y286758D01*
X1279333Y285865D01*
X1278809Y285011D01*
X1278221Y284200D01*
X1277570Y283439D01*
X1276861Y282730D01*
X1276100Y282079D01*
X1275289Y281491D01*
X1274435Y280967D01*
X1273542Y280512D01*
X1272616Y280129D01*
X1271664Y279819D01*
X1270689Y279585D01*
X1269700Y279429D01*
X1268701Y279350D01*
X1267699Y279350D01*
X1266700Y279429D01*
X1265711Y279585D01*
X1264736Y279819D01*
X1263784Y280129D01*
X1262858Y280512D01*
X1261965Y280967D01*
X1261111Y281491D01*
X1260300Y282079D01*
X1259539Y282730D01*
X1258830Y283439D01*
X1258179Y284200D01*
X1257591Y285011D01*
X1257067Y285865D01*
X1256612Y286758D01*
X1256229Y287684D01*
X1255919Y288636D01*
X1255685Y289611D01*
X1255529Y290600D01*
X1255450Y291599D01*
X1255450Y292601D01*
X1106650Y292601D02*
X1106729Y293600D01*
X1106885Y294589D01*
X1107119Y295564D01*
X1107429Y296516D01*
X1107812Y297442D01*
X1108267Y298335D01*
X1108791Y299189D01*
X1109379Y300000D01*
X1110030Y300761D01*
X1110739Y301470D01*
X1111500Y302121D01*
X1112311Y302709D01*
X1113165Y303233D01*
X1114058Y303688D01*
X1114984Y304071D01*
X1115936Y304381D01*
X1116911Y304615D01*
X1117900Y304771D01*
X1118899Y304850D01*
X1119901Y304850D01*
X1120900Y304771D01*
X1121889Y304615D01*
X1122864Y304381D01*
X1123816Y304071D01*
X1124742Y303688D01*
X1125635Y303233D01*
X1126489Y302709D01*
X1127300Y302121D01*
X1128061Y301470D01*
X1128770Y300761D01*
X1129421Y300000D01*
X1130009Y299189D01*
X1130533Y298335D01*
X1130988Y297442D01*
X1131371Y296516D01*
X1131681Y295564D01*
X1131915Y294589D01*
X1132071Y293600D01*
X1132150Y292601D01*
X1132150Y291599D01*
X1132071Y290600D01*
X1131915Y289611D01*
X1131681Y288636D01*
X1131371Y287684D01*
X1130988Y286758D01*
X1130533Y285865D01*
X1130009Y285011D01*
X1129421Y284200D01*
X1128770Y283439D01*
X1128061Y282730D01*
X1127300Y282079D01*
X1126489Y281491D01*
X1125635Y280967D01*
X1124742Y280512D01*
X1123816Y280129D01*
X1122864Y279819D01*
X1121889Y279585D01*
X1120900Y279429D01*
X1119901Y279350D01*
X1118899Y279350D01*
X1117900Y279429D01*
X1116911Y279585D01*
X1115936Y279819D01*
X1114984Y280129D01*
X1114058Y280512D01*
X1113165Y280967D01*
X1112311Y281491D01*
X1111500Y282079D01*
X1110739Y282730D01*
X1110030Y283439D01*
X1109379Y284200D01*
X1108791Y285011D01*
X1108267Y285865D01*
X1107812Y286758D01*
X1107429Y287684D01*
X1107119Y288636D01*
X1106885Y289611D01*
X1106729Y290600D01*
X1106650Y291599D01*
X1106650Y292601D01*
X1666000Y1129764D02*
X1665924Y1128696D01*
X1665771Y1127635D01*
X1665543Y1126588D01*
X1665241Y1125560D01*
X1664867Y1124556D01*
X1664422Y1123581D01*
X1663908Y1122641D01*
X1663329Y1121740D01*
X1662687Y1120882D01*
X1661985Y1120072D01*
X1661228Y1119315D01*
X1660418Y1118613D01*
X1659560Y1117971D01*
X1658659Y1117392D01*
X1657719Y1116878D01*
X1656744Y1116433D01*
X1655740Y1116059D01*
X1654712Y1115757D01*
X1653665Y1115529D01*
X1652604Y1115376D01*
X1651536Y1115300D01*
X1650464Y1115300D01*
X1649396Y1115376D01*
X1648335Y1115529D01*
X1647288Y1115757D01*
X1646260Y1116059D01*
X1645256Y1116433D01*
X1644281Y1116878D01*
X1643341Y1117392D01*
X1642440Y1117971D01*
X1641582Y1118613D01*
X1640772Y1119315D01*
X1640015Y1120072D01*
X1639313Y1120882D01*
X1638671Y1121740D01*
X1638092Y1122641D01*
X1637578Y1123581D01*
X1637133Y1124556D01*
X1636759Y1125560D01*
X1636457Y1126588D01*
X1636229Y1127635D01*
X1636076Y1128696D01*
X1636000Y1129764D01*
X1636000Y1130836D01*
X1636076Y1131904D01*
X1636229Y1132965D01*
X1636457Y1134012D01*
X1636759Y1135040D01*
X1637133Y1136044D01*
X1637578Y1137019D01*
X1638092Y1137959D01*
X1638671Y1138860D01*
X1639313Y1139718D01*
X1640015Y1140528D01*
X1640772Y1141285D01*
X1641582Y1141987D01*
X1642440Y1142629D01*
X1643341Y1143208D01*
X1644281Y1143722D01*
X1645256Y1144167D01*
X1646260Y1144541D01*
X1647288Y1144843D01*
X1648335Y1145071D01*
X1649396Y1145224D01*
X1650464Y1145300D01*
X1651536Y1145300D01*
X1652604Y1145224D01*
X1653665Y1145071D01*
X1654712Y1144843D01*
X1655740Y1144541D01*
X1656744Y1144167D01*
X1657719Y1143722D01*
X1658659Y1143208D01*
X1659560Y1142629D01*
X1660418Y1141987D01*
X1661228Y1141285D01*
X1661985Y1140528D01*
X1662687Y1139718D01*
X1663329Y1138860D01*
X1663908Y1137959D01*
X1664422Y1137019D01*
X1664867Y1136044D01*
X1665241Y1135040D01*
X1665543Y1134012D01*
X1665771Y1132965D01*
X1665924Y1131904D01*
X1666000Y1130836D01*
X1666000Y1129764D01*
X1666000Y964664D02*
X1665924Y963596D01*
X1665771Y962535D01*
X1665543Y961488D01*
X1665241Y960460D01*
X1664867Y959456D01*
X1664422Y958481D01*
X1663908Y957541D01*
X1663329Y956640D01*
X1662687Y955782D01*
X1661985Y954972D01*
X1661228Y954215D01*
X1660418Y953513D01*
X1659560Y952871D01*
X1658659Y952292D01*
X1657719Y951778D01*
X1656744Y951333D01*
X1655740Y950959D01*
X1654712Y950657D01*
X1653665Y950429D01*
X1652604Y950276D01*
X1651536Y950200D01*
X1650464Y950200D01*
X1649396Y950276D01*
X1648335Y950429D01*
X1647288Y950657D01*
X1646260Y950959D01*
X1645256Y951333D01*
X1644281Y951778D01*
X1643341Y952292D01*
X1642440Y952871D01*
X1641582Y953513D01*
X1640772Y954215D01*
X1640015Y954972D01*
X1639313Y955782D01*
X1638671Y956640D01*
X1638092Y957541D01*
X1637578Y958481D01*
X1637133Y959456D01*
X1636759Y960460D01*
X1636457Y961488D01*
X1636229Y962535D01*
X1636076Y963596D01*
X1636000Y964664D01*
X1636000Y965736D01*
X1636076Y966804D01*
X1636229Y967865D01*
X1636457Y968912D01*
X1636759Y969940D01*
X1637133Y970944D01*
X1637578Y971919D01*
X1638092Y972859D01*
X1638671Y973760D01*
X1639313Y974618D01*
X1640015Y975428D01*
X1640772Y976185D01*
X1641582Y976887D01*
X1642440Y977529D01*
X1643341Y978108D01*
X1644281Y978622D01*
X1645256Y979067D01*
X1646260Y979441D01*
X1647288Y979743D01*
X1648335Y979971D01*
X1649396Y980124D01*
X1650464Y980200D01*
X1651536Y980200D01*
X1652604Y980124D01*
X1653665Y979971D01*
X1654712Y979743D01*
X1655740Y979441D01*
X1656744Y979067D01*
X1657719Y978622D01*
X1658659Y978108D01*
X1659560Y977529D01*
X1660418Y976887D01*
X1661228Y976185D01*
X1661985Y975428D01*
X1662687Y974618D01*
X1663329Y973760D01*
X1663908Y972859D01*
X1664422Y971919D01*
X1664867Y970944D01*
X1665241Y969940D01*
X1665543Y968912D01*
X1665771Y967865D01*
X1665924Y966804D01*
X1666000Y965736D01*
X1666000Y964664D01*
X1666000Y1383764D02*
X1665924Y1382696D01*
X1665771Y1381635D01*
X1665543Y1380588D01*
X1665241Y1379560D01*
X1664867Y1378556D01*
X1664422Y1377581D01*
X1663908Y1376641D01*
X1663329Y1375740D01*
X1662687Y1374882D01*
X1661985Y1374072D01*
X1661228Y1373315D01*
X1660418Y1372613D01*
X1659560Y1371971D01*
X1658659Y1371392D01*
X1657719Y1370878D01*
X1656744Y1370433D01*
X1655740Y1370059D01*
X1654712Y1369757D01*
X1653665Y1369529D01*
X1652604Y1369376D01*
X1651536Y1369300D01*
X1650464Y1369300D01*
X1649396Y1369376D01*
X1648335Y1369529D01*
X1647288Y1369757D01*
X1646260Y1370059D01*
X1645256Y1370433D01*
X1644281Y1370878D01*
X1643341Y1371392D01*
X1642440Y1371971D01*
X1641582Y1372613D01*
X1640772Y1373315D01*
X1640015Y1374072D01*
X1639313Y1374882D01*
X1638671Y1375740D01*
X1638092Y1376641D01*
X1637578Y1377581D01*
X1637133Y1378556D01*
X1636759Y1379560D01*
X1636457Y1380588D01*
X1636229Y1381635D01*
X1636076Y1382696D01*
X1636000Y1383764D01*
X1636000Y1384836D01*
X1636076Y1385904D01*
X1636229Y1386965D01*
X1636457Y1388012D01*
X1636759Y1389040D01*
X1637133Y1390044D01*
X1637578Y1391019D01*
X1638092Y1391959D01*
X1638671Y1392860D01*
X1639313Y1393718D01*
X1640015Y1394528D01*
X1640772Y1395285D01*
X1641582Y1395987D01*
X1642440Y1396629D01*
X1643341Y1397208D01*
X1644281Y1397722D01*
X1645256Y1398167D01*
X1646260Y1398541D01*
X1647288Y1398843D01*
X1648335Y1399071D01*
X1649396Y1399224D01*
X1650464Y1399300D01*
X1651536Y1399300D01*
X1652604Y1399224D01*
X1653665Y1399071D01*
X1654712Y1398843D01*
X1655740Y1398541D01*
X1656744Y1398167D01*
X1657719Y1397722D01*
X1658659Y1397208D01*
X1659560Y1396629D01*
X1660418Y1395987D01*
X1661228Y1395285D01*
X1661985Y1394528D01*
X1662687Y1393718D01*
X1663329Y1392860D01*
X1663908Y1391959D01*
X1664422Y1391019D01*
X1664867Y1390044D01*
X1665241Y1389040D01*
X1665543Y1388012D01*
X1665771Y1386965D01*
X1665924Y1385904D01*
X1666000Y1384836D01*
X1666000Y1383764D01*
X1666000Y1218664D02*
X1665924Y1217596D01*
X1665771Y1216535D01*
X1665543Y1215488D01*
X1665241Y1214460D01*
X1664867Y1213456D01*
X1664422Y1212481D01*
X1663908Y1211541D01*
X1663329Y1210640D01*
X1662687Y1209782D01*
X1661985Y1208972D01*
X1661228Y1208215D01*
X1660418Y1207513D01*
X1659560Y1206871D01*
X1658659Y1206292D01*
X1657719Y1205778D01*
X1656744Y1205333D01*
X1655740Y1204959D01*
X1654712Y1204657D01*
X1653665Y1204429D01*
X1652604Y1204276D01*
X1651536Y1204200D01*
X1650464Y1204200D01*
X1649396Y1204276D01*
X1648335Y1204429D01*
X1647288Y1204657D01*
X1646260Y1204959D01*
X1645256Y1205333D01*
X1644281Y1205778D01*
X1643341Y1206292D01*
X1642440Y1206871D01*
X1641582Y1207513D01*
X1640772Y1208215D01*
X1640015Y1208972D01*
X1639313Y1209782D01*
X1638671Y1210640D01*
X1638092Y1211541D01*
X1637578Y1212481D01*
X1637133Y1213456D01*
X1636759Y1214460D01*
X1636457Y1215488D01*
X1636229Y1216535D01*
X1636076Y1217596D01*
X1636000Y1218664D01*
X1636000Y1219736D01*
X1636076Y1220804D01*
X1636229Y1221865D01*
X1636457Y1222912D01*
X1636759Y1223940D01*
X1637133Y1224944D01*
X1637578Y1225919D01*
X1638092Y1226859D01*
X1638671Y1227760D01*
X1639313Y1228618D01*
X1640015Y1229428D01*
X1640772Y1230185D01*
X1641582Y1230887D01*
X1642440Y1231529D01*
X1643341Y1232108D01*
X1644281Y1232622D01*
X1645256Y1233067D01*
X1646260Y1233441D01*
X1647288Y1233743D01*
X1648335Y1233971D01*
X1649396Y1234124D01*
X1650464Y1234200D01*
X1651536Y1234200D01*
X1652604Y1234124D01*
X1653665Y1233971D01*
X1654712Y1233743D01*
X1655740Y1233441D01*
X1656744Y1233067D01*
X1657719Y1232622D01*
X1658659Y1232108D01*
X1659560Y1231529D01*
X1660418Y1230887D01*
X1661228Y1230185D01*
X1661985Y1229428D01*
X1662687Y1228618D01*
X1663329Y1227760D01*
X1663908Y1226859D01*
X1664422Y1225919D01*
X1664867Y1224944D01*
X1665241Y1223940D01*
X1665543Y1222912D01*
X1665771Y1221865D01*
X1665924Y1220804D01*
X1666000Y1219736D01*
X1666000Y1218664D01*
X1666000Y723364D02*
X1665924Y722296D01*
X1665771Y721235D01*
X1665543Y720188D01*
X1665241Y719160D01*
X1664867Y718156D01*
X1664422Y717181D01*
X1663908Y716241D01*
X1663329Y715340D01*
X1662687Y714482D01*
X1661985Y713672D01*
X1661228Y712915D01*
X1660418Y712213D01*
X1659560Y711571D01*
X1658659Y710992D01*
X1657719Y710478D01*
X1656744Y710033D01*
X1655740Y709659D01*
X1654712Y709357D01*
X1653665Y709129D01*
X1652604Y708976D01*
X1651536Y708900D01*
X1650464Y708900D01*
X1649396Y708976D01*
X1648335Y709129D01*
X1647288Y709357D01*
X1646260Y709659D01*
X1645256Y710033D01*
X1644281Y710478D01*
X1643341Y710992D01*
X1642440Y711571D01*
X1641582Y712213D01*
X1640772Y712915D01*
X1640015Y713672D01*
X1639313Y714482D01*
X1638671Y715340D01*
X1638092Y716241D01*
X1637578Y717181D01*
X1637133Y718156D01*
X1636759Y719160D01*
X1636457Y720188D01*
X1636229Y721235D01*
X1636076Y722296D01*
X1636000Y723364D01*
X1636000Y724436D01*
X1636076Y725504D01*
X1636229Y726565D01*
X1636457Y727612D01*
X1636759Y728640D01*
X1637133Y729644D01*
X1637578Y730619D01*
X1638092Y731559D01*
X1638671Y732460D01*
X1639313Y733318D01*
X1640015Y734128D01*
X1640772Y734885D01*
X1641582Y735587D01*
X1642440Y736229D01*
X1643341Y736808D01*
X1644281Y737322D01*
X1645256Y737767D01*
X1646260Y738141D01*
X1647288Y738443D01*
X1648335Y738671D01*
X1649396Y738824D01*
X1650464Y738900D01*
X1651536Y738900D01*
X1652604Y738824D01*
X1653665Y738671D01*
X1654712Y738443D01*
X1655740Y738141D01*
X1656744Y737767D01*
X1657719Y737322D01*
X1658659Y736808D01*
X1659560Y736229D01*
X1660418Y735587D01*
X1661228Y734885D01*
X1661985Y734128D01*
X1662687Y733318D01*
X1663329Y732460D01*
X1663908Y731559D01*
X1664422Y730619D01*
X1664867Y729644D01*
X1665241Y728640D01*
X1665543Y727612D01*
X1665771Y726565D01*
X1665924Y725504D01*
X1666000Y724436D01*
X1666000Y723364D01*
X1666000Y875764D02*
X1665924Y874696D01*
X1665771Y873635D01*
X1665543Y872588D01*
X1665241Y871560D01*
X1664867Y870556D01*
X1664422Y869581D01*
X1663908Y868641D01*
X1663329Y867740D01*
X1662687Y866882D01*
X1661985Y866072D01*
X1661228Y865315D01*
X1660418Y864613D01*
X1659560Y863971D01*
X1658659Y863392D01*
X1657719Y862878D01*
X1656744Y862433D01*
X1655740Y862059D01*
X1654712Y861757D01*
X1653665Y861529D01*
X1652604Y861376D01*
X1651536Y861300D01*
X1650464Y861300D01*
X1649396Y861376D01*
X1648335Y861529D01*
X1647288Y861757D01*
X1646260Y862059D01*
X1645256Y862433D01*
X1644281Y862878D01*
X1643341Y863392D01*
X1642440Y863971D01*
X1641582Y864613D01*
X1640772Y865315D01*
X1640015Y866072D01*
X1639313Y866882D01*
X1638671Y867740D01*
X1638092Y868641D01*
X1637578Y869581D01*
X1637133Y870556D01*
X1636759Y871560D01*
X1636457Y872588D01*
X1636229Y873635D01*
X1636076Y874696D01*
X1636000Y875764D01*
X1636000Y876836D01*
X1636076Y877904D01*
X1636229Y878965D01*
X1636457Y880012D01*
X1636759Y881040D01*
X1637133Y882044D01*
X1637578Y883019D01*
X1638092Y883959D01*
X1638671Y884860D01*
X1639313Y885718D01*
X1640015Y886528D01*
X1640772Y887285D01*
X1641582Y887987D01*
X1642440Y888629D01*
X1643341Y889208D01*
X1644281Y889722D01*
X1645256Y890167D01*
X1646260Y890541D01*
X1647288Y890843D01*
X1648335Y891071D01*
X1649396Y891224D01*
X1650464Y891300D01*
X1651536Y891300D01*
X1652604Y891224D01*
X1653665Y891071D01*
X1654712Y890843D01*
X1655740Y890541D01*
X1656744Y890167D01*
X1657719Y889722D01*
X1658659Y889208D01*
X1659560Y888629D01*
X1660418Y887987D01*
X1661228Y887285D01*
X1661985Y886528D01*
X1662687Y885718D01*
X1663329Y884860D01*
X1663908Y883959D01*
X1664422Y883019D01*
X1664867Y882044D01*
X1665241Y881040D01*
X1665543Y880012D01*
X1665771Y878965D01*
X1665924Y877904D01*
X1666000Y876836D01*
X1666000Y875764D01*
X295400Y1663176D02*
X295332Y1662131D01*
X295195Y1661092D01*
X294990Y1660065D01*
X294719Y1659053D01*
X294383Y1658061D01*
X293982Y1657093D01*
X293518Y1656154D01*
X292995Y1655246D01*
X292413Y1654375D01*
X291775Y1653544D01*
X291084Y1652757D01*
X290343Y1652016D01*
X289556Y1651325D01*
X288725Y1650688D01*
X287854Y1650106D01*
X286946Y1649582D01*
X286007Y1649118D01*
X285039Y1648717D01*
X284047Y1648381D01*
X283035Y1648110D01*
X282008Y1647905D01*
X280969Y1647769D01*
X279924Y1647700D01*
X278876Y1647700D01*
X277831Y1647769D01*
X276792Y1647905D01*
X275765Y1648110D01*
X274753Y1648381D01*
X273761Y1648717D01*
X272793Y1649118D01*
X271854Y1649582D01*
X270946Y1650106D01*
X270075Y1650688D01*
X269244Y1651325D01*
X268457Y1652016D01*
X267716Y1652757D01*
X267025Y1653544D01*
X266388Y1654375D01*
X265806Y1655246D01*
X265282Y1656154D01*
X264818Y1657093D01*
X264417Y1658061D01*
X264081Y1659053D01*
X263810Y1660065D01*
X263605Y1661092D01*
X263469Y1662131D01*
X263400Y1663176D01*
X263400Y1664224D01*
X263469Y1665269D01*
X263605Y1666308D01*
X263810Y1667335D01*
X264081Y1668347D01*
X264417Y1669339D01*
X264818Y1670307D01*
X265282Y1671246D01*
X265806Y1672154D01*
X266388Y1673025D01*
X267025Y1673856D01*
X267716Y1674643D01*
X268457Y1675384D01*
X269244Y1676075D01*
X270075Y1676713D01*
X270946Y1677295D01*
X271854Y1677818D01*
X272793Y1678282D01*
X273761Y1678683D01*
X274753Y1679019D01*
X275765Y1679290D01*
X276792Y1679495D01*
X277831Y1679632D01*
X278876Y1679700D01*
X279924Y1679700D01*
X280969Y1679632D01*
X282008Y1679495D01*
X283035Y1679290D01*
X284047Y1679019D01*
X285039Y1678683D01*
X286007Y1678282D01*
X286946Y1677818D01*
X287854Y1677295D01*
X288725Y1676713D01*
X289556Y1676075D01*
X290343Y1675384D01*
X291084Y1674643D01*
X291775Y1673856D01*
X292413Y1673025D01*
X292995Y1672154D01*
X293518Y1671246D01*
X293982Y1670307D01*
X294383Y1669339D01*
X294719Y1668347D01*
X294990Y1667335D01*
X295195Y1666308D01*
X295332Y1665269D01*
X295400Y1664224D01*
X295400Y1663176D01*
X1654300Y215376D02*
X1654232Y214331D01*
X1654095Y213292D01*
X1653890Y212265D01*
X1653619Y211253D01*
X1653283Y210261D01*
X1652882Y209293D01*
X1652418Y208354D01*
X1651895Y207446D01*
X1651313Y206575D01*
X1650675Y205744D01*
X1649984Y204957D01*
X1649243Y204216D01*
X1648456Y203525D01*
X1647625Y202888D01*
X1646754Y202306D01*
X1645846Y201782D01*
X1644907Y201318D01*
X1643939Y200917D01*
X1642947Y200581D01*
X1641935Y200310D01*
X1640908Y200105D01*
X1639869Y199969D01*
X1638824Y199900D01*
X1637776Y199900D01*
X1636731Y199969D01*
X1635692Y200105D01*
X1634665Y200310D01*
X1633653Y200581D01*
X1632661Y200917D01*
X1631693Y201318D01*
X1630754Y201782D01*
X1629846Y202306D01*
X1628975Y202888D01*
X1628144Y203525D01*
X1627357Y204216D01*
X1626616Y204957D01*
X1625925Y205744D01*
X1625288Y206575D01*
X1624706Y207446D01*
X1624182Y208354D01*
X1623718Y209293D01*
X1623317Y210261D01*
X1622981Y211253D01*
X1622710Y212265D01*
X1622505Y213292D01*
X1622369Y214331D01*
X1622300Y215376D01*
X1622300Y216424D01*
X1622369Y217469D01*
X1622505Y218508D01*
X1622710Y219535D01*
X1622981Y220547D01*
X1623317Y221539D01*
X1623718Y222507D01*
X1624182Y223446D01*
X1624706Y224354D01*
X1625288Y225225D01*
X1625925Y226056D01*
X1626616Y226843D01*
X1627357Y227584D01*
X1628144Y228275D01*
X1628975Y228913D01*
X1629846Y229495D01*
X1630754Y230018D01*
X1631693Y230482D01*
X1632661Y230883D01*
X1633653Y231219D01*
X1634665Y231490D01*
X1635692Y231695D01*
X1636731Y231832D01*
X1637776Y231900D01*
X1638824Y231900D01*
X1639869Y231832D01*
X1640908Y231695D01*
X1641935Y231490D01*
X1642947Y231219D01*
X1643939Y230883D01*
X1644907Y230482D01*
X1645846Y230018D01*
X1646754Y229495D01*
X1647625Y228913D01*
X1648456Y228275D01*
X1649243Y227584D01*
X1649984Y226843D01*
X1650675Y226056D01*
X1651313Y225225D01*
X1651895Y224354D01*
X1652418Y223446D01*
X1652882Y222507D01*
X1653283Y221539D01*
X1653619Y220547D01*
X1653890Y219535D01*
X1654095Y218508D01*
X1654232Y217469D01*
X1654300Y216424D01*
X1654300Y215376D01*
X1667000Y1663176D02*
X1666932Y1662131D01*
X1666795Y1661092D01*
X1666590Y1660065D01*
X1666319Y1659053D01*
X1665983Y1658061D01*
X1665582Y1657093D01*
X1665118Y1656154D01*
X1664595Y1655246D01*
X1664013Y1654375D01*
X1663375Y1653544D01*
X1662684Y1652757D01*
X1661943Y1652016D01*
X1661156Y1651325D01*
X1660325Y1650688D01*
X1659454Y1650106D01*
X1658546Y1649582D01*
X1657607Y1649118D01*
X1656639Y1648717D01*
X1655647Y1648381D01*
X1654635Y1648110D01*
X1653608Y1647905D01*
X1652569Y1647769D01*
X1651524Y1647700D01*
X1650476Y1647700D01*
X1649431Y1647769D01*
X1648392Y1647905D01*
X1647365Y1648110D01*
X1646353Y1648381D01*
X1645361Y1648717D01*
X1644393Y1649118D01*
X1643454Y1649582D01*
X1642546Y1650106D01*
X1641675Y1650688D01*
X1640844Y1651325D01*
X1640057Y1652016D01*
X1639316Y1652757D01*
X1638625Y1653544D01*
X1637988Y1654375D01*
X1637406Y1655246D01*
X1636882Y1656154D01*
X1636418Y1657093D01*
X1636017Y1658061D01*
X1635681Y1659053D01*
X1635410Y1660065D01*
X1635205Y1661092D01*
X1635069Y1662131D01*
X1635000Y1663176D01*
X1635000Y1664224D01*
X1635069Y1665269D01*
X1635205Y1666308D01*
X1635410Y1667335D01*
X1635681Y1668347D01*
X1636017Y1669339D01*
X1636418Y1670307D01*
X1636882Y1671246D01*
X1637406Y1672154D01*
X1637988Y1673025D01*
X1638625Y1673856D01*
X1639316Y1674643D01*
X1640057Y1675384D01*
X1640844Y1676075D01*
X1641675Y1676713D01*
X1642546Y1677295D01*
X1643454Y1677818D01*
X1644393Y1678282D01*
X1645361Y1678683D01*
X1646353Y1679019D01*
X1647365Y1679290D01*
X1648392Y1679495D01*
X1649431Y1679632D01*
X1650476Y1679700D01*
X1651524Y1679700D01*
X1652569Y1679632D01*
X1653608Y1679495D01*
X1654635Y1679290D01*
X1655647Y1679019D01*
X1656639Y1678683D01*
X1657607Y1678282D01*
X1658546Y1677818D01*
X1659454Y1677295D01*
X1660325Y1676713D01*
X1661156Y1676075D01*
X1661943Y1675384D01*
X1662684Y1674643D01*
X1663375Y1673856D01*
X1664013Y1673025D01*
X1664595Y1672154D01*
X1665118Y1671246D01*
X1665582Y1670307D01*
X1665983Y1669339D01*
X1666319Y1668347D01*
X1666590Y1667335D01*
X1666795Y1666308D01*
X1666932Y1665269D01*
X1667000Y1664224D01*
X1667000Y1663176D01*
M02*
