G04 EAGLE Gerber RS-274X export*
G75*
%MOMM*%
%FSLAX34Y34*%
%LPD*%
%IN*%
%IPPOS*%
%AMOC8*
5,1,8,0,0,1.08239X$1,22.5*%
G01*
%ADD10C,0.254000*%


D10*
X76200Y3301900D02*
X88900Y-63500D01*
X3044700Y-50800D01*
X3019300Y3301900D01*
X76200Y3301900D01*
X219000Y2984900D02*
X219019Y2984464D01*
X219076Y2984032D01*
X219170Y2983606D01*
X219302Y2983190D01*
X219468Y2982787D01*
X219670Y2982400D01*
X219904Y2982032D01*
X220170Y2981686D01*
X220464Y2981364D01*
X220786Y2981070D01*
X221132Y2980804D01*
X221500Y2980570D01*
X221887Y2980368D01*
X222290Y2980202D01*
X222706Y2980070D01*
X223132Y2979976D01*
X223564Y2979919D01*
X224000Y2979900D01*
X246000Y2979900D01*
X246436Y2979919D01*
X246868Y2979976D01*
X247294Y2980070D01*
X247710Y2980202D01*
X248113Y2980368D01*
X248500Y2980570D01*
X248868Y2980804D01*
X249214Y2981070D01*
X249536Y2981364D01*
X249830Y2981686D01*
X250096Y2982032D01*
X250330Y2982400D01*
X250532Y2982787D01*
X250698Y2983190D01*
X250830Y2983606D01*
X250924Y2984032D01*
X250981Y2984464D01*
X251000Y2984900D01*
X250981Y2985336D01*
X250924Y2985768D01*
X250830Y2986194D01*
X250698Y2986610D01*
X250532Y2987013D01*
X250330Y2987400D01*
X250096Y2987768D01*
X249830Y2988114D01*
X249536Y2988436D01*
X249214Y2988730D01*
X248868Y2988996D01*
X248500Y2989230D01*
X248113Y2989432D01*
X247710Y2989598D01*
X247294Y2989730D01*
X246868Y2989824D01*
X246436Y2989881D01*
X246000Y2989900D01*
X224000Y2989900D01*
X223564Y2989881D01*
X223132Y2989824D01*
X222706Y2989730D01*
X222290Y2989598D01*
X221887Y2989432D01*
X221500Y2989230D01*
X221132Y2988996D01*
X220786Y2988730D01*
X220464Y2988436D01*
X220170Y2988114D01*
X219904Y2987768D01*
X219670Y2987400D01*
X219468Y2987013D01*
X219302Y2986610D01*
X219170Y2986194D01*
X219076Y2985768D01*
X219019Y2985336D01*
X219000Y2984900D01*
X197000Y3023900D02*
X197019Y3023464D01*
X197076Y3023032D01*
X197170Y3022606D01*
X197302Y3022190D01*
X197468Y3021787D01*
X197670Y3021400D01*
X197904Y3021032D01*
X198170Y3020686D01*
X198464Y3020364D01*
X198786Y3020070D01*
X199132Y3019804D01*
X199500Y3019570D01*
X199887Y3019368D01*
X200290Y3019202D01*
X200706Y3019070D01*
X201132Y3018976D01*
X201564Y3018919D01*
X202000Y3018900D01*
X202436Y3018919D01*
X202868Y3018976D01*
X203294Y3019070D01*
X203710Y3019202D01*
X204113Y3019368D01*
X204500Y3019570D01*
X204868Y3019804D01*
X205214Y3020070D01*
X205536Y3020364D01*
X205830Y3020686D01*
X206096Y3021032D01*
X206330Y3021400D01*
X206532Y3021787D01*
X206698Y3022190D01*
X206830Y3022606D01*
X206924Y3023032D01*
X206981Y3023464D01*
X207000Y3023900D01*
X207000Y3045900D01*
X206981Y3046336D01*
X206924Y3046768D01*
X206830Y3047194D01*
X206698Y3047610D01*
X206532Y3048013D01*
X206330Y3048400D01*
X206096Y3048768D01*
X205830Y3049114D01*
X205536Y3049436D01*
X205214Y3049730D01*
X204868Y3049996D01*
X204500Y3050230D01*
X204113Y3050432D01*
X203710Y3050598D01*
X203294Y3050730D01*
X202868Y3050824D01*
X202436Y3050881D01*
X202000Y3050900D01*
X201564Y3050881D01*
X201132Y3050824D01*
X200706Y3050730D01*
X200290Y3050598D01*
X199887Y3050432D01*
X199500Y3050230D01*
X199132Y3049996D01*
X198786Y3049730D01*
X198464Y3049436D01*
X198170Y3049114D01*
X197904Y3048768D01*
X197670Y3048400D01*
X197468Y3048013D01*
X197302Y3047610D01*
X197170Y3047194D01*
X197076Y3046768D01*
X197019Y3046336D01*
X197000Y3045900D01*
X197000Y3023900D01*
X265000Y3018900D02*
X265436Y3018919D01*
X265868Y3018976D01*
X266294Y3019070D01*
X266710Y3019202D01*
X267113Y3019368D01*
X267500Y3019570D01*
X267868Y3019804D01*
X268214Y3020070D01*
X268536Y3020364D01*
X268830Y3020686D01*
X269096Y3021032D01*
X269330Y3021400D01*
X269532Y3021787D01*
X269698Y3022190D01*
X269830Y3022606D01*
X269924Y3023032D01*
X269981Y3023464D01*
X270000Y3023900D01*
X270000Y3045900D01*
X269981Y3046336D01*
X269924Y3046768D01*
X269830Y3047194D01*
X269698Y3047610D01*
X269532Y3048013D01*
X269330Y3048400D01*
X269096Y3048768D01*
X268830Y3049114D01*
X268536Y3049436D01*
X268214Y3049730D01*
X267868Y3049996D01*
X267500Y3050230D01*
X267113Y3050432D01*
X266710Y3050598D01*
X266294Y3050730D01*
X265868Y3050824D01*
X265436Y3050881D01*
X265000Y3050900D01*
X265000Y3018900D01*
X260000Y3023900D02*
X260019Y3023464D01*
X260076Y3023032D01*
X260170Y3022606D01*
X260302Y3022190D01*
X260468Y3021787D01*
X260670Y3021400D01*
X260904Y3021032D01*
X261170Y3020686D01*
X261464Y3020364D01*
X261786Y3020070D01*
X262132Y3019804D01*
X262500Y3019570D01*
X262887Y3019368D01*
X263290Y3019202D01*
X263706Y3019070D01*
X264132Y3018976D01*
X264564Y3018919D01*
X265000Y3018900D01*
X265000Y3050900D01*
X264564Y3050881D01*
X264132Y3050824D01*
X263706Y3050730D01*
X263290Y3050598D01*
X262887Y3050432D01*
X262500Y3050230D01*
X262132Y3049996D01*
X261786Y3049730D01*
X261464Y3049436D01*
X261170Y3049114D01*
X260904Y3048768D01*
X260670Y3048400D01*
X260468Y3048013D01*
X260302Y3047610D01*
X260170Y3047194D01*
X260076Y3046768D01*
X260019Y3046336D01*
X260000Y3045900D01*
X260000Y3023900D01*
X260000Y3023900D02*
X260019Y3023464D01*
X260076Y3023032D01*
X260170Y3022606D01*
X260302Y3022190D01*
X260468Y3021787D01*
X260670Y3021400D01*
X260904Y3021032D01*
X261170Y3020686D01*
X261464Y3020364D01*
X261786Y3020070D01*
X262132Y3019804D01*
X262500Y3019570D01*
X262887Y3019368D01*
X263290Y3019202D01*
X263706Y3019070D01*
X264132Y3018976D01*
X264564Y3018919D01*
X265000Y3018900D01*
X265436Y3018919D01*
X265868Y3018976D01*
X266294Y3019070D01*
X266710Y3019202D01*
X267113Y3019368D01*
X267500Y3019570D01*
X267868Y3019804D01*
X268214Y3020070D01*
X268536Y3020364D01*
X268830Y3020686D01*
X269096Y3021032D01*
X269330Y3021400D01*
X269532Y3021787D01*
X269698Y3022190D01*
X269830Y3022606D01*
X269924Y3023032D01*
X269981Y3023464D01*
X270000Y3023900D01*
X270000Y3045900D01*
X269981Y3046336D01*
X269924Y3046768D01*
X269830Y3047194D01*
X269698Y3047610D01*
X269532Y3048013D01*
X269330Y3048400D01*
X269096Y3048768D01*
X268830Y3049114D01*
X268536Y3049436D01*
X268214Y3049730D01*
X267868Y3049996D01*
X267500Y3050230D01*
X267113Y3050432D01*
X266710Y3050598D01*
X266294Y3050730D01*
X265868Y3050824D01*
X265436Y3050881D01*
X265000Y3050900D01*
X264564Y3050881D01*
X264132Y3050824D01*
X263706Y3050730D01*
X263290Y3050598D01*
X262887Y3050432D01*
X262500Y3050230D01*
X262132Y3049996D01*
X261786Y3049730D01*
X261464Y3049436D01*
X261170Y3049114D01*
X260904Y3048768D01*
X260670Y3048400D01*
X260468Y3048013D01*
X260302Y3047610D01*
X260170Y3047194D01*
X260076Y3046768D01*
X260019Y3046336D01*
X260000Y3045900D01*
X260000Y3023900D01*
X261460Y2107763D02*
X261384Y2106894D01*
X261232Y2106034D01*
X261006Y2105190D01*
X260708Y2104370D01*
X260339Y2103578D01*
X259902Y2102822D01*
X259401Y2102107D01*
X258840Y2101438D01*
X258222Y2100820D01*
X257553Y2100259D01*
X256838Y2099758D01*
X256082Y2099321D01*
X255290Y2098952D01*
X254470Y2098654D01*
X253626Y2098428D01*
X252767Y2098276D01*
X251897Y2098200D01*
X251023Y2098200D01*
X250154Y2098276D01*
X249294Y2098428D01*
X248450Y2098654D01*
X247630Y2098952D01*
X246838Y2099321D01*
X246082Y2099758D01*
X245367Y2100259D01*
X244698Y2100820D01*
X244080Y2101438D01*
X243519Y2102107D01*
X243018Y2102822D01*
X242581Y2103578D01*
X242212Y2104370D01*
X241914Y2105190D01*
X241688Y2106034D01*
X241536Y2106894D01*
X241460Y2107763D01*
X241460Y2108637D01*
X241536Y2109507D01*
X241688Y2110366D01*
X241914Y2111210D01*
X242212Y2112030D01*
X242581Y2112822D01*
X243018Y2113578D01*
X243519Y2114293D01*
X244080Y2114962D01*
X244698Y2115580D01*
X245367Y2116141D01*
X246082Y2116642D01*
X246838Y2117079D01*
X247630Y2117448D01*
X248450Y2117746D01*
X249294Y2117972D01*
X250154Y2118124D01*
X251023Y2118200D01*
X251897Y2118200D01*
X252767Y2118124D01*
X253626Y2117972D01*
X254470Y2117746D01*
X255290Y2117448D01*
X256082Y2117079D01*
X256838Y2116642D01*
X257553Y2116141D01*
X258222Y2115580D01*
X258840Y2114962D01*
X259401Y2114293D01*
X259902Y2113578D01*
X260339Y2112822D01*
X260708Y2112030D01*
X261006Y2111210D01*
X261232Y2110366D01*
X261384Y2109507D01*
X261460Y2108637D01*
X261460Y2107763D01*
X698340Y2107763D02*
X698264Y2106894D01*
X698112Y2106034D01*
X697886Y2105190D01*
X697588Y2104370D01*
X697219Y2103578D01*
X696782Y2102822D01*
X696281Y2102107D01*
X695720Y2101438D01*
X695102Y2100820D01*
X694433Y2100259D01*
X693718Y2099758D01*
X692962Y2099321D01*
X692170Y2098952D01*
X691350Y2098654D01*
X690506Y2098428D01*
X689647Y2098276D01*
X688777Y2098200D01*
X687903Y2098200D01*
X687034Y2098276D01*
X686174Y2098428D01*
X685330Y2098654D01*
X684510Y2098952D01*
X683718Y2099321D01*
X682962Y2099758D01*
X682247Y2100259D01*
X681578Y2100820D01*
X680960Y2101438D01*
X680399Y2102107D01*
X679898Y2102822D01*
X679461Y2103578D01*
X679092Y2104370D01*
X678794Y2105190D01*
X678568Y2106034D01*
X678416Y2106894D01*
X678340Y2107763D01*
X678340Y2108637D01*
X678416Y2109507D01*
X678568Y2110366D01*
X678794Y2111210D01*
X679092Y2112030D01*
X679461Y2112822D01*
X679898Y2113578D01*
X680399Y2114293D01*
X680960Y2114962D01*
X681578Y2115580D01*
X682247Y2116141D01*
X682962Y2116642D01*
X683718Y2117079D01*
X684510Y2117448D01*
X685330Y2117746D01*
X686174Y2117972D01*
X687034Y2118124D01*
X687903Y2118200D01*
X688777Y2118200D01*
X689647Y2118124D01*
X690506Y2117972D01*
X691350Y2117746D01*
X692170Y2117448D01*
X692962Y2117079D01*
X693718Y2116642D01*
X694433Y2116141D01*
X695102Y2115580D01*
X695720Y2114962D01*
X696281Y2114293D01*
X696782Y2113578D01*
X697219Y2112822D01*
X697588Y2112030D01*
X697886Y2111210D01*
X698112Y2110366D01*
X698264Y2109507D01*
X698340Y2108637D01*
X698340Y2107763D01*
X261460Y1828363D02*
X261384Y1827494D01*
X261232Y1826634D01*
X261006Y1825790D01*
X260708Y1824970D01*
X260339Y1824178D01*
X259902Y1823422D01*
X259401Y1822707D01*
X258840Y1822038D01*
X258222Y1821420D01*
X257553Y1820859D01*
X256838Y1820358D01*
X256082Y1819921D01*
X255290Y1819552D01*
X254470Y1819254D01*
X253626Y1819028D01*
X252767Y1818876D01*
X251897Y1818800D01*
X251023Y1818800D01*
X250154Y1818876D01*
X249294Y1819028D01*
X248450Y1819254D01*
X247630Y1819552D01*
X246838Y1819921D01*
X246082Y1820358D01*
X245367Y1820859D01*
X244698Y1821420D01*
X244080Y1822038D01*
X243519Y1822707D01*
X243018Y1823422D01*
X242581Y1824178D01*
X242212Y1824970D01*
X241914Y1825790D01*
X241688Y1826634D01*
X241536Y1827494D01*
X241460Y1828363D01*
X241460Y1829237D01*
X241536Y1830107D01*
X241688Y1830966D01*
X241914Y1831810D01*
X242212Y1832630D01*
X242581Y1833422D01*
X243018Y1834178D01*
X243519Y1834893D01*
X244080Y1835562D01*
X244698Y1836180D01*
X245367Y1836741D01*
X246082Y1837242D01*
X246838Y1837679D01*
X247630Y1838048D01*
X248450Y1838346D01*
X249294Y1838572D01*
X250154Y1838724D01*
X251023Y1838800D01*
X251897Y1838800D01*
X252767Y1838724D01*
X253626Y1838572D01*
X254470Y1838346D01*
X255290Y1838048D01*
X256082Y1837679D01*
X256838Y1837242D01*
X257553Y1836741D01*
X258222Y1836180D01*
X258840Y1835562D01*
X259401Y1834893D01*
X259902Y1834178D01*
X260339Y1833422D01*
X260708Y1832630D01*
X261006Y1831810D01*
X261232Y1830966D01*
X261384Y1830107D01*
X261460Y1829237D01*
X261460Y1828363D01*
X698340Y1828363D02*
X698264Y1827494D01*
X698112Y1826634D01*
X697886Y1825790D01*
X697588Y1824970D01*
X697219Y1824178D01*
X696782Y1823422D01*
X696281Y1822707D01*
X695720Y1822038D01*
X695102Y1821420D01*
X694433Y1820859D01*
X693718Y1820358D01*
X692962Y1819921D01*
X692170Y1819552D01*
X691350Y1819254D01*
X690506Y1819028D01*
X689647Y1818876D01*
X688777Y1818800D01*
X687903Y1818800D01*
X687034Y1818876D01*
X686174Y1819028D01*
X685330Y1819254D01*
X684510Y1819552D01*
X683718Y1819921D01*
X682962Y1820358D01*
X682247Y1820859D01*
X681578Y1821420D01*
X680960Y1822038D01*
X680399Y1822707D01*
X679898Y1823422D01*
X679461Y1824178D01*
X679092Y1824970D01*
X678794Y1825790D01*
X678568Y1826634D01*
X678416Y1827494D01*
X678340Y1828363D01*
X678340Y1829237D01*
X678416Y1830107D01*
X678568Y1830966D01*
X678794Y1831810D01*
X679092Y1832630D01*
X679461Y1833422D01*
X679898Y1834178D01*
X680399Y1834893D01*
X680960Y1835562D01*
X681578Y1836180D01*
X682247Y1836741D01*
X682962Y1837242D01*
X683718Y1837679D01*
X684510Y1838048D01*
X685330Y1838346D01*
X686174Y1838572D01*
X687034Y1838724D01*
X687903Y1838800D01*
X688777Y1838800D01*
X689647Y1838724D01*
X690506Y1838572D01*
X691350Y1838346D01*
X692170Y1838048D01*
X692962Y1837679D01*
X693718Y1837242D01*
X694433Y1836741D01*
X695102Y1836180D01*
X695720Y1835562D01*
X696281Y1834893D01*
X696782Y1834178D01*
X697219Y1833422D01*
X697588Y1832630D01*
X697886Y1831810D01*
X698112Y1830966D01*
X698264Y1830107D01*
X698340Y1829237D01*
X698340Y1828363D01*
X248600Y1551500D02*
X248529Y1550503D01*
X248386Y1549513D01*
X248174Y1548536D01*
X247892Y1547576D01*
X247543Y1546639D01*
X247127Y1545729D01*
X246648Y1544852D01*
X246107Y1544010D01*
X245508Y1543210D01*
X244853Y1542454D01*
X244146Y1541747D01*
X243390Y1541092D01*
X242590Y1540493D01*
X241748Y1539952D01*
X240871Y1539473D01*
X239961Y1539057D01*
X239024Y1538708D01*
X238065Y1538426D01*
X237087Y1538214D01*
X236098Y1538071D01*
X235100Y1538000D01*
X234100Y1538000D01*
X233103Y1538071D01*
X232113Y1538214D01*
X231136Y1538426D01*
X230176Y1538708D01*
X229239Y1539057D01*
X228329Y1539473D01*
X227452Y1539952D01*
X226610Y1540493D01*
X225810Y1541092D01*
X225054Y1541747D01*
X224347Y1542454D01*
X223692Y1543210D01*
X223093Y1544010D01*
X222552Y1544852D01*
X222073Y1545729D01*
X221657Y1546639D01*
X221308Y1547576D01*
X221026Y1548536D01*
X220814Y1549513D01*
X220671Y1550503D01*
X220600Y1551500D01*
X220600Y1552500D01*
X220671Y1553498D01*
X220814Y1554487D01*
X221026Y1555465D01*
X221308Y1556424D01*
X221657Y1557361D01*
X222073Y1558271D01*
X222552Y1559148D01*
X223093Y1559990D01*
X223692Y1560790D01*
X224347Y1561546D01*
X225054Y1562253D01*
X225810Y1562908D01*
X226610Y1563507D01*
X227452Y1564048D01*
X228329Y1564527D01*
X229239Y1564943D01*
X230176Y1565292D01*
X231136Y1565574D01*
X232113Y1565786D01*
X233103Y1565929D01*
X234100Y1566000D01*
X235100Y1566000D01*
X236098Y1565929D01*
X237087Y1565786D01*
X238065Y1565574D01*
X239024Y1565292D01*
X239961Y1564943D01*
X240871Y1564527D01*
X241748Y1564048D01*
X242590Y1563507D01*
X243390Y1562908D01*
X244146Y1562253D01*
X244853Y1561546D01*
X245508Y1560790D01*
X246107Y1559990D01*
X246648Y1559148D01*
X247127Y1558271D01*
X247543Y1557361D01*
X247892Y1556424D01*
X248174Y1555465D01*
X248386Y1554487D01*
X248529Y1553498D01*
X248600Y1552500D01*
X248600Y1551500D01*
X248600Y1241500D02*
X248529Y1240503D01*
X248386Y1239513D01*
X248174Y1238536D01*
X247892Y1237576D01*
X247543Y1236639D01*
X247127Y1235729D01*
X246648Y1234852D01*
X246107Y1234010D01*
X245508Y1233210D01*
X244853Y1232454D01*
X244146Y1231747D01*
X243390Y1231092D01*
X242590Y1230493D01*
X241748Y1229952D01*
X240871Y1229473D01*
X239961Y1229057D01*
X239024Y1228708D01*
X238065Y1228426D01*
X237087Y1228214D01*
X236098Y1228071D01*
X235100Y1228000D01*
X234100Y1228000D01*
X233103Y1228071D01*
X232113Y1228214D01*
X231136Y1228426D01*
X230176Y1228708D01*
X229239Y1229057D01*
X228329Y1229473D01*
X227452Y1229952D01*
X226610Y1230493D01*
X225810Y1231092D01*
X225054Y1231747D01*
X224347Y1232454D01*
X223692Y1233210D01*
X223093Y1234010D01*
X222552Y1234852D01*
X222073Y1235729D01*
X221657Y1236639D01*
X221308Y1237576D01*
X221026Y1238536D01*
X220814Y1239513D01*
X220671Y1240503D01*
X220600Y1241500D01*
X220600Y1242500D01*
X220671Y1243498D01*
X220814Y1244487D01*
X221026Y1245465D01*
X221308Y1246424D01*
X221657Y1247361D01*
X222073Y1248271D01*
X222552Y1249148D01*
X223093Y1249990D01*
X223692Y1250790D01*
X224347Y1251546D01*
X225054Y1252253D01*
X225810Y1252908D01*
X226610Y1253507D01*
X227452Y1254048D01*
X228329Y1254527D01*
X229239Y1254943D01*
X230176Y1255292D01*
X231136Y1255574D01*
X232113Y1255786D01*
X233103Y1255929D01*
X234100Y1256000D01*
X235100Y1256000D01*
X236098Y1255929D01*
X237087Y1255786D01*
X238065Y1255574D01*
X239024Y1255292D01*
X239961Y1254943D01*
X240871Y1254527D01*
X241748Y1254048D01*
X242590Y1253507D01*
X243390Y1252908D01*
X244146Y1252253D01*
X244853Y1251546D01*
X245508Y1250790D01*
X246107Y1249990D01*
X246648Y1249148D01*
X247127Y1248271D01*
X247543Y1247361D01*
X247892Y1246424D01*
X248174Y1245465D01*
X248386Y1244487D01*
X248529Y1243498D01*
X248600Y1242500D01*
X248600Y1241500D01*
X998600Y1551500D02*
X998529Y1550503D01*
X998386Y1549513D01*
X998174Y1548536D01*
X997892Y1547576D01*
X997543Y1546639D01*
X997127Y1545729D01*
X996648Y1544852D01*
X996107Y1544010D01*
X995508Y1543210D01*
X994853Y1542454D01*
X994146Y1541747D01*
X993390Y1541092D01*
X992590Y1540493D01*
X991748Y1539952D01*
X990871Y1539473D01*
X989961Y1539057D01*
X989024Y1538708D01*
X988065Y1538426D01*
X987087Y1538214D01*
X986098Y1538071D01*
X985100Y1538000D01*
X984100Y1538000D01*
X983103Y1538071D01*
X982113Y1538214D01*
X981136Y1538426D01*
X980176Y1538708D01*
X979239Y1539057D01*
X978329Y1539473D01*
X977452Y1539952D01*
X976610Y1540493D01*
X975810Y1541092D01*
X975054Y1541747D01*
X974347Y1542454D01*
X973692Y1543210D01*
X973093Y1544010D01*
X972552Y1544852D01*
X972073Y1545729D01*
X971657Y1546639D01*
X971308Y1547576D01*
X971026Y1548536D01*
X970814Y1549513D01*
X970671Y1550503D01*
X970600Y1551500D01*
X970600Y1552500D01*
X970671Y1553498D01*
X970814Y1554487D01*
X971026Y1555465D01*
X971308Y1556424D01*
X971657Y1557361D01*
X972073Y1558271D01*
X972552Y1559148D01*
X973093Y1559990D01*
X973692Y1560790D01*
X974347Y1561546D01*
X975054Y1562253D01*
X975810Y1562908D01*
X976610Y1563507D01*
X977452Y1564048D01*
X978329Y1564527D01*
X979239Y1564943D01*
X980176Y1565292D01*
X981136Y1565574D01*
X982113Y1565786D01*
X983103Y1565929D01*
X984100Y1566000D01*
X985100Y1566000D01*
X986098Y1565929D01*
X987087Y1565786D01*
X988065Y1565574D01*
X989024Y1565292D01*
X989961Y1564943D01*
X990871Y1564527D01*
X991748Y1564048D01*
X992590Y1563507D01*
X993390Y1562908D01*
X994146Y1562253D01*
X994853Y1561546D01*
X995508Y1560790D01*
X996107Y1559990D01*
X996648Y1559148D01*
X997127Y1558271D01*
X997543Y1557361D01*
X997892Y1556424D01*
X998174Y1555465D01*
X998386Y1554487D01*
X998529Y1553498D01*
X998600Y1552500D01*
X998600Y1551500D01*
X998600Y1241500D02*
X998529Y1240503D01*
X998386Y1239513D01*
X998174Y1238536D01*
X997892Y1237576D01*
X997543Y1236639D01*
X997127Y1235729D01*
X996648Y1234852D01*
X996107Y1234010D01*
X995508Y1233210D01*
X994853Y1232454D01*
X994146Y1231747D01*
X993390Y1231092D01*
X992590Y1230493D01*
X991748Y1229952D01*
X990871Y1229473D01*
X989961Y1229057D01*
X989024Y1228708D01*
X988065Y1228426D01*
X987087Y1228214D01*
X986098Y1228071D01*
X985100Y1228000D01*
X984100Y1228000D01*
X983103Y1228071D01*
X982113Y1228214D01*
X981136Y1228426D01*
X980176Y1228708D01*
X979239Y1229057D01*
X978329Y1229473D01*
X977452Y1229952D01*
X976610Y1230493D01*
X975810Y1231092D01*
X975054Y1231747D01*
X974347Y1232454D01*
X973692Y1233210D01*
X973093Y1234010D01*
X972552Y1234852D01*
X972073Y1235729D01*
X971657Y1236639D01*
X971308Y1237576D01*
X971026Y1238536D01*
X970814Y1239513D01*
X970671Y1240503D01*
X970600Y1241500D01*
X970600Y1242500D01*
X970671Y1243498D01*
X970814Y1244487D01*
X971026Y1245465D01*
X971308Y1246424D01*
X971657Y1247361D01*
X972073Y1248271D01*
X972552Y1249148D01*
X973093Y1249990D01*
X973692Y1250790D01*
X974347Y1251546D01*
X975054Y1252253D01*
X975810Y1252908D01*
X976610Y1253507D01*
X977452Y1254048D01*
X978329Y1254527D01*
X979239Y1254943D01*
X980176Y1255292D01*
X981136Y1255574D01*
X982113Y1255786D01*
X983103Y1255929D01*
X984100Y1256000D01*
X985100Y1256000D01*
X986098Y1255929D01*
X987087Y1255786D01*
X988065Y1255574D01*
X989024Y1255292D01*
X989961Y1254943D01*
X990871Y1254527D01*
X991748Y1254048D01*
X992590Y1253507D01*
X993390Y1252908D01*
X994146Y1252253D01*
X994853Y1251546D01*
X995508Y1250790D01*
X996107Y1249990D01*
X996648Y1249148D01*
X997127Y1248271D01*
X997543Y1247361D01*
X997892Y1246424D01*
X998174Y1245465D01*
X998386Y1244487D01*
X998529Y1243498D01*
X998600Y1242500D01*
X998600Y1241500D01*
X815580Y884456D02*
X815656Y885524D01*
X815809Y886585D01*
X816037Y887632D01*
X816339Y888660D01*
X816713Y889664D01*
X817158Y890639D01*
X817672Y891579D01*
X818251Y892480D01*
X818893Y893338D01*
X819595Y894148D01*
X820352Y894905D01*
X821162Y895607D01*
X822020Y896249D01*
X822921Y896828D01*
X823861Y897342D01*
X824836Y897787D01*
X825840Y898161D01*
X826868Y898463D01*
X827915Y898691D01*
X828976Y898844D01*
X830044Y898920D01*
X831116Y898920D01*
X832184Y898844D01*
X833245Y898691D01*
X834292Y898463D01*
X835320Y898161D01*
X836324Y897787D01*
X837299Y897342D01*
X838239Y896828D01*
X839140Y896249D01*
X839998Y895607D01*
X840808Y894905D01*
X841565Y894148D01*
X842267Y893338D01*
X842909Y892480D01*
X843488Y891579D01*
X844002Y890639D01*
X844447Y889664D01*
X844821Y888660D01*
X845123Y887632D01*
X845351Y886585D01*
X845504Y885524D01*
X845580Y884456D01*
X845580Y883384D01*
X845504Y882316D01*
X845351Y881255D01*
X845123Y880208D01*
X844821Y879180D01*
X844447Y878176D01*
X844002Y877201D01*
X843488Y876261D01*
X842909Y875360D01*
X842267Y874502D01*
X841565Y873692D01*
X840808Y872935D01*
X839998Y872233D01*
X839140Y871591D01*
X838239Y871012D01*
X837299Y870498D01*
X836324Y870053D01*
X835320Y869679D01*
X834292Y869377D01*
X833245Y869149D01*
X832184Y868996D01*
X831116Y868920D01*
X830044Y868920D01*
X828976Y868996D01*
X827915Y869149D01*
X826868Y869377D01*
X825840Y869679D01*
X824836Y870053D01*
X823861Y870498D01*
X822921Y871012D01*
X822020Y871591D01*
X821162Y872233D01*
X820352Y872935D01*
X819595Y873692D01*
X818893Y874502D01*
X818251Y875360D01*
X817672Y876261D01*
X817158Y877201D01*
X816713Y878176D01*
X816339Y879180D01*
X816037Y880208D01*
X815809Y881255D01*
X815656Y882316D01*
X815580Y883384D01*
X815580Y884456D01*
X518400Y1064796D02*
X518476Y1065864D01*
X518629Y1066925D01*
X518857Y1067972D01*
X519159Y1069000D01*
X519533Y1070004D01*
X519978Y1070979D01*
X520492Y1071919D01*
X521071Y1072820D01*
X521713Y1073678D01*
X522415Y1074488D01*
X523172Y1075245D01*
X523982Y1075947D01*
X524840Y1076589D01*
X525741Y1077168D01*
X526681Y1077682D01*
X527656Y1078127D01*
X528660Y1078501D01*
X529688Y1078803D01*
X530735Y1079031D01*
X531796Y1079184D01*
X532864Y1079260D01*
X533936Y1079260D01*
X535004Y1079184D01*
X536065Y1079031D01*
X537112Y1078803D01*
X538140Y1078501D01*
X539144Y1078127D01*
X540119Y1077682D01*
X541059Y1077168D01*
X541960Y1076589D01*
X542818Y1075947D01*
X543628Y1075245D01*
X544385Y1074488D01*
X545087Y1073678D01*
X545729Y1072820D01*
X546308Y1071919D01*
X546822Y1070979D01*
X547267Y1070004D01*
X547641Y1069000D01*
X547943Y1067972D01*
X548171Y1066925D01*
X548324Y1065864D01*
X548400Y1064796D01*
X548400Y1063724D01*
X548324Y1062656D01*
X548171Y1061595D01*
X547943Y1060548D01*
X547641Y1059520D01*
X547267Y1058516D01*
X546822Y1057541D01*
X546308Y1056601D01*
X545729Y1055700D01*
X545087Y1054842D01*
X544385Y1054032D01*
X543628Y1053275D01*
X542818Y1052573D01*
X541960Y1051931D01*
X541059Y1051352D01*
X540119Y1050838D01*
X539144Y1050393D01*
X538140Y1050019D01*
X537112Y1049717D01*
X536065Y1049489D01*
X535004Y1049336D01*
X533936Y1049260D01*
X532864Y1049260D01*
X531796Y1049336D01*
X530735Y1049489D01*
X529688Y1049717D01*
X528660Y1050019D01*
X527656Y1050393D01*
X526681Y1050838D01*
X525741Y1051352D01*
X524840Y1051931D01*
X523982Y1052573D01*
X523172Y1053275D01*
X522415Y1054032D01*
X521713Y1054842D01*
X521071Y1055700D01*
X520492Y1056601D01*
X519978Y1057541D01*
X519533Y1058516D01*
X519159Y1059520D01*
X518857Y1060548D01*
X518629Y1061595D01*
X518476Y1062656D01*
X518400Y1063724D01*
X518400Y1064796D01*
X279901Y509850D02*
X280900Y509771D01*
X281889Y509615D01*
X282864Y509381D01*
X283816Y509071D01*
X284742Y508688D01*
X285635Y508233D01*
X286489Y507709D01*
X287300Y507121D01*
X288061Y506470D01*
X288770Y505761D01*
X289421Y505000D01*
X290009Y504189D01*
X290533Y503335D01*
X290988Y502442D01*
X291371Y501516D01*
X291681Y500564D01*
X291915Y499589D01*
X292071Y498600D01*
X292150Y497601D01*
X292150Y496599D01*
X292071Y495600D01*
X291915Y494611D01*
X291681Y493636D01*
X291371Y492684D01*
X290988Y491758D01*
X290533Y490865D01*
X290009Y490011D01*
X289421Y489200D01*
X288770Y488439D01*
X288061Y487730D01*
X287300Y487079D01*
X286489Y486491D01*
X285635Y485967D01*
X284742Y485512D01*
X283816Y485129D01*
X282864Y484819D01*
X281889Y484585D01*
X280900Y484429D01*
X279901Y484350D01*
X278899Y484350D01*
X277900Y484429D01*
X276911Y484585D01*
X275936Y484819D01*
X274984Y485129D01*
X274058Y485512D01*
X273165Y485967D01*
X272311Y486491D01*
X271500Y487079D01*
X270739Y487730D01*
X270030Y488439D01*
X269379Y489200D01*
X268791Y490011D01*
X268267Y490865D01*
X267812Y491758D01*
X267429Y492684D01*
X267119Y493636D01*
X266885Y494611D01*
X266729Y495600D01*
X266650Y496599D01*
X266650Y497601D01*
X266729Y498600D01*
X266885Y499589D01*
X267119Y500564D01*
X267429Y501516D01*
X267812Y502442D01*
X268267Y503335D01*
X268791Y504189D01*
X269379Y505000D01*
X270030Y505761D01*
X270739Y506470D01*
X271500Y507121D01*
X272311Y507709D01*
X273165Y508233D01*
X274058Y508688D01*
X274984Y509071D01*
X275936Y509381D01*
X276911Y509615D01*
X277900Y509771D01*
X278899Y509850D01*
X279901Y509850D01*
X279901Y658650D02*
X280900Y658571D01*
X281889Y658415D01*
X282864Y658181D01*
X283816Y657871D01*
X284742Y657488D01*
X285635Y657033D01*
X286489Y656509D01*
X287300Y655921D01*
X288061Y655270D01*
X288770Y654561D01*
X289421Y653800D01*
X290009Y652989D01*
X290533Y652135D01*
X290988Y651242D01*
X291371Y650316D01*
X291681Y649364D01*
X291915Y648389D01*
X292071Y647400D01*
X292150Y646401D01*
X292150Y645399D01*
X292071Y644400D01*
X291915Y643411D01*
X291681Y642436D01*
X291371Y641484D01*
X290988Y640558D01*
X290533Y639665D01*
X290009Y638811D01*
X289421Y638000D01*
X288770Y637239D01*
X288061Y636530D01*
X287300Y635879D01*
X286489Y635291D01*
X285635Y634767D01*
X284742Y634312D01*
X283816Y633929D01*
X282864Y633619D01*
X281889Y633385D01*
X280900Y633229D01*
X279901Y633150D01*
X278899Y633150D01*
X277900Y633229D01*
X276911Y633385D01*
X275936Y633619D01*
X274984Y633929D01*
X274058Y634312D01*
X273165Y634767D01*
X272311Y635291D01*
X271500Y635879D01*
X270739Y636530D01*
X270030Y637239D01*
X269379Y638000D01*
X268791Y638811D01*
X268267Y639665D01*
X267812Y640558D01*
X267429Y641484D01*
X267119Y642436D01*
X266885Y643411D01*
X266729Y644400D01*
X266650Y645399D01*
X266650Y646401D01*
X266729Y647400D01*
X266885Y648389D01*
X267119Y649364D01*
X267429Y650316D01*
X267812Y651242D01*
X268267Y652135D01*
X268791Y652989D01*
X269379Y653800D01*
X270030Y654561D01*
X270739Y655270D01*
X271500Y655921D01*
X272311Y656509D01*
X273165Y657033D01*
X274058Y657488D01*
X274984Y657871D01*
X275936Y658181D01*
X276911Y658415D01*
X277900Y658571D01*
X278899Y658650D01*
X279901Y658650D01*
X279901Y751150D02*
X280900Y751071D01*
X281889Y750915D01*
X282864Y750681D01*
X283816Y750371D01*
X284742Y749988D01*
X285635Y749533D01*
X286489Y749009D01*
X287300Y748421D01*
X288061Y747770D01*
X288770Y747061D01*
X289421Y746300D01*
X290009Y745489D01*
X290533Y744635D01*
X290988Y743742D01*
X291371Y742816D01*
X291681Y741864D01*
X291915Y740889D01*
X292071Y739900D01*
X292150Y738901D01*
X292150Y737899D01*
X292071Y736900D01*
X291915Y735911D01*
X291681Y734936D01*
X291371Y733984D01*
X290988Y733058D01*
X290533Y732165D01*
X290009Y731311D01*
X289421Y730500D01*
X288770Y729739D01*
X288061Y729030D01*
X287300Y728379D01*
X286489Y727791D01*
X285635Y727267D01*
X284742Y726812D01*
X283816Y726429D01*
X282864Y726119D01*
X281889Y725885D01*
X280900Y725729D01*
X279901Y725650D01*
X278899Y725650D01*
X277900Y725729D01*
X276911Y725885D01*
X275936Y726119D01*
X274984Y726429D01*
X274058Y726812D01*
X273165Y727267D01*
X272311Y727791D01*
X271500Y728379D01*
X270739Y729030D01*
X270030Y729739D01*
X269379Y730500D01*
X268791Y731311D01*
X268267Y732165D01*
X267812Y733058D01*
X267429Y733984D01*
X267119Y734936D01*
X266885Y735911D01*
X266729Y736900D01*
X266650Y737899D01*
X266650Y738901D01*
X266729Y739900D01*
X266885Y740889D01*
X267119Y741864D01*
X267429Y742816D01*
X267812Y743742D01*
X268267Y744635D01*
X268791Y745489D01*
X269379Y746300D01*
X270030Y747061D01*
X270739Y747770D01*
X271500Y748421D01*
X272311Y749009D01*
X273165Y749533D01*
X274058Y749988D01*
X274984Y750371D01*
X275936Y750681D01*
X276911Y750915D01*
X277900Y751071D01*
X278899Y751150D01*
X279901Y751150D01*
X279901Y899950D02*
X280900Y899871D01*
X281889Y899715D01*
X282864Y899481D01*
X283816Y899171D01*
X284742Y898788D01*
X285635Y898333D01*
X286489Y897809D01*
X287300Y897221D01*
X288061Y896570D01*
X288770Y895861D01*
X289421Y895100D01*
X290009Y894289D01*
X290533Y893435D01*
X290988Y892542D01*
X291371Y891616D01*
X291681Y890664D01*
X291915Y889689D01*
X292071Y888700D01*
X292150Y887701D01*
X292150Y886699D01*
X292071Y885700D01*
X291915Y884711D01*
X291681Y883736D01*
X291371Y882784D01*
X290988Y881858D01*
X290533Y880965D01*
X290009Y880111D01*
X289421Y879300D01*
X288770Y878539D01*
X288061Y877830D01*
X287300Y877179D01*
X286489Y876591D01*
X285635Y876067D01*
X284742Y875612D01*
X283816Y875229D01*
X282864Y874919D01*
X281889Y874685D01*
X280900Y874529D01*
X279901Y874450D01*
X278899Y874450D01*
X277900Y874529D01*
X276911Y874685D01*
X275936Y874919D01*
X274984Y875229D01*
X274058Y875612D01*
X273165Y876067D01*
X272311Y876591D01*
X271500Y877179D01*
X270739Y877830D01*
X270030Y878539D01*
X269379Y879300D01*
X268791Y880111D01*
X268267Y880965D01*
X267812Y881858D01*
X267429Y882784D01*
X267119Y883736D01*
X266885Y884711D01*
X266729Y885700D01*
X266650Y886699D01*
X266650Y887701D01*
X266729Y888700D01*
X266885Y889689D01*
X267119Y890664D01*
X267429Y891616D01*
X267812Y892542D01*
X268267Y893435D01*
X268791Y894289D01*
X269379Y895100D01*
X270030Y895861D01*
X270739Y896570D01*
X271500Y897221D01*
X272311Y897809D01*
X273165Y898333D01*
X274058Y898788D01*
X274984Y899171D01*
X275936Y899481D01*
X276911Y899715D01*
X277900Y899871D01*
X278899Y899950D01*
X279901Y899950D01*
X279901Y39950D02*
X280900Y39871D01*
X281889Y39715D01*
X282864Y39481D01*
X283816Y39171D01*
X284742Y38788D01*
X285635Y38333D01*
X286489Y37809D01*
X287300Y37221D01*
X288061Y36570D01*
X288770Y35861D01*
X289421Y35100D01*
X290009Y34289D01*
X290533Y33435D01*
X290988Y32542D01*
X291371Y31616D01*
X291681Y30664D01*
X291915Y29689D01*
X292071Y28700D01*
X292150Y27701D01*
X292150Y26699D01*
X292071Y25700D01*
X291915Y24711D01*
X291681Y23736D01*
X291371Y22784D01*
X290988Y21858D01*
X290533Y20965D01*
X290009Y20111D01*
X289421Y19300D01*
X288770Y18539D01*
X288061Y17830D01*
X287300Y17179D01*
X286489Y16591D01*
X285635Y16067D01*
X284742Y15612D01*
X283816Y15229D01*
X282864Y14919D01*
X281889Y14685D01*
X280900Y14529D01*
X279901Y14450D01*
X278899Y14450D01*
X277900Y14529D01*
X276911Y14685D01*
X275936Y14919D01*
X274984Y15229D01*
X274058Y15612D01*
X273165Y16067D01*
X272311Y16591D01*
X271500Y17179D01*
X270739Y17830D01*
X270030Y18539D01*
X269379Y19300D01*
X268791Y20111D01*
X268267Y20965D01*
X267812Y21858D01*
X267429Y22784D01*
X267119Y23736D01*
X266885Y24711D01*
X266729Y25700D01*
X266650Y26699D01*
X266650Y27701D01*
X266729Y28700D01*
X266885Y29689D01*
X267119Y30664D01*
X267429Y31616D01*
X267812Y32542D01*
X268267Y33435D01*
X268791Y34289D01*
X269379Y35100D01*
X270030Y35861D01*
X270739Y36570D01*
X271500Y37221D01*
X272311Y37809D01*
X273165Y38333D01*
X274058Y38788D01*
X274984Y39171D01*
X275936Y39481D01*
X276911Y39715D01*
X277900Y39871D01*
X278899Y39950D01*
X279901Y39950D01*
X279901Y188750D02*
X280900Y188671D01*
X281889Y188515D01*
X282864Y188281D01*
X283816Y187971D01*
X284742Y187588D01*
X285635Y187133D01*
X286489Y186609D01*
X287300Y186021D01*
X288061Y185370D01*
X288770Y184661D01*
X289421Y183900D01*
X290009Y183089D01*
X290533Y182235D01*
X290988Y181342D01*
X291371Y180416D01*
X291681Y179464D01*
X291915Y178489D01*
X292071Y177500D01*
X292150Y176501D01*
X292150Y175499D01*
X292071Y174500D01*
X291915Y173511D01*
X291681Y172536D01*
X291371Y171584D01*
X290988Y170658D01*
X290533Y169765D01*
X290009Y168911D01*
X289421Y168100D01*
X288770Y167339D01*
X288061Y166630D01*
X287300Y165979D01*
X286489Y165391D01*
X285635Y164867D01*
X284742Y164412D01*
X283816Y164029D01*
X282864Y163719D01*
X281889Y163485D01*
X280900Y163329D01*
X279901Y163250D01*
X278899Y163250D01*
X277900Y163329D01*
X276911Y163485D01*
X275936Y163719D01*
X274984Y164029D01*
X274058Y164412D01*
X273165Y164867D01*
X272311Y165391D01*
X271500Y165979D01*
X270739Y166630D01*
X270030Y167339D01*
X269379Y168100D01*
X268791Y168911D01*
X268267Y169765D01*
X267812Y170658D01*
X267429Y171584D01*
X267119Y172536D01*
X266885Y173511D01*
X266729Y174500D01*
X266650Y175499D01*
X266650Y176501D01*
X266729Y177500D01*
X266885Y178489D01*
X267119Y179464D01*
X267429Y180416D01*
X267812Y181342D01*
X268267Y182235D01*
X268791Y183089D01*
X269379Y183900D01*
X270030Y184661D01*
X270739Y185370D01*
X271500Y186021D01*
X272311Y186609D01*
X273165Y187133D01*
X274058Y187588D01*
X274984Y187971D01*
X275936Y188281D01*
X276911Y188515D01*
X277900Y188671D01*
X278899Y188750D01*
X279901Y188750D01*
X279901Y992450D02*
X280900Y992371D01*
X281889Y992215D01*
X282864Y991981D01*
X283816Y991671D01*
X284742Y991288D01*
X285635Y990833D01*
X286489Y990309D01*
X287300Y989721D01*
X288061Y989070D01*
X288770Y988361D01*
X289421Y987600D01*
X290009Y986789D01*
X290533Y985935D01*
X290988Y985042D01*
X291371Y984116D01*
X291681Y983164D01*
X291915Y982189D01*
X292071Y981200D01*
X292150Y980201D01*
X292150Y979199D01*
X292071Y978200D01*
X291915Y977211D01*
X291681Y976236D01*
X291371Y975284D01*
X290988Y974358D01*
X290533Y973465D01*
X290009Y972611D01*
X289421Y971800D01*
X288770Y971039D01*
X288061Y970330D01*
X287300Y969679D01*
X286489Y969091D01*
X285635Y968567D01*
X284742Y968112D01*
X283816Y967729D01*
X282864Y967419D01*
X281889Y967185D01*
X280900Y967029D01*
X279901Y966950D01*
X278899Y966950D01*
X277900Y967029D01*
X276911Y967185D01*
X275936Y967419D01*
X274984Y967729D01*
X274058Y968112D01*
X273165Y968567D01*
X272311Y969091D01*
X271500Y969679D01*
X270739Y970330D01*
X270030Y971039D01*
X269379Y971800D01*
X268791Y972611D01*
X268267Y973465D01*
X267812Y974358D01*
X267429Y975284D01*
X267119Y976236D01*
X266885Y977211D01*
X266729Y978200D01*
X266650Y979199D01*
X266650Y980201D01*
X266729Y981200D01*
X266885Y982189D01*
X267119Y983164D01*
X267429Y984116D01*
X267812Y985042D01*
X268267Y985935D01*
X268791Y986789D01*
X269379Y987600D01*
X270030Y988361D01*
X270739Y989070D01*
X271500Y989721D01*
X272311Y990309D01*
X273165Y990833D01*
X274058Y991288D01*
X274984Y991671D01*
X275936Y991981D01*
X276911Y992215D01*
X277900Y992371D01*
X278899Y992450D01*
X279901Y992450D01*
X279901Y1141250D02*
X280900Y1141171D01*
X281889Y1141015D01*
X282864Y1140781D01*
X283816Y1140471D01*
X284742Y1140088D01*
X285635Y1139633D01*
X286489Y1139109D01*
X287300Y1138521D01*
X288061Y1137870D01*
X288770Y1137161D01*
X289421Y1136400D01*
X290009Y1135589D01*
X290533Y1134735D01*
X290988Y1133842D01*
X291371Y1132916D01*
X291681Y1131964D01*
X291915Y1130989D01*
X292071Y1130000D01*
X292150Y1129001D01*
X292150Y1127999D01*
X292071Y1127000D01*
X291915Y1126011D01*
X291681Y1125036D01*
X291371Y1124084D01*
X290988Y1123158D01*
X290533Y1122265D01*
X290009Y1121411D01*
X289421Y1120600D01*
X288770Y1119839D01*
X288061Y1119130D01*
X287300Y1118479D01*
X286489Y1117891D01*
X285635Y1117367D01*
X284742Y1116912D01*
X283816Y1116529D01*
X282864Y1116219D01*
X281889Y1115985D01*
X280900Y1115829D01*
X279901Y1115750D01*
X278899Y1115750D01*
X277900Y1115829D01*
X276911Y1115985D01*
X275936Y1116219D01*
X274984Y1116529D01*
X274058Y1116912D01*
X273165Y1117367D01*
X272311Y1117891D01*
X271500Y1118479D01*
X270739Y1119130D01*
X270030Y1119839D01*
X269379Y1120600D01*
X268791Y1121411D01*
X268267Y1122265D01*
X267812Y1123158D01*
X267429Y1124084D01*
X267119Y1125036D01*
X266885Y1126011D01*
X266729Y1127000D01*
X266650Y1127999D01*
X266650Y1129001D01*
X266729Y1130000D01*
X266885Y1130989D01*
X267119Y1131964D01*
X267429Y1132916D01*
X267812Y1133842D01*
X268267Y1134735D01*
X268791Y1135589D01*
X269379Y1136400D01*
X270030Y1137161D01*
X270739Y1137870D01*
X271500Y1138521D01*
X272311Y1139109D01*
X273165Y1139633D01*
X274058Y1140088D01*
X274984Y1140471D01*
X275936Y1140781D01*
X276911Y1141015D01*
X277900Y1141171D01*
X278899Y1141250D01*
X279901Y1141250D01*
X279901Y281250D02*
X280900Y281171D01*
X281889Y281015D01*
X282864Y280781D01*
X283816Y280471D01*
X284742Y280088D01*
X285635Y279633D01*
X286489Y279109D01*
X287300Y278521D01*
X288061Y277870D01*
X288770Y277161D01*
X289421Y276400D01*
X290009Y275589D01*
X290533Y274735D01*
X290988Y273842D01*
X291371Y272916D01*
X291681Y271964D01*
X291915Y270989D01*
X292071Y270000D01*
X292150Y269001D01*
X292150Y267999D01*
X292071Y267000D01*
X291915Y266011D01*
X291681Y265036D01*
X291371Y264084D01*
X290988Y263158D01*
X290533Y262265D01*
X290009Y261411D01*
X289421Y260600D01*
X288770Y259839D01*
X288061Y259130D01*
X287300Y258479D01*
X286489Y257891D01*
X285635Y257367D01*
X284742Y256912D01*
X283816Y256529D01*
X282864Y256219D01*
X281889Y255985D01*
X280900Y255829D01*
X279901Y255750D01*
X278899Y255750D01*
X277900Y255829D01*
X276911Y255985D01*
X275936Y256219D01*
X274984Y256529D01*
X274058Y256912D01*
X273165Y257367D01*
X272311Y257891D01*
X271500Y258479D01*
X270739Y259130D01*
X270030Y259839D01*
X269379Y260600D01*
X268791Y261411D01*
X268267Y262265D01*
X267812Y263158D01*
X267429Y264084D01*
X267119Y265036D01*
X266885Y266011D01*
X266729Y267000D01*
X266650Y267999D01*
X266650Y269001D01*
X266729Y270000D01*
X266885Y270989D01*
X267119Y271964D01*
X267429Y272916D01*
X267812Y273842D01*
X268267Y274735D01*
X268791Y275589D01*
X269379Y276400D01*
X270030Y277161D01*
X270739Y277870D01*
X271500Y278521D01*
X272311Y279109D01*
X273165Y279633D01*
X274058Y280088D01*
X274984Y280471D01*
X275936Y280781D01*
X276911Y281015D01*
X277900Y281171D01*
X278899Y281250D01*
X279901Y281250D01*
X279901Y430050D02*
X280900Y429971D01*
X281889Y429815D01*
X282864Y429581D01*
X283816Y429271D01*
X284742Y428888D01*
X285635Y428433D01*
X286489Y427909D01*
X287300Y427321D01*
X288061Y426670D01*
X288770Y425961D01*
X289421Y425200D01*
X290009Y424389D01*
X290533Y423535D01*
X290988Y422642D01*
X291371Y421716D01*
X291681Y420764D01*
X291915Y419789D01*
X292071Y418800D01*
X292150Y417801D01*
X292150Y416799D01*
X292071Y415800D01*
X291915Y414811D01*
X291681Y413836D01*
X291371Y412884D01*
X290988Y411958D01*
X290533Y411065D01*
X290009Y410211D01*
X289421Y409400D01*
X288770Y408639D01*
X288061Y407930D01*
X287300Y407279D01*
X286489Y406691D01*
X285635Y406167D01*
X284742Y405712D01*
X283816Y405329D01*
X282864Y405019D01*
X281889Y404785D01*
X280900Y404629D01*
X279901Y404550D01*
X278899Y404550D01*
X277900Y404629D01*
X276911Y404785D01*
X275936Y405019D01*
X274984Y405329D01*
X274058Y405712D01*
X273165Y406167D01*
X272311Y406691D01*
X271500Y407279D01*
X270739Y407930D01*
X270030Y408639D01*
X269379Y409400D01*
X268791Y410211D01*
X268267Y411065D01*
X267812Y411958D01*
X267429Y412884D01*
X267119Y413836D01*
X266885Y414811D01*
X266729Y415800D01*
X266650Y416799D01*
X266650Y417801D01*
X266729Y418800D01*
X266885Y419789D01*
X267119Y420764D01*
X267429Y421716D01*
X267812Y422642D01*
X268267Y423535D01*
X268791Y424389D01*
X269379Y425200D01*
X270030Y425961D01*
X270739Y426670D01*
X271500Y427321D01*
X272311Y427909D01*
X273165Y428433D01*
X274058Y428888D01*
X274984Y429271D01*
X275936Y429581D01*
X276911Y429815D01*
X277900Y429971D01*
X278899Y430050D01*
X279901Y430050D01*
X2587500Y1687084D02*
X2587569Y1688129D01*
X2587705Y1689168D01*
X2587910Y1690195D01*
X2588181Y1691207D01*
X2588517Y1692199D01*
X2588918Y1693167D01*
X2589382Y1694106D01*
X2589906Y1695014D01*
X2590488Y1695885D01*
X2591125Y1696716D01*
X2591816Y1697503D01*
X2592557Y1698244D01*
X2593344Y1698935D01*
X2594175Y1699573D01*
X2595046Y1700155D01*
X2595954Y1700678D01*
X2596893Y1701142D01*
X2597861Y1701543D01*
X2598853Y1701879D01*
X2599865Y1702150D01*
X2600892Y1702355D01*
X2601931Y1702492D01*
X2602976Y1702560D01*
X2604024Y1702560D01*
X2605069Y1702492D01*
X2606108Y1702355D01*
X2607135Y1702150D01*
X2608147Y1701879D01*
X2609139Y1701543D01*
X2610107Y1701142D01*
X2611046Y1700678D01*
X2611954Y1700155D01*
X2612825Y1699573D01*
X2613656Y1698935D01*
X2614443Y1698244D01*
X2615184Y1697503D01*
X2615875Y1696716D01*
X2616513Y1695885D01*
X2617095Y1695014D01*
X2617618Y1694106D01*
X2618082Y1693167D01*
X2618483Y1692199D01*
X2618819Y1691207D01*
X2619090Y1690195D01*
X2619295Y1689168D01*
X2619432Y1688129D01*
X2619500Y1687084D01*
X2619500Y1686036D01*
X2619432Y1684991D01*
X2619295Y1683952D01*
X2619090Y1682925D01*
X2618819Y1681913D01*
X2618483Y1680921D01*
X2618082Y1679953D01*
X2617618Y1679014D01*
X2617095Y1678106D01*
X2616513Y1677235D01*
X2615875Y1676404D01*
X2615184Y1675617D01*
X2614443Y1674876D01*
X2613656Y1674185D01*
X2612825Y1673548D01*
X2611954Y1672966D01*
X2611046Y1672442D01*
X2610107Y1671978D01*
X2609139Y1671577D01*
X2608147Y1671241D01*
X2607135Y1670970D01*
X2606108Y1670765D01*
X2605069Y1670629D01*
X2604024Y1670560D01*
X2602976Y1670560D01*
X2601931Y1670629D01*
X2600892Y1670765D01*
X2599865Y1670970D01*
X2598853Y1671241D01*
X2597861Y1671577D01*
X2596893Y1671978D01*
X2595954Y1672442D01*
X2595046Y1672966D01*
X2594175Y1673548D01*
X2593344Y1674185D01*
X2592557Y1674876D01*
X2591816Y1675617D01*
X2591125Y1676404D01*
X2590488Y1677235D01*
X2589906Y1678106D01*
X2589382Y1679014D01*
X2588918Y1679953D01*
X2588517Y1680921D01*
X2588181Y1681913D01*
X2587910Y1682925D01*
X2587705Y1683952D01*
X2587569Y1684991D01*
X2587500Y1686036D01*
X2587500Y1687084D01*
X2079500Y1687084D02*
X2079569Y1688129D01*
X2079705Y1689168D01*
X2079910Y1690195D01*
X2080181Y1691207D01*
X2080517Y1692199D01*
X2080918Y1693167D01*
X2081382Y1694106D01*
X2081906Y1695014D01*
X2082488Y1695885D01*
X2083125Y1696716D01*
X2083816Y1697503D01*
X2084557Y1698244D01*
X2085344Y1698935D01*
X2086175Y1699573D01*
X2087046Y1700155D01*
X2087954Y1700678D01*
X2088893Y1701142D01*
X2089861Y1701543D01*
X2090853Y1701879D01*
X2091865Y1702150D01*
X2092892Y1702355D01*
X2093931Y1702492D01*
X2094976Y1702560D01*
X2096024Y1702560D01*
X2097069Y1702492D01*
X2098108Y1702355D01*
X2099135Y1702150D01*
X2100147Y1701879D01*
X2101139Y1701543D01*
X2102107Y1701142D01*
X2103046Y1700678D01*
X2103954Y1700155D01*
X2104825Y1699573D01*
X2105656Y1698935D01*
X2106443Y1698244D01*
X2107184Y1697503D01*
X2107875Y1696716D01*
X2108513Y1695885D01*
X2109095Y1695014D01*
X2109618Y1694106D01*
X2110082Y1693167D01*
X2110483Y1692199D01*
X2110819Y1691207D01*
X2111090Y1690195D01*
X2111295Y1689168D01*
X2111432Y1688129D01*
X2111500Y1687084D01*
X2111500Y1686036D01*
X2111432Y1684991D01*
X2111295Y1683952D01*
X2111090Y1682925D01*
X2110819Y1681913D01*
X2110483Y1680921D01*
X2110082Y1679953D01*
X2109618Y1679014D01*
X2109095Y1678106D01*
X2108513Y1677235D01*
X2107875Y1676404D01*
X2107184Y1675617D01*
X2106443Y1674876D01*
X2105656Y1674185D01*
X2104825Y1673548D01*
X2103954Y1672966D01*
X2103046Y1672442D01*
X2102107Y1671978D01*
X2101139Y1671577D01*
X2100147Y1671241D01*
X2099135Y1670970D01*
X2098108Y1670765D01*
X2097069Y1670629D01*
X2096024Y1670560D01*
X2094976Y1670560D01*
X2093931Y1670629D01*
X2092892Y1670765D01*
X2091865Y1670970D01*
X2090853Y1671241D01*
X2089861Y1671577D01*
X2088893Y1671978D01*
X2087954Y1672442D01*
X2087046Y1672966D01*
X2086175Y1673548D01*
X2085344Y1674185D01*
X2084557Y1674876D01*
X2083816Y1675617D01*
X2083125Y1676404D01*
X2082488Y1677235D01*
X2081906Y1678106D01*
X2081382Y1679014D01*
X2080918Y1679953D01*
X2080517Y1680921D01*
X2080181Y1681913D01*
X2079910Y1682925D01*
X2079705Y1683952D01*
X2079569Y1684991D01*
X2079500Y1686036D01*
X2079500Y1687084D01*
X2079500Y3012964D02*
X2079569Y3014009D01*
X2079705Y3015048D01*
X2079910Y3016075D01*
X2080181Y3017087D01*
X2080517Y3018079D01*
X2080918Y3019047D01*
X2081382Y3019986D01*
X2081906Y3020894D01*
X2082488Y3021765D01*
X2083125Y3022596D01*
X2083816Y3023383D01*
X2084557Y3024124D01*
X2085344Y3024815D01*
X2086175Y3025453D01*
X2087046Y3026035D01*
X2087954Y3026558D01*
X2088893Y3027022D01*
X2089861Y3027423D01*
X2090853Y3027759D01*
X2091865Y3028030D01*
X2092892Y3028235D01*
X2093931Y3028372D01*
X2094976Y3028440D01*
X2096024Y3028440D01*
X2097069Y3028372D01*
X2098108Y3028235D01*
X2099135Y3028030D01*
X2100147Y3027759D01*
X2101139Y3027423D01*
X2102107Y3027022D01*
X2103046Y3026558D01*
X2103954Y3026035D01*
X2104825Y3025453D01*
X2105656Y3024815D01*
X2106443Y3024124D01*
X2107184Y3023383D01*
X2107875Y3022596D01*
X2108513Y3021765D01*
X2109095Y3020894D01*
X2109618Y3019986D01*
X2110082Y3019047D01*
X2110483Y3018079D01*
X2110819Y3017087D01*
X2111090Y3016075D01*
X2111295Y3015048D01*
X2111432Y3014009D01*
X2111500Y3012964D01*
X2111500Y3011916D01*
X2111432Y3010871D01*
X2111295Y3009832D01*
X2111090Y3008805D01*
X2110819Y3007793D01*
X2110483Y3006801D01*
X2110082Y3005833D01*
X2109618Y3004894D01*
X2109095Y3003986D01*
X2108513Y3003115D01*
X2107875Y3002284D01*
X2107184Y3001497D01*
X2106443Y3000756D01*
X2105656Y3000065D01*
X2104825Y2999428D01*
X2103954Y2998846D01*
X2103046Y2998322D01*
X2102107Y2997858D01*
X2101139Y2997457D01*
X2100147Y2997121D01*
X2099135Y2996850D01*
X2098108Y2996645D01*
X2097069Y2996509D01*
X2096024Y2996440D01*
X2094976Y2996440D01*
X2093931Y2996509D01*
X2092892Y2996645D01*
X2091865Y2996850D01*
X2090853Y2997121D01*
X2089861Y2997457D01*
X2088893Y2997858D01*
X2087954Y2998322D01*
X2087046Y2998846D01*
X2086175Y2999428D01*
X2085344Y3000065D01*
X2084557Y3000756D01*
X2083816Y3001497D01*
X2083125Y3002284D01*
X2082488Y3003115D01*
X2081906Y3003986D01*
X2081382Y3004894D01*
X2080918Y3005833D01*
X2080517Y3006801D01*
X2080181Y3007793D01*
X2079910Y3008805D01*
X2079705Y3009832D01*
X2079569Y3010871D01*
X2079500Y3011916D01*
X2079500Y3012964D01*
X2587500Y3012964D02*
X2587569Y3014009D01*
X2587705Y3015048D01*
X2587910Y3016075D01*
X2588181Y3017087D01*
X2588517Y3018079D01*
X2588918Y3019047D01*
X2589382Y3019986D01*
X2589906Y3020894D01*
X2590488Y3021765D01*
X2591125Y3022596D01*
X2591816Y3023383D01*
X2592557Y3024124D01*
X2593344Y3024815D01*
X2594175Y3025453D01*
X2595046Y3026035D01*
X2595954Y3026558D01*
X2596893Y3027022D01*
X2597861Y3027423D01*
X2598853Y3027759D01*
X2599865Y3028030D01*
X2600892Y3028235D01*
X2601931Y3028372D01*
X2602976Y3028440D01*
X2604024Y3028440D01*
X2605069Y3028372D01*
X2606108Y3028235D01*
X2607135Y3028030D01*
X2608147Y3027759D01*
X2609139Y3027423D01*
X2610107Y3027022D01*
X2611046Y3026558D01*
X2611954Y3026035D01*
X2612825Y3025453D01*
X2613656Y3024815D01*
X2614443Y3024124D01*
X2615184Y3023383D01*
X2615875Y3022596D01*
X2616513Y3021765D01*
X2617095Y3020894D01*
X2617618Y3019986D01*
X2618082Y3019047D01*
X2618483Y3018079D01*
X2618819Y3017087D01*
X2619090Y3016075D01*
X2619295Y3015048D01*
X2619432Y3014009D01*
X2619500Y3012964D01*
X2619500Y3011916D01*
X2619432Y3010871D01*
X2619295Y3009832D01*
X2619090Y3008805D01*
X2618819Y3007793D01*
X2618483Y3006801D01*
X2618082Y3005833D01*
X2617618Y3004894D01*
X2617095Y3003986D01*
X2616513Y3003115D01*
X2615875Y3002284D01*
X2615184Y3001497D01*
X2614443Y3000756D01*
X2613656Y3000065D01*
X2612825Y2999428D01*
X2611954Y2998846D01*
X2611046Y2998322D01*
X2610107Y2997858D01*
X2609139Y2997457D01*
X2608147Y2997121D01*
X2607135Y2996850D01*
X2606108Y2996645D01*
X2605069Y2996509D01*
X2604024Y2996440D01*
X2602976Y2996440D01*
X2601931Y2996509D01*
X2600892Y2996645D01*
X2599865Y2996850D01*
X2598853Y2997121D01*
X2597861Y2997457D01*
X2596893Y2997858D01*
X2595954Y2998322D01*
X2595046Y2998846D01*
X2594175Y2999428D01*
X2593344Y3000065D01*
X2592557Y3000756D01*
X2591816Y3001497D01*
X2591125Y3002284D01*
X2590488Y3003115D01*
X2589906Y3003986D01*
X2589382Y3004894D01*
X2588918Y3005833D01*
X2588517Y3006801D01*
X2588181Y3007793D01*
X2587910Y3008805D01*
X2587705Y3009832D01*
X2587569Y3010871D01*
X2587500Y3011916D01*
X2587500Y3012964D01*
X2587500Y251984D02*
X2587569Y253029D01*
X2587705Y254068D01*
X2587910Y255095D01*
X2588181Y256107D01*
X2588517Y257099D01*
X2588918Y258067D01*
X2589382Y259006D01*
X2589906Y259914D01*
X2590488Y260785D01*
X2591125Y261616D01*
X2591816Y262403D01*
X2592557Y263144D01*
X2593344Y263835D01*
X2594175Y264473D01*
X2595046Y265055D01*
X2595954Y265578D01*
X2596893Y266042D01*
X2597861Y266443D01*
X2598853Y266779D01*
X2599865Y267050D01*
X2600892Y267255D01*
X2601931Y267392D01*
X2602976Y267460D01*
X2604024Y267460D01*
X2605069Y267392D01*
X2606108Y267255D01*
X2607135Y267050D01*
X2608147Y266779D01*
X2609139Y266443D01*
X2610107Y266042D01*
X2611046Y265578D01*
X2611954Y265055D01*
X2612825Y264473D01*
X2613656Y263835D01*
X2614443Y263144D01*
X2615184Y262403D01*
X2615875Y261616D01*
X2616513Y260785D01*
X2617095Y259914D01*
X2617618Y259006D01*
X2618082Y258067D01*
X2618483Y257099D01*
X2618819Y256107D01*
X2619090Y255095D01*
X2619295Y254068D01*
X2619432Y253029D01*
X2619500Y251984D01*
X2619500Y250936D01*
X2619432Y249891D01*
X2619295Y248852D01*
X2619090Y247825D01*
X2618819Y246813D01*
X2618483Y245821D01*
X2618082Y244853D01*
X2617618Y243914D01*
X2617095Y243006D01*
X2616513Y242135D01*
X2615875Y241304D01*
X2615184Y240517D01*
X2614443Y239776D01*
X2613656Y239085D01*
X2612825Y238448D01*
X2611954Y237866D01*
X2611046Y237342D01*
X2610107Y236878D01*
X2609139Y236477D01*
X2608147Y236141D01*
X2607135Y235870D01*
X2606108Y235665D01*
X2605069Y235529D01*
X2604024Y235460D01*
X2602976Y235460D01*
X2601931Y235529D01*
X2600892Y235665D01*
X2599865Y235870D01*
X2598853Y236141D01*
X2597861Y236477D01*
X2596893Y236878D01*
X2595954Y237342D01*
X2595046Y237866D01*
X2594175Y238448D01*
X2593344Y239085D01*
X2592557Y239776D01*
X2591816Y240517D01*
X2591125Y241304D01*
X2590488Y242135D01*
X2589906Y243006D01*
X2589382Y243914D01*
X2588918Y244853D01*
X2588517Y245821D01*
X2588181Y246813D01*
X2587910Y247825D01*
X2587705Y248852D01*
X2587569Y249891D01*
X2587500Y250936D01*
X2587500Y251984D01*
X2079500Y251984D02*
X2079569Y253029D01*
X2079705Y254068D01*
X2079910Y255095D01*
X2080181Y256107D01*
X2080517Y257099D01*
X2080918Y258067D01*
X2081382Y259006D01*
X2081906Y259914D01*
X2082488Y260785D01*
X2083125Y261616D01*
X2083816Y262403D01*
X2084557Y263144D01*
X2085344Y263835D01*
X2086175Y264473D01*
X2087046Y265055D01*
X2087954Y265578D01*
X2088893Y266042D01*
X2089861Y266443D01*
X2090853Y266779D01*
X2091865Y267050D01*
X2092892Y267255D01*
X2093931Y267392D01*
X2094976Y267460D01*
X2096024Y267460D01*
X2097069Y267392D01*
X2098108Y267255D01*
X2099135Y267050D01*
X2100147Y266779D01*
X2101139Y266443D01*
X2102107Y266042D01*
X2103046Y265578D01*
X2103954Y265055D01*
X2104825Y264473D01*
X2105656Y263835D01*
X2106443Y263144D01*
X2107184Y262403D01*
X2107875Y261616D01*
X2108513Y260785D01*
X2109095Y259914D01*
X2109618Y259006D01*
X2110082Y258067D01*
X2110483Y257099D01*
X2110819Y256107D01*
X2111090Y255095D01*
X2111295Y254068D01*
X2111432Y253029D01*
X2111500Y251984D01*
X2111500Y250936D01*
X2111432Y249891D01*
X2111295Y248852D01*
X2111090Y247825D01*
X2110819Y246813D01*
X2110483Y245821D01*
X2110082Y244853D01*
X2109618Y243914D01*
X2109095Y243006D01*
X2108513Y242135D01*
X2107875Y241304D01*
X2107184Y240517D01*
X2106443Y239776D01*
X2105656Y239085D01*
X2104825Y238448D01*
X2103954Y237866D01*
X2103046Y237342D01*
X2102107Y236878D01*
X2101139Y236477D01*
X2100147Y236141D01*
X2099135Y235870D01*
X2098108Y235665D01*
X2097069Y235529D01*
X2096024Y235460D01*
X2094976Y235460D01*
X2093931Y235529D01*
X2092892Y235665D01*
X2091865Y235870D01*
X2090853Y236141D01*
X2089861Y236477D01*
X2088893Y236878D01*
X2087954Y237342D01*
X2087046Y237866D01*
X2086175Y238448D01*
X2085344Y239085D01*
X2084557Y239776D01*
X2083816Y240517D01*
X2083125Y241304D01*
X2082488Y242135D01*
X2081906Y243006D01*
X2081382Y243914D01*
X2080918Y244853D01*
X2080517Y245821D01*
X2080181Y246813D01*
X2079910Y247825D01*
X2079705Y248852D01*
X2079569Y249891D01*
X2079500Y250936D01*
X2079500Y251984D01*
X2079500Y1577864D02*
X2079569Y1578909D01*
X2079705Y1579948D01*
X2079910Y1580975D01*
X2080181Y1581987D01*
X2080517Y1582979D01*
X2080918Y1583947D01*
X2081382Y1584886D01*
X2081906Y1585794D01*
X2082488Y1586665D01*
X2083125Y1587496D01*
X2083816Y1588283D01*
X2084557Y1589024D01*
X2085344Y1589715D01*
X2086175Y1590353D01*
X2087046Y1590935D01*
X2087954Y1591458D01*
X2088893Y1591922D01*
X2089861Y1592323D01*
X2090853Y1592659D01*
X2091865Y1592930D01*
X2092892Y1593135D01*
X2093931Y1593272D01*
X2094976Y1593340D01*
X2096024Y1593340D01*
X2097069Y1593272D01*
X2098108Y1593135D01*
X2099135Y1592930D01*
X2100147Y1592659D01*
X2101139Y1592323D01*
X2102107Y1591922D01*
X2103046Y1591458D01*
X2103954Y1590935D01*
X2104825Y1590353D01*
X2105656Y1589715D01*
X2106443Y1589024D01*
X2107184Y1588283D01*
X2107875Y1587496D01*
X2108513Y1586665D01*
X2109095Y1585794D01*
X2109618Y1584886D01*
X2110082Y1583947D01*
X2110483Y1582979D01*
X2110819Y1581987D01*
X2111090Y1580975D01*
X2111295Y1579948D01*
X2111432Y1578909D01*
X2111500Y1577864D01*
X2111500Y1576816D01*
X2111432Y1575771D01*
X2111295Y1574732D01*
X2111090Y1573705D01*
X2110819Y1572693D01*
X2110483Y1571701D01*
X2110082Y1570733D01*
X2109618Y1569794D01*
X2109095Y1568886D01*
X2108513Y1568015D01*
X2107875Y1567184D01*
X2107184Y1566397D01*
X2106443Y1565656D01*
X2105656Y1564965D01*
X2104825Y1564328D01*
X2103954Y1563746D01*
X2103046Y1563222D01*
X2102107Y1562758D01*
X2101139Y1562357D01*
X2100147Y1562021D01*
X2099135Y1561750D01*
X2098108Y1561545D01*
X2097069Y1561409D01*
X2096024Y1561340D01*
X2094976Y1561340D01*
X2093931Y1561409D01*
X2092892Y1561545D01*
X2091865Y1561750D01*
X2090853Y1562021D01*
X2089861Y1562357D01*
X2088893Y1562758D01*
X2087954Y1563222D01*
X2087046Y1563746D01*
X2086175Y1564328D01*
X2085344Y1564965D01*
X2084557Y1565656D01*
X2083816Y1566397D01*
X2083125Y1567184D01*
X2082488Y1568015D01*
X2081906Y1568886D01*
X2081382Y1569794D01*
X2080918Y1570733D01*
X2080517Y1571701D01*
X2080181Y1572693D01*
X2079910Y1573705D01*
X2079705Y1574732D01*
X2079569Y1575771D01*
X2079500Y1576816D01*
X2079500Y1577864D01*
X2587500Y1577864D02*
X2587569Y1578909D01*
X2587705Y1579948D01*
X2587910Y1580975D01*
X2588181Y1581987D01*
X2588517Y1582979D01*
X2588918Y1583947D01*
X2589382Y1584886D01*
X2589906Y1585794D01*
X2590488Y1586665D01*
X2591125Y1587496D01*
X2591816Y1588283D01*
X2592557Y1589024D01*
X2593344Y1589715D01*
X2594175Y1590353D01*
X2595046Y1590935D01*
X2595954Y1591458D01*
X2596893Y1591922D01*
X2597861Y1592323D01*
X2598853Y1592659D01*
X2599865Y1592930D01*
X2600892Y1593135D01*
X2601931Y1593272D01*
X2602976Y1593340D01*
X2604024Y1593340D01*
X2605069Y1593272D01*
X2606108Y1593135D01*
X2607135Y1592930D01*
X2608147Y1592659D01*
X2609139Y1592323D01*
X2610107Y1591922D01*
X2611046Y1591458D01*
X2611954Y1590935D01*
X2612825Y1590353D01*
X2613656Y1589715D01*
X2614443Y1589024D01*
X2615184Y1588283D01*
X2615875Y1587496D01*
X2616513Y1586665D01*
X2617095Y1585794D01*
X2617618Y1584886D01*
X2618082Y1583947D01*
X2618483Y1582979D01*
X2618819Y1581987D01*
X2619090Y1580975D01*
X2619295Y1579948D01*
X2619432Y1578909D01*
X2619500Y1577864D01*
X2619500Y1576816D01*
X2619432Y1575771D01*
X2619295Y1574732D01*
X2619090Y1573705D01*
X2618819Y1572693D01*
X2618483Y1571701D01*
X2618082Y1570733D01*
X2617618Y1569794D01*
X2617095Y1568886D01*
X2616513Y1568015D01*
X2615875Y1567184D01*
X2615184Y1566397D01*
X2614443Y1565656D01*
X2613656Y1564965D01*
X2612825Y1564328D01*
X2611954Y1563746D01*
X2611046Y1563222D01*
X2610107Y1562758D01*
X2609139Y1562357D01*
X2608147Y1562021D01*
X2607135Y1561750D01*
X2606108Y1561545D01*
X2605069Y1561409D01*
X2604024Y1561340D01*
X2602976Y1561340D01*
X2601931Y1561409D01*
X2600892Y1561545D01*
X2599865Y1561750D01*
X2598853Y1562021D01*
X2597861Y1562357D01*
X2596893Y1562758D01*
X2595954Y1563222D01*
X2595046Y1563746D01*
X2594175Y1564328D01*
X2593344Y1564965D01*
X2592557Y1565656D01*
X2591816Y1566397D01*
X2591125Y1567184D01*
X2590488Y1568015D01*
X2589906Y1568886D01*
X2589382Y1569794D01*
X2588918Y1570733D01*
X2588517Y1571701D01*
X2588181Y1572693D01*
X2587910Y1573705D01*
X2587705Y1574732D01*
X2587569Y1575771D01*
X2587500Y1576816D01*
X2587500Y1577864D01*
X594884Y231900D02*
X595929Y231832D01*
X596968Y231695D01*
X597995Y231490D01*
X599007Y231219D01*
X599999Y230883D01*
X600967Y230482D01*
X601906Y230018D01*
X602814Y229495D01*
X603685Y228913D01*
X604516Y228275D01*
X605303Y227584D01*
X606044Y226843D01*
X606735Y226056D01*
X607373Y225225D01*
X607955Y224354D01*
X608478Y223446D01*
X608942Y222507D01*
X609343Y221539D01*
X609679Y220547D01*
X609950Y219535D01*
X610155Y218508D01*
X610292Y217469D01*
X610360Y216424D01*
X610360Y215376D01*
X610292Y214331D01*
X610155Y213292D01*
X609950Y212265D01*
X609679Y211253D01*
X609343Y210261D01*
X608942Y209293D01*
X608478Y208354D01*
X607955Y207446D01*
X607373Y206575D01*
X606735Y205744D01*
X606044Y204957D01*
X605303Y204216D01*
X604516Y203525D01*
X603685Y202888D01*
X602814Y202306D01*
X601906Y201782D01*
X600967Y201318D01*
X599999Y200917D01*
X599007Y200581D01*
X597995Y200310D01*
X596968Y200105D01*
X595929Y199969D01*
X594884Y199900D01*
X593836Y199900D01*
X592791Y199969D01*
X591752Y200105D01*
X590725Y200310D01*
X589713Y200581D01*
X588721Y200917D01*
X587753Y201318D01*
X586814Y201782D01*
X585906Y202306D01*
X585035Y202888D01*
X584204Y203525D01*
X583417Y204216D01*
X582676Y204957D01*
X581985Y205744D01*
X581348Y206575D01*
X580766Y207446D01*
X580242Y208354D01*
X579778Y209293D01*
X579377Y210261D01*
X579041Y211253D01*
X578770Y212265D01*
X578565Y213292D01*
X578429Y214331D01*
X578360Y215376D01*
X578360Y216424D01*
X578429Y217469D01*
X578565Y218508D01*
X578770Y219535D01*
X579041Y220547D01*
X579377Y221539D01*
X579778Y222507D01*
X580242Y223446D01*
X580766Y224354D01*
X581348Y225225D01*
X581985Y226056D01*
X582676Y226843D01*
X583417Y227584D01*
X584204Y228275D01*
X585035Y228913D01*
X585906Y229495D01*
X586814Y230018D01*
X587753Y230482D01*
X588721Y230883D01*
X589713Y231219D01*
X590725Y231490D01*
X591752Y231695D01*
X592791Y231832D01*
X593836Y231900D01*
X594884Y231900D01*
X594884Y739900D02*
X595929Y739832D01*
X596968Y739695D01*
X597995Y739490D01*
X599007Y739219D01*
X599999Y738883D01*
X600967Y738482D01*
X601906Y738018D01*
X602814Y737495D01*
X603685Y736913D01*
X604516Y736275D01*
X605303Y735584D01*
X606044Y734843D01*
X606735Y734056D01*
X607373Y733225D01*
X607955Y732354D01*
X608478Y731446D01*
X608942Y730507D01*
X609343Y729539D01*
X609679Y728547D01*
X609950Y727535D01*
X610155Y726508D01*
X610292Y725469D01*
X610360Y724424D01*
X610360Y723376D01*
X610292Y722331D01*
X610155Y721292D01*
X609950Y720265D01*
X609679Y719253D01*
X609343Y718261D01*
X608942Y717293D01*
X608478Y716354D01*
X607955Y715446D01*
X607373Y714575D01*
X606735Y713744D01*
X606044Y712957D01*
X605303Y712216D01*
X604516Y711525D01*
X603685Y710888D01*
X602814Y710306D01*
X601906Y709782D01*
X600967Y709318D01*
X599999Y708917D01*
X599007Y708581D01*
X597995Y708310D01*
X596968Y708105D01*
X595929Y707969D01*
X594884Y707900D01*
X593836Y707900D01*
X592791Y707969D01*
X591752Y708105D01*
X590725Y708310D01*
X589713Y708581D01*
X588721Y708917D01*
X587753Y709318D01*
X586814Y709782D01*
X585906Y710306D01*
X585035Y710888D01*
X584204Y711525D01*
X583417Y712216D01*
X582676Y712957D01*
X581985Y713744D01*
X581348Y714575D01*
X580766Y715446D01*
X580242Y716354D01*
X579778Y717293D01*
X579377Y718261D01*
X579041Y719253D01*
X578770Y720265D01*
X578565Y721292D01*
X578429Y722331D01*
X578360Y723376D01*
X578360Y724424D01*
X578429Y725469D01*
X578565Y726508D01*
X578770Y727535D01*
X579041Y728547D01*
X579377Y729539D01*
X579778Y730507D01*
X580242Y731446D01*
X580766Y732354D01*
X581348Y733225D01*
X581985Y734056D01*
X582676Y734843D01*
X583417Y735584D01*
X584204Y736275D01*
X585035Y736913D01*
X585906Y737495D01*
X586814Y738018D01*
X587753Y738482D01*
X588721Y738883D01*
X589713Y739219D01*
X590725Y739490D01*
X591752Y739695D01*
X592791Y739832D01*
X593836Y739900D01*
X594884Y739900D01*
X1920764Y739900D02*
X1921809Y739832D01*
X1922848Y739695D01*
X1923875Y739490D01*
X1924887Y739219D01*
X1925879Y738883D01*
X1926847Y738482D01*
X1927786Y738018D01*
X1928694Y737495D01*
X1929565Y736913D01*
X1930396Y736275D01*
X1931183Y735584D01*
X1931924Y734843D01*
X1932615Y734056D01*
X1933253Y733225D01*
X1933835Y732354D01*
X1934358Y731446D01*
X1934822Y730507D01*
X1935223Y729539D01*
X1935559Y728547D01*
X1935830Y727535D01*
X1936035Y726508D01*
X1936172Y725469D01*
X1936240Y724424D01*
X1936240Y723376D01*
X1936172Y722331D01*
X1936035Y721292D01*
X1935830Y720265D01*
X1935559Y719253D01*
X1935223Y718261D01*
X1934822Y717293D01*
X1934358Y716354D01*
X1933835Y715446D01*
X1933253Y714575D01*
X1932615Y713744D01*
X1931924Y712957D01*
X1931183Y712216D01*
X1930396Y711525D01*
X1929565Y710888D01*
X1928694Y710306D01*
X1927786Y709782D01*
X1926847Y709318D01*
X1925879Y708917D01*
X1924887Y708581D01*
X1923875Y708310D01*
X1922848Y708105D01*
X1921809Y707969D01*
X1920764Y707900D01*
X1919716Y707900D01*
X1918671Y707969D01*
X1917632Y708105D01*
X1916605Y708310D01*
X1915593Y708581D01*
X1914601Y708917D01*
X1913633Y709318D01*
X1912694Y709782D01*
X1911786Y710306D01*
X1910915Y710888D01*
X1910084Y711525D01*
X1909297Y712216D01*
X1908556Y712957D01*
X1907865Y713744D01*
X1907228Y714575D01*
X1906646Y715446D01*
X1906122Y716354D01*
X1905658Y717293D01*
X1905257Y718261D01*
X1904921Y719253D01*
X1904650Y720265D01*
X1904445Y721292D01*
X1904309Y722331D01*
X1904240Y723376D01*
X1904240Y724424D01*
X1904309Y725469D01*
X1904445Y726508D01*
X1904650Y727535D01*
X1904921Y728547D01*
X1905257Y729539D01*
X1905658Y730507D01*
X1906122Y731446D01*
X1906646Y732354D01*
X1907228Y733225D01*
X1907865Y734056D01*
X1908556Y734843D01*
X1909297Y735584D01*
X1910084Y736275D01*
X1910915Y736913D01*
X1911786Y737495D01*
X1912694Y738018D01*
X1913633Y738482D01*
X1914601Y738883D01*
X1915593Y739219D01*
X1916605Y739490D01*
X1917632Y739695D01*
X1918671Y739832D01*
X1919716Y739900D01*
X1920764Y739900D01*
X1920764Y231900D02*
X1921809Y231832D01*
X1922848Y231695D01*
X1923875Y231490D01*
X1924887Y231219D01*
X1925879Y230883D01*
X1926847Y230482D01*
X1927786Y230018D01*
X1928694Y229495D01*
X1929565Y228913D01*
X1930396Y228275D01*
X1931183Y227584D01*
X1931924Y226843D01*
X1932615Y226056D01*
X1933253Y225225D01*
X1933835Y224354D01*
X1934358Y223446D01*
X1934822Y222507D01*
X1935223Y221539D01*
X1935559Y220547D01*
X1935830Y219535D01*
X1936035Y218508D01*
X1936172Y217469D01*
X1936240Y216424D01*
X1936240Y215376D01*
X1936172Y214331D01*
X1936035Y213292D01*
X1935830Y212265D01*
X1935559Y211253D01*
X1935223Y210261D01*
X1934822Y209293D01*
X1934358Y208354D01*
X1933835Y207446D01*
X1933253Y206575D01*
X1932615Y205744D01*
X1931924Y204957D01*
X1931183Y204216D01*
X1930396Y203525D01*
X1929565Y202888D01*
X1928694Y202306D01*
X1927786Y201782D01*
X1926847Y201318D01*
X1925879Y200917D01*
X1924887Y200581D01*
X1923875Y200310D01*
X1922848Y200105D01*
X1921809Y199969D01*
X1920764Y199900D01*
X1919716Y199900D01*
X1918671Y199969D01*
X1917632Y200105D01*
X1916605Y200310D01*
X1915593Y200581D01*
X1914601Y200917D01*
X1913633Y201318D01*
X1912694Y201782D01*
X1911786Y202306D01*
X1910915Y202888D01*
X1910084Y203525D01*
X1909297Y204216D01*
X1908556Y204957D01*
X1907865Y205744D01*
X1907228Y206575D01*
X1906646Y207446D01*
X1906122Y208354D01*
X1905658Y209293D01*
X1905257Y210261D01*
X1904921Y211253D01*
X1904650Y212265D01*
X1904445Y213292D01*
X1904309Y214331D01*
X1904240Y215376D01*
X1904240Y216424D01*
X1904309Y217469D01*
X1904445Y218508D01*
X1904650Y219535D01*
X1904921Y220547D01*
X1905257Y221539D01*
X1905658Y222507D01*
X1906122Y223446D01*
X1906646Y224354D01*
X1907228Y225225D01*
X1907865Y226056D01*
X1908556Y226843D01*
X1909297Y227584D01*
X1910084Y228275D01*
X1910915Y228913D01*
X1911786Y229495D01*
X1912694Y230018D01*
X1913633Y230482D01*
X1914601Y230883D01*
X1915593Y231219D01*
X1916605Y231490D01*
X1917632Y231695D01*
X1918671Y231832D01*
X1919716Y231900D01*
X1920764Y231900D01*
X2987800Y12176D02*
X2987732Y11131D01*
X2987595Y10092D01*
X2987390Y9065D01*
X2987119Y8053D01*
X2986783Y7061D01*
X2986382Y6093D01*
X2985918Y5154D01*
X2985395Y4246D01*
X2984813Y3375D01*
X2984175Y2544D01*
X2983484Y1757D01*
X2982743Y1016D01*
X2981956Y325D01*
X2981125Y-313D01*
X2980254Y-895D01*
X2979346Y-1418D01*
X2978407Y-1882D01*
X2977439Y-2283D01*
X2976447Y-2619D01*
X2975435Y-2890D01*
X2974408Y-3095D01*
X2973369Y-3232D01*
X2972324Y-3300D01*
X2971276Y-3300D01*
X2970231Y-3232D01*
X2969192Y-3095D01*
X2968165Y-2890D01*
X2967153Y-2619D01*
X2966161Y-2283D01*
X2965193Y-1882D01*
X2964254Y-1418D01*
X2963346Y-895D01*
X2962475Y-313D01*
X2961644Y325D01*
X2960857Y1016D01*
X2960116Y1757D01*
X2959425Y2544D01*
X2958788Y3375D01*
X2958206Y4246D01*
X2957682Y5154D01*
X2957218Y6093D01*
X2956817Y7061D01*
X2956481Y8053D01*
X2956210Y9065D01*
X2956005Y10092D01*
X2955869Y11131D01*
X2955800Y12176D01*
X2955800Y13224D01*
X2955869Y14269D01*
X2956005Y15308D01*
X2956210Y16335D01*
X2956481Y17347D01*
X2956817Y18339D01*
X2957218Y19307D01*
X2957682Y20246D01*
X2958206Y21154D01*
X2958788Y22025D01*
X2959425Y22856D01*
X2960116Y23643D01*
X2960857Y24384D01*
X2961644Y25075D01*
X2962475Y25713D01*
X2963346Y26295D01*
X2964254Y26818D01*
X2965193Y27282D01*
X2966161Y27683D01*
X2967153Y28019D01*
X2968165Y28290D01*
X2969192Y28495D01*
X2970231Y28632D01*
X2971276Y28700D01*
X2972324Y28700D01*
X2973369Y28632D01*
X2974408Y28495D01*
X2975435Y28290D01*
X2976447Y28019D01*
X2977439Y27683D01*
X2978407Y27282D01*
X2979346Y26818D01*
X2980254Y26295D01*
X2981125Y25713D01*
X2981956Y25075D01*
X2982743Y24384D01*
X2983484Y23643D01*
X2984175Y22856D01*
X2984813Y22025D01*
X2985395Y21154D01*
X2985918Y20246D01*
X2986382Y19307D01*
X2986783Y18339D01*
X2987119Y17347D01*
X2987390Y16335D01*
X2987595Y15308D01*
X2987732Y14269D01*
X2987800Y13224D01*
X2987800Y12176D01*
X168400Y-13224D02*
X168332Y-14269D01*
X168195Y-15308D01*
X167990Y-16335D01*
X167719Y-17347D01*
X167383Y-18339D01*
X166982Y-19307D01*
X166518Y-20246D01*
X165995Y-21154D01*
X165413Y-22025D01*
X164775Y-22856D01*
X164084Y-23643D01*
X163343Y-24384D01*
X162556Y-25075D01*
X161725Y-25713D01*
X160854Y-26295D01*
X159946Y-26818D01*
X159007Y-27282D01*
X158039Y-27683D01*
X157047Y-28019D01*
X156035Y-28290D01*
X155008Y-28495D01*
X153969Y-28632D01*
X152924Y-28700D01*
X151876Y-28700D01*
X150831Y-28632D01*
X149792Y-28495D01*
X148765Y-28290D01*
X147753Y-28019D01*
X146761Y-27683D01*
X145793Y-27282D01*
X144854Y-26818D01*
X143946Y-26295D01*
X143075Y-25713D01*
X142244Y-25075D01*
X141457Y-24384D01*
X140716Y-23643D01*
X140025Y-22856D01*
X139388Y-22025D01*
X138806Y-21154D01*
X138282Y-20246D01*
X137818Y-19307D01*
X137417Y-18339D01*
X137081Y-17347D01*
X136810Y-16335D01*
X136605Y-15308D01*
X136469Y-14269D01*
X136400Y-13224D01*
X136400Y-12176D01*
X136469Y-11131D01*
X136605Y-10092D01*
X136810Y-9065D01*
X137081Y-8053D01*
X137417Y-7061D01*
X137818Y-6093D01*
X138282Y-5154D01*
X138806Y-4246D01*
X139388Y-3375D01*
X140025Y-2544D01*
X140716Y-1757D01*
X141457Y-1016D01*
X142244Y-325D01*
X143075Y313D01*
X143946Y895D01*
X144854Y1418D01*
X145793Y1882D01*
X146761Y2283D01*
X147753Y2619D01*
X148765Y2890D01*
X149792Y3095D01*
X150831Y3232D01*
X151876Y3300D01*
X152924Y3300D01*
X153969Y3232D01*
X155008Y3095D01*
X156035Y2890D01*
X157047Y2619D01*
X158039Y2283D01*
X159007Y1882D01*
X159946Y1418D01*
X160854Y895D01*
X161725Y313D01*
X162556Y-325D01*
X163343Y-1016D01*
X164084Y-1757D01*
X164775Y-2544D01*
X165413Y-3375D01*
X165995Y-4246D01*
X166518Y-5154D01*
X166982Y-6093D01*
X167383Y-7061D01*
X167719Y-8053D01*
X167990Y-9065D01*
X168195Y-10092D01*
X168332Y-11131D01*
X168400Y-12176D01*
X168400Y-13224D01*
X155700Y3250676D02*
X155632Y3249631D01*
X155495Y3248592D01*
X155290Y3247565D01*
X155019Y3246553D01*
X154683Y3245561D01*
X154282Y3244593D01*
X153818Y3243654D01*
X153295Y3242746D01*
X152713Y3241875D01*
X152075Y3241044D01*
X151384Y3240257D01*
X150643Y3239516D01*
X149856Y3238825D01*
X149025Y3238188D01*
X148154Y3237606D01*
X147246Y3237082D01*
X146307Y3236618D01*
X145339Y3236217D01*
X144347Y3235881D01*
X143335Y3235610D01*
X142308Y3235405D01*
X141269Y3235269D01*
X140224Y3235200D01*
X139176Y3235200D01*
X138131Y3235269D01*
X137092Y3235405D01*
X136065Y3235610D01*
X135053Y3235881D01*
X134061Y3236217D01*
X133093Y3236618D01*
X132154Y3237082D01*
X131246Y3237606D01*
X130375Y3238188D01*
X129544Y3238825D01*
X128757Y3239516D01*
X128016Y3240257D01*
X127325Y3241044D01*
X126688Y3241875D01*
X126106Y3242746D01*
X125582Y3243654D01*
X125118Y3244593D01*
X124717Y3245561D01*
X124381Y3246553D01*
X124110Y3247565D01*
X123905Y3248592D01*
X123769Y3249631D01*
X123700Y3250676D01*
X123700Y3251724D01*
X123769Y3252769D01*
X123905Y3253808D01*
X124110Y3254835D01*
X124381Y3255847D01*
X124717Y3256839D01*
X125118Y3257807D01*
X125582Y3258746D01*
X126106Y3259654D01*
X126688Y3260525D01*
X127325Y3261356D01*
X128016Y3262143D01*
X128757Y3262884D01*
X129544Y3263575D01*
X130375Y3264213D01*
X131246Y3264795D01*
X132154Y3265318D01*
X133093Y3265782D01*
X134061Y3266183D01*
X135053Y3266519D01*
X136065Y3266790D01*
X137092Y3266995D01*
X138131Y3267132D01*
X139176Y3267200D01*
X140224Y3267200D01*
X141269Y3267132D01*
X142308Y3266995D01*
X143335Y3266790D01*
X144347Y3266519D01*
X145339Y3266183D01*
X146307Y3265782D01*
X147246Y3265318D01*
X148154Y3264795D01*
X149025Y3264213D01*
X149856Y3263575D01*
X150643Y3262884D01*
X151384Y3262143D01*
X152075Y3261356D01*
X152713Y3260525D01*
X153295Y3259654D01*
X153818Y3258746D01*
X154282Y3257807D01*
X154683Y3256839D01*
X155019Y3255847D01*
X155290Y3254835D01*
X155495Y3253808D01*
X155632Y3252769D01*
X155700Y3251724D01*
X155700Y3250676D01*
X2975100Y3250676D02*
X2975032Y3249631D01*
X2974895Y3248592D01*
X2974690Y3247565D01*
X2974419Y3246553D01*
X2974083Y3245561D01*
X2973682Y3244593D01*
X2973218Y3243654D01*
X2972695Y3242746D01*
X2972113Y3241875D01*
X2971475Y3241044D01*
X2970784Y3240257D01*
X2970043Y3239516D01*
X2969256Y3238825D01*
X2968425Y3238188D01*
X2967554Y3237606D01*
X2966646Y3237082D01*
X2965707Y3236618D01*
X2964739Y3236217D01*
X2963747Y3235881D01*
X2962735Y3235610D01*
X2961708Y3235405D01*
X2960669Y3235269D01*
X2959624Y3235200D01*
X2958576Y3235200D01*
X2957531Y3235269D01*
X2956492Y3235405D01*
X2955465Y3235610D01*
X2954453Y3235881D01*
X2953461Y3236217D01*
X2952493Y3236618D01*
X2951554Y3237082D01*
X2950646Y3237606D01*
X2949775Y3238188D01*
X2948944Y3238825D01*
X2948157Y3239516D01*
X2947416Y3240257D01*
X2946725Y3241044D01*
X2946088Y3241875D01*
X2945506Y3242746D01*
X2944982Y3243654D01*
X2944518Y3244593D01*
X2944117Y3245561D01*
X2943781Y3246553D01*
X2943510Y3247565D01*
X2943305Y3248592D01*
X2943169Y3249631D01*
X2943100Y3250676D01*
X2943100Y3251724D01*
X2943169Y3252769D01*
X2943305Y3253808D01*
X2943510Y3254835D01*
X2943781Y3255847D01*
X2944117Y3256839D01*
X2944518Y3257807D01*
X2944982Y3258746D01*
X2945506Y3259654D01*
X2946088Y3260525D01*
X2946725Y3261356D01*
X2947416Y3262143D01*
X2948157Y3262884D01*
X2948944Y3263575D01*
X2949775Y3264213D01*
X2950646Y3264795D01*
X2951554Y3265318D01*
X2952493Y3265782D01*
X2953461Y3266183D01*
X2954453Y3266519D01*
X2955465Y3266790D01*
X2956492Y3266995D01*
X2957531Y3267132D01*
X2958576Y3267200D01*
X2959624Y3267200D01*
X2960669Y3267132D01*
X2961708Y3266995D01*
X2962735Y3266790D01*
X2963747Y3266519D01*
X2964739Y3266183D01*
X2965707Y3265782D01*
X2966646Y3265318D01*
X2967554Y3264795D01*
X2968425Y3264213D01*
X2969256Y3263575D01*
X2970043Y3262884D01*
X2970784Y3262143D01*
X2971475Y3261356D01*
X2972113Y3260525D01*
X2972695Y3259654D01*
X2973218Y3258746D01*
X2973682Y3257807D01*
X2974083Y3256839D01*
X2974419Y3255847D01*
X2974690Y3254835D01*
X2974895Y3253808D01*
X2975032Y3252769D01*
X2975100Y3251724D01*
X2975100Y3250676D01*
M02*
