G04 EAGLE Gerber RS-274X export*
G75*
%MOMM*%
%FSLAX34Y34*%
%LPD*%
%INSilkscreen Bottom*%
%IPPOS*%
%AMOC8*
5,1,8,0,0,1.08239X$1,22.5*%
G01*
%ADD10C,0.203200*%


D10*
X165100Y2762250D02*
X165100Y2724150D01*
X214150Y654000D02*
X312420Y654000D01*
X342900Y654000D02*
X358150Y654000D01*
X358150Y489000D01*
X342900Y489000D01*
X312420Y489000D02*
X214150Y489000D01*
X214150Y654000D01*
X214150Y895300D02*
X312420Y895300D01*
X342900Y895300D02*
X358150Y895300D01*
X358150Y730300D01*
X342900Y730300D01*
X312420Y730300D02*
X214150Y730300D01*
X214150Y895300D01*
X214150Y184100D02*
X312420Y184100D01*
X342900Y184100D02*
X358150Y184100D01*
X358150Y19100D01*
X342900Y19100D01*
X312420Y19100D02*
X214150Y19100D01*
X214150Y184100D01*
X214150Y1136600D02*
X312420Y1136600D01*
X342900Y1136600D02*
X358150Y1136600D01*
X358150Y971600D01*
X342900Y971600D01*
X312420Y971600D02*
X214150Y971600D01*
X214150Y1136600D01*
X214150Y425400D02*
X312420Y425400D01*
X342900Y425400D02*
X358150Y425400D01*
X358150Y260400D01*
X342900Y260400D01*
X312420Y260400D02*
X214150Y260400D01*
X214150Y425400D01*
M02*
