G04 EAGLE Gerber RS-274X export*
G75*
%MOMM*%
%FSLAX34Y34*%
%LPD*%
%INSoldermask Bottom*%
%IPPOS*%
%AMOC8*
5,1,8,0,0,1.08239X$1,22.5*%
G01*
%ADD10C,2.082800*%
%ADD11P,2.254402X8X22.500000*%
%ADD12P,1.951982X8X112.500000*%
%ADD13C,1.803400*%
%ADD14C,1.727200*%
%ADD15C,2.203200*%
%ADD16R,1.711200X1.711200*%
%ADD17C,1.711200*%
%ADD18C,2.203200*%
%ADD19R,2.082800X2.082800*%
%ADD20C,3.003200*%
%ADD21C,2.743200*%
%ADD22R,2.387600X2.387600*%
%ADD23C,2.387600*%
%ADD24P,1.649562X8X112.500000*%
%ADD25R,4.013200X4.013200*%
%ADD26C,3.203200*%
%ADD27C,1.625600*%
%ADD28C,2.603200*%
%ADD29C,2.753200*%
%ADD30C,3.403200*%


D10*
X1066800Y1231900D03*
X1066800Y1206500D03*
X1066800Y1181100D03*
X1066800Y1155700D03*
X1066800Y1130300D03*
X1066800Y1104900D03*
X1066800Y1079500D03*
X1066800Y1257300D03*
X1549400Y1282700D03*
X1549400Y1257300D03*
X1549400Y1231900D03*
X1549400Y1206500D03*
X1549400Y1181100D03*
X1549400Y1155700D03*
X1549400Y1130300D03*
X1549400Y1308100D03*
X1066800Y1460500D03*
X1066800Y1435100D03*
X1066800Y1409700D03*
X1066800Y1384300D03*
X1066800Y1358900D03*
X1066800Y1333500D03*
X1066800Y1308100D03*
X1066800Y1485900D03*
X1549400Y1511300D03*
X1549400Y1485900D03*
X1549400Y1460500D03*
X1549400Y1435100D03*
X1549400Y1409700D03*
X1549400Y1384300D03*
X1549400Y1358900D03*
X1549400Y1536700D03*
X1549400Y1727200D03*
X1549400Y1701800D03*
X1549400Y1676400D03*
X1549400Y1651000D03*
X1549400Y1625600D03*
X1549400Y1600200D03*
X1549400Y1574800D03*
X1549400Y1752600D03*
D11*
X1346200Y1028700D03*
X1346200Y1054100D03*
X1371600Y1028700D03*
X1371600Y1054100D03*
X1397000Y1028700D03*
X1397000Y1054100D03*
X1422400Y1028700D03*
X1422400Y1054100D03*
X1447800Y1028700D03*
X1447800Y1054100D03*
X1473200Y1028700D03*
X1473200Y1054100D03*
X1498600Y1028700D03*
X1498600Y1054100D03*
X1524000Y1028700D03*
X1524000Y1054100D03*
X1143000Y1028700D03*
X1143000Y1054100D03*
X1168400Y1028700D03*
X1168400Y1054100D03*
X1193800Y1028700D03*
X1193800Y1054100D03*
X1219200Y1028700D03*
X1219200Y1054100D03*
X1244600Y1028700D03*
X1244600Y1054100D03*
X1270000Y1028700D03*
X1270000Y1054100D03*
X1295400Y1028700D03*
X1295400Y1054100D03*
X1320800Y1028700D03*
X1320800Y1054100D03*
D10*
X1117600Y1054100D03*
X1117600Y1028700D03*
X1549400Y1054100D03*
X1549400Y1028700D03*
X1066800Y1663700D03*
X1066800Y1638300D03*
X1066800Y1612900D03*
X1066800Y1587500D03*
X1066800Y1562100D03*
X1066800Y1536700D03*
X1549400Y1778000D03*
X1549400Y1803400D03*
X1066800Y1689100D03*
X1066800Y1714500D03*
D12*
X342900Y3027680D03*
D13*
X342900Y2992120D03*
D10*
X203200Y2743200D03*
X177800Y2743200D03*
D14*
X982980Y1905000D02*
X998220Y1905000D01*
X998220Y1930400D02*
X982980Y1930400D01*
X982980Y1955800D02*
X998220Y1955800D01*
X998220Y1981200D02*
X982980Y1981200D01*
X982980Y2006600D02*
X998220Y2006600D01*
X998220Y2032000D02*
X982980Y2032000D01*
X982980Y2057400D02*
X998220Y2057400D01*
D15*
X251460Y2108200D03*
X688340Y2108200D03*
X251460Y1828800D03*
X688340Y1828800D03*
D16*
X698500Y1905000D03*
D17*
X673100Y1905000D03*
X698500Y1930400D03*
X673100Y1930400D03*
X698500Y1955800D03*
X673100Y1955800D03*
X698500Y1981200D03*
X673100Y1981200D03*
X698500Y2006600D03*
X673100Y2006600D03*
X698500Y2032000D03*
X673100Y2032000D03*
D18*
X265000Y3024900D02*
X265000Y3044900D01*
X202000Y3044900D02*
X202000Y3024900D01*
X225000Y2984900D02*
X245000Y2984900D01*
D19*
X289600Y1552000D03*
D10*
X315000Y1552000D03*
X340400Y1552000D03*
X365800Y1552000D03*
X391200Y1552000D03*
X416600Y1552000D03*
X442000Y1552000D03*
X467400Y1552000D03*
X492800Y1552000D03*
X518200Y1552000D03*
X543600Y1552000D03*
X569000Y1552000D03*
X594400Y1552000D03*
X619800Y1552000D03*
X645200Y1552000D03*
X670600Y1552000D03*
D20*
X234600Y1552000D03*
X234600Y1242000D03*
X984600Y1552000D03*
X984600Y1242000D03*
D14*
X1612900Y2722880D02*
X1612900Y2738120D01*
X1587500Y2738120D02*
X1587500Y2722880D01*
D21*
X1651000Y3030220D03*
X1600200Y3030220D03*
X1549400Y3030220D03*
D14*
X1612900Y2255520D02*
X1612900Y2240280D01*
X1587500Y2240280D02*
X1587500Y2255520D01*
D21*
X1651000Y2547620D03*
X1600200Y2547620D03*
X1549400Y2547620D03*
D14*
X1346200Y2722880D02*
X1346200Y2738120D01*
X1320800Y2738120D02*
X1320800Y2722880D01*
D21*
X1384300Y3030220D03*
X1333500Y3030220D03*
X1282700Y3030220D03*
D14*
X1346200Y2255520D02*
X1346200Y2240280D01*
X1320800Y2240280D02*
X1320800Y2255520D01*
D21*
X1384300Y2547620D03*
X1333500Y2547620D03*
X1282700Y2547620D03*
D14*
X1079500Y2722880D02*
X1079500Y2738120D01*
X1054100Y2738120D02*
X1054100Y2722880D01*
D21*
X1117600Y3030220D03*
X1066800Y3030220D03*
X1016000Y3030220D03*
D14*
X1079500Y2255520D02*
X1079500Y2240280D01*
X1054100Y2240280D02*
X1054100Y2255520D01*
D21*
X1117600Y2547620D03*
X1066800Y2547620D03*
X1016000Y2547620D03*
D14*
X825500Y2722880D02*
X825500Y2738120D01*
X800100Y2738120D02*
X800100Y2722880D01*
D21*
X863600Y3030220D03*
X812800Y3030220D03*
X762000Y3030220D03*
D14*
X825500Y2255520D02*
X825500Y2240280D01*
X800100Y2240280D02*
X800100Y2255520D01*
D21*
X863600Y2547620D03*
X812800Y2547620D03*
X762000Y2547620D03*
D14*
X584200Y2722880D02*
X584200Y2738120D01*
X558800Y2738120D02*
X558800Y2722880D01*
D21*
X622300Y3030220D03*
X571500Y3030220D03*
X520700Y3030220D03*
D14*
X571500Y2255520D02*
X571500Y2240280D01*
X546100Y2240280D02*
X546100Y2255520D01*
D21*
X609600Y2547620D03*
X558800Y2547620D03*
X508000Y2547620D03*
D14*
X1465580Y2857500D02*
X1480820Y2857500D01*
X1480820Y2882900D02*
X1465580Y2882900D01*
X1465580Y2908300D02*
X1480820Y2908300D01*
X452120Y2413000D02*
X436880Y2413000D01*
X436880Y2438400D02*
X452120Y2438400D01*
X452120Y2463800D02*
X436880Y2463800D01*
X1465580Y2413000D02*
X1480820Y2413000D01*
X1480820Y2438400D02*
X1465580Y2438400D01*
X1465580Y2463800D02*
X1480820Y2463800D01*
X1214120Y2857500D02*
X1198880Y2857500D01*
X1198880Y2882900D02*
X1214120Y2882900D01*
X1214120Y2908300D02*
X1198880Y2908300D01*
X1198880Y2413000D02*
X1214120Y2413000D01*
X1214120Y2438400D02*
X1198880Y2438400D01*
X1198880Y2463800D02*
X1214120Y2463800D01*
X960120Y2857500D02*
X944880Y2857500D01*
X944880Y2882900D02*
X960120Y2882900D01*
X960120Y2908300D02*
X944880Y2908300D01*
X947420Y2413000D02*
X932180Y2413000D01*
X932180Y2438400D02*
X947420Y2438400D01*
X947420Y2463800D02*
X932180Y2463800D01*
X706120Y2857500D02*
X690880Y2857500D01*
X690880Y2882900D02*
X706120Y2882900D01*
X706120Y2908300D02*
X690880Y2908300D01*
X690880Y2413000D02*
X706120Y2413000D01*
X706120Y2438400D02*
X690880Y2438400D01*
X690880Y2463800D02*
X706120Y2463800D01*
X452120Y2857500D02*
X436880Y2857500D01*
X436880Y2882900D02*
X452120Y2882900D01*
X452120Y2908300D02*
X436880Y2908300D01*
X2786380Y3060700D02*
X2801620Y3060700D01*
X2801620Y3086100D02*
X2786380Y3086100D01*
X2786380Y3111500D02*
X2801620Y3111500D01*
X2801620Y1282700D02*
X2786380Y1282700D01*
X2786380Y1308100D02*
X2801620Y1308100D01*
X2801620Y1333500D02*
X2786380Y1333500D01*
X2786380Y1092200D02*
X2801620Y1092200D01*
X2801620Y1117600D02*
X2786380Y1117600D01*
X2786380Y1143000D02*
X2801620Y1143000D01*
X2801620Y901700D02*
X2786380Y901700D01*
X2786380Y927100D02*
X2801620Y927100D01*
X2801620Y952500D02*
X2786380Y952500D01*
X2786380Y711200D02*
X2801620Y711200D01*
X2801620Y736600D02*
X2786380Y736600D01*
X2786380Y762000D02*
X2801620Y762000D01*
X2801620Y520700D02*
X2786380Y520700D01*
X2786380Y546100D02*
X2801620Y546100D01*
X2801620Y571500D02*
X2786380Y571500D01*
X2786380Y330200D02*
X2801620Y330200D01*
X2801620Y355600D02*
X2786380Y355600D01*
X2786380Y381000D02*
X2801620Y381000D01*
X2801620Y139700D02*
X2786380Y139700D01*
X2786380Y165100D02*
X2801620Y165100D01*
X2801620Y190500D02*
X2786380Y190500D01*
X1866900Y147320D02*
X1866900Y132080D01*
X1892300Y132080D02*
X1892300Y147320D01*
X1917700Y147320D02*
X1917700Y132080D01*
X1663700Y132080D02*
X1663700Y147320D01*
X1689100Y147320D02*
X1689100Y132080D01*
X1714500Y132080D02*
X1714500Y147320D01*
X1460500Y147320D02*
X1460500Y132080D01*
X1485900Y132080D02*
X1485900Y147320D01*
X1511300Y147320D02*
X1511300Y132080D01*
X2786380Y2844800D02*
X2801620Y2844800D01*
X2801620Y2870200D02*
X2786380Y2870200D01*
X2786380Y2895600D02*
X2801620Y2895600D01*
X1257300Y147320D02*
X1257300Y132080D01*
X1282700Y132080D02*
X1282700Y147320D01*
X1308100Y147320D02*
X1308100Y132080D01*
X1054100Y132080D02*
X1054100Y147320D01*
X1079500Y147320D02*
X1079500Y132080D01*
X1104900Y132080D02*
X1104900Y147320D01*
X850900Y147320D02*
X850900Y132080D01*
X876300Y132080D02*
X876300Y147320D01*
X901700Y147320D02*
X901700Y132080D01*
X660400Y132080D02*
X660400Y147320D01*
X685800Y147320D02*
X685800Y132080D01*
X711200Y132080D02*
X711200Y147320D01*
X469900Y147320D02*
X469900Y132080D01*
X495300Y132080D02*
X495300Y147320D01*
X520700Y147320D02*
X520700Y132080D01*
X2786380Y2641600D02*
X2801620Y2641600D01*
X2801620Y2667000D02*
X2786380Y2667000D01*
X2786380Y2692400D02*
X2801620Y2692400D01*
X2801620Y2451100D02*
X2786380Y2451100D01*
X2786380Y2476500D02*
X2801620Y2476500D01*
X2801620Y2501900D02*
X2786380Y2501900D01*
X2786380Y2235200D02*
X2801620Y2235200D01*
X2801620Y2260600D02*
X2786380Y2260600D01*
X2786380Y2286000D02*
X2801620Y2286000D01*
X2801620Y2044700D02*
X2786380Y2044700D01*
X2786380Y2070100D02*
X2801620Y2070100D01*
X2801620Y2095500D02*
X2786380Y2095500D01*
X2786380Y1854200D02*
X2801620Y1854200D01*
X2801620Y1879600D02*
X2786380Y1879600D01*
X2786380Y1905000D02*
X2801620Y1905000D01*
X2801620Y1663700D02*
X2786380Y1663700D01*
X2786380Y1689100D02*
X2801620Y1689100D01*
X2801620Y1714500D02*
X2786380Y1714500D01*
X2786380Y1460500D02*
X2801620Y1460500D01*
X2801620Y1485900D02*
X2786380Y1485900D01*
X2786380Y1511300D02*
X2801620Y1511300D01*
D22*
X1917700Y3200400D03*
D23*
X1866900Y3200400D03*
D22*
X342900Y3200400D03*
D23*
X292100Y3200400D03*
D22*
X1739900Y3200400D03*
D23*
X1689100Y3200400D03*
D22*
X1574800Y3200400D03*
D23*
X1524000Y3200400D03*
D22*
X1397000Y3200400D03*
D23*
X1346200Y3200400D03*
D22*
X1219200Y3200400D03*
D23*
X1168400Y3200400D03*
D22*
X1054100Y3200400D03*
D23*
X1003300Y3200400D03*
D22*
X876300Y3200400D03*
D23*
X825500Y3200400D03*
D22*
X698500Y3200400D03*
D23*
X647700Y3200400D03*
D22*
X520700Y3200400D03*
D23*
X469900Y3200400D03*
D21*
X2895600Y3162300D03*
X2895600Y3111500D03*
X2895600Y3060700D03*
X2895600Y1384300D03*
X2895600Y1333500D03*
X2895600Y1282700D03*
X2895600Y1193800D03*
X2895600Y1143000D03*
X2895600Y1092200D03*
X2895600Y1003300D03*
X2895600Y952500D03*
X2895600Y901700D03*
X2895600Y812800D03*
X2895600Y762000D03*
X2895600Y711200D03*
X2895600Y622300D03*
X2895600Y571500D03*
X2895600Y520700D03*
X2895600Y431800D03*
X2895600Y381000D03*
X2895600Y330200D03*
X2895600Y241300D03*
X2895600Y190500D03*
X2895600Y139700D03*
X1981200Y50800D03*
X1930400Y50800D03*
X1879600Y50800D03*
X1778000Y50800D03*
X1727200Y50800D03*
X1676400Y50800D03*
X1574800Y50800D03*
X1524000Y50800D03*
X1473200Y50800D03*
X2895600Y2946400D03*
X2895600Y2895600D03*
X2895600Y2844800D03*
X1371600Y50800D03*
X1320800Y50800D03*
X1270000Y50800D03*
X1168400Y50800D03*
X1117600Y50800D03*
X1066800Y50800D03*
X965200Y50800D03*
X914400Y50800D03*
X863600Y50800D03*
X774700Y50800D03*
X723900Y50800D03*
X673100Y50800D03*
X584200Y50800D03*
X533400Y50800D03*
X482600Y50800D03*
X2895600Y2743200D03*
X2895600Y2692400D03*
X2895600Y2641600D03*
X2895600Y2552700D03*
X2895600Y2501900D03*
X2895600Y2451100D03*
X2895600Y2349500D03*
X2895600Y2298700D03*
X2895600Y2247900D03*
X2895600Y2146300D03*
X2895600Y2095500D03*
X2895600Y2044700D03*
X2895600Y1955800D03*
X2895600Y1905000D03*
X2895600Y1854200D03*
X2895600Y1765300D03*
X2895600Y1714500D03*
X2895600Y1663700D03*
X2895600Y1562100D03*
X2895600Y1511300D03*
X2895600Y1460500D03*
D24*
X266700Y2781300D03*
X266700Y2882900D03*
D25*
X883920Y883920D03*
X883920Y1064260D03*
X487680Y883920D03*
X487680Y1064260D03*
D26*
X830580Y883920D03*
X533400Y1064260D03*
D14*
X1079500Y795020D02*
X1079500Y779780D01*
X1104900Y779780D02*
X1104900Y795020D01*
X1130300Y795020D02*
X1130300Y779780D01*
X1155700Y779780D02*
X1155700Y795020D01*
X1181100Y795020D02*
X1181100Y779780D01*
X1206500Y779780D02*
X1206500Y795020D01*
X1231900Y795020D02*
X1231900Y779780D01*
X1257300Y779780D02*
X1257300Y795020D01*
X1282700Y795020D02*
X1282700Y779780D01*
X1308100Y779780D02*
X1308100Y795020D01*
X2011680Y2273300D02*
X2026920Y2273300D01*
X2026920Y2298700D02*
X2011680Y2298700D01*
X2011680Y2324100D02*
X2026920Y2324100D01*
X2026920Y2349500D02*
X2011680Y2349500D01*
X2011680Y2374900D02*
X2026920Y2374900D01*
X2026920Y2400300D02*
X2011680Y2400300D01*
X2011680Y2425700D02*
X2026920Y2425700D01*
X2026920Y2451100D02*
X2011680Y2451100D01*
X2011680Y2476500D02*
X2026920Y2476500D01*
X2026920Y2501900D02*
X2011680Y2501900D01*
X2001520Y812800D02*
X1986280Y812800D01*
X1986280Y838200D02*
X2001520Y838200D01*
X2001520Y863600D02*
X1986280Y863600D01*
X1986280Y889000D02*
X2001520Y889000D01*
X2001520Y914400D02*
X1986280Y914400D01*
X1986280Y939800D02*
X2001520Y939800D01*
X2001520Y965200D02*
X1986280Y965200D01*
X1986280Y990600D02*
X2001520Y990600D01*
X2001520Y1016000D02*
X1986280Y1016000D01*
X1986280Y1041400D02*
X2001520Y1041400D01*
D10*
X908812Y1742694D03*
X843788Y1742694D03*
X908812Y1787906D03*
X843788Y1787906D03*
D14*
X2786380Y3162300D02*
X2801620Y3162300D01*
X2801620Y3187700D02*
X2786380Y3187700D01*
X2786380Y3213100D02*
X2801620Y3213100D01*
X2801620Y1371600D02*
X2786380Y1371600D01*
X2786380Y1397000D02*
X2801620Y1397000D01*
X2801620Y1422400D02*
X2786380Y1422400D01*
X2786380Y1181100D02*
X2801620Y1181100D01*
X2801620Y1206500D02*
X2786380Y1206500D01*
X2786380Y1231900D02*
X2801620Y1231900D01*
X2801620Y990600D02*
X2786380Y990600D01*
X2786380Y1016000D02*
X2801620Y1016000D01*
X2801620Y1041400D02*
X2786380Y1041400D01*
X2786380Y800100D02*
X2801620Y800100D01*
X2801620Y825500D02*
X2786380Y825500D01*
X2786380Y850900D02*
X2801620Y850900D01*
X2801620Y609600D02*
X2786380Y609600D01*
X2786380Y635000D02*
X2801620Y635000D01*
X2801620Y660400D02*
X2786380Y660400D01*
X2786380Y419100D02*
X2801620Y419100D01*
X2801620Y444500D02*
X2786380Y444500D01*
X2786380Y469900D02*
X2801620Y469900D01*
X2801620Y228600D02*
X2786380Y228600D01*
X2786380Y254000D02*
X2801620Y254000D01*
X2801620Y279400D02*
X2786380Y279400D01*
X1955800Y147320D02*
X1955800Y132080D01*
X1981200Y132080D02*
X1981200Y147320D01*
X2006600Y147320D02*
X2006600Y132080D01*
X1752600Y132080D02*
X1752600Y147320D01*
X1778000Y147320D02*
X1778000Y132080D01*
X1803400Y132080D02*
X1803400Y147320D01*
X1549400Y147320D02*
X1549400Y132080D01*
X1574800Y132080D02*
X1574800Y147320D01*
X1600200Y147320D02*
X1600200Y132080D01*
X2786380Y2933700D02*
X2801620Y2933700D01*
X2801620Y2959100D02*
X2786380Y2959100D01*
X2786380Y2984500D02*
X2801620Y2984500D01*
X1346200Y147320D02*
X1346200Y132080D01*
X1371600Y132080D02*
X1371600Y147320D01*
X1397000Y147320D02*
X1397000Y132080D01*
X1143000Y132080D02*
X1143000Y147320D01*
X1168400Y147320D02*
X1168400Y132080D01*
X1193800Y132080D02*
X1193800Y147320D01*
X939800Y147320D02*
X939800Y132080D01*
X965200Y132080D02*
X965200Y147320D01*
X990600Y147320D02*
X990600Y132080D01*
X749300Y132080D02*
X749300Y147320D01*
X774700Y147320D02*
X774700Y132080D01*
X800100Y132080D02*
X800100Y147320D01*
X558800Y147320D02*
X558800Y132080D01*
X584200Y132080D02*
X584200Y147320D01*
X609600Y147320D02*
X609600Y132080D01*
X2786380Y2730500D02*
X2801620Y2730500D01*
X2801620Y2755900D02*
X2786380Y2755900D01*
X2786380Y2781300D02*
X2801620Y2781300D01*
X2801620Y2540000D02*
X2786380Y2540000D01*
X2786380Y2565400D02*
X2801620Y2565400D01*
X2801620Y2590800D02*
X2786380Y2590800D01*
X2786380Y2324100D02*
X2801620Y2324100D01*
X2801620Y2349500D02*
X2786380Y2349500D01*
X2786380Y2374900D02*
X2801620Y2374900D01*
X2801620Y2133600D02*
X2786380Y2133600D01*
X2786380Y2159000D02*
X2801620Y2159000D01*
X2801620Y2184400D02*
X2786380Y2184400D01*
X2786380Y1943100D02*
X2801620Y1943100D01*
X2801620Y1968500D02*
X2786380Y1968500D01*
X2786380Y1993900D02*
X2801620Y1993900D01*
X2801620Y1752600D02*
X2786380Y1752600D01*
X2786380Y1778000D02*
X2801620Y1778000D01*
X2801620Y1803400D02*
X2786380Y1803400D01*
X2786380Y1549400D02*
X2801620Y1549400D01*
X2801620Y1574800D02*
X2786380Y1574800D01*
X2786380Y1600200D02*
X2801620Y1600200D01*
D16*
X292100Y1625600D03*
D17*
X317500Y1625600D03*
X342900Y1625600D03*
X368300Y1625600D03*
X393700Y1625600D03*
X419100Y1625600D03*
X444500Y1625600D03*
X469900Y1625600D03*
X495300Y1625600D03*
X520700Y1625600D03*
X546100Y1625600D03*
X571500Y1625600D03*
X596900Y1625600D03*
X622300Y1625600D03*
X647700Y1625600D03*
X673100Y1625600D03*
D16*
X673100Y1739900D03*
D17*
X673100Y1714500D03*
X673100Y1689100D03*
X673100Y1663700D03*
D27*
X302400Y535800D03*
X327800Y546000D03*
X302400Y556200D03*
X327800Y566400D03*
X302400Y576600D03*
X327800Y586800D03*
X302400Y597000D03*
X327800Y607200D03*
D28*
X327800Y490250D03*
X327800Y652750D03*
D29*
X279400Y497100D03*
X279400Y645900D03*
D27*
X302400Y777100D03*
X327800Y787300D03*
X302400Y797500D03*
X327800Y807700D03*
X302400Y817900D03*
X327800Y828100D03*
X302400Y838300D03*
X327800Y848500D03*
D28*
X327800Y731550D03*
X327800Y894050D03*
D29*
X279400Y738400D03*
X279400Y887200D03*
D27*
X302400Y65900D03*
X327800Y76100D03*
X302400Y86300D03*
X327800Y96500D03*
X302400Y106700D03*
X327800Y116900D03*
X302400Y127100D03*
X327800Y137300D03*
D28*
X327800Y20350D03*
X327800Y182850D03*
D29*
X279400Y27200D03*
X279400Y176000D03*
D27*
X302400Y1018400D03*
X327800Y1028600D03*
X302400Y1038800D03*
X327800Y1049000D03*
X302400Y1059200D03*
X327800Y1069400D03*
X302400Y1079600D03*
X327800Y1089800D03*
D28*
X327800Y972850D03*
X327800Y1135350D03*
D29*
X279400Y979700D03*
X279400Y1128500D03*
D27*
X302400Y307200D03*
X327800Y317400D03*
X302400Y327600D03*
X327800Y337800D03*
X302400Y348000D03*
X327800Y358200D03*
X302400Y368400D03*
X327800Y378600D03*
D28*
X327800Y261650D03*
X327800Y424150D03*
D29*
X279400Y268500D03*
X279400Y417300D03*
D30*
X2603500Y1686560D03*
X2095500Y1686560D03*
X2095500Y3012440D03*
X2603500Y3012440D03*
D16*
X2108200Y2266950D03*
D17*
X2108200Y2292350D03*
X2108200Y2317750D03*
X2108200Y2343150D03*
X2108200Y2368550D03*
X2108200Y2393950D03*
X2108200Y2419350D03*
X2108200Y2444750D03*
X2108200Y2470150D03*
X2108200Y2495550D03*
D16*
X2108200Y1778000D03*
D17*
X2108200Y1803400D03*
X2108200Y1828800D03*
D30*
X2603500Y251460D03*
X2095500Y251460D03*
X2095500Y1577340D03*
X2603500Y1577340D03*
D16*
X2108200Y831850D03*
D17*
X2108200Y857250D03*
X2108200Y882650D03*
X2108200Y908050D03*
X2108200Y933450D03*
X2108200Y958850D03*
X2108200Y984250D03*
X2108200Y1009650D03*
X2108200Y1035050D03*
X2108200Y1060450D03*
D16*
X2108200Y342900D03*
D17*
X2108200Y368300D03*
X2108200Y393700D03*
D30*
X594360Y215900D03*
X594360Y723900D03*
X1920240Y723900D03*
X1920240Y215900D03*
D16*
X1174750Y711200D03*
D17*
X1200150Y711200D03*
X1225550Y711200D03*
X1250950Y711200D03*
X1276350Y711200D03*
X1301750Y711200D03*
X1327150Y711200D03*
X1352550Y711200D03*
X1377950Y711200D03*
X1403350Y711200D03*
D16*
X685800Y711200D03*
D17*
X711200Y711200D03*
X736600Y711200D03*
D10*
X204978Y2882900D03*
X177800Y2882900D03*
X150622Y2882900D03*
D30*
X2971800Y12700D03*
X152400Y-12700D03*
X139700Y3251200D03*
X2959100Y3251200D03*
M02*
