M48
;GenerationSoftware,Autodesk,EAGLE,9.5.1*%
;CreationDate,2020-09-11T11:07:56Z*%
FMAT,2
ICI,OFF
METRIC,TZ,000.000
T14C0.813
T13C0.900
T12C0.914
T11C1.000
T10C1.016
T9C1.300
T8C1.500
T7C1.600
T6C2.550
T5C2.800
T4C2.997
T3C3.000
T2C3.175
T1C3.200
%
G90
M71
T1
X163830Y21590
X27940Y166370
X165100Y166370
T2
X49530Y129540
X100330Y114300
X100330Y86360
X48260Y81280
T3
X165100Y121920
X165100Y72390
X165100Y87630
X165100Y113030
X165100Y96520
X165100Y138430
X70612Y161798
X100330Y143764
T4
X33400Y153130
X38100Y150130
X38100Y156130
T5
X29810Y53600
X29810Y22600
X104810Y53600
X104810Y22600
T6
X35560Y85270
X35560Y100150
X144780Y62050
X144780Y47170
X144780Y39190
X111940Y29210
X126820Y29210
X144780Y24310
T7
X40400Y100835
X40400Y84585
X111255Y34050
X139940Y62735
X139940Y46485
X139940Y39875
X139940Y23625
X127505Y34050
T8
X65278Y143764
X65278Y161798
X104902Y143764
X104902Y161798
T9
X156210Y157480
X156210Y152400
X143002Y82550
X143002Y102870
X143002Y152400
X143002Y138430
X143002Y133350
X143002Y128270
X143002Y87630
X143002Y157480
X156210Y102870
X156210Y107950
X143002Y77470
X156210Y82550
X143002Y162560
X143002Y107950
X143002Y113030
X156210Y133350
X156210Y128270
X156210Y77470
T10
X90170Y81280
X92710Y81280
X95250Y81280
X97790Y81280
X97790Y129540
X95250Y129540
X92710Y129540
X90170Y129540
X87630Y129540
X85090Y129540
X82550Y129540
X80010Y129540
X75946Y129540
X73406Y129540
X70866Y129540
X68326Y129540
X65786Y129540
X63246Y129540
X60706Y129540
X58166Y129540
X55626Y129540
X53086Y129540
X97930Y109170
X100470Y109170
X97930Y106630
X100470Y106630
X97930Y104090
X100470Y104090
X35310Y53600
X37850Y53600
X40390Y53600
X42930Y53600
X45470Y53600
X48010Y53600
X50550Y53600
X55630Y53600
X58170Y53600
X60710Y53600
X63250Y53600
X65790Y53600
X68330Y53600
X70870Y53600
X73410Y53600
X113030Y156210
X113030Y158750
X113030Y132080
X113030Y134620
X113030Y106680
X113030Y109220
X113030Y81280
X113030Y83820
X53090Y53600
X49530Y160020
X52070Y160020
X54610Y160020
X128270Y146050
X125730Y146050
X123190Y146050
X128270Y121920
X125730Y121920
X123190Y121920
X128270Y96520
X125730Y96520
X123190Y96520
X128270Y71120
X125730Y71120
X123190Y71120
X62230Y81280
X64770Y81280
X67310Y81280
X69850Y81280
X72390Y81280
X74930Y81280
X77470Y81280
X80010Y81280
X85090Y81280
X87630Y81280
T11
X73660Y66040
X73660Y63500
X73660Y68580
X73660Y71120
X73660Y59690
X71120Y59690
X35560Y59690
X38100Y59690
X40640Y59690
X43180Y59690
X45720Y59690
X48260Y59690
X50800Y59690
X53340Y59690
X68580Y59690
X66040Y59690
X55880Y59690
X58420Y59690
X60960Y59690
X63500Y59690
T12
X31750Y139700
X41910Y139700
T13
X40400Y96280
X37860Y95260
X40400Y94240
X37860Y93220
X40400Y92200
X37860Y91180
X40400Y90160
X37860Y89140
X139940Y32260
X142480Y31240
X139940Y30220
X142480Y29200
X139940Y28180
X122950Y31510
X121930Y34050
X119890Y34050
X118870Y31510
X139940Y53080
X117850Y34050
X139940Y57160
X116830Y31510
X115810Y34050
X120910Y31510
X142480Y58180
X142480Y56140
X139940Y55120
X142480Y54100
X142480Y52060
X139940Y51040
X142480Y35320
X139940Y34300
X142480Y33280
T14
X57150Y140970
X46990Y140970
X55880Y148590
X58420Y148590
X116840Y68580
X114300Y68580
X111760Y68580
X109220Y68580
X106680Y68580
X101600Y68580
X96520Y68580
X93980Y68580
X116840Y60960
X96520Y60960
X93980Y60960
X99060Y60960
X101600Y60960
X104140Y60960
X86360Y60960
X83820Y60960
X104140Y68580
X106680Y60960
X99060Y68580
X109220Y60960
X91440Y60960
X88900Y60960
X111760Y60960
X114300Y60960
X83820Y68580
X86360Y68580
X88900Y68580
X91440Y68580
X83820Y74930
X86360Y74930
M30