G04 EAGLE Gerber RS-274X export*
G75*
%MOMM*%
%FSLAX34Y34*%
%LPD*%
%INTop Copper*%
%IPPOS*%
%AMOC8*
5,1,8,0,0,1.08239X$1,22.5*%
G01*
%ADD10C,0.152400*%
%ADD11C,1.422400*%
%ADD12C,2.400000*%
%ADD13C,2.540000*%
%ADD14R,2.184400X2.184400*%
%ADD15C,2.184400*%
%ADD16P,1.429621X8X292.500000*%
%ADD17P,1.429621X8X22.500000*%
%ADD18C,0.609600*%
%ADD19C,0.203200*%

G36*
X656825Y328941D02*
X656825Y328941D01*
X656906Y328941D01*
X656982Y328961D01*
X657059Y328971D01*
X657135Y329001D01*
X657214Y329021D01*
X657283Y329059D01*
X657355Y329088D01*
X657421Y329136D01*
X657493Y329175D01*
X657549Y329229D01*
X657612Y329274D01*
X657665Y329337D01*
X657724Y329393D01*
X657765Y329459D01*
X657815Y329519D01*
X657850Y329593D01*
X657894Y329662D01*
X657918Y329737D01*
X657951Y329807D01*
X657966Y329887D01*
X657991Y329965D01*
X657996Y330043D01*
X658011Y330120D01*
X658005Y330201D01*
X658010Y330282D01*
X657996Y330359D01*
X657991Y330437D01*
X657966Y330515D01*
X657950Y330595D01*
X657917Y330665D01*
X657893Y330739D01*
X657849Y330808D01*
X657814Y330882D01*
X657764Y330942D01*
X657723Y331008D01*
X657663Y331064D01*
X657611Y331127D01*
X657548Y331173D01*
X657491Y331226D01*
X657419Y331265D01*
X657353Y331313D01*
X657217Y331377D01*
X657212Y331380D01*
X657211Y331380D01*
X657208Y331382D01*
X652787Y333117D01*
X643319Y340667D01*
X636497Y350673D01*
X632927Y362245D01*
X632927Y374355D01*
X636497Y385927D01*
X643319Y395933D01*
X652787Y403483D01*
X664060Y407908D01*
X676136Y408813D01*
X687943Y406118D01*
X698430Y400063D01*
X706667Y391186D01*
X708026Y388363D01*
X708045Y388334D01*
X708058Y388302D01*
X708131Y388201D01*
X708199Y388096D01*
X708224Y388073D01*
X708244Y388045D01*
X708341Y387965D01*
X708433Y387880D01*
X708463Y387864D01*
X708489Y387842D01*
X708603Y387789D01*
X708713Y387729D01*
X708746Y387721D01*
X708777Y387707D01*
X708900Y387683D01*
X709022Y387653D01*
X709056Y387653D01*
X709090Y387647D01*
X709214Y387655D01*
X709340Y387656D01*
X709373Y387665D01*
X709407Y387667D01*
X709526Y387705D01*
X709647Y387737D01*
X709677Y387754D01*
X709709Y387765D01*
X709815Y387832D01*
X709924Y387893D01*
X709949Y387917D01*
X709978Y387935D01*
X710064Y388026D01*
X710155Y388113D01*
X710173Y388141D01*
X710196Y388166D01*
X710257Y388276D01*
X710323Y388382D01*
X710333Y388415D01*
X710350Y388445D01*
X710381Y388566D01*
X710419Y388686D01*
X710421Y388720D01*
X710429Y388753D01*
X710439Y388914D01*
X710439Y665186D01*
X710435Y665220D01*
X710437Y665254D01*
X710415Y665378D01*
X710399Y665502D01*
X710387Y665534D01*
X710381Y665567D01*
X710328Y665681D01*
X710282Y665798D01*
X710262Y665825D01*
X710248Y665856D01*
X710169Y665954D01*
X710096Y666055D01*
X710069Y666077D01*
X710048Y666103D01*
X709947Y666178D01*
X709851Y666258D01*
X709820Y666272D01*
X709792Y666293D01*
X709676Y666340D01*
X709563Y666393D01*
X709529Y666400D01*
X709498Y666413D01*
X709373Y666430D01*
X709251Y666453D01*
X709216Y666451D01*
X709182Y666456D01*
X709058Y666441D01*
X708933Y666433D01*
X708901Y666423D01*
X708867Y666419D01*
X708750Y666374D01*
X708631Y666335D01*
X708602Y666317D01*
X708570Y666305D01*
X708468Y666232D01*
X708362Y666165D01*
X708338Y666140D01*
X708311Y666120D01*
X708230Y666025D01*
X708144Y665934D01*
X708127Y665904D01*
X708105Y665877D01*
X708026Y665737D01*
X706667Y662914D01*
X698430Y654037D01*
X687943Y647982D01*
X676136Y645287D01*
X664060Y646192D01*
X652787Y650617D01*
X643319Y658167D01*
X636497Y668173D01*
X632927Y679745D01*
X632927Y691855D01*
X636497Y703427D01*
X643319Y713433D01*
X652787Y720983D01*
X657208Y722719D01*
X657279Y722758D01*
X657355Y722788D01*
X657418Y722833D01*
X657487Y722871D01*
X657546Y722927D01*
X657612Y722974D01*
X657662Y723035D01*
X657719Y723088D01*
X657763Y723157D01*
X657815Y723219D01*
X657848Y723290D01*
X657890Y723356D01*
X657916Y723433D01*
X657951Y723507D01*
X657965Y723584D01*
X657990Y723658D01*
X657995Y723739D01*
X658011Y723820D01*
X658006Y723897D01*
X658011Y723975D01*
X657996Y724056D01*
X657991Y724137D01*
X657967Y724211D01*
X657952Y724288D01*
X657918Y724362D01*
X657893Y724439D01*
X657851Y724505D01*
X657818Y724576D01*
X657766Y724639D01*
X657723Y724708D01*
X657666Y724762D01*
X657616Y724822D01*
X657550Y724870D01*
X657491Y724926D01*
X657423Y724964D01*
X657360Y725010D01*
X657284Y725040D01*
X657212Y725080D01*
X657137Y725099D01*
X657064Y725128D01*
X656983Y725139D01*
X656905Y725159D01*
X656754Y725169D01*
X656749Y725169D01*
X656747Y725169D01*
X656744Y725169D01*
X220093Y725169D01*
X219948Y725151D01*
X219803Y725136D01*
X219790Y725131D01*
X219777Y725129D01*
X219642Y725076D01*
X219505Y725025D01*
X219494Y725017D01*
X219481Y725012D01*
X219363Y724927D01*
X219244Y724844D01*
X219235Y724834D01*
X219224Y724826D01*
X219131Y724713D01*
X219036Y724603D01*
X219030Y724591D01*
X219021Y724581D01*
X218959Y724449D01*
X218894Y724318D01*
X218891Y724305D01*
X218886Y724293D01*
X218858Y724151D01*
X218828Y724007D01*
X218828Y723994D01*
X218826Y723981D01*
X218835Y723836D01*
X218841Y723690D01*
X218845Y723677D01*
X218846Y723663D01*
X218890Y723525D01*
X218933Y723385D01*
X218940Y723373D01*
X218944Y723361D01*
X219022Y723237D01*
X219097Y723113D01*
X219107Y723103D01*
X219114Y723092D01*
X219220Y722992D01*
X219324Y722890D01*
X219339Y722880D01*
X219345Y722874D01*
X219360Y722866D01*
X219458Y722801D01*
X228530Y717563D01*
X236767Y708686D01*
X242022Y697775D01*
X243826Y685800D01*
X242022Y673825D01*
X236767Y662914D01*
X228530Y654037D01*
X218043Y647982D01*
X206236Y645287D01*
X194160Y646192D01*
X182887Y650616D01*
X173419Y658167D01*
X166597Y668173D01*
X165043Y673211D01*
X164990Y673329D01*
X164942Y673448D01*
X164924Y673473D01*
X164912Y673501D01*
X164831Y673601D01*
X164756Y673705D01*
X164732Y673725D01*
X164713Y673749D01*
X164610Y673826D01*
X164511Y673908D01*
X164483Y673921D01*
X164458Y673940D01*
X164339Y673989D01*
X164223Y674044D01*
X164193Y674050D01*
X164165Y674061D01*
X164037Y674079D01*
X163910Y674104D01*
X163880Y674102D01*
X163850Y674106D01*
X163721Y674092D01*
X163593Y674084D01*
X163564Y674074D01*
X163534Y674071D01*
X163413Y674025D01*
X163291Y673986D01*
X163265Y673969D01*
X163236Y673959D01*
X163131Y673885D01*
X163022Y673816D01*
X163001Y673793D01*
X162976Y673776D01*
X162892Y673678D01*
X162804Y673584D01*
X162789Y673557D01*
X162769Y673534D01*
X162713Y673419D01*
X162650Y673306D01*
X162643Y673276D01*
X162629Y673248D01*
X162603Y673122D01*
X162571Y672998D01*
X162568Y672954D01*
X162565Y672937D01*
X162566Y672915D01*
X162561Y672837D01*
X162561Y381263D01*
X162577Y381135D01*
X162587Y381007D01*
X162597Y380978D01*
X162601Y380948D01*
X162648Y380828D01*
X162690Y380706D01*
X162706Y380680D01*
X162718Y380652D01*
X162793Y380548D01*
X162864Y380440D01*
X162886Y380419D01*
X162904Y380395D01*
X163004Y380312D01*
X163099Y380226D01*
X163126Y380211D01*
X163149Y380192D01*
X163266Y380137D01*
X163380Y380076D01*
X163410Y380069D01*
X163437Y380056D01*
X163563Y380032D01*
X163689Y380002D01*
X163719Y380002D01*
X163749Y379996D01*
X163878Y380004D01*
X164007Y380006D01*
X164036Y380014D01*
X164067Y380016D01*
X164189Y380056D01*
X164314Y380090D01*
X164340Y380105D01*
X164369Y380114D01*
X164478Y380183D01*
X164590Y380247D01*
X164612Y380268D01*
X164638Y380284D01*
X164727Y380378D01*
X164819Y380468D01*
X164835Y380494D01*
X164856Y380516D01*
X164918Y380629D01*
X164986Y380738D01*
X165001Y380780D01*
X165010Y380794D01*
X165015Y380815D01*
X165043Y380889D01*
X166597Y385927D01*
X173419Y395933D01*
X182887Y403484D01*
X194160Y407908D01*
X206236Y408813D01*
X218043Y406118D01*
X228530Y400063D01*
X236767Y391186D01*
X242022Y380275D01*
X243826Y368300D01*
X242022Y356325D01*
X236767Y345414D01*
X228530Y336537D01*
X219458Y331299D01*
X219342Y331211D01*
X219224Y331126D01*
X219215Y331115D01*
X219205Y331107D01*
X219114Y330993D01*
X219021Y330881D01*
X219015Y330868D01*
X219007Y330858D01*
X218947Y330724D01*
X218886Y330593D01*
X218883Y330580D01*
X218878Y330567D01*
X218853Y330423D01*
X218826Y330281D01*
X218827Y330267D01*
X218824Y330254D01*
X218837Y330108D01*
X218846Y329963D01*
X218850Y329950D01*
X218851Y329937D01*
X218899Y329799D01*
X218944Y329661D01*
X218951Y329649D01*
X218955Y329636D01*
X219036Y329515D01*
X219114Y329392D01*
X219124Y329383D01*
X219131Y329371D01*
X219239Y329274D01*
X219345Y329174D01*
X219357Y329167D01*
X219367Y329158D01*
X219496Y329091D01*
X219624Y329020D01*
X219637Y329017D01*
X219649Y329011D01*
X219791Y328977D01*
X219932Y328941D01*
X219950Y328940D01*
X219959Y328938D01*
X219976Y328938D01*
X220093Y328931D01*
X656744Y328931D01*
X656825Y328941D01*
G37*
%LPC*%
G36*
X554682Y552563D02*
X554682Y552563D01*
X551508Y553878D01*
X549078Y556308D01*
X547763Y559482D01*
X547763Y562918D01*
X549078Y566092D01*
X551508Y568522D01*
X554682Y569837D01*
X558044Y569837D01*
X558142Y569849D01*
X558241Y569852D01*
X558300Y569869D01*
X558360Y569877D01*
X558452Y569913D01*
X558547Y569941D01*
X558599Y569971D01*
X558655Y569994D01*
X558735Y570052D01*
X558821Y570102D01*
X558896Y570168D01*
X558913Y570180D01*
X558921Y570190D01*
X558942Y570208D01*
X566556Y577822D01*
X566616Y577901D01*
X566684Y577973D01*
X566713Y578026D01*
X566750Y578074D01*
X566790Y578165D01*
X566838Y578251D01*
X566853Y578310D01*
X566877Y578365D01*
X566892Y578463D01*
X566917Y578559D01*
X566923Y578659D01*
X566927Y578680D01*
X566925Y578692D01*
X566927Y578720D01*
X566927Y594070D01*
X566915Y594168D01*
X566912Y594267D01*
X566895Y594325D01*
X566887Y594386D01*
X566851Y594478D01*
X566823Y594573D01*
X566793Y594625D01*
X566770Y594681D01*
X566712Y594761D01*
X566662Y594847D01*
X566596Y594922D01*
X566584Y594939D01*
X566574Y594946D01*
X566556Y594967D01*
X564556Y596967D01*
X564554Y597035D01*
X564537Y597094D01*
X564529Y597154D01*
X564493Y597246D01*
X564465Y597341D01*
X564435Y597393D01*
X564412Y597449D01*
X564354Y597529D01*
X564304Y597615D01*
X564238Y597690D01*
X564226Y597707D01*
X564216Y597715D01*
X564198Y597736D01*
X531320Y630614D01*
X531241Y630674D01*
X531169Y630742D01*
X531116Y630771D01*
X531068Y630808D01*
X530977Y630848D01*
X530891Y630896D01*
X530832Y630911D01*
X530777Y630935D01*
X530679Y630950D01*
X530583Y630975D01*
X530483Y630981D01*
X530462Y630985D01*
X530450Y630983D01*
X530422Y630985D01*
X460380Y630985D01*
X460242Y630968D01*
X460103Y630955D01*
X460084Y630948D01*
X460064Y630945D01*
X459935Y630894D01*
X459804Y630847D01*
X459787Y630836D01*
X459768Y630828D01*
X459656Y630747D01*
X459541Y630669D01*
X459527Y630653D01*
X459511Y630642D01*
X459422Y630534D01*
X459330Y630430D01*
X459321Y630412D01*
X459308Y630397D01*
X459249Y630271D01*
X459186Y630147D01*
X459181Y630127D01*
X459173Y630109D01*
X459147Y629973D01*
X459116Y629837D01*
X459117Y629816D01*
X459113Y629797D01*
X459122Y629658D01*
X459126Y629519D01*
X459131Y629499D01*
X459133Y629479D01*
X459175Y629347D01*
X459214Y629213D01*
X459224Y629196D01*
X459231Y629177D01*
X459305Y629059D01*
X459376Y628939D01*
X459394Y628918D01*
X459401Y628908D01*
X459416Y628894D01*
X459482Y628819D01*
X465723Y622578D01*
X469211Y614157D01*
X469211Y605043D01*
X465723Y596622D01*
X459278Y590177D01*
X450857Y586689D01*
X441743Y586689D01*
X433322Y590177D01*
X426877Y596622D01*
X423389Y605043D01*
X423389Y614157D01*
X426877Y622578D01*
X432560Y628261D01*
X432645Y628370D01*
X432734Y628477D01*
X432742Y628496D01*
X432755Y628512D01*
X432810Y628640D01*
X432869Y628765D01*
X432873Y628785D01*
X432881Y628804D01*
X432903Y628942D01*
X432929Y629078D01*
X432928Y629098D01*
X432931Y629118D01*
X432918Y629257D01*
X432909Y629395D01*
X432903Y629414D01*
X432901Y629434D01*
X432854Y629566D01*
X432811Y629697D01*
X432800Y629715D01*
X432794Y629734D01*
X432716Y629849D01*
X432641Y629966D01*
X432626Y629980D01*
X432615Y629997D01*
X432511Y630089D01*
X432410Y630184D01*
X432392Y630194D01*
X432377Y630207D01*
X432252Y630271D01*
X432131Y630338D01*
X432111Y630343D01*
X432093Y630352D01*
X431958Y630382D01*
X431823Y630417D01*
X431795Y630419D01*
X431783Y630422D01*
X431763Y630421D01*
X431662Y630427D01*
X319920Y630427D01*
X319822Y630415D01*
X319723Y630412D01*
X319664Y630395D01*
X319604Y630387D01*
X319512Y630351D01*
X319417Y630323D01*
X319365Y630293D01*
X319309Y630270D01*
X319229Y630212D01*
X319143Y630162D01*
X319068Y630096D01*
X319051Y630084D01*
X319043Y630074D01*
X319022Y630056D01*
X304918Y615952D01*
X304858Y615873D01*
X304790Y615801D01*
X304761Y615748D01*
X304724Y615700D01*
X304684Y615609D01*
X304636Y615523D01*
X304621Y615464D01*
X304597Y615409D01*
X304582Y615311D01*
X304557Y615215D01*
X304551Y615115D01*
X304547Y615094D01*
X304549Y615082D01*
X304547Y615054D01*
X304547Y598046D01*
X303654Y597153D01*
X280546Y597153D01*
X279653Y598046D01*
X279653Y621154D01*
X280546Y622047D01*
X297554Y622047D01*
X297652Y622059D01*
X297751Y622062D01*
X297810Y622079D01*
X297870Y622087D01*
X297962Y622123D01*
X298057Y622151D01*
X298109Y622181D01*
X298165Y622204D01*
X298245Y622262D01*
X298331Y622312D01*
X298406Y622378D01*
X298423Y622390D01*
X298431Y622400D01*
X298452Y622418D01*
X315606Y639573D01*
X432570Y639573D01*
X432668Y639585D01*
X432767Y639588D01*
X432825Y639605D01*
X432886Y639613D01*
X432978Y639649D01*
X433073Y639677D01*
X433125Y639707D01*
X433181Y639730D01*
X433261Y639788D01*
X433347Y639838D01*
X433422Y639904D01*
X433439Y639916D01*
X433446Y639926D01*
X433467Y639944D01*
X433654Y640131D01*
X534736Y640131D01*
X570023Y604844D01*
X570132Y604759D01*
X570239Y604670D01*
X570258Y604662D01*
X570274Y604649D01*
X570402Y604594D01*
X570527Y604535D01*
X570547Y604531D01*
X570566Y604523D01*
X570704Y604501D01*
X570840Y604475D01*
X570860Y604476D01*
X570880Y604473D01*
X571019Y604486D01*
X571157Y604495D01*
X571176Y604501D01*
X571196Y604503D01*
X571328Y604550D01*
X571459Y604593D01*
X571477Y604604D01*
X571496Y604611D01*
X571611Y604689D01*
X571728Y604763D01*
X571742Y604778D01*
X571759Y604789D01*
X571851Y604893D01*
X571946Y604995D01*
X571956Y605012D01*
X571969Y605028D01*
X572033Y605151D01*
X572100Y605273D01*
X572105Y605293D01*
X572114Y605311D01*
X572144Y605447D01*
X572179Y605581D01*
X572181Y605609D01*
X572184Y605621D01*
X572183Y605642D01*
X572189Y605742D01*
X572189Y614157D01*
X575677Y622578D01*
X582122Y629023D01*
X590543Y632511D01*
X599657Y632511D01*
X608078Y629023D01*
X614523Y622578D01*
X618011Y614157D01*
X618011Y605043D01*
X614523Y596622D01*
X608078Y590177D01*
X599657Y586689D01*
X590543Y586689D01*
X582122Y590177D01*
X578239Y594060D01*
X578130Y594145D01*
X578023Y594234D01*
X578004Y594242D01*
X577988Y594255D01*
X577860Y594310D01*
X577735Y594369D01*
X577715Y594373D01*
X577696Y594381D01*
X577558Y594403D01*
X577422Y594429D01*
X577402Y594428D01*
X577382Y594431D01*
X577243Y594418D01*
X577105Y594409D01*
X577086Y594403D01*
X577066Y594401D01*
X576934Y594354D01*
X576803Y594311D01*
X576785Y594300D01*
X576766Y594294D01*
X576651Y594216D01*
X576534Y594141D01*
X576520Y594126D01*
X576503Y594115D01*
X576411Y594011D01*
X576316Y593910D01*
X576306Y593892D01*
X576293Y593877D01*
X576229Y593752D01*
X576162Y593631D01*
X576157Y593611D01*
X576148Y593593D01*
X576118Y593458D01*
X576083Y593323D01*
X576081Y593295D01*
X576078Y593283D01*
X576079Y593263D01*
X576073Y593162D01*
X576073Y574406D01*
X565408Y563742D01*
X565348Y563663D01*
X565280Y563591D01*
X565251Y563538D01*
X565214Y563490D01*
X565174Y563399D01*
X565126Y563313D01*
X565111Y563254D01*
X565087Y563199D01*
X565072Y563101D01*
X565047Y563005D01*
X565041Y562905D01*
X565037Y562884D01*
X565039Y562872D01*
X565037Y562844D01*
X565037Y559482D01*
X563722Y556308D01*
X561292Y553878D01*
X558118Y552563D01*
X554682Y552563D01*
G37*
%LPD*%
%LPC*%
G36*
X433359Y644639D02*
X433359Y644639D01*
X429624Y646186D01*
X426766Y649044D01*
X425219Y652779D01*
X425219Y656821D01*
X426766Y660556D01*
X429624Y663414D01*
X433359Y664961D01*
X608041Y664961D01*
X611776Y663414D01*
X614634Y660556D01*
X616181Y656821D01*
X616181Y652779D01*
X614634Y649044D01*
X611776Y646186D01*
X608041Y644639D01*
X433359Y644639D01*
G37*
%LPD*%
%LPC*%
G36*
X327370Y417575D02*
X327370Y417575D01*
X322142Y419741D01*
X318141Y423742D01*
X315975Y428970D01*
X315975Y434630D01*
X318141Y439858D01*
X322142Y443859D01*
X327370Y446025D01*
X333030Y446025D01*
X337763Y444064D01*
X337791Y444056D01*
X337818Y444043D01*
X337944Y444014D01*
X338070Y443980D01*
X338099Y443980D01*
X338128Y443973D01*
X338258Y443977D01*
X338388Y443975D01*
X338416Y443982D01*
X338446Y443983D01*
X338570Y444019D01*
X338697Y444049D01*
X338723Y444063D01*
X338751Y444071D01*
X338863Y444137D01*
X338978Y444198D01*
X339000Y444218D01*
X339025Y444233D01*
X339146Y444339D01*
X367248Y472441D01*
X404822Y472441D01*
X404920Y472453D01*
X405019Y472456D01*
X405077Y472473D01*
X405137Y472481D01*
X405229Y472517D01*
X405325Y472545D01*
X405377Y472575D01*
X405433Y472598D01*
X405513Y472656D01*
X405598Y472706D01*
X405674Y472772D01*
X405690Y472784D01*
X405698Y472794D01*
X405719Y472812D01*
X428888Y495981D01*
X428948Y496059D01*
X429016Y496131D01*
X429045Y496184D01*
X429082Y496232D01*
X429122Y496323D01*
X429170Y496410D01*
X429185Y496468D01*
X429209Y496524D01*
X429224Y496622D01*
X429249Y496717D01*
X429255Y496818D01*
X429259Y496838D01*
X429257Y496850D01*
X429259Y496878D01*
X429259Y521752D01*
X481548Y574041D01*
X488722Y574041D01*
X488820Y574053D01*
X488919Y574056D01*
X488977Y574073D01*
X489037Y574081D01*
X489129Y574117D01*
X489225Y574145D01*
X489277Y574175D01*
X489333Y574198D01*
X489413Y574256D01*
X489498Y574306D01*
X489574Y574372D01*
X489590Y574384D01*
X489598Y574394D01*
X489619Y574412D01*
X491512Y576305D01*
X491585Y576400D01*
X491664Y576489D01*
X491682Y576525D01*
X491707Y576557D01*
X491755Y576666D01*
X491809Y576772D01*
X491818Y576812D01*
X491833Y576848D01*
X491852Y576966D01*
X491878Y577083D01*
X491877Y577123D01*
X491883Y577163D01*
X491872Y577282D01*
X491868Y577401D01*
X491857Y577439D01*
X491853Y577479D01*
X491813Y577592D01*
X491780Y577706D01*
X491759Y577741D01*
X491746Y577778D01*
X491679Y577877D01*
X491618Y577980D01*
X491590Y578008D01*
X491567Y578042D01*
X491478Y578121D01*
X491393Y578205D01*
X491359Y578225D01*
X491329Y578252D01*
X491222Y578306D01*
X491120Y578367D01*
X491081Y578378D01*
X491046Y578397D01*
X490929Y578423D01*
X490815Y578456D01*
X490774Y578458D01*
X490735Y578466D01*
X490616Y578463D01*
X490497Y578467D01*
X490458Y578458D01*
X490417Y578457D01*
X490303Y578423D01*
X490186Y578398D01*
X490131Y578374D01*
X490112Y578368D01*
X490094Y578358D01*
X490038Y578334D01*
X488705Y577654D01*
X487260Y577185D01*
X487249Y577183D01*
X487249Y585620D01*
X487234Y585738D01*
X487227Y585857D01*
X487214Y585895D01*
X487209Y585935D01*
X487166Y586046D01*
X487129Y586159D01*
X487107Y586193D01*
X487092Y586231D01*
X487023Y586327D01*
X486959Y586428D01*
X486929Y586456D01*
X486906Y586488D01*
X486814Y586564D01*
X486780Y586596D01*
X486788Y586601D01*
X486816Y586631D01*
X486849Y586655D01*
X486925Y586746D01*
X487006Y586833D01*
X487026Y586868D01*
X487051Y586900D01*
X487102Y587007D01*
X487160Y587112D01*
X487170Y587151D01*
X487187Y587187D01*
X487209Y587304D01*
X487239Y587420D01*
X487243Y587480D01*
X487247Y587500D01*
X487245Y587520D01*
X487249Y587580D01*
X487249Y596017D01*
X487260Y596015D01*
X488705Y595546D01*
X490059Y594856D01*
X490621Y594447D01*
X490622Y594447D01*
X491288Y593963D01*
X492363Y592888D01*
X493256Y591659D01*
X493946Y590305D01*
X494415Y588860D01*
X494423Y588812D01*
X494459Y588688D01*
X494489Y588562D01*
X494503Y588536D01*
X494511Y588507D01*
X494577Y588396D01*
X494638Y588281D01*
X494658Y588259D01*
X494673Y588233D01*
X494764Y588142D01*
X494852Y588046D01*
X494877Y588029D01*
X494898Y588008D01*
X495009Y587942D01*
X495117Y587871D01*
X495146Y587861D01*
X495172Y587846D01*
X495296Y587810D01*
X495418Y587768D01*
X495448Y587765D01*
X495477Y587757D01*
X495606Y587753D01*
X495735Y587743D01*
X495765Y587748D01*
X495795Y587747D01*
X495921Y587775D01*
X496048Y587797D01*
X496076Y587809D01*
X496105Y587816D01*
X496221Y587875D01*
X496338Y587928D01*
X496362Y587946D01*
X496389Y587960D01*
X496486Y588046D01*
X496587Y588126D01*
X496605Y588150D01*
X496628Y588170D01*
X496700Y588277D01*
X496778Y588380D01*
X496797Y588419D01*
X496807Y588433D01*
X496814Y588454D01*
X496849Y588525D01*
X498078Y591492D01*
X500508Y593922D01*
X503682Y595237D01*
X507118Y595237D01*
X510292Y593922D01*
X512722Y591492D01*
X514037Y588318D01*
X514037Y584882D01*
X512722Y581708D01*
X510292Y579278D01*
X507118Y577963D01*
X503682Y577963D01*
X502114Y578613D01*
X502086Y578621D01*
X502059Y578634D01*
X501932Y578662D01*
X501807Y578697D01*
X501778Y578697D01*
X501749Y578704D01*
X501619Y578700D01*
X501489Y578702D01*
X501461Y578695D01*
X501431Y578694D01*
X501306Y578658D01*
X501180Y578628D01*
X501154Y578614D01*
X501126Y578606D01*
X501014Y578540D01*
X500899Y578479D01*
X500877Y578459D01*
X500852Y578444D01*
X500731Y578338D01*
X494397Y572003D01*
X494311Y571894D01*
X494223Y571787D01*
X494214Y571768D01*
X494202Y571752D01*
X494146Y571623D01*
X494087Y571499D01*
X494083Y571479D01*
X494075Y571460D01*
X494053Y571322D01*
X494027Y571186D01*
X494029Y571166D01*
X494025Y571146D01*
X494039Y571007D01*
X494047Y570869D01*
X494053Y570850D01*
X494055Y570830D01*
X494102Y570698D01*
X494145Y570567D01*
X494156Y570549D01*
X494163Y570530D01*
X494241Y570415D01*
X494315Y570298D01*
X494330Y570284D01*
X494341Y570267D01*
X494446Y570175D01*
X494547Y570080D01*
X494565Y570070D01*
X494580Y570057D01*
X494704Y569993D01*
X494825Y569926D01*
X494845Y569921D01*
X494863Y569912D01*
X494999Y569882D01*
X495133Y569847D01*
X495161Y569845D01*
X495173Y569842D01*
X495194Y569843D01*
X495294Y569837D01*
X496918Y569837D01*
X500092Y568522D01*
X502522Y566092D01*
X503837Y562918D01*
X503837Y559482D01*
X502522Y556308D01*
X500092Y553878D01*
X496918Y552563D01*
X493482Y552563D01*
X490308Y553878D01*
X487878Y556308D01*
X486563Y559482D01*
X486563Y562918D01*
X487878Y566092D01*
X488578Y566793D01*
X488663Y566902D01*
X488752Y567009D01*
X488761Y567028D01*
X488773Y567044D01*
X488829Y567172D01*
X488888Y567297D01*
X488892Y567317D01*
X488900Y567336D01*
X488922Y567474D01*
X488948Y567610D01*
X488946Y567630D01*
X488949Y567650D01*
X488936Y567789D01*
X488928Y567927D01*
X488922Y567946D01*
X488920Y567966D01*
X488873Y568097D01*
X488830Y568229D01*
X488819Y568247D01*
X488812Y568266D01*
X488734Y568380D01*
X488660Y568498D01*
X488645Y568512D01*
X488633Y568529D01*
X488529Y568621D01*
X488428Y568716D01*
X488410Y568726D01*
X488395Y568739D01*
X488271Y568802D01*
X488149Y568870D01*
X488130Y568875D01*
X488112Y568884D01*
X487976Y568914D01*
X487842Y568949D01*
X487814Y568951D01*
X487802Y568954D01*
X487781Y568953D01*
X487681Y568959D01*
X484178Y568959D01*
X484080Y568947D01*
X483981Y568944D01*
X483923Y568927D01*
X483863Y568919D01*
X483771Y568883D01*
X483675Y568855D01*
X483623Y568825D01*
X483567Y568802D01*
X483487Y568744D01*
X483402Y568694D01*
X483326Y568628D01*
X483310Y568616D01*
X483302Y568606D01*
X483281Y568588D01*
X434712Y520019D01*
X434652Y519941D01*
X434584Y519869D01*
X434555Y519816D01*
X434518Y519768D01*
X434478Y519677D01*
X434430Y519590D01*
X434415Y519532D01*
X434391Y519476D01*
X434376Y519378D01*
X434351Y519283D01*
X434345Y519182D01*
X434341Y519162D01*
X434343Y519150D01*
X434341Y519122D01*
X434341Y494248D01*
X407452Y467359D01*
X369878Y467359D01*
X369780Y467347D01*
X369681Y467344D01*
X369623Y467327D01*
X369563Y467319D01*
X369471Y467283D01*
X369375Y467255D01*
X369323Y467225D01*
X369267Y467202D01*
X369187Y467144D01*
X369102Y467094D01*
X369026Y467028D01*
X369010Y467016D01*
X369002Y467006D01*
X368981Y466988D01*
X342739Y440746D01*
X342721Y440723D01*
X342699Y440704D01*
X342624Y440597D01*
X342544Y440495D01*
X342533Y440468D01*
X342516Y440444D01*
X342470Y440322D01*
X342418Y440203D01*
X342413Y440174D01*
X342403Y440146D01*
X342388Y440017D01*
X342368Y439889D01*
X342371Y439859D01*
X342368Y439830D01*
X342386Y439702D01*
X342398Y439572D01*
X342408Y439544D01*
X342412Y439515D01*
X342464Y439363D01*
X344425Y434630D01*
X344425Y428970D01*
X342259Y423742D01*
X338258Y419741D01*
X333030Y417575D01*
X327370Y417575D01*
G37*
%LPD*%
%LPC*%
G36*
X337460Y493726D02*
X337460Y493726D01*
X337366Y493741D01*
X337272Y493765D01*
X337165Y493772D01*
X337146Y493775D01*
X337136Y493774D01*
X337112Y493775D01*
X336663Y493775D01*
X336644Y493793D01*
X336579Y493844D01*
X336521Y493901D01*
X336455Y493941D01*
X336393Y493988D01*
X336318Y494021D01*
X336247Y494062D01*
X336106Y494113D01*
X336101Y494115D01*
X336099Y494115D01*
X336096Y494116D01*
X336071Y494123D01*
X335853Y494516D01*
X335796Y494594D01*
X335747Y494676D01*
X335676Y494757D01*
X335665Y494773D01*
X335656Y494779D01*
X335641Y494797D01*
X335323Y495115D01*
X335323Y495141D01*
X335313Y495222D01*
X335313Y495304D01*
X335293Y495379D01*
X335283Y495456D01*
X335253Y495532D01*
X335232Y495612D01*
X335168Y495747D01*
X335166Y495752D01*
X335165Y495753D01*
X335163Y495757D01*
X333244Y499211D01*
X333152Y499337D01*
X333060Y499464D01*
X333058Y499466D01*
X333056Y499468D01*
X332935Y499567D01*
X332815Y499666D01*
X332813Y499668D01*
X332810Y499670D01*
X332667Y499736D01*
X332528Y499802D01*
X332525Y499802D01*
X332522Y499804D01*
X332363Y499833D01*
X332215Y499862D01*
X332212Y499862D01*
X332209Y499862D01*
X332050Y499851D01*
X331898Y499842D01*
X331895Y499841D01*
X331892Y499841D01*
X331742Y499791D01*
X331595Y499744D01*
X331593Y499742D01*
X331590Y499741D01*
X331460Y499659D01*
X331327Y499574D01*
X331324Y499572D01*
X331322Y499570D01*
X331215Y499455D01*
X331109Y499342D01*
X331107Y499340D01*
X331105Y499337D01*
X331030Y499199D01*
X330955Y499064D01*
X330954Y499061D01*
X330953Y499058D01*
X330914Y498903D01*
X330876Y498756D01*
X330875Y498752D01*
X330875Y498750D01*
X330875Y498744D01*
X330865Y498595D01*
X330865Y495115D01*
X329526Y493775D01*
X327631Y493775D01*
X326124Y495283D01*
X326030Y495356D01*
X325941Y495434D01*
X325905Y495453D01*
X325873Y495478D01*
X325763Y495525D01*
X325657Y495579D01*
X325618Y495588D01*
X325581Y495604D01*
X325463Y495623D01*
X325347Y495649D01*
X325307Y495647D01*
X325267Y495654D01*
X325148Y495643D01*
X325029Y495639D01*
X324990Y495628D01*
X324950Y495624D01*
X324838Y495584D01*
X324724Y495551D01*
X324689Y495530D01*
X324651Y495516D01*
X324552Y495449D01*
X324450Y495389D01*
X324405Y495349D01*
X324388Y495338D01*
X324374Y495323D01*
X324329Y495283D01*
X322822Y493775D01*
X317315Y493775D01*
X315975Y495115D01*
X315975Y497009D01*
X317410Y498444D01*
X317470Y498522D01*
X317538Y498594D01*
X317568Y498647D01*
X317605Y498695D01*
X317644Y498786D01*
X317692Y498873D01*
X317707Y498931D01*
X317731Y498987D01*
X317747Y499085D01*
X317771Y499180D01*
X317778Y499281D01*
X317781Y499301D01*
X317780Y499313D01*
X317781Y499341D01*
X317781Y509039D01*
X317769Y509137D01*
X317766Y509236D01*
X317749Y509294D01*
X317742Y509354D01*
X317705Y509446D01*
X317678Y509542D01*
X317647Y509594D01*
X317625Y509650D01*
X317566Y509730D01*
X317516Y509815D01*
X317450Y509891D01*
X317438Y509907D01*
X317428Y509915D01*
X317410Y509936D01*
X315975Y511371D01*
X315975Y513265D01*
X317315Y514605D01*
X322822Y514605D01*
X324329Y513097D01*
X324423Y513024D01*
X324512Y512946D01*
X324548Y512927D01*
X324580Y512902D01*
X324690Y512855D01*
X324796Y512801D01*
X324835Y512792D01*
X324872Y512776D01*
X324990Y512757D01*
X325106Y512731D01*
X325146Y512733D01*
X325186Y512726D01*
X325305Y512737D01*
X325424Y512741D01*
X325463Y512752D01*
X325503Y512756D01*
X325615Y512796D01*
X325729Y512829D01*
X325764Y512850D01*
X325802Y512864D01*
X325901Y512930D01*
X326003Y512991D01*
X326048Y513031D01*
X326065Y513042D01*
X326079Y513057D01*
X326124Y513097D01*
X326310Y513283D01*
X326361Y513348D01*
X326418Y513406D01*
X326457Y513473D01*
X326505Y513535D01*
X326538Y513610D01*
X326579Y513681D01*
X326629Y513821D01*
X326631Y513827D01*
X326632Y513829D01*
X326633Y513832D01*
X326640Y513857D01*
X327033Y514075D01*
X327110Y514132D01*
X327193Y514181D01*
X327274Y514252D01*
X327289Y514263D01*
X327296Y514271D01*
X327314Y514287D01*
X327631Y514605D01*
X327657Y514605D01*
X327738Y514615D01*
X327820Y514615D01*
X327896Y514635D01*
X327973Y514645D01*
X328049Y514675D01*
X328128Y514695D01*
X328264Y514760D01*
X328268Y514762D01*
X328270Y514763D01*
X328274Y514764D01*
X328296Y514777D01*
X328728Y514654D01*
X328823Y514639D01*
X328916Y514615D01*
X329023Y514608D01*
X329042Y514605D01*
X329053Y514606D01*
X329077Y514605D01*
X329526Y514605D01*
X329544Y514587D01*
X329609Y514536D01*
X329667Y514479D01*
X329734Y514439D01*
X329795Y514392D01*
X329871Y514359D01*
X329941Y514318D01*
X330082Y514267D01*
X330087Y514265D01*
X330089Y514265D01*
X330093Y514264D01*
X330118Y514257D01*
X330336Y513864D01*
X330393Y513786D01*
X330441Y513704D01*
X330512Y513623D01*
X330524Y513607D01*
X330532Y513601D01*
X330548Y513583D01*
X330865Y513265D01*
X330865Y513239D01*
X330876Y513158D01*
X330876Y513076D01*
X330896Y513001D01*
X330905Y512924D01*
X330935Y512848D01*
X330956Y512768D01*
X331020Y512633D01*
X331022Y512628D01*
X331023Y512627D01*
X331025Y512623D01*
X332944Y509169D01*
X333039Y509039D01*
X333128Y508916D01*
X333131Y508914D01*
X333132Y508912D01*
X333253Y508813D01*
X333373Y508714D01*
X333376Y508712D01*
X333378Y508710D01*
X333523Y508643D01*
X333661Y508578D01*
X333664Y508578D01*
X333667Y508576D01*
X333825Y508547D01*
X333973Y508518D01*
X333976Y508518D01*
X333979Y508518D01*
X334139Y508529D01*
X334291Y508538D01*
X334293Y508539D01*
X334297Y508539D01*
X334447Y508589D01*
X334593Y508636D01*
X334596Y508638D01*
X334599Y508639D01*
X334728Y508721D01*
X334862Y508806D01*
X334864Y508808D01*
X334866Y508810D01*
X334970Y508921D01*
X335080Y509038D01*
X335081Y509040D01*
X335083Y509043D01*
X335159Y509181D01*
X335233Y509316D01*
X335234Y509319D01*
X335236Y509322D01*
X335275Y509476D01*
X335313Y509624D01*
X335313Y509628D01*
X335314Y509630D01*
X335314Y509636D01*
X335323Y509785D01*
X335323Y513265D01*
X336663Y514605D01*
X338557Y514605D01*
X339897Y513265D01*
X339897Y509239D01*
X339912Y509120D01*
X339919Y509000D01*
X339931Y508962D01*
X339936Y508923D01*
X339980Y508812D01*
X340018Y508697D01*
X340039Y508664D01*
X340053Y508627D01*
X340124Y508530D01*
X340188Y508429D01*
X340217Y508402D01*
X340240Y508370D01*
X340333Y508293D01*
X340420Y508211D01*
X340455Y508192D01*
X340485Y508167D01*
X340594Y508116D01*
X340699Y508058D01*
X340737Y508048D01*
X340773Y508032D01*
X340891Y508009D01*
X341007Y507979D01*
X341047Y507979D01*
X341085Y507972D01*
X341205Y507979D01*
X341325Y507979D01*
X341363Y507989D01*
X341403Y507992D01*
X341517Y508029D01*
X341633Y508058D01*
X341668Y508077D01*
X341705Y508090D01*
X341807Y508154D01*
X341912Y508212D01*
X341940Y508239D01*
X341974Y508260D01*
X342056Y508347D01*
X342144Y508429D01*
X342165Y508463D01*
X342192Y508491D01*
X342250Y508596D01*
X342314Y508698D01*
X342336Y508752D01*
X342345Y508770D01*
X342350Y508790D01*
X342373Y508848D01*
X342555Y509410D01*
X343048Y510930D01*
X345183Y513305D01*
X348101Y514605D01*
X351400Y514605D01*
X354347Y512903D01*
X356049Y509956D01*
X356049Y506889D01*
X354973Y504379D01*
X354120Y503567D01*
X354109Y503553D01*
X354029Y503469D01*
X351453Y500440D01*
X351405Y500366D01*
X351349Y500299D01*
X351319Y500234D01*
X351279Y500174D01*
X351251Y500090D01*
X351214Y500011D01*
X351200Y499941D01*
X351177Y499873D01*
X351170Y499785D01*
X351154Y499698D01*
X351158Y499627D01*
X351153Y499556D01*
X351168Y499469D01*
X351174Y499381D01*
X351196Y499313D01*
X351208Y499242D01*
X351245Y499162D01*
X351272Y499079D01*
X351310Y499018D01*
X351340Y498953D01*
X351395Y498884D01*
X351442Y498810D01*
X351494Y498761D01*
X351539Y498705D01*
X351609Y498652D01*
X351673Y498592D01*
X351736Y498557D01*
X351794Y498514D01*
X351875Y498481D01*
X351952Y498438D01*
X352021Y498421D01*
X352088Y498393D01*
X352175Y498381D01*
X352260Y498359D01*
X352389Y498351D01*
X352402Y498349D01*
X352408Y498350D01*
X352421Y498349D01*
X354709Y498349D01*
X356049Y497009D01*
X356049Y495115D01*
X354709Y493775D01*
X344875Y493775D01*
X344853Y493773D01*
X344773Y493771D01*
X343862Y493697D01*
X343216Y494343D01*
X343199Y494356D01*
X343140Y494413D01*
X342444Y495005D01*
X342444Y495596D01*
X342426Y495738D01*
X342412Y495880D01*
X342406Y495895D01*
X342404Y495912D01*
X342352Y496044D01*
X342303Y496178D01*
X342293Y496192D01*
X342287Y496208D01*
X342204Y496323D01*
X342123Y496440D01*
X342110Y496451D01*
X342101Y496465D01*
X341990Y496556D01*
X341883Y496650D01*
X341868Y496657D01*
X341856Y496668D01*
X341727Y496728D01*
X341599Y496793D01*
X341583Y496796D01*
X341568Y496803D01*
X341428Y496830D01*
X341289Y496861D01*
X341272Y496860D01*
X341255Y496863D01*
X341114Y496854D01*
X340971Y496849D01*
X340955Y496844D01*
X340938Y496843D01*
X340803Y496799D01*
X340666Y496759D01*
X340651Y496750D01*
X340636Y496745D01*
X340515Y496669D01*
X340393Y496596D01*
X340381Y496584D01*
X340367Y496575D01*
X340269Y496471D01*
X340169Y496370D01*
X340160Y496356D01*
X340149Y496343D01*
X340080Y496219D01*
X340008Y496096D01*
X340000Y496074D01*
X339995Y496065D01*
X339991Y496047D01*
X339954Y495944D01*
X339945Y495912D01*
X339931Y495817D01*
X339907Y495725D01*
X339900Y495616D01*
X339897Y495597D01*
X339898Y495587D01*
X339897Y495564D01*
X339897Y495115D01*
X339878Y495097D01*
X339828Y495032D01*
X339770Y494974D01*
X339731Y494907D01*
X339683Y494845D01*
X339651Y494770D01*
X339609Y494699D01*
X339559Y494559D01*
X339557Y494553D01*
X339557Y494551D01*
X339555Y494548D01*
X339548Y494523D01*
X339156Y494305D01*
X339078Y494248D01*
X338995Y494199D01*
X338915Y494128D01*
X338899Y494117D01*
X338892Y494109D01*
X338875Y494093D01*
X338557Y493775D01*
X338531Y493775D01*
X338450Y493765D01*
X338368Y493765D01*
X338293Y493745D01*
X338216Y493735D01*
X338140Y493705D01*
X338060Y493685D01*
X337925Y493620D01*
X337920Y493618D01*
X337918Y493617D01*
X337915Y493616D01*
X337892Y493603D01*
X337460Y493726D01*
G37*
%LPD*%
%LPC*%
G36*
X276570Y417575D02*
X276570Y417575D01*
X271342Y419741D01*
X267341Y423742D01*
X265175Y428970D01*
X265175Y434630D01*
X267341Y439858D01*
X271342Y443859D01*
X276570Y446025D01*
X282230Y446025D01*
X287458Y443859D01*
X291459Y439858D01*
X293625Y434630D01*
X293625Y428970D01*
X291459Y423742D01*
X287458Y419741D01*
X282230Y417575D01*
X276570Y417575D01*
G37*
%LPD*%
%LPC*%
G36*
X581370Y417575D02*
X581370Y417575D01*
X576142Y419741D01*
X572141Y423742D01*
X569975Y428970D01*
X569975Y434630D01*
X572141Y439858D01*
X576142Y443859D01*
X581370Y446025D01*
X587030Y446025D01*
X592258Y443859D01*
X596259Y439858D01*
X598425Y434630D01*
X598425Y428970D01*
X596259Y423742D01*
X592258Y419741D01*
X587030Y417575D01*
X581370Y417575D01*
G37*
%LPD*%
%LPC*%
G36*
X530570Y417575D02*
X530570Y417575D01*
X525342Y419741D01*
X521341Y423742D01*
X519175Y428970D01*
X519175Y434630D01*
X521341Y439858D01*
X525342Y443859D01*
X530570Y446025D01*
X536230Y446025D01*
X541458Y443859D01*
X545459Y439858D01*
X547625Y434630D01*
X547625Y428970D01*
X545459Y423742D01*
X541458Y419741D01*
X536230Y417575D01*
X530570Y417575D01*
G37*
%LPD*%
%LPC*%
G36*
X479770Y417575D02*
X479770Y417575D01*
X474542Y419741D01*
X470541Y423742D01*
X468375Y428970D01*
X468375Y434630D01*
X470541Y439858D01*
X474542Y443859D01*
X479770Y446025D01*
X485430Y446025D01*
X490658Y443859D01*
X494659Y439858D01*
X496825Y434630D01*
X496825Y428970D01*
X494659Y423742D01*
X490658Y419741D01*
X485430Y417575D01*
X479770Y417575D01*
G37*
%LPD*%
%LPC*%
G36*
X378170Y417575D02*
X378170Y417575D01*
X372942Y419741D01*
X368941Y423742D01*
X366775Y428970D01*
X366775Y434630D01*
X368941Y439858D01*
X372942Y443859D01*
X378170Y446025D01*
X383830Y446025D01*
X389058Y443859D01*
X393059Y439858D01*
X395225Y434630D01*
X395225Y428970D01*
X393059Y423742D01*
X389058Y419741D01*
X383830Y417575D01*
X378170Y417575D01*
G37*
%LPD*%
%LPC*%
G36*
X286660Y493726D02*
X286660Y493726D01*
X286566Y493741D01*
X286472Y493765D01*
X286365Y493772D01*
X286346Y493775D01*
X286336Y493774D01*
X286312Y493775D01*
X285863Y493775D01*
X285844Y493793D01*
X285779Y493844D01*
X285721Y493901D01*
X285655Y493941D01*
X285593Y493988D01*
X285518Y494021D01*
X285447Y494062D01*
X285306Y494113D01*
X285301Y494115D01*
X285299Y494115D01*
X285296Y494116D01*
X285271Y494123D01*
X285053Y494516D01*
X284996Y494594D01*
X284947Y494676D01*
X284876Y494757D01*
X284865Y494773D01*
X284856Y494779D01*
X284841Y494797D01*
X284523Y495115D01*
X284523Y495141D01*
X284513Y495222D01*
X284513Y495304D01*
X284493Y495379D01*
X284483Y495456D01*
X284453Y495532D01*
X284432Y495612D01*
X284368Y495747D01*
X284366Y495752D01*
X284365Y495753D01*
X284363Y495757D01*
X282444Y499211D01*
X282352Y499337D01*
X282260Y499464D01*
X282258Y499466D01*
X282256Y499468D01*
X282135Y499567D01*
X282015Y499666D01*
X282013Y499668D01*
X282010Y499670D01*
X281867Y499736D01*
X281728Y499802D01*
X281725Y499802D01*
X281722Y499804D01*
X281563Y499833D01*
X281415Y499862D01*
X281412Y499862D01*
X281409Y499862D01*
X281250Y499851D01*
X281098Y499842D01*
X281095Y499841D01*
X281092Y499841D01*
X280942Y499791D01*
X280795Y499744D01*
X280793Y499742D01*
X280790Y499741D01*
X280660Y499659D01*
X280527Y499574D01*
X280524Y499572D01*
X280522Y499570D01*
X280415Y499455D01*
X280309Y499342D01*
X280307Y499340D01*
X280305Y499337D01*
X280230Y499199D01*
X280155Y499064D01*
X280154Y499061D01*
X280153Y499058D01*
X280114Y498903D01*
X280076Y498756D01*
X280075Y498752D01*
X280075Y498750D01*
X280075Y498744D01*
X280065Y498595D01*
X280065Y495115D01*
X278726Y493775D01*
X276831Y493775D01*
X275324Y495283D01*
X275230Y495356D01*
X275141Y495434D01*
X275105Y495453D01*
X275073Y495478D01*
X274963Y495525D01*
X274857Y495579D01*
X274818Y495588D01*
X274781Y495604D01*
X274663Y495623D01*
X274547Y495649D01*
X274507Y495647D01*
X274467Y495654D01*
X274348Y495643D01*
X274229Y495639D01*
X274190Y495628D01*
X274150Y495624D01*
X274038Y495584D01*
X273924Y495551D01*
X273889Y495530D01*
X273851Y495516D01*
X273752Y495449D01*
X273650Y495389D01*
X273605Y495349D01*
X273588Y495338D01*
X273574Y495323D01*
X273529Y495283D01*
X272022Y493775D01*
X266515Y493775D01*
X265175Y495115D01*
X265175Y497009D01*
X266610Y498444D01*
X266670Y498522D01*
X266738Y498594D01*
X266768Y498647D01*
X266805Y498695D01*
X266844Y498786D01*
X266892Y498873D01*
X266907Y498931D01*
X266931Y498987D01*
X266947Y499085D01*
X266971Y499180D01*
X266978Y499281D01*
X266981Y499301D01*
X266980Y499313D01*
X266981Y499341D01*
X266981Y509039D01*
X266969Y509137D01*
X266966Y509236D01*
X266949Y509294D01*
X266942Y509354D01*
X266905Y509446D01*
X266878Y509542D01*
X266847Y509594D01*
X266825Y509650D01*
X266766Y509730D01*
X266716Y509815D01*
X266650Y509891D01*
X266638Y509907D01*
X266628Y509915D01*
X266610Y509936D01*
X265175Y511371D01*
X265175Y513265D01*
X266515Y514605D01*
X272022Y514605D01*
X273529Y513097D01*
X273623Y513024D01*
X273712Y512946D01*
X273748Y512927D01*
X273780Y512902D01*
X273890Y512855D01*
X273996Y512801D01*
X274035Y512792D01*
X274072Y512776D01*
X274190Y512757D01*
X274306Y512731D01*
X274346Y512733D01*
X274386Y512726D01*
X274505Y512737D01*
X274624Y512741D01*
X274663Y512752D01*
X274703Y512756D01*
X274815Y512796D01*
X274929Y512829D01*
X274964Y512850D01*
X275002Y512864D01*
X275101Y512930D01*
X275203Y512991D01*
X275248Y513031D01*
X275265Y513042D01*
X275279Y513057D01*
X275324Y513097D01*
X275510Y513283D01*
X275561Y513348D01*
X275618Y513406D01*
X275657Y513473D01*
X275705Y513535D01*
X275738Y513610D01*
X275779Y513681D01*
X275829Y513821D01*
X275831Y513827D01*
X275832Y513829D01*
X275833Y513832D01*
X275840Y513857D01*
X276233Y514075D01*
X276310Y514132D01*
X276393Y514181D01*
X276474Y514252D01*
X276489Y514263D01*
X276496Y514271D01*
X276514Y514287D01*
X276831Y514605D01*
X276857Y514605D01*
X276938Y514615D01*
X277020Y514615D01*
X277096Y514635D01*
X277173Y514645D01*
X277249Y514675D01*
X277328Y514695D01*
X277464Y514760D01*
X277468Y514762D01*
X277470Y514763D01*
X277474Y514764D01*
X277496Y514777D01*
X277928Y514654D01*
X278023Y514639D01*
X278116Y514615D01*
X278223Y514608D01*
X278242Y514605D01*
X278253Y514606D01*
X278277Y514605D01*
X278726Y514605D01*
X278744Y514587D01*
X278809Y514536D01*
X278867Y514479D01*
X278934Y514439D01*
X278995Y514392D01*
X279071Y514359D01*
X279141Y514318D01*
X279282Y514267D01*
X279287Y514265D01*
X279289Y514265D01*
X279293Y514264D01*
X279318Y514257D01*
X279536Y513864D01*
X279593Y513786D01*
X279641Y513704D01*
X279712Y513623D01*
X279724Y513607D01*
X279732Y513601D01*
X279748Y513583D01*
X280065Y513265D01*
X280065Y513239D01*
X280076Y513158D01*
X280076Y513076D01*
X280096Y513001D01*
X280105Y512924D01*
X280135Y512848D01*
X280156Y512768D01*
X280220Y512633D01*
X280222Y512628D01*
X280223Y512627D01*
X280225Y512623D01*
X282144Y509169D01*
X282239Y509039D01*
X282328Y508916D01*
X282331Y508914D01*
X282332Y508912D01*
X282453Y508813D01*
X282573Y508714D01*
X282576Y508712D01*
X282578Y508710D01*
X282723Y508643D01*
X282861Y508578D01*
X282864Y508578D01*
X282867Y508576D01*
X283025Y508547D01*
X283173Y508518D01*
X283176Y508518D01*
X283179Y508518D01*
X283339Y508529D01*
X283491Y508538D01*
X283493Y508539D01*
X283497Y508539D01*
X283647Y508589D01*
X283793Y508636D01*
X283796Y508638D01*
X283799Y508639D01*
X283928Y508721D01*
X284062Y508806D01*
X284064Y508808D01*
X284066Y508810D01*
X284170Y508921D01*
X284280Y509038D01*
X284281Y509040D01*
X284283Y509043D01*
X284359Y509181D01*
X284433Y509316D01*
X284434Y509319D01*
X284436Y509322D01*
X284475Y509476D01*
X284513Y509624D01*
X284513Y509628D01*
X284514Y509630D01*
X284514Y509636D01*
X284523Y509785D01*
X284523Y513265D01*
X285863Y514605D01*
X287757Y514605D01*
X289097Y513265D01*
X289097Y508819D01*
X289108Y508731D01*
X289109Y508641D01*
X289128Y508574D01*
X289136Y508504D01*
X289169Y508421D01*
X289193Y508335D01*
X289227Y508273D01*
X289253Y508208D01*
X289306Y508136D01*
X289350Y508058D01*
X289399Y508008D01*
X289440Y507951D01*
X289509Y507894D01*
X289571Y507830D01*
X289631Y507793D01*
X289685Y507748D01*
X289766Y507710D01*
X289842Y507663D01*
X289909Y507642D01*
X289973Y507612D01*
X290060Y507596D01*
X290146Y507569D01*
X290216Y507566D01*
X290285Y507553D01*
X290374Y507558D01*
X290464Y507554D01*
X290532Y507568D01*
X290603Y507572D01*
X290688Y507600D01*
X290775Y507618D01*
X290838Y507649D01*
X290905Y507670D01*
X290981Y507718D01*
X291061Y507757D01*
X291114Y507803D01*
X291174Y507841D01*
X291235Y507906D01*
X291303Y507963D01*
X291344Y508021D01*
X291392Y508072D01*
X291435Y508150D01*
X291486Y508223D01*
X291511Y508289D01*
X291545Y508351D01*
X291568Y508437D01*
X291599Y508521D01*
X291621Y508645D01*
X291625Y508659D01*
X291625Y508669D01*
X291627Y508679D01*
X291763Y509899D01*
X296864Y513981D01*
X296874Y513991D01*
X296969Y514074D01*
X297552Y514657D01*
X297570Y514660D01*
X297670Y514705D01*
X298503Y514612D01*
X298518Y514613D01*
X298643Y514605D01*
X299468Y514605D01*
X299483Y514594D01*
X299585Y514555D01*
X300109Y513900D01*
X300119Y513890D01*
X300203Y513796D01*
X300785Y513213D01*
X300789Y513194D01*
X300834Y513094D01*
X300741Y512261D01*
X300741Y512246D01*
X300733Y512121D01*
X300733Y499618D01*
X300748Y499500D01*
X300756Y499381D01*
X300768Y499343D01*
X300773Y499302D01*
X300817Y499192D01*
X300854Y499079D01*
X300875Y499044D01*
X300890Y499007D01*
X300960Y498911D01*
X301024Y498810D01*
X301053Y498782D01*
X301077Y498749D01*
X301169Y498673D01*
X301255Y498592D01*
X301291Y498572D01*
X301322Y498547D01*
X301430Y498496D01*
X301534Y498438D01*
X301573Y498428D01*
X301610Y498411D01*
X301726Y498389D01*
X301842Y498359D01*
X301902Y498355D01*
X301922Y498351D01*
X301942Y498353D01*
X302002Y498349D01*
X303909Y498349D01*
X305249Y497009D01*
X305249Y495115D01*
X303909Y493775D01*
X292984Y493775D01*
X291644Y495115D01*
X291644Y495596D01*
X291626Y495738D01*
X291612Y495880D01*
X291606Y495895D01*
X291604Y495912D01*
X291552Y496044D01*
X291503Y496178D01*
X291493Y496192D01*
X291487Y496208D01*
X291404Y496323D01*
X291323Y496440D01*
X291310Y496451D01*
X291301Y496465D01*
X291190Y496556D01*
X291083Y496650D01*
X291068Y496657D01*
X291056Y496668D01*
X290927Y496728D01*
X290799Y496793D01*
X290783Y496796D01*
X290768Y496803D01*
X290628Y496830D01*
X290489Y496861D01*
X290472Y496860D01*
X290455Y496863D01*
X290314Y496854D01*
X290171Y496849D01*
X290155Y496844D01*
X290138Y496843D01*
X290003Y496799D01*
X289866Y496759D01*
X289851Y496750D01*
X289836Y496745D01*
X289715Y496669D01*
X289593Y496596D01*
X289581Y496584D01*
X289567Y496575D01*
X289469Y496471D01*
X289369Y496370D01*
X289360Y496356D01*
X289349Y496343D01*
X289280Y496219D01*
X289208Y496096D01*
X289200Y496074D01*
X289195Y496065D01*
X289191Y496047D01*
X289154Y495944D01*
X289145Y495912D01*
X289131Y495817D01*
X289107Y495725D01*
X289100Y495616D01*
X289097Y495597D01*
X289098Y495587D01*
X289097Y495564D01*
X289097Y495115D01*
X289078Y495097D01*
X289028Y495032D01*
X288970Y494974D01*
X288931Y494907D01*
X288883Y494845D01*
X288851Y494770D01*
X288809Y494699D01*
X288759Y494559D01*
X288757Y494553D01*
X288757Y494551D01*
X288755Y494548D01*
X288748Y494523D01*
X288356Y494305D01*
X288278Y494248D01*
X288195Y494199D01*
X288115Y494128D01*
X288099Y494117D01*
X288092Y494109D01*
X288075Y494093D01*
X287757Y493775D01*
X287731Y493775D01*
X287650Y493765D01*
X287568Y493765D01*
X287493Y493745D01*
X287416Y493735D01*
X287340Y493705D01*
X287260Y493685D01*
X287125Y493620D01*
X287120Y493618D01*
X287118Y493617D01*
X287115Y493616D01*
X287092Y493603D01*
X286660Y493726D01*
G37*
%LPD*%
%LPC*%
G36*
X436760Y547675D02*
X436760Y547675D01*
X431789Y549734D01*
X427984Y553539D01*
X425925Y558510D01*
X425925Y563890D01*
X427984Y568861D01*
X431789Y572666D01*
X436760Y574725D01*
X442140Y574725D01*
X447111Y572666D01*
X450916Y568861D01*
X452975Y563890D01*
X452975Y558510D01*
X450916Y553539D01*
X447111Y549734D01*
X442140Y547675D01*
X436760Y547675D01*
G37*
%LPD*%
%LPC*%
G36*
X599260Y547675D02*
X599260Y547675D01*
X594289Y549734D01*
X590484Y553539D01*
X588425Y558510D01*
X588425Y563890D01*
X590484Y568861D01*
X594289Y572666D01*
X599260Y574725D01*
X604640Y574725D01*
X609611Y572666D01*
X613416Y568861D01*
X615475Y563890D01*
X615475Y558510D01*
X613416Y553539D01*
X609611Y549734D01*
X604640Y547675D01*
X599260Y547675D01*
G37*
%LPD*%
%LPC*%
G36*
X464460Y493726D02*
X464460Y493726D01*
X464366Y493741D01*
X464272Y493765D01*
X464165Y493772D01*
X464146Y493775D01*
X464136Y493774D01*
X464112Y493775D01*
X463663Y493775D01*
X463644Y493793D01*
X463579Y493844D01*
X463521Y493901D01*
X463455Y493941D01*
X463393Y493988D01*
X463318Y494021D01*
X463247Y494062D01*
X463106Y494113D01*
X463101Y494115D01*
X463099Y494115D01*
X463096Y494116D01*
X463071Y494123D01*
X462853Y494516D01*
X462796Y494594D01*
X462747Y494676D01*
X462676Y494757D01*
X462665Y494773D01*
X462656Y494779D01*
X462641Y494797D01*
X462323Y495115D01*
X462323Y495141D01*
X462313Y495222D01*
X462313Y495304D01*
X462293Y495379D01*
X462283Y495456D01*
X462253Y495532D01*
X462232Y495612D01*
X462168Y495747D01*
X462166Y495752D01*
X462165Y495753D01*
X462163Y495757D01*
X460244Y499211D01*
X460152Y499337D01*
X460060Y499464D01*
X460058Y499465D01*
X460056Y499468D01*
X459935Y499567D01*
X459815Y499666D01*
X459813Y499668D01*
X459810Y499670D01*
X459667Y499736D01*
X459528Y499802D01*
X459525Y499802D01*
X459522Y499804D01*
X459364Y499833D01*
X459215Y499862D01*
X459212Y499862D01*
X459209Y499862D01*
X459053Y499852D01*
X458898Y499842D01*
X458895Y499841D01*
X458892Y499841D01*
X458745Y499792D01*
X458595Y499744D01*
X458593Y499742D01*
X458590Y499741D01*
X458460Y499659D01*
X458327Y499574D01*
X458324Y499572D01*
X458322Y499570D01*
X458215Y499455D01*
X458109Y499342D01*
X458107Y499340D01*
X458105Y499337D01*
X458030Y499199D01*
X457955Y499064D01*
X457954Y499061D01*
X457953Y499058D01*
X457914Y498903D01*
X457876Y498756D01*
X457875Y498752D01*
X457875Y498750D01*
X457875Y498744D01*
X457865Y498595D01*
X457865Y495115D01*
X456526Y493775D01*
X454631Y493775D01*
X453124Y495283D01*
X453030Y495356D01*
X452941Y495434D01*
X452905Y495453D01*
X452873Y495478D01*
X452763Y495525D01*
X452657Y495579D01*
X452618Y495588D01*
X452581Y495604D01*
X452463Y495623D01*
X452347Y495649D01*
X452307Y495647D01*
X452267Y495654D01*
X452148Y495643D01*
X452029Y495639D01*
X451990Y495628D01*
X451950Y495624D01*
X451838Y495584D01*
X451724Y495551D01*
X451689Y495530D01*
X451651Y495516D01*
X451552Y495449D01*
X451450Y495389D01*
X451405Y495349D01*
X451388Y495338D01*
X451374Y495323D01*
X451329Y495283D01*
X449822Y493775D01*
X444315Y493775D01*
X442975Y495115D01*
X442975Y497009D01*
X444410Y498444D01*
X444470Y498522D01*
X444538Y498594D01*
X444568Y498647D01*
X444605Y498695D01*
X444644Y498786D01*
X444692Y498873D01*
X444707Y498931D01*
X444731Y498987D01*
X444747Y499085D01*
X444771Y499180D01*
X444778Y499281D01*
X444781Y499301D01*
X444780Y499313D01*
X444781Y499341D01*
X444781Y509039D01*
X444769Y509137D01*
X444766Y509236D01*
X444749Y509294D01*
X444742Y509354D01*
X444705Y509446D01*
X444678Y509542D01*
X444647Y509594D01*
X444625Y509650D01*
X444566Y509730D01*
X444516Y509815D01*
X444450Y509891D01*
X444438Y509907D01*
X444428Y509915D01*
X444410Y509936D01*
X442975Y511371D01*
X442975Y513265D01*
X444315Y514605D01*
X449822Y514605D01*
X451329Y513097D01*
X451423Y513024D01*
X451512Y512946D01*
X451548Y512927D01*
X451580Y512902D01*
X451690Y512855D01*
X451796Y512801D01*
X451835Y512792D01*
X451872Y512776D01*
X451990Y512757D01*
X452106Y512731D01*
X452146Y512733D01*
X452186Y512726D01*
X452305Y512737D01*
X452424Y512741D01*
X452463Y512752D01*
X452503Y512756D01*
X452615Y512796D01*
X452729Y512829D01*
X452764Y512850D01*
X452802Y512864D01*
X452901Y512930D01*
X453003Y512991D01*
X453048Y513031D01*
X453065Y513042D01*
X453079Y513057D01*
X453124Y513097D01*
X453310Y513283D01*
X453361Y513348D01*
X453418Y513406D01*
X453457Y513473D01*
X453505Y513535D01*
X453538Y513610D01*
X453579Y513681D01*
X453629Y513821D01*
X453631Y513827D01*
X453632Y513829D01*
X453633Y513832D01*
X453640Y513857D01*
X454033Y514075D01*
X454110Y514132D01*
X454193Y514181D01*
X454274Y514252D01*
X454289Y514263D01*
X454296Y514271D01*
X454314Y514287D01*
X454631Y514605D01*
X454657Y514605D01*
X454738Y514615D01*
X454820Y514615D01*
X454896Y514635D01*
X454973Y514645D01*
X455049Y514675D01*
X455128Y514695D01*
X455264Y514760D01*
X455268Y514762D01*
X455270Y514763D01*
X455274Y514764D01*
X455296Y514777D01*
X455728Y514654D01*
X455823Y514639D01*
X455916Y514615D01*
X456023Y514608D01*
X456042Y514605D01*
X456053Y514606D01*
X456077Y514605D01*
X456526Y514605D01*
X456544Y514587D01*
X456609Y514536D01*
X456667Y514479D01*
X456734Y514439D01*
X456795Y514392D01*
X456871Y514359D01*
X456941Y514318D01*
X457082Y514267D01*
X457087Y514265D01*
X457089Y514265D01*
X457093Y514264D01*
X457118Y514257D01*
X457336Y513864D01*
X457393Y513786D01*
X457441Y513704D01*
X457512Y513623D01*
X457524Y513607D01*
X457532Y513601D01*
X457548Y513583D01*
X457865Y513265D01*
X457865Y513239D01*
X457876Y513158D01*
X457876Y513076D01*
X457896Y513001D01*
X457905Y512924D01*
X457935Y512848D01*
X457956Y512768D01*
X458020Y512633D01*
X458022Y512628D01*
X458023Y512627D01*
X458025Y512623D01*
X459944Y509169D01*
X460038Y509041D01*
X460128Y508916D01*
X460131Y508915D01*
X460132Y508912D01*
X460253Y508813D01*
X460373Y508714D01*
X460376Y508712D01*
X460378Y508710D01*
X460523Y508643D01*
X460661Y508578D01*
X460664Y508578D01*
X460667Y508576D01*
X460825Y508547D01*
X460973Y508518D01*
X460976Y508518D01*
X460979Y508518D01*
X461136Y508528D01*
X461291Y508538D01*
X461294Y508539D01*
X461297Y508539D01*
X461444Y508588D01*
X461593Y508636D01*
X461596Y508638D01*
X461599Y508639D01*
X461728Y508721D01*
X461862Y508806D01*
X461864Y508808D01*
X461866Y508810D01*
X461970Y508921D01*
X462080Y509038D01*
X462081Y509040D01*
X462083Y509043D01*
X462159Y509181D01*
X462233Y509316D01*
X462234Y509319D01*
X462236Y509322D01*
X462275Y509476D01*
X462313Y509624D01*
X462313Y509628D01*
X462314Y509630D01*
X462314Y509636D01*
X462323Y509785D01*
X462323Y513265D01*
X463663Y514605D01*
X465557Y514605D01*
X466897Y513265D01*
X466897Y500140D01*
X466914Y500000D01*
X466928Y499858D01*
X466934Y499841D01*
X466936Y499825D01*
X466988Y499693D01*
X467037Y499559D01*
X467047Y499545D01*
X467053Y499529D01*
X467106Y499456D01*
X467061Y499375D01*
X466986Y499238D01*
X466986Y499236D01*
X466984Y499234D01*
X466945Y499079D01*
X466907Y498930D01*
X466907Y498927D01*
X466906Y498925D01*
X466906Y498921D01*
X466897Y498770D01*
X466897Y496983D01*
X466907Y496902D01*
X466907Y496820D01*
X466927Y496745D01*
X466936Y496668D01*
X466967Y496592D01*
X466987Y496512D01*
X467052Y496377D01*
X467053Y496372D01*
X467054Y496371D01*
X467056Y496367D01*
X467069Y496345D01*
X466945Y495913D01*
X466931Y495818D01*
X466907Y495725D01*
X466900Y495617D01*
X466897Y495598D01*
X466898Y495588D01*
X466897Y495564D01*
X466897Y495115D01*
X466878Y495097D01*
X466828Y495032D01*
X466770Y494974D01*
X466731Y494907D01*
X466683Y494845D01*
X466651Y494770D01*
X466609Y494699D01*
X466559Y494559D01*
X466557Y494553D01*
X466557Y494551D01*
X466555Y494548D01*
X466548Y494523D01*
X466156Y494305D01*
X466078Y494248D01*
X465995Y494199D01*
X465915Y494128D01*
X465899Y494117D01*
X465892Y494109D01*
X465875Y494093D01*
X465557Y493775D01*
X465531Y493775D01*
X465450Y493765D01*
X465368Y493765D01*
X465293Y493745D01*
X465216Y493735D01*
X465140Y493705D01*
X465060Y493685D01*
X464925Y493620D01*
X464920Y493618D01*
X464918Y493617D01*
X464915Y493616D01*
X464892Y493603D01*
X464460Y493726D01*
G37*
%LPD*%
%LPC*%
G36*
X388260Y493726D02*
X388260Y493726D01*
X388166Y493741D01*
X388072Y493765D01*
X387965Y493772D01*
X387946Y493775D01*
X387936Y493774D01*
X387912Y493775D01*
X387463Y493775D01*
X387444Y493793D01*
X387379Y493844D01*
X387321Y493901D01*
X387255Y493941D01*
X387193Y493988D01*
X387118Y494021D01*
X387047Y494062D01*
X386906Y494113D01*
X386901Y494115D01*
X386899Y494115D01*
X386896Y494116D01*
X386871Y494123D01*
X386653Y494516D01*
X386596Y494594D01*
X386547Y494676D01*
X386476Y494757D01*
X386465Y494773D01*
X386456Y494779D01*
X386441Y494797D01*
X386123Y495115D01*
X386123Y495141D01*
X386113Y495222D01*
X386113Y495304D01*
X386093Y495379D01*
X386083Y495456D01*
X386053Y495532D01*
X386032Y495612D01*
X385968Y495747D01*
X385966Y495752D01*
X385965Y495753D01*
X385963Y495757D01*
X384044Y499211D01*
X383952Y499337D01*
X383860Y499464D01*
X383858Y499466D01*
X383856Y499468D01*
X383735Y499567D01*
X383615Y499666D01*
X383613Y499668D01*
X383610Y499670D01*
X383467Y499736D01*
X383328Y499802D01*
X383325Y499802D01*
X383322Y499804D01*
X383163Y499833D01*
X383015Y499862D01*
X383012Y499862D01*
X383009Y499862D01*
X382850Y499851D01*
X382698Y499842D01*
X382695Y499841D01*
X382692Y499841D01*
X382542Y499791D01*
X382395Y499744D01*
X382393Y499742D01*
X382390Y499741D01*
X382260Y499659D01*
X382127Y499574D01*
X382124Y499572D01*
X382122Y499570D01*
X382015Y499455D01*
X381909Y499342D01*
X381907Y499340D01*
X381905Y499337D01*
X381830Y499199D01*
X381755Y499064D01*
X381754Y499061D01*
X381753Y499058D01*
X381714Y498903D01*
X381676Y498756D01*
X381675Y498752D01*
X381675Y498750D01*
X381675Y498744D01*
X381665Y498595D01*
X381665Y495115D01*
X380326Y493775D01*
X378431Y493775D01*
X376924Y495283D01*
X376830Y495356D01*
X376741Y495434D01*
X376705Y495453D01*
X376673Y495478D01*
X376563Y495525D01*
X376457Y495579D01*
X376418Y495588D01*
X376381Y495604D01*
X376263Y495623D01*
X376147Y495649D01*
X376107Y495647D01*
X376067Y495654D01*
X375948Y495643D01*
X375829Y495639D01*
X375790Y495628D01*
X375750Y495624D01*
X375638Y495584D01*
X375524Y495551D01*
X375489Y495530D01*
X375451Y495516D01*
X375352Y495449D01*
X375250Y495389D01*
X375205Y495349D01*
X375188Y495338D01*
X375174Y495323D01*
X375129Y495283D01*
X373622Y493775D01*
X368115Y493775D01*
X366775Y495115D01*
X366775Y497009D01*
X368210Y498444D01*
X368270Y498522D01*
X368338Y498594D01*
X368368Y498647D01*
X368405Y498695D01*
X368444Y498786D01*
X368492Y498873D01*
X368507Y498931D01*
X368531Y498987D01*
X368547Y499085D01*
X368571Y499180D01*
X368578Y499281D01*
X368581Y499301D01*
X368580Y499313D01*
X368581Y499341D01*
X368581Y509039D01*
X368569Y509137D01*
X368566Y509236D01*
X368549Y509294D01*
X368542Y509354D01*
X368505Y509446D01*
X368478Y509542D01*
X368447Y509594D01*
X368425Y509650D01*
X368366Y509730D01*
X368316Y509815D01*
X368250Y509891D01*
X368238Y509907D01*
X368228Y509915D01*
X368210Y509936D01*
X366775Y511371D01*
X366775Y513265D01*
X368115Y514605D01*
X373622Y514605D01*
X375129Y513097D01*
X375223Y513024D01*
X375312Y512946D01*
X375348Y512927D01*
X375380Y512902D01*
X375490Y512855D01*
X375596Y512801D01*
X375635Y512792D01*
X375672Y512776D01*
X375790Y512757D01*
X375906Y512731D01*
X375946Y512733D01*
X375986Y512726D01*
X376105Y512737D01*
X376224Y512741D01*
X376263Y512752D01*
X376303Y512756D01*
X376415Y512796D01*
X376529Y512829D01*
X376564Y512850D01*
X376602Y512864D01*
X376701Y512930D01*
X376803Y512991D01*
X376848Y513031D01*
X376865Y513042D01*
X376879Y513057D01*
X376924Y513097D01*
X377110Y513283D01*
X377161Y513348D01*
X377218Y513406D01*
X377257Y513473D01*
X377305Y513535D01*
X377338Y513610D01*
X377379Y513681D01*
X377429Y513821D01*
X377431Y513827D01*
X377432Y513829D01*
X377433Y513832D01*
X377440Y513857D01*
X377833Y514075D01*
X377910Y514132D01*
X377993Y514181D01*
X378074Y514252D01*
X378089Y514263D01*
X378096Y514271D01*
X378114Y514287D01*
X378431Y514605D01*
X378457Y514605D01*
X378538Y514615D01*
X378620Y514615D01*
X378696Y514635D01*
X378773Y514645D01*
X378849Y514675D01*
X378928Y514695D01*
X379064Y514760D01*
X379068Y514762D01*
X379070Y514763D01*
X379074Y514764D01*
X379096Y514777D01*
X379528Y514654D01*
X379623Y514639D01*
X379716Y514615D01*
X379823Y514608D01*
X379842Y514605D01*
X379853Y514606D01*
X379877Y514605D01*
X380326Y514605D01*
X380344Y514587D01*
X380409Y514536D01*
X380467Y514479D01*
X380534Y514439D01*
X380595Y514392D01*
X380671Y514359D01*
X380741Y514318D01*
X380882Y514267D01*
X380887Y514265D01*
X380889Y514265D01*
X380893Y514264D01*
X380918Y514257D01*
X381136Y513864D01*
X381193Y513786D01*
X381241Y513704D01*
X381312Y513623D01*
X381324Y513607D01*
X381332Y513601D01*
X381348Y513583D01*
X381665Y513265D01*
X381665Y513239D01*
X381676Y513158D01*
X381676Y513076D01*
X381696Y513001D01*
X381705Y512924D01*
X381735Y512848D01*
X381756Y512768D01*
X381820Y512633D01*
X381822Y512628D01*
X381823Y512627D01*
X381825Y512623D01*
X383744Y509169D01*
X383839Y509039D01*
X383928Y508916D01*
X383931Y508914D01*
X383932Y508912D01*
X384053Y508813D01*
X384173Y508714D01*
X384176Y508712D01*
X384178Y508710D01*
X384323Y508643D01*
X384461Y508578D01*
X384464Y508578D01*
X384467Y508576D01*
X384625Y508547D01*
X384773Y508518D01*
X384776Y508518D01*
X384779Y508518D01*
X384939Y508529D01*
X385091Y508538D01*
X385093Y508539D01*
X385097Y508539D01*
X385247Y508589D01*
X385393Y508636D01*
X385396Y508638D01*
X385399Y508639D01*
X385528Y508721D01*
X385662Y508806D01*
X385664Y508808D01*
X385666Y508810D01*
X385770Y508921D01*
X385880Y509038D01*
X385881Y509040D01*
X385883Y509043D01*
X385959Y509181D01*
X386033Y509316D01*
X386034Y509319D01*
X386036Y509322D01*
X386075Y509476D01*
X386113Y509624D01*
X386113Y509628D01*
X386114Y509630D01*
X386114Y509636D01*
X386123Y509785D01*
X386123Y513265D01*
X387463Y514605D01*
X389357Y514605D01*
X390697Y513265D01*
X390697Y496983D01*
X390707Y496903D01*
X390707Y496822D01*
X390726Y496746D01*
X390736Y496668D01*
X390766Y496593D01*
X390786Y496514D01*
X390852Y496376D01*
X390853Y496372D01*
X390854Y496371D01*
X390855Y496369D01*
X390864Y496352D01*
X390915Y496283D01*
X390880Y496219D01*
X390808Y496096D01*
X390800Y496074D01*
X390795Y496065D01*
X390791Y496047D01*
X390754Y495944D01*
X390745Y495912D01*
X390731Y495817D01*
X390707Y495725D01*
X390700Y495616D01*
X390697Y495597D01*
X390698Y495587D01*
X390697Y495564D01*
X390697Y495115D01*
X390678Y495097D01*
X390628Y495032D01*
X390570Y494974D01*
X390531Y494907D01*
X390483Y494845D01*
X390451Y494770D01*
X390409Y494699D01*
X390359Y494559D01*
X390357Y494553D01*
X390357Y494551D01*
X390355Y494548D01*
X390348Y494523D01*
X389956Y494305D01*
X389878Y494248D01*
X389795Y494199D01*
X389715Y494128D01*
X389699Y494117D01*
X389692Y494109D01*
X389675Y494093D01*
X389357Y493775D01*
X389331Y493775D01*
X389250Y493765D01*
X389168Y493765D01*
X389093Y493745D01*
X389016Y493735D01*
X388940Y493705D01*
X388860Y493685D01*
X388725Y493620D01*
X388720Y493618D01*
X388718Y493617D01*
X388715Y493616D01*
X388692Y493603D01*
X388260Y493726D01*
G37*
%LPD*%
%LPC*%
G36*
X527960Y493726D02*
X527960Y493726D01*
X527866Y493741D01*
X527772Y493765D01*
X527665Y493772D01*
X527646Y493775D01*
X527636Y493774D01*
X527612Y493775D01*
X527163Y493775D01*
X527144Y493793D01*
X527079Y493844D01*
X527021Y493901D01*
X526955Y493941D01*
X526893Y493988D01*
X526818Y494021D01*
X526747Y494062D01*
X526606Y494113D01*
X526601Y494115D01*
X526599Y494115D01*
X526596Y494116D01*
X526571Y494123D01*
X526353Y494516D01*
X526296Y494594D01*
X526247Y494676D01*
X526176Y494757D01*
X526165Y494773D01*
X526156Y494779D01*
X526141Y494797D01*
X525823Y495115D01*
X525823Y495141D01*
X525813Y495222D01*
X525813Y495304D01*
X525793Y495379D01*
X525783Y495456D01*
X525753Y495532D01*
X525732Y495612D01*
X525668Y495747D01*
X525666Y495752D01*
X525665Y495753D01*
X525663Y495757D01*
X523744Y499211D01*
X523652Y499337D01*
X523560Y499464D01*
X523558Y499466D01*
X523556Y499468D01*
X523435Y499567D01*
X523315Y499666D01*
X523313Y499668D01*
X523310Y499670D01*
X523167Y499736D01*
X523028Y499802D01*
X523025Y499802D01*
X523022Y499804D01*
X522863Y499833D01*
X522715Y499862D01*
X522712Y499862D01*
X522709Y499862D01*
X522550Y499851D01*
X522398Y499842D01*
X522395Y499841D01*
X522392Y499841D01*
X522242Y499791D01*
X522095Y499744D01*
X522093Y499742D01*
X522090Y499741D01*
X521960Y499659D01*
X521827Y499574D01*
X521824Y499572D01*
X521822Y499570D01*
X521715Y499455D01*
X521609Y499342D01*
X521607Y499340D01*
X521605Y499337D01*
X521530Y499199D01*
X521455Y499064D01*
X521454Y499061D01*
X521453Y499058D01*
X521414Y498903D01*
X521376Y498756D01*
X521375Y498752D01*
X521375Y498750D01*
X521375Y498744D01*
X521365Y498595D01*
X521365Y495115D01*
X520026Y493775D01*
X518131Y493775D01*
X516624Y495283D01*
X516530Y495356D01*
X516441Y495434D01*
X516405Y495453D01*
X516373Y495478D01*
X516263Y495525D01*
X516157Y495579D01*
X516118Y495588D01*
X516081Y495604D01*
X515963Y495623D01*
X515847Y495649D01*
X515807Y495647D01*
X515767Y495654D01*
X515648Y495643D01*
X515529Y495639D01*
X515490Y495628D01*
X515450Y495624D01*
X515338Y495584D01*
X515224Y495551D01*
X515189Y495530D01*
X515151Y495516D01*
X515052Y495449D01*
X514950Y495389D01*
X514905Y495349D01*
X514888Y495338D01*
X514874Y495323D01*
X514829Y495283D01*
X513322Y493775D01*
X507815Y493775D01*
X506475Y495115D01*
X506475Y497009D01*
X507910Y498444D01*
X507970Y498522D01*
X508038Y498594D01*
X508068Y498647D01*
X508105Y498695D01*
X508144Y498786D01*
X508192Y498873D01*
X508207Y498931D01*
X508231Y498987D01*
X508247Y499085D01*
X508271Y499180D01*
X508278Y499281D01*
X508281Y499301D01*
X508280Y499313D01*
X508281Y499341D01*
X508281Y509039D01*
X508269Y509137D01*
X508266Y509236D01*
X508249Y509294D01*
X508242Y509354D01*
X508205Y509446D01*
X508178Y509542D01*
X508147Y509594D01*
X508125Y509650D01*
X508066Y509730D01*
X508016Y509815D01*
X507950Y509891D01*
X507938Y509907D01*
X507928Y509915D01*
X507910Y509936D01*
X506475Y511371D01*
X506475Y513265D01*
X507815Y514605D01*
X513322Y514605D01*
X514829Y513097D01*
X514923Y513024D01*
X515012Y512946D01*
X515048Y512927D01*
X515080Y512902D01*
X515190Y512855D01*
X515296Y512801D01*
X515335Y512792D01*
X515372Y512776D01*
X515490Y512757D01*
X515606Y512731D01*
X515646Y512733D01*
X515686Y512726D01*
X515805Y512737D01*
X515924Y512741D01*
X515963Y512752D01*
X516003Y512756D01*
X516115Y512796D01*
X516229Y512829D01*
X516264Y512850D01*
X516302Y512864D01*
X516401Y512930D01*
X516503Y512991D01*
X516548Y513031D01*
X516565Y513042D01*
X516579Y513057D01*
X516624Y513097D01*
X516810Y513283D01*
X516861Y513348D01*
X516918Y513406D01*
X516957Y513473D01*
X517005Y513535D01*
X517038Y513610D01*
X517079Y513681D01*
X517129Y513821D01*
X517131Y513827D01*
X517132Y513829D01*
X517133Y513832D01*
X517140Y513857D01*
X517533Y514075D01*
X517610Y514132D01*
X517693Y514181D01*
X517774Y514252D01*
X517789Y514263D01*
X517796Y514271D01*
X517814Y514287D01*
X518131Y514605D01*
X518157Y514605D01*
X518238Y514615D01*
X518320Y514615D01*
X518396Y514635D01*
X518473Y514645D01*
X518549Y514675D01*
X518628Y514695D01*
X518764Y514760D01*
X518768Y514762D01*
X518770Y514763D01*
X518774Y514764D01*
X518796Y514777D01*
X519228Y514654D01*
X519323Y514639D01*
X519416Y514615D01*
X519523Y514608D01*
X519542Y514605D01*
X519553Y514606D01*
X519577Y514605D01*
X520026Y514605D01*
X520044Y514587D01*
X520109Y514536D01*
X520167Y514479D01*
X520234Y514439D01*
X520295Y514392D01*
X520371Y514359D01*
X520441Y514318D01*
X520582Y514267D01*
X520587Y514265D01*
X520589Y514265D01*
X520593Y514264D01*
X520618Y514257D01*
X520836Y513864D01*
X520893Y513786D01*
X520941Y513704D01*
X521012Y513623D01*
X521024Y513607D01*
X521032Y513601D01*
X521048Y513583D01*
X521365Y513265D01*
X521365Y513239D01*
X521376Y513158D01*
X521376Y513076D01*
X521396Y513001D01*
X521405Y512924D01*
X521435Y512848D01*
X521456Y512768D01*
X521520Y512633D01*
X521522Y512628D01*
X521523Y512627D01*
X521525Y512623D01*
X523444Y509169D01*
X523539Y509039D01*
X523628Y508916D01*
X523631Y508914D01*
X523632Y508912D01*
X523753Y508813D01*
X523873Y508714D01*
X523876Y508712D01*
X523878Y508710D01*
X524023Y508643D01*
X524161Y508578D01*
X524164Y508578D01*
X524167Y508576D01*
X524325Y508547D01*
X524473Y508518D01*
X524476Y508518D01*
X524479Y508518D01*
X524639Y508529D01*
X524791Y508538D01*
X524793Y508539D01*
X524797Y508539D01*
X524947Y508589D01*
X525093Y508636D01*
X525096Y508638D01*
X525099Y508639D01*
X525228Y508721D01*
X525362Y508806D01*
X525364Y508808D01*
X525366Y508810D01*
X525470Y508921D01*
X525580Y509038D01*
X525581Y509040D01*
X525583Y509043D01*
X525659Y509181D01*
X525733Y509316D01*
X525734Y509319D01*
X525736Y509322D01*
X525775Y509476D01*
X525813Y509624D01*
X525813Y509628D01*
X525814Y509630D01*
X525814Y509636D01*
X525823Y509785D01*
X525823Y513265D01*
X527163Y514605D01*
X529057Y514605D01*
X530397Y513265D01*
X530397Y496983D01*
X530407Y496903D01*
X530407Y496822D01*
X530426Y496746D01*
X530436Y496668D01*
X530466Y496593D01*
X530486Y496514D01*
X530552Y496376D01*
X530553Y496372D01*
X530554Y496371D01*
X530555Y496369D01*
X530564Y496352D01*
X530615Y496283D01*
X530580Y496219D01*
X530508Y496096D01*
X530500Y496074D01*
X530495Y496065D01*
X530491Y496047D01*
X530454Y495944D01*
X530445Y495912D01*
X530431Y495817D01*
X530407Y495725D01*
X530400Y495616D01*
X530397Y495597D01*
X530398Y495587D01*
X530397Y495564D01*
X530397Y495115D01*
X530378Y495097D01*
X530328Y495032D01*
X530270Y494974D01*
X530231Y494907D01*
X530183Y494845D01*
X530151Y494770D01*
X530109Y494699D01*
X530059Y494559D01*
X530057Y494553D01*
X530057Y494551D01*
X530055Y494548D01*
X530048Y494523D01*
X529656Y494305D01*
X529578Y494248D01*
X529495Y494199D01*
X529415Y494128D01*
X529399Y494117D01*
X529392Y494109D01*
X529375Y494093D01*
X529057Y493775D01*
X529031Y493775D01*
X528950Y493765D01*
X528868Y493765D01*
X528793Y493745D01*
X528716Y493735D01*
X528640Y493705D01*
X528560Y493685D01*
X528425Y493620D01*
X528420Y493618D01*
X528418Y493617D01*
X528415Y493616D01*
X528392Y493603D01*
X527960Y493726D01*
G37*
%LPD*%
%LPC*%
G36*
X591460Y493726D02*
X591460Y493726D01*
X591366Y493741D01*
X591272Y493765D01*
X591165Y493772D01*
X591146Y493775D01*
X591136Y493774D01*
X591112Y493775D01*
X590663Y493775D01*
X590644Y493793D01*
X590579Y493844D01*
X590521Y493901D01*
X590455Y493941D01*
X590393Y493988D01*
X590318Y494021D01*
X590247Y494062D01*
X590106Y494113D01*
X590101Y494115D01*
X590099Y494115D01*
X590096Y494116D01*
X590071Y494123D01*
X589853Y494516D01*
X589796Y494594D01*
X589747Y494676D01*
X589676Y494757D01*
X589665Y494773D01*
X589656Y494779D01*
X589641Y494797D01*
X589323Y495115D01*
X589323Y495141D01*
X589313Y495222D01*
X589313Y495304D01*
X589293Y495379D01*
X589283Y495456D01*
X589253Y495532D01*
X589232Y495612D01*
X589168Y495747D01*
X589166Y495752D01*
X589165Y495753D01*
X589163Y495757D01*
X587244Y499211D01*
X587152Y499337D01*
X587060Y499464D01*
X587058Y499465D01*
X587056Y499468D01*
X586935Y499567D01*
X586815Y499666D01*
X586813Y499668D01*
X586810Y499670D01*
X586667Y499736D01*
X586528Y499802D01*
X586525Y499802D01*
X586522Y499804D01*
X586364Y499833D01*
X586215Y499862D01*
X586212Y499862D01*
X586209Y499862D01*
X586053Y499852D01*
X585898Y499842D01*
X585895Y499841D01*
X585892Y499841D01*
X585745Y499792D01*
X585595Y499744D01*
X585593Y499742D01*
X585590Y499741D01*
X585460Y499659D01*
X585327Y499574D01*
X585324Y499572D01*
X585322Y499570D01*
X585215Y499455D01*
X585109Y499342D01*
X585107Y499340D01*
X585105Y499337D01*
X585030Y499199D01*
X584955Y499064D01*
X584954Y499061D01*
X584953Y499058D01*
X584914Y498903D01*
X584876Y498756D01*
X584875Y498752D01*
X584875Y498750D01*
X584875Y498744D01*
X584865Y498595D01*
X584865Y495115D01*
X583526Y493775D01*
X581631Y493775D01*
X580124Y495283D01*
X580030Y495356D01*
X579941Y495434D01*
X579905Y495453D01*
X579873Y495478D01*
X579763Y495525D01*
X579657Y495579D01*
X579618Y495588D01*
X579581Y495604D01*
X579463Y495623D01*
X579347Y495649D01*
X579307Y495647D01*
X579267Y495654D01*
X579148Y495643D01*
X579029Y495639D01*
X578990Y495628D01*
X578950Y495624D01*
X578838Y495584D01*
X578724Y495551D01*
X578689Y495530D01*
X578651Y495516D01*
X578552Y495449D01*
X578450Y495389D01*
X578405Y495349D01*
X578388Y495338D01*
X578374Y495323D01*
X578329Y495283D01*
X576822Y493775D01*
X571315Y493775D01*
X569975Y495115D01*
X569975Y497009D01*
X571410Y498444D01*
X571470Y498522D01*
X571538Y498594D01*
X571568Y498647D01*
X571605Y498695D01*
X571644Y498786D01*
X571692Y498873D01*
X571707Y498931D01*
X571731Y498987D01*
X571747Y499085D01*
X571771Y499180D01*
X571778Y499281D01*
X571781Y499301D01*
X571780Y499313D01*
X571781Y499341D01*
X571781Y509039D01*
X571769Y509137D01*
X571766Y509236D01*
X571749Y509294D01*
X571742Y509354D01*
X571705Y509446D01*
X571678Y509542D01*
X571647Y509594D01*
X571625Y509650D01*
X571566Y509730D01*
X571516Y509815D01*
X571450Y509891D01*
X571438Y509907D01*
X571428Y509915D01*
X571410Y509936D01*
X569975Y511371D01*
X569975Y513265D01*
X571315Y514605D01*
X576822Y514605D01*
X578329Y513097D01*
X578423Y513024D01*
X578512Y512946D01*
X578548Y512927D01*
X578580Y512902D01*
X578690Y512855D01*
X578796Y512801D01*
X578835Y512792D01*
X578872Y512776D01*
X578990Y512757D01*
X579106Y512731D01*
X579146Y512733D01*
X579186Y512726D01*
X579305Y512737D01*
X579424Y512741D01*
X579463Y512752D01*
X579503Y512756D01*
X579615Y512796D01*
X579729Y512829D01*
X579764Y512850D01*
X579802Y512864D01*
X579901Y512930D01*
X580003Y512991D01*
X580048Y513031D01*
X580065Y513042D01*
X580079Y513057D01*
X580124Y513097D01*
X580310Y513283D01*
X580361Y513348D01*
X580418Y513406D01*
X580457Y513473D01*
X580505Y513535D01*
X580538Y513610D01*
X580579Y513681D01*
X580629Y513821D01*
X580631Y513827D01*
X580632Y513829D01*
X580633Y513832D01*
X580640Y513857D01*
X581033Y514075D01*
X581110Y514132D01*
X581193Y514181D01*
X581274Y514252D01*
X581289Y514263D01*
X581296Y514271D01*
X581314Y514287D01*
X581631Y514605D01*
X581657Y514605D01*
X581738Y514615D01*
X581820Y514615D01*
X581896Y514635D01*
X581973Y514645D01*
X582049Y514675D01*
X582128Y514695D01*
X582264Y514760D01*
X582268Y514762D01*
X582270Y514763D01*
X582274Y514764D01*
X582296Y514777D01*
X582728Y514654D01*
X582823Y514639D01*
X582916Y514615D01*
X583023Y514608D01*
X583042Y514605D01*
X583053Y514606D01*
X583077Y514605D01*
X583526Y514605D01*
X583544Y514587D01*
X583609Y514536D01*
X583667Y514479D01*
X583734Y514439D01*
X583795Y514392D01*
X583871Y514359D01*
X583941Y514318D01*
X584082Y514267D01*
X584087Y514265D01*
X584089Y514265D01*
X584093Y514264D01*
X584118Y514257D01*
X584336Y513864D01*
X584393Y513786D01*
X584441Y513704D01*
X584512Y513623D01*
X584524Y513607D01*
X584532Y513601D01*
X584548Y513583D01*
X584865Y513265D01*
X584865Y513239D01*
X584876Y513158D01*
X584876Y513076D01*
X584896Y513001D01*
X584905Y512924D01*
X584935Y512848D01*
X584956Y512768D01*
X585020Y512633D01*
X585022Y512628D01*
X585023Y512627D01*
X585025Y512623D01*
X586944Y509169D01*
X587038Y509041D01*
X587128Y508916D01*
X587131Y508915D01*
X587132Y508912D01*
X587253Y508813D01*
X587373Y508714D01*
X587376Y508712D01*
X587378Y508710D01*
X587523Y508643D01*
X587661Y508578D01*
X587664Y508578D01*
X587667Y508576D01*
X587825Y508547D01*
X587973Y508518D01*
X587976Y508518D01*
X587979Y508518D01*
X588136Y508528D01*
X588291Y508538D01*
X588294Y508539D01*
X588297Y508539D01*
X588444Y508588D01*
X588593Y508636D01*
X588596Y508638D01*
X588599Y508639D01*
X588728Y508721D01*
X588862Y508806D01*
X588864Y508808D01*
X588866Y508810D01*
X588970Y508921D01*
X589080Y509038D01*
X589081Y509040D01*
X589083Y509043D01*
X589159Y509181D01*
X589233Y509316D01*
X589234Y509319D01*
X589236Y509322D01*
X589275Y509476D01*
X589313Y509624D01*
X589313Y509628D01*
X589314Y509630D01*
X589314Y509636D01*
X589323Y509785D01*
X589323Y513265D01*
X590663Y514605D01*
X592557Y514605D01*
X593897Y513265D01*
X593897Y496983D01*
X593907Y496902D01*
X593907Y496820D01*
X593927Y496745D01*
X593936Y496668D01*
X593967Y496592D01*
X593987Y496512D01*
X594052Y496377D01*
X594053Y496372D01*
X594054Y496371D01*
X594056Y496367D01*
X594069Y496345D01*
X593945Y495913D01*
X593931Y495818D01*
X593907Y495725D01*
X593900Y495617D01*
X593897Y495598D01*
X593898Y495588D01*
X593897Y495564D01*
X593897Y495115D01*
X593878Y495097D01*
X593828Y495032D01*
X593770Y494974D01*
X593731Y494907D01*
X593683Y494845D01*
X593651Y494770D01*
X593609Y494699D01*
X593559Y494559D01*
X593557Y494553D01*
X593557Y494551D01*
X593555Y494548D01*
X593548Y494523D01*
X593156Y494305D01*
X593078Y494248D01*
X592995Y494199D01*
X592915Y494128D01*
X592899Y494117D01*
X592892Y494109D01*
X592875Y494093D01*
X592557Y493775D01*
X592531Y493775D01*
X592450Y493765D01*
X592368Y493765D01*
X592293Y493745D01*
X592216Y493735D01*
X592140Y493705D01*
X592060Y493685D01*
X591925Y493620D01*
X591920Y493618D01*
X591918Y493617D01*
X591915Y493616D01*
X591892Y493603D01*
X591460Y493726D01*
G37*
%LPD*%
%LPC*%
G36*
X524082Y577963D02*
X524082Y577963D01*
X520908Y579278D01*
X518478Y581708D01*
X517163Y584882D01*
X517163Y588318D01*
X518478Y591492D01*
X520908Y593922D01*
X524082Y595237D01*
X527518Y595237D01*
X530692Y593922D01*
X533122Y591492D01*
X534437Y588318D01*
X534437Y584882D01*
X533122Y581708D01*
X530692Y579278D01*
X527518Y577963D01*
X524082Y577963D01*
G37*
%LPD*%
%LPC*%
G36*
X544482Y577963D02*
X544482Y577963D01*
X541308Y579278D01*
X538878Y581708D01*
X537563Y584882D01*
X537563Y588318D01*
X538878Y591492D01*
X541308Y593922D01*
X544482Y595237D01*
X547918Y595237D01*
X551092Y593922D01*
X553522Y591492D01*
X554837Y588318D01*
X554837Y584882D01*
X553522Y581708D01*
X551092Y579278D01*
X547918Y577963D01*
X544482Y577963D01*
G37*
%LPD*%
%LPC*%
G36*
X534282Y552563D02*
X534282Y552563D01*
X531108Y553878D01*
X528678Y556308D01*
X527363Y559482D01*
X527363Y562918D01*
X528678Y566092D01*
X531108Y568522D01*
X534282Y569837D01*
X537718Y569837D01*
X540892Y568522D01*
X543322Y566092D01*
X544637Y562918D01*
X544637Y559482D01*
X543322Y556308D01*
X540892Y553878D01*
X537718Y552563D01*
X534282Y552563D01*
G37*
%LPD*%
%LPC*%
G36*
X513882Y552563D02*
X513882Y552563D01*
X510708Y553878D01*
X508278Y556308D01*
X506963Y559482D01*
X506963Y562918D01*
X508278Y566092D01*
X510708Y568522D01*
X513882Y569837D01*
X517318Y569837D01*
X520492Y568522D01*
X522922Y566092D01*
X524237Y562918D01*
X524237Y559482D01*
X522922Y556308D01*
X520492Y553878D01*
X517318Y552563D01*
X513882Y552563D01*
G37*
%LPD*%
%LPC*%
G36*
X377633Y703071D02*
X377633Y703071D01*
X372871Y707833D01*
X372871Y714567D01*
X377633Y719329D01*
X384367Y719329D01*
X389129Y714567D01*
X389129Y707833D01*
X384367Y703071D01*
X377633Y703071D01*
G37*
%LPD*%
%LPC*%
G36*
X288733Y677671D02*
X288733Y677671D01*
X283971Y682433D01*
X283971Y689167D01*
X288733Y693929D01*
X295467Y693929D01*
X300229Y689167D01*
X300229Y682433D01*
X295467Y677671D01*
X288733Y677671D01*
G37*
%LPD*%
%LPC*%
G36*
X377633Y601471D02*
X377633Y601471D01*
X372871Y606233D01*
X372871Y612967D01*
X377633Y617729D01*
X384367Y617729D01*
X389129Y612967D01*
X389129Y606233D01*
X384367Y601471D01*
X377633Y601471D01*
G37*
%LPD*%
%LPC*%
G36*
X601424Y493775D02*
X601424Y493775D01*
X598267Y495598D01*
X596444Y498755D01*
X596444Y502050D01*
X596444Y507642D01*
X598993Y512056D01*
X603407Y514605D01*
X606903Y514605D01*
X608243Y513265D01*
X608243Y511371D01*
X606903Y510031D01*
X605956Y510031D01*
X605953Y510031D01*
X605951Y510031D01*
X605790Y510020D01*
X604932Y509907D01*
X604858Y509888D01*
X604782Y509878D01*
X604705Y509848D01*
X604625Y509827D01*
X604558Y509790D01*
X604487Y509761D01*
X604420Y509713D01*
X604347Y509672D01*
X604291Y509620D01*
X604229Y509575D01*
X604176Y509511D01*
X604116Y509453D01*
X604075Y509389D01*
X604027Y509330D01*
X603991Y509254D01*
X603947Y509184D01*
X603924Y509111D01*
X603891Y509042D01*
X603875Y508960D01*
X603850Y508881D01*
X603846Y508805D01*
X603831Y508730D01*
X603836Y508647D01*
X603832Y508564D01*
X603846Y508488D01*
X603851Y508412D01*
X603877Y508333D01*
X603893Y508251D01*
X603925Y508182D01*
X603949Y508110D01*
X603994Y508039D01*
X604029Y507964D01*
X604078Y507906D01*
X604119Y507841D01*
X604180Y507784D01*
X604233Y507720D01*
X604295Y507675D01*
X604351Y507623D01*
X604424Y507583D01*
X604491Y507534D01*
X604562Y507506D01*
X604629Y507470D01*
X604710Y507449D01*
X604787Y507418D01*
X604863Y507409D01*
X604937Y507390D01*
X605098Y507380D01*
X605730Y507380D01*
X608468Y505799D01*
X610049Y503061D01*
X610049Y498755D01*
X608226Y495598D01*
X605069Y493775D01*
X601424Y493775D01*
G37*
%LPD*%
%LPC*%
G36*
X534284Y493775D02*
X534284Y493775D01*
X532944Y495115D01*
X532944Y495596D01*
X532926Y495738D01*
X532912Y495880D01*
X532906Y495895D01*
X532904Y495912D01*
X532852Y496044D01*
X532803Y496178D01*
X532793Y496192D01*
X532787Y496208D01*
X532735Y496280D01*
X532779Y496361D01*
X532855Y496498D01*
X532855Y496500D01*
X532856Y496502D01*
X532895Y496656D01*
X532934Y496806D01*
X532934Y496809D01*
X532935Y496810D01*
X532935Y496814D01*
X532944Y496967D01*
X532944Y497009D01*
X534284Y498349D01*
X540650Y498349D01*
X540653Y498349D01*
X540656Y498349D01*
X540816Y498360D01*
X540831Y498362D01*
X540839Y498364D01*
X540847Y498364D01*
X540912Y498382D01*
X540965Y498389D01*
X541029Y498414D01*
X541138Y498443D01*
X541146Y498447D01*
X541154Y498449D01*
X541298Y498520D01*
X541324Y498535D01*
X541377Y498576D01*
X541416Y498597D01*
X541431Y498611D01*
X541477Y498639D01*
X541524Y498687D01*
X541577Y498727D01*
X541621Y498783D01*
X541623Y498784D01*
X541632Y498796D01*
X541635Y498800D01*
X541700Y498866D01*
X541764Y498962D01*
X541775Y498976D01*
X541778Y498984D01*
X541789Y499001D01*
X541804Y499026D01*
X541807Y499033D01*
X541812Y499040D01*
X541860Y499160D01*
X541886Y499206D01*
X541896Y499245D01*
X541927Y499319D01*
X541928Y499327D01*
X541931Y499335D01*
X541962Y499493D01*
X541964Y499507D01*
X541964Y499511D01*
X541965Y499514D01*
X541972Y499629D01*
X541973Y499634D01*
X541973Y499636D01*
X541975Y499674D01*
X541975Y501481D01*
X541975Y501484D01*
X541975Y501487D01*
X541964Y501648D01*
X541962Y501662D01*
X541960Y501670D01*
X541960Y501678D01*
X541942Y501743D01*
X541935Y501796D01*
X541910Y501860D01*
X541881Y501970D01*
X541877Y501977D01*
X541875Y501985D01*
X541804Y502129D01*
X541789Y502155D01*
X541748Y502209D01*
X541726Y502248D01*
X541713Y502262D01*
X541685Y502308D01*
X541637Y502355D01*
X541597Y502408D01*
X541541Y502452D01*
X541540Y502454D01*
X541528Y502463D01*
X541524Y502466D01*
X541458Y502531D01*
X541362Y502595D01*
X541348Y502606D01*
X541340Y502609D01*
X541324Y502620D01*
X541298Y502635D01*
X541291Y502638D01*
X541284Y502643D01*
X541165Y502691D01*
X541118Y502717D01*
X541079Y502727D01*
X541005Y502758D01*
X540997Y502759D01*
X540989Y502762D01*
X540831Y502793D01*
X540817Y502795D01*
X540813Y502795D01*
X540810Y502796D01*
X540695Y502803D01*
X540690Y502804D01*
X540688Y502804D01*
X540650Y502806D01*
X534284Y502806D01*
X532944Y504146D01*
X532944Y513265D01*
X534284Y514605D01*
X545209Y514605D01*
X546549Y513265D01*
X546549Y511371D01*
X545209Y510031D01*
X538787Y510031D01*
X538669Y510016D01*
X538550Y510009D01*
X538512Y509996D01*
X538471Y509991D01*
X538361Y509948D01*
X538248Y509911D01*
X538213Y509889D01*
X538176Y509874D01*
X538079Y509805D01*
X537979Y509741D01*
X537951Y509711D01*
X537918Y509688D01*
X537842Y509596D01*
X537761Y509509D01*
X537741Y509474D01*
X537716Y509443D01*
X537665Y509335D01*
X537607Y509231D01*
X537597Y509191D01*
X537580Y509155D01*
X537558Y509038D01*
X537528Y508923D01*
X537524Y508863D01*
X537520Y508843D01*
X537522Y508822D01*
X537518Y508762D01*
X537518Y508649D01*
X537533Y508531D01*
X537540Y508412D01*
X537552Y508374D01*
X537558Y508334D01*
X537601Y508223D01*
X537638Y508110D01*
X537660Y508075D01*
X537675Y508038D01*
X537744Y507942D01*
X537808Y507841D01*
X537838Y507813D01*
X537861Y507781D01*
X537953Y507705D01*
X538040Y507623D01*
X538075Y507604D01*
X538106Y507578D01*
X538214Y507527D01*
X538318Y507470D01*
X538358Y507459D01*
X538394Y507442D01*
X538511Y507420D01*
X538626Y507390D01*
X538686Y507386D01*
X538706Y507382D01*
X538727Y507384D01*
X538787Y507380D01*
X542230Y507380D01*
X544968Y505799D01*
X546549Y503061D01*
X546549Y498094D01*
X544968Y495356D01*
X542230Y493775D01*
X534284Y493775D01*
G37*
%LPD*%
%LPC*%
G36*
X203015Y595375D02*
X203015Y595375D01*
X201675Y596715D01*
X201675Y598609D01*
X203015Y599949D01*
X209381Y599949D01*
X209384Y599949D01*
X209387Y599949D01*
X209548Y599960D01*
X209562Y599962D01*
X209570Y599964D01*
X209578Y599964D01*
X209643Y599982D01*
X209696Y599989D01*
X209760Y600014D01*
X209870Y600043D01*
X209877Y600047D01*
X209885Y600049D01*
X210029Y600120D01*
X210055Y600135D01*
X210109Y600176D01*
X210148Y600198D01*
X210162Y600211D01*
X210208Y600239D01*
X210255Y600287D01*
X210308Y600327D01*
X210352Y600383D01*
X210354Y600384D01*
X210363Y600396D01*
X210366Y600400D01*
X210431Y600466D01*
X210495Y600562D01*
X210506Y600576D01*
X210509Y600584D01*
X210520Y600601D01*
X210535Y600626D01*
X210538Y600633D01*
X210543Y600640D01*
X210591Y600760D01*
X210617Y600806D01*
X210627Y600845D01*
X210658Y600919D01*
X210659Y600927D01*
X210662Y600935D01*
X210693Y601093D01*
X210695Y601107D01*
X210695Y601111D01*
X210696Y601114D01*
X210703Y601229D01*
X210704Y601234D01*
X210704Y601236D01*
X210706Y601274D01*
X210706Y603081D01*
X210706Y603084D01*
X210706Y603087D01*
X210695Y603248D01*
X210693Y603262D01*
X210691Y603270D01*
X210691Y603278D01*
X210684Y603303D01*
X210683Y603326D01*
X210671Y603364D01*
X210667Y603396D01*
X210641Y603460D01*
X210612Y603570D01*
X210608Y603577D01*
X210606Y603585D01*
X210585Y603627D01*
X210585Y603628D01*
X210584Y603629D01*
X210535Y603729D01*
X210520Y603755D01*
X210479Y603809D01*
X210457Y603848D01*
X210444Y603862D01*
X210416Y603908D01*
X210368Y603955D01*
X210328Y604008D01*
X210272Y604052D01*
X210271Y604054D01*
X210259Y604063D01*
X210255Y604066D01*
X210189Y604131D01*
X210093Y604195D01*
X210079Y604206D01*
X210071Y604209D01*
X210055Y604220D01*
X210029Y604235D01*
X210022Y604238D01*
X210015Y604243D01*
X209896Y604291D01*
X209849Y604317D01*
X209810Y604327D01*
X209736Y604358D01*
X209728Y604359D01*
X209720Y604362D01*
X209562Y604393D01*
X209548Y604395D01*
X209544Y604395D01*
X209541Y604396D01*
X209426Y604403D01*
X209421Y604404D01*
X209419Y604404D01*
X209381Y604406D01*
X203015Y604406D01*
X201675Y605746D01*
X201675Y614865D01*
X203015Y616205D01*
X213940Y616205D01*
X215280Y614865D01*
X215280Y612971D01*
X213940Y611631D01*
X207518Y611631D01*
X207400Y611616D01*
X207281Y611609D01*
X207243Y611596D01*
X207202Y611591D01*
X207092Y611548D01*
X206979Y611511D01*
X206944Y611489D01*
X206907Y611474D01*
X206811Y611405D01*
X206710Y611341D01*
X206682Y611311D01*
X206649Y611288D01*
X206573Y611196D01*
X206492Y611109D01*
X206472Y611074D01*
X206447Y611043D01*
X206396Y610935D01*
X206338Y610831D01*
X206328Y610791D01*
X206311Y610755D01*
X206289Y610638D01*
X206259Y610523D01*
X206255Y610463D01*
X206251Y610443D01*
X206253Y610422D01*
X206249Y610362D01*
X206249Y610249D01*
X206264Y610131D01*
X206271Y610012D01*
X206284Y609974D01*
X206289Y609934D01*
X206332Y609823D01*
X206369Y609710D01*
X206391Y609675D01*
X206406Y609638D01*
X206475Y609542D01*
X206539Y609441D01*
X206569Y609413D01*
X206592Y609381D01*
X206684Y609305D01*
X206771Y609223D01*
X206806Y609204D01*
X206837Y609178D01*
X206945Y609127D01*
X207049Y609070D01*
X207089Y609059D01*
X207125Y609042D01*
X207242Y609020D01*
X207357Y608990D01*
X207417Y608986D01*
X207437Y608982D01*
X207458Y608984D01*
X207518Y608980D01*
X210961Y608980D01*
X213699Y607399D01*
X214981Y605179D01*
X215000Y605154D01*
X215013Y605126D01*
X215096Y605028D01*
X215173Y604926D01*
X215198Y604906D01*
X215218Y604882D01*
X215322Y604808D01*
X215340Y604793D01*
X215339Y604791D01*
X215319Y604678D01*
X215290Y604567D01*
X215286Y604499D01*
X215282Y604478D01*
X215283Y604459D01*
X215280Y604407D01*
X215280Y599694D01*
X213699Y596956D01*
X210961Y595375D01*
X203015Y595375D01*
G37*
%LPD*%
%LPC*%
G36*
X394584Y493775D02*
X394584Y493775D01*
X393244Y495115D01*
X393244Y495596D01*
X393226Y495738D01*
X393212Y495880D01*
X393206Y495895D01*
X393204Y495912D01*
X393152Y496044D01*
X393103Y496178D01*
X393093Y496192D01*
X393087Y496208D01*
X393035Y496280D01*
X393079Y496361D01*
X393155Y496498D01*
X393155Y496500D01*
X393156Y496502D01*
X393195Y496656D01*
X393234Y496806D01*
X393234Y496809D01*
X393235Y496810D01*
X393235Y496814D01*
X393244Y496967D01*
X393244Y497009D01*
X394584Y498349D01*
X400046Y498349D01*
X400049Y498349D01*
X400051Y498349D01*
X400212Y498360D01*
X400460Y498392D01*
X400470Y498395D01*
X400479Y498395D01*
X400623Y498435D01*
X400768Y498473D01*
X400776Y498477D01*
X400785Y498480D01*
X400929Y498551D01*
X401360Y498800D01*
X401433Y498856D01*
X401512Y498903D01*
X401559Y498951D01*
X401613Y498992D01*
X401670Y499064D01*
X401735Y499130D01*
X401800Y499228D01*
X401811Y499241D01*
X401814Y499249D01*
X401824Y499264D01*
X402073Y499695D01*
X402108Y499780D01*
X402153Y499861D01*
X402170Y499926D01*
X402196Y499988D01*
X402209Y500079D01*
X402232Y500169D01*
X402240Y500285D01*
X402242Y500302D01*
X402241Y500311D01*
X402243Y500329D01*
X402243Y500826D01*
X402231Y500918D01*
X402229Y501010D01*
X402211Y501075D01*
X402203Y501141D01*
X402169Y501227D01*
X402144Y501316D01*
X402092Y501421D01*
X402086Y501437D01*
X402081Y501444D01*
X402073Y501461D01*
X401824Y501891D01*
X401768Y501964D01*
X401721Y502043D01*
X401673Y502090D01*
X401632Y502144D01*
X401560Y502201D01*
X401494Y502266D01*
X401396Y502331D01*
X401383Y502342D01*
X401375Y502345D01*
X401360Y502355D01*
X400929Y502604D01*
X400921Y502607D01*
X400913Y502613D01*
X400774Y502669D01*
X400636Y502727D01*
X400627Y502728D01*
X400618Y502732D01*
X400460Y502763D01*
X400212Y502795D01*
X400210Y502795D01*
X400207Y502796D01*
X400047Y502806D01*
X398574Y502806D01*
X396390Y502806D01*
X395050Y504146D01*
X395050Y506040D01*
X396390Y507380D01*
X400950Y507380D01*
X400969Y507382D01*
X400988Y507380D01*
X401148Y507395D01*
X401165Y507398D01*
X401220Y507414D01*
X401265Y507420D01*
X401267Y507420D01*
X401281Y507422D01*
X401374Y507459D01*
X401470Y507487D01*
X401522Y507517D01*
X401577Y507539D01*
X401713Y507625D01*
X401740Y507645D01*
X401741Y507645D01*
X401742Y507646D01*
X401841Y507739D01*
X401972Y507862D01*
X401973Y507863D01*
X402050Y507985D01*
X402070Y508016D01*
X402077Y508024D01*
X402081Y508033D01*
X402143Y508131D01*
X402144Y508132D01*
X402144Y508133D01*
X402202Y508280D01*
X402213Y508313D01*
X402228Y508392D01*
X402242Y508434D01*
X402245Y508479D01*
X402273Y508624D01*
X402273Y508625D01*
X402273Y508626D01*
X402264Y508774D01*
X402262Y508807D01*
X402262Y508817D01*
X402260Y508827D01*
X402253Y508941D01*
X402253Y508943D01*
X402252Y508945D01*
X402213Y509097D01*
X402203Y509131D01*
X402169Y509203D01*
X402155Y509246D01*
X402131Y509283D01*
X402068Y509417D01*
X402068Y509418D01*
X402067Y509418D01*
X401968Y509539D01*
X401866Y509663D01*
X401865Y509663D01*
X401865Y509664D01*
X401864Y509664D01*
X401742Y509765D01*
X401713Y509786D01*
X401661Y509815D01*
X401614Y509851D01*
X401522Y509891D01*
X401435Y509939D01*
X401377Y509954D01*
X401322Y509978D01*
X401165Y510013D01*
X401147Y510016D01*
X401136Y510016D01*
X401127Y510018D01*
X401120Y510018D01*
X401110Y510021D01*
X400950Y510031D01*
X394584Y510031D01*
X393244Y511371D01*
X393244Y513265D01*
X394584Y514605D01*
X402866Y514605D01*
X405968Y512351D01*
X407152Y508706D01*
X405907Y504872D01*
X405882Y504742D01*
X405852Y504614D01*
X405852Y504586D01*
X405847Y504559D01*
X405855Y504427D01*
X405858Y504296D01*
X405865Y504269D01*
X405867Y504242D01*
X405908Y504116D01*
X405943Y503989D01*
X405960Y503954D01*
X405965Y503939D01*
X405977Y503921D01*
X406015Y503845D01*
X406849Y502400D01*
X406849Y498755D01*
X405026Y495598D01*
X401869Y493775D01*
X394584Y493775D01*
G37*
%LPD*%
%LPC*%
G36*
X477106Y493775D02*
X477106Y493775D01*
X475766Y495115D01*
X475766Y496118D01*
X475751Y496237D01*
X475744Y496355D01*
X475731Y496394D01*
X475726Y496434D01*
X475682Y496545D01*
X475646Y496658D01*
X475624Y496692D01*
X475609Y496730D01*
X475539Y496826D01*
X475475Y496927D01*
X475446Y496954D01*
X475422Y496987D01*
X475331Y497063D01*
X475244Y497145D01*
X475208Y497164D01*
X475177Y497190D01*
X475070Y497241D01*
X474965Y497298D01*
X474926Y497308D01*
X474890Y497325D01*
X474773Y497348D01*
X474657Y497377D01*
X474597Y497381D01*
X474577Y497385D01*
X474557Y497384D01*
X474497Y497388D01*
X472652Y497388D01*
X472571Y497377D01*
X472489Y497377D01*
X472414Y497358D01*
X472337Y497348D01*
X472261Y497318D01*
X472181Y497297D01*
X472046Y497233D01*
X472041Y497231D01*
X472040Y497230D01*
X472036Y497228D01*
X472014Y497215D01*
X471582Y497339D01*
X471487Y497353D01*
X471394Y497377D01*
X471286Y497384D01*
X471267Y497387D01*
X471257Y497386D01*
X471233Y497388D01*
X470784Y497388D01*
X470766Y497406D01*
X470701Y497456D01*
X470643Y497514D01*
X470576Y497553D01*
X470514Y497601D01*
X470439Y497633D01*
X470368Y497675D01*
X470228Y497725D01*
X470222Y497727D01*
X470220Y497728D01*
X470217Y497729D01*
X470192Y497736D01*
X469974Y498129D01*
X469917Y498206D01*
X469868Y498289D01*
X469797Y498369D01*
X469786Y498385D01*
X469778Y498392D01*
X469762Y498410D01*
X469444Y498727D01*
X469444Y498753D01*
X469434Y498834D01*
X469434Y498915D01*
X469414Y498991D01*
X469404Y499069D01*
X469374Y499144D01*
X469354Y499223D01*
X469289Y499360D01*
X469287Y499364D01*
X469286Y499365D01*
X469285Y499369D01*
X469276Y499385D01*
X469225Y499454D01*
X469260Y499517D01*
X469332Y499640D01*
X469340Y499662D01*
X469345Y499671D01*
X469350Y499690D01*
X469386Y499792D01*
X469396Y499824D01*
X469410Y499919D01*
X469434Y500012D01*
X469441Y500119D01*
X469444Y500139D01*
X469443Y500149D01*
X469444Y500172D01*
X469444Y500622D01*
X469462Y500640D01*
X469513Y500705D01*
X469570Y500763D01*
X469610Y500830D01*
X469657Y500891D01*
X469690Y500966D01*
X469731Y501037D01*
X469769Y501144D01*
X469775Y501156D01*
X469777Y501164D01*
X469782Y501178D01*
X469784Y501183D01*
X469784Y501185D01*
X469785Y501189D01*
X473405Y513857D01*
X475061Y514777D01*
X476882Y514257D01*
X477802Y512601D01*
X476257Y507192D01*
X476236Y507057D01*
X476211Y506923D01*
X476212Y506900D01*
X476209Y506877D01*
X476222Y506742D01*
X476230Y506606D01*
X476238Y506584D01*
X476240Y506561D01*
X476287Y506433D01*
X476328Y506303D01*
X476341Y506284D01*
X476349Y506262D01*
X476426Y506150D01*
X476499Y506035D01*
X476516Y506019D01*
X476529Y506000D01*
X476631Y505910D01*
X476730Y505817D01*
X476751Y505806D01*
X476768Y505790D01*
X476890Y505729D01*
X477009Y505663D01*
X477031Y505657D01*
X477052Y505647D01*
X477185Y505618D01*
X477317Y505584D01*
X477349Y505582D01*
X477363Y505579D01*
X477384Y505580D01*
X477477Y505574D01*
X479000Y505574D01*
X480339Y504234D01*
X480339Y503230D01*
X480354Y503112D01*
X480362Y502994D01*
X480374Y502955D01*
X480379Y502915D01*
X480423Y502804D01*
X480460Y502691D01*
X480481Y502657D01*
X480496Y502619D01*
X480566Y502523D01*
X480630Y502422D01*
X480659Y502395D01*
X480683Y502362D01*
X480775Y502286D01*
X480862Y502204D01*
X480897Y502185D01*
X480928Y502159D01*
X481036Y502108D01*
X481140Y502051D01*
X481179Y502041D01*
X481216Y502024D01*
X481333Y502001D01*
X481448Y501971D01*
X481508Y501968D01*
X481528Y501964D01*
X481549Y501965D01*
X481609Y501961D01*
X481709Y501961D01*
X483049Y500622D01*
X483049Y498727D01*
X481709Y497388D01*
X481609Y497388D01*
X481490Y497373D01*
X481372Y497365D01*
X481333Y497353D01*
X481293Y497348D01*
X481182Y497304D01*
X481069Y497267D01*
X481035Y497246D01*
X480997Y497231D01*
X480901Y497161D01*
X480801Y497097D01*
X480773Y497068D01*
X480740Y497044D01*
X480664Y496952D01*
X480583Y496866D01*
X480563Y496830D01*
X480537Y496799D01*
X480487Y496691D01*
X480429Y496587D01*
X480419Y496548D01*
X480402Y496511D01*
X480379Y496395D01*
X480350Y496279D01*
X480346Y496219D01*
X480342Y496199D01*
X480343Y496179D01*
X480339Y496118D01*
X480339Y495115D01*
X479000Y493775D01*
X477106Y493775D01*
G37*
%LPD*%
%LPC*%
G36*
X221749Y595504D02*
X221749Y595504D01*
X221740Y595507D01*
X221732Y595512D01*
X221583Y595573D01*
X220878Y595808D01*
X220854Y595844D01*
X220847Y595850D01*
X220842Y595857D01*
X220729Y595955D01*
X220694Y595987D01*
X220456Y596699D01*
X220452Y596708D01*
X220450Y596717D01*
X220387Y596865D01*
X220055Y597530D01*
X220063Y597573D01*
X220063Y597582D01*
X220064Y597590D01*
X220054Y597740D01*
X220046Y597890D01*
X220043Y597899D01*
X220043Y597908D01*
X220001Y598063D01*
X217753Y604808D01*
X217722Y604873D01*
X217714Y604897D01*
X217701Y604919D01*
X217661Y605018D01*
X217635Y605054D01*
X217616Y605095D01*
X217542Y605182D01*
X217475Y605275D01*
X217440Y605304D01*
X217411Y605338D01*
X217318Y605405D01*
X217289Y605429D01*
X217290Y605430D01*
X217313Y605555D01*
X217342Y605680D01*
X217342Y605711D01*
X217347Y605742D01*
X217338Y605870D01*
X217336Y605998D01*
X217327Y606028D01*
X217325Y606060D01*
X217284Y606215D01*
X216464Y608675D01*
X217311Y610369D01*
X219109Y610968D01*
X220803Y610121D01*
X221341Y608506D01*
X221372Y608442D01*
X221393Y608376D01*
X221440Y608300D01*
X221479Y608219D01*
X221524Y608165D01*
X221561Y608106D01*
X221626Y608044D01*
X221684Y607975D01*
X221741Y607935D01*
X221791Y607886D01*
X221869Y607843D01*
X221942Y607790D01*
X222008Y607765D01*
X222069Y607731D01*
X222155Y607708D01*
X222239Y607675D01*
X222308Y607667D01*
X222376Y607649D01*
X222466Y607648D01*
X222555Y607638D01*
X222624Y607647D01*
X222694Y607647D01*
X222781Y607668D01*
X222870Y607680D01*
X222935Y607706D01*
X223003Y607723D01*
X223082Y607765D01*
X223165Y607799D01*
X223221Y607841D01*
X223283Y607874D01*
X223349Y607935D01*
X223421Y607988D01*
X223465Y608042D01*
X223516Y608089D01*
X223565Y608165D01*
X223622Y608234D01*
X223651Y608298D01*
X223689Y608356D01*
X223750Y608506D01*
X224288Y610121D01*
X225983Y610968D01*
X227780Y610369D01*
X228627Y608675D01*
X225090Y598063D01*
X225088Y598055D01*
X225084Y598046D01*
X225057Y597899D01*
X225028Y597751D01*
X225028Y597742D01*
X225027Y597734D01*
X225037Y597584D01*
X225040Y597537D01*
X224704Y596865D01*
X224701Y596856D01*
X224696Y596848D01*
X224635Y596699D01*
X224400Y595994D01*
X224364Y595970D01*
X224358Y595963D01*
X224351Y595958D01*
X224253Y595846D01*
X224221Y595810D01*
X223508Y595573D01*
X223500Y595568D01*
X223491Y595566D01*
X223342Y595504D01*
X222678Y595171D01*
X222635Y595180D01*
X222626Y595179D01*
X222617Y595181D01*
X222467Y595170D01*
X222421Y595168D01*
X221749Y595504D01*
G37*
%LPD*%
%LPC*%
G36*
X294639Y561339D02*
X294639Y561339D01*
X294639Y572028D01*
X295253Y571931D01*
X297268Y571276D01*
X299156Y570314D01*
X300870Y569069D01*
X302369Y567570D01*
X303614Y565856D01*
X304576Y563968D01*
X305231Y561953D01*
X305328Y561339D01*
X294639Y561339D01*
G37*
%LPD*%
%LPC*%
G36*
X278872Y561339D02*
X278872Y561339D01*
X278969Y561953D01*
X279624Y563968D01*
X280586Y565856D01*
X281831Y567570D01*
X283330Y569069D01*
X285044Y570314D01*
X286932Y571276D01*
X288947Y571931D01*
X289561Y572028D01*
X289561Y561339D01*
X278872Y561339D01*
G37*
%LPD*%
%LPC*%
G36*
X294639Y556261D02*
X294639Y556261D01*
X305328Y556261D01*
X305231Y555647D01*
X304576Y553632D01*
X303614Y551744D01*
X302369Y550030D01*
X300870Y548531D01*
X299156Y547286D01*
X297268Y546324D01*
X295253Y545669D01*
X294639Y545572D01*
X294639Y556261D01*
G37*
%LPD*%
%LPC*%
G36*
X288947Y545669D02*
X288947Y545669D01*
X286932Y546324D01*
X285044Y547286D01*
X283330Y548531D01*
X281831Y550030D01*
X280586Y551744D01*
X279624Y553632D01*
X278969Y555647D01*
X278872Y556261D01*
X289561Y556261D01*
X289561Y545572D01*
X288947Y545669D01*
G37*
%LPD*%
%LPC*%
G36*
X319531Y687831D02*
X319531Y687831D01*
X319531Y694945D01*
X321288Y694945D01*
X326645Y689588D01*
X326645Y687831D01*
X319531Y687831D01*
G37*
%LPD*%
%LPC*%
G36*
X308355Y687831D02*
X308355Y687831D01*
X308355Y689588D01*
X313712Y694945D01*
X315469Y694945D01*
X315469Y687831D01*
X308355Y687831D01*
G37*
%LPD*%
%LPC*%
G36*
X319531Y676655D02*
X319531Y676655D01*
X319531Y683769D01*
X326645Y683769D01*
X326645Y682012D01*
X321288Y676655D01*
X319531Y676655D01*
G37*
%LPD*%
%LPC*%
G36*
X313712Y676655D02*
X313712Y676655D01*
X308355Y682012D01*
X308355Y683769D01*
X315469Y683769D01*
X315469Y676655D01*
X313712Y676655D01*
G37*
%LPD*%
%LPC*%
G36*
X475583Y588849D02*
X475583Y588849D01*
X475585Y588860D01*
X476054Y590305D01*
X476744Y591659D01*
X477637Y592888D01*
X478712Y593963D01*
X479941Y594856D01*
X481295Y595546D01*
X482740Y596015D01*
X482751Y596017D01*
X482751Y588849D01*
X475583Y588849D01*
G37*
%LPD*%
%LPC*%
G36*
X482740Y577185D02*
X482740Y577185D01*
X481295Y577654D01*
X479941Y578344D01*
X478712Y579237D01*
X477637Y580312D01*
X476744Y581541D01*
X476054Y582895D01*
X475585Y584340D01*
X475583Y584351D01*
X482751Y584351D01*
X482751Y577183D01*
X482740Y577185D01*
G37*
%LPD*%
%LPC*%
G36*
X292099Y558799D02*
X292099Y558799D01*
X292099Y558801D01*
X292101Y558801D01*
X292101Y558799D01*
X292099Y558799D01*
G37*
%LPD*%
D10*
X269268Y512318D02*
X269268Y496062D01*
X267462Y496062D02*
X271074Y496062D01*
X271074Y512318D02*
X267462Y512318D01*
X277779Y512318D02*
X277779Y496062D01*
X286810Y496062D02*
X277779Y512318D01*
X286810Y512318D02*
X286810Y496062D01*
X293931Y508706D02*
X298447Y512318D01*
X298447Y496062D01*
X302962Y496062D02*
X293931Y496062D01*
X320068Y496062D02*
X320068Y512318D01*
X318262Y496062D02*
X321874Y496062D01*
X321874Y512318D02*
X318262Y512318D01*
X328579Y512318D02*
X328579Y496062D01*
X337610Y496062D02*
X328579Y512318D01*
X337610Y512318D02*
X337610Y496062D01*
X353762Y508254D02*
X353760Y508379D01*
X353754Y508504D01*
X353745Y508629D01*
X353731Y508753D01*
X353714Y508877D01*
X353693Y509001D01*
X353668Y509123D01*
X353639Y509245D01*
X353607Y509366D01*
X353571Y509486D01*
X353531Y509605D01*
X353488Y509722D01*
X353441Y509838D01*
X353390Y509953D01*
X353336Y510065D01*
X353278Y510177D01*
X353218Y510286D01*
X353153Y510393D01*
X353086Y510499D01*
X353015Y510602D01*
X352941Y510703D01*
X352864Y510802D01*
X352784Y510898D01*
X352701Y510992D01*
X352616Y511083D01*
X352527Y511172D01*
X352436Y511257D01*
X352342Y511340D01*
X352246Y511420D01*
X352147Y511497D01*
X352046Y511571D01*
X351943Y511642D01*
X351837Y511709D01*
X351730Y511774D01*
X351621Y511834D01*
X351509Y511892D01*
X351397Y511946D01*
X351282Y511997D01*
X351166Y512044D01*
X351049Y512087D01*
X350930Y512127D01*
X350810Y512163D01*
X350689Y512195D01*
X350567Y512224D01*
X350445Y512249D01*
X350321Y512270D01*
X350197Y512287D01*
X350073Y512301D01*
X349948Y512310D01*
X349823Y512316D01*
X349698Y512318D01*
X349555Y512316D01*
X349413Y512310D01*
X349270Y512300D01*
X349128Y512287D01*
X348987Y512269D01*
X348845Y512248D01*
X348705Y512223D01*
X348565Y512194D01*
X348426Y512161D01*
X348288Y512124D01*
X348151Y512084D01*
X348016Y512040D01*
X347881Y511992D01*
X347748Y511940D01*
X347616Y511885D01*
X347486Y511826D01*
X347358Y511764D01*
X347231Y511698D01*
X347106Y511629D01*
X346983Y511557D01*
X346863Y511481D01*
X346744Y511402D01*
X346627Y511319D01*
X346513Y511234D01*
X346401Y511145D01*
X346292Y511054D01*
X346185Y510959D01*
X346080Y510862D01*
X345979Y510761D01*
X345880Y510658D01*
X345784Y510553D01*
X345691Y510444D01*
X345601Y510333D01*
X345514Y510220D01*
X345430Y510105D01*
X345350Y509987D01*
X345272Y509867D01*
X345198Y509745D01*
X345128Y509621D01*
X345060Y509495D01*
X344997Y509367D01*
X344936Y509238D01*
X344879Y509107D01*
X344826Y508975D01*
X344777Y508841D01*
X344731Y508706D01*
X352407Y505093D02*
X352501Y505185D01*
X352591Y505279D01*
X352679Y505376D01*
X352764Y505476D01*
X352846Y505578D01*
X352925Y505683D01*
X353000Y505790D01*
X353072Y505899D01*
X353141Y506010D01*
X353207Y506124D01*
X353269Y506239D01*
X353328Y506356D01*
X353383Y506475D01*
X353434Y506595D01*
X353482Y506717D01*
X353527Y506840D01*
X353567Y506964D01*
X353604Y507090D01*
X353637Y507217D01*
X353666Y507344D01*
X353692Y507473D01*
X353713Y507602D01*
X353731Y507732D01*
X353744Y507862D01*
X353754Y507992D01*
X353760Y508123D01*
X353762Y508254D01*
X352407Y505093D02*
X344731Y496062D01*
X353762Y496062D01*
X370868Y496062D02*
X370868Y512318D01*
X369062Y496062D02*
X372674Y496062D01*
X372674Y512318D02*
X369062Y512318D01*
X379379Y512318D02*
X379379Y496062D01*
X388410Y496062D02*
X379379Y512318D01*
X388410Y512318D02*
X388410Y496062D01*
X395531Y496062D02*
X400047Y496062D01*
X400180Y496064D01*
X400312Y496070D01*
X400444Y496080D01*
X400576Y496093D01*
X400708Y496111D01*
X400838Y496132D01*
X400969Y496157D01*
X401098Y496186D01*
X401226Y496219D01*
X401354Y496255D01*
X401480Y496295D01*
X401605Y496339D01*
X401729Y496387D01*
X401851Y496438D01*
X401972Y496493D01*
X402091Y496551D01*
X402209Y496613D01*
X402324Y496678D01*
X402438Y496747D01*
X402549Y496818D01*
X402658Y496894D01*
X402765Y496972D01*
X402870Y497053D01*
X402972Y497138D01*
X403072Y497225D01*
X403169Y497315D01*
X403264Y497408D01*
X403355Y497504D01*
X403444Y497602D01*
X403530Y497703D01*
X403613Y497807D01*
X403693Y497913D01*
X403769Y498021D01*
X403843Y498131D01*
X403913Y498244D01*
X403980Y498358D01*
X404043Y498475D01*
X404103Y498593D01*
X404160Y498713D01*
X404213Y498835D01*
X404262Y498958D01*
X404308Y499082D01*
X404350Y499208D01*
X404388Y499335D01*
X404423Y499463D01*
X404454Y499592D01*
X404481Y499721D01*
X404504Y499852D01*
X404524Y499983D01*
X404539Y500115D01*
X404551Y500247D01*
X404559Y500379D01*
X404563Y500512D01*
X404563Y500644D01*
X404559Y500777D01*
X404551Y500909D01*
X404539Y501041D01*
X404524Y501173D01*
X404504Y501304D01*
X404481Y501435D01*
X404454Y501564D01*
X404423Y501693D01*
X404388Y501821D01*
X404350Y501948D01*
X404308Y502074D01*
X404262Y502198D01*
X404213Y502321D01*
X404160Y502443D01*
X404103Y502563D01*
X404043Y502681D01*
X403980Y502798D01*
X403913Y502912D01*
X403843Y503025D01*
X403769Y503135D01*
X403693Y503243D01*
X403613Y503349D01*
X403530Y503453D01*
X403444Y503554D01*
X403355Y503652D01*
X403264Y503748D01*
X403169Y503841D01*
X403072Y503931D01*
X402972Y504018D01*
X402870Y504103D01*
X402765Y504184D01*
X402658Y504262D01*
X402549Y504338D01*
X402438Y504409D01*
X402324Y504478D01*
X402209Y504543D01*
X402091Y504605D01*
X401972Y504663D01*
X401851Y504718D01*
X401729Y504769D01*
X401605Y504817D01*
X401480Y504861D01*
X401354Y504901D01*
X401226Y504937D01*
X401098Y504970D01*
X400969Y504999D01*
X400838Y505024D01*
X400708Y505045D01*
X400576Y505063D01*
X400444Y505076D01*
X400312Y505086D01*
X400180Y505092D01*
X400047Y505094D01*
X400950Y512318D02*
X395531Y512318D01*
X400950Y512318D02*
X401069Y512316D01*
X401189Y512310D01*
X401308Y512300D01*
X401426Y512286D01*
X401545Y512269D01*
X401662Y512247D01*
X401779Y512222D01*
X401894Y512192D01*
X402009Y512159D01*
X402123Y512122D01*
X402235Y512082D01*
X402346Y512037D01*
X402455Y511989D01*
X402563Y511938D01*
X402669Y511883D01*
X402773Y511824D01*
X402875Y511762D01*
X402975Y511697D01*
X403073Y511628D01*
X403169Y511556D01*
X403262Y511481D01*
X403352Y511404D01*
X403440Y511323D01*
X403525Y511239D01*
X403607Y511152D01*
X403687Y511063D01*
X403763Y510971D01*
X403837Y510877D01*
X403907Y510780D01*
X403974Y510682D01*
X404038Y510581D01*
X404098Y510477D01*
X404155Y510372D01*
X404208Y510265D01*
X404258Y510157D01*
X404304Y510047D01*
X404346Y509935D01*
X404385Y509822D01*
X404420Y509708D01*
X404451Y509593D01*
X404479Y509476D01*
X404502Y509359D01*
X404522Y509242D01*
X404538Y509123D01*
X404550Y509004D01*
X404558Y508885D01*
X404562Y508766D01*
X404562Y508646D01*
X404558Y508527D01*
X404550Y508408D01*
X404538Y508289D01*
X404522Y508170D01*
X404502Y508053D01*
X404479Y507936D01*
X404451Y507819D01*
X404420Y507704D01*
X404385Y507590D01*
X404346Y507477D01*
X404304Y507365D01*
X404258Y507255D01*
X404208Y507147D01*
X404155Y507040D01*
X404098Y506935D01*
X404038Y506831D01*
X403974Y506730D01*
X403907Y506632D01*
X403837Y506535D01*
X403763Y506441D01*
X403687Y506349D01*
X403607Y506260D01*
X403525Y506173D01*
X403440Y506089D01*
X403352Y506008D01*
X403262Y505931D01*
X403169Y505856D01*
X403073Y505784D01*
X402975Y505715D01*
X402875Y505650D01*
X402773Y505588D01*
X402669Y505529D01*
X402563Y505474D01*
X402455Y505423D01*
X402346Y505375D01*
X402235Y505330D01*
X402123Y505290D01*
X402009Y505253D01*
X401894Y505220D01*
X401779Y505190D01*
X401662Y505165D01*
X401545Y505143D01*
X401426Y505126D01*
X401308Y505112D01*
X401189Y505102D01*
X401069Y505096D01*
X400950Y505094D01*
X400950Y505093D02*
X397337Y505093D01*
X447068Y512318D02*
X447068Y496062D01*
X445262Y496062D02*
X448874Y496062D01*
X448874Y512318D02*
X445262Y512318D01*
X455579Y512318D02*
X455579Y496062D01*
X464610Y496062D02*
X455579Y512318D01*
X464610Y512318D02*
X464610Y496062D01*
X471731Y499674D02*
X475343Y512318D01*
X471731Y499674D02*
X480762Y499674D01*
X478053Y503287D02*
X478053Y496062D01*
X510568Y496062D02*
X510568Y512318D01*
X508762Y496062D02*
X512374Y496062D01*
X512374Y512318D02*
X508762Y512318D01*
X519079Y512318D02*
X519079Y496062D01*
X528110Y496062D02*
X519079Y512318D01*
X528110Y512318D02*
X528110Y496062D01*
X535231Y496062D02*
X540650Y496062D01*
X540768Y496064D01*
X540886Y496070D01*
X541004Y496079D01*
X541121Y496093D01*
X541238Y496110D01*
X541355Y496131D01*
X541470Y496156D01*
X541585Y496185D01*
X541699Y496218D01*
X541811Y496254D01*
X541922Y496294D01*
X542032Y496337D01*
X542141Y496384D01*
X542248Y496434D01*
X542353Y496489D01*
X542456Y496546D01*
X542557Y496607D01*
X542657Y496671D01*
X542754Y496738D01*
X542849Y496808D01*
X542941Y496882D01*
X543032Y496958D01*
X543119Y497038D01*
X543204Y497120D01*
X543286Y497205D01*
X543366Y497292D01*
X543442Y497383D01*
X543516Y497475D01*
X543586Y497570D01*
X543653Y497667D01*
X543717Y497767D01*
X543778Y497868D01*
X543835Y497971D01*
X543890Y498076D01*
X543940Y498183D01*
X543987Y498292D01*
X544030Y498402D01*
X544070Y498513D01*
X544106Y498625D01*
X544139Y498739D01*
X544168Y498854D01*
X544193Y498969D01*
X544214Y499086D01*
X544231Y499203D01*
X544245Y499320D01*
X544254Y499438D01*
X544260Y499556D01*
X544262Y499674D01*
X544262Y501481D01*
X544260Y501599D01*
X544254Y501717D01*
X544245Y501835D01*
X544231Y501952D01*
X544214Y502069D01*
X544193Y502186D01*
X544168Y502301D01*
X544139Y502416D01*
X544106Y502530D01*
X544070Y502642D01*
X544030Y502753D01*
X543987Y502863D01*
X543940Y502972D01*
X543890Y503079D01*
X543835Y503184D01*
X543778Y503287D01*
X543717Y503388D01*
X543653Y503488D01*
X543586Y503585D01*
X543516Y503680D01*
X543442Y503772D01*
X543366Y503863D01*
X543286Y503950D01*
X543204Y504035D01*
X543119Y504117D01*
X543032Y504197D01*
X542941Y504273D01*
X542849Y504347D01*
X542754Y504417D01*
X542657Y504484D01*
X542557Y504548D01*
X542456Y504609D01*
X542353Y504666D01*
X542248Y504721D01*
X542141Y504771D01*
X542032Y504818D01*
X541922Y504861D01*
X541811Y504901D01*
X541699Y504937D01*
X541585Y504970D01*
X541470Y504999D01*
X541355Y505024D01*
X541238Y505045D01*
X541121Y505062D01*
X541004Y505076D01*
X540886Y505085D01*
X540768Y505091D01*
X540650Y505093D01*
X535231Y505093D01*
X535231Y512318D01*
X544262Y512318D01*
X574068Y512318D02*
X574068Y496062D01*
X572262Y496062D02*
X575874Y496062D01*
X575874Y512318D02*
X572262Y512318D01*
X582579Y512318D02*
X582579Y496062D01*
X591610Y496062D02*
X582579Y512318D01*
X591610Y512318D02*
X591610Y496062D01*
X598731Y505093D02*
X604150Y505093D01*
X604268Y505091D01*
X604386Y505085D01*
X604504Y505076D01*
X604621Y505062D01*
X604738Y505045D01*
X604855Y505024D01*
X604970Y504999D01*
X605085Y504970D01*
X605199Y504937D01*
X605311Y504901D01*
X605422Y504861D01*
X605532Y504818D01*
X605641Y504771D01*
X605748Y504721D01*
X605853Y504666D01*
X605956Y504609D01*
X606057Y504548D01*
X606157Y504484D01*
X606254Y504417D01*
X606349Y504347D01*
X606441Y504273D01*
X606532Y504197D01*
X606619Y504117D01*
X606704Y504035D01*
X606786Y503950D01*
X606866Y503863D01*
X606942Y503772D01*
X607016Y503680D01*
X607086Y503585D01*
X607153Y503488D01*
X607217Y503388D01*
X607278Y503287D01*
X607335Y503184D01*
X607390Y503079D01*
X607440Y502972D01*
X607487Y502863D01*
X607530Y502753D01*
X607570Y502642D01*
X607606Y502530D01*
X607639Y502416D01*
X607668Y502301D01*
X607693Y502186D01*
X607714Y502069D01*
X607731Y501952D01*
X607745Y501835D01*
X607754Y501717D01*
X607760Y501599D01*
X607762Y501481D01*
X607762Y500578D01*
X607763Y500578D02*
X607761Y500445D01*
X607755Y500313D01*
X607745Y500181D01*
X607732Y500049D01*
X607714Y499917D01*
X607693Y499787D01*
X607668Y499656D01*
X607639Y499527D01*
X607606Y499399D01*
X607570Y499271D01*
X607530Y499145D01*
X607486Y499020D01*
X607438Y498896D01*
X607387Y498774D01*
X607332Y498653D01*
X607274Y498534D01*
X607212Y498416D01*
X607147Y498301D01*
X607078Y498187D01*
X607007Y498076D01*
X606931Y497967D01*
X606853Y497860D01*
X606772Y497755D01*
X606687Y497653D01*
X606600Y497553D01*
X606510Y497456D01*
X606417Y497361D01*
X606321Y497270D01*
X606223Y497181D01*
X606122Y497095D01*
X606018Y497012D01*
X605912Y496932D01*
X605804Y496856D01*
X605694Y496782D01*
X605581Y496712D01*
X605467Y496645D01*
X605350Y496582D01*
X605232Y496522D01*
X605112Y496465D01*
X604990Y496412D01*
X604867Y496363D01*
X604743Y496317D01*
X604617Y496275D01*
X604490Y496237D01*
X604362Y496202D01*
X604233Y496171D01*
X604104Y496144D01*
X603973Y496121D01*
X603842Y496101D01*
X603710Y496086D01*
X603578Y496074D01*
X603446Y496066D01*
X603313Y496062D01*
X603181Y496062D01*
X603048Y496066D01*
X602916Y496074D01*
X602784Y496086D01*
X602652Y496101D01*
X602521Y496121D01*
X602390Y496144D01*
X602261Y496171D01*
X602132Y496202D01*
X602004Y496237D01*
X601877Y496275D01*
X601751Y496317D01*
X601627Y496363D01*
X601504Y496412D01*
X601382Y496465D01*
X601262Y496522D01*
X601144Y496582D01*
X601027Y496645D01*
X600913Y496712D01*
X600800Y496782D01*
X600690Y496856D01*
X600582Y496932D01*
X600476Y497012D01*
X600372Y497095D01*
X600271Y497181D01*
X600173Y497270D01*
X600077Y497361D01*
X599984Y497456D01*
X599894Y497553D01*
X599807Y497653D01*
X599722Y497755D01*
X599641Y497860D01*
X599563Y497967D01*
X599487Y498076D01*
X599416Y498187D01*
X599347Y498301D01*
X599282Y498416D01*
X599220Y498534D01*
X599162Y498653D01*
X599107Y498774D01*
X599056Y498896D01*
X599008Y499020D01*
X598964Y499145D01*
X598924Y499271D01*
X598888Y499399D01*
X598855Y499527D01*
X598826Y499656D01*
X598801Y499787D01*
X598780Y499917D01*
X598762Y500049D01*
X598749Y500181D01*
X598739Y500313D01*
X598733Y500445D01*
X598731Y500578D01*
X598731Y505093D01*
X598733Y505270D01*
X598740Y505448D01*
X598751Y505625D01*
X598766Y505801D01*
X598785Y505977D01*
X598809Y506153D01*
X598837Y506328D01*
X598870Y506503D01*
X598907Y506676D01*
X598948Y506849D01*
X598993Y507020D01*
X599042Y507190D01*
X599096Y507359D01*
X599153Y507527D01*
X599215Y507693D01*
X599281Y507858D01*
X599351Y508021D01*
X599425Y508182D01*
X599502Y508341D01*
X599584Y508499D01*
X599670Y508654D01*
X599759Y508807D01*
X599852Y508958D01*
X599949Y509107D01*
X600049Y509253D01*
X600153Y509397D01*
X600260Y509538D01*
X600371Y509676D01*
X600485Y509812D01*
X600603Y509945D01*
X600723Y510075D01*
X600847Y510202D01*
X600974Y510326D01*
X601104Y510446D01*
X601237Y510564D01*
X601372Y510678D01*
X601511Y510789D01*
X601652Y510896D01*
X601796Y511000D01*
X601942Y511100D01*
X602091Y511197D01*
X602242Y511290D01*
X602395Y511379D01*
X602550Y511465D01*
X602708Y511547D01*
X602867Y511624D01*
X603028Y511698D01*
X603191Y511768D01*
X603356Y511834D01*
X603522Y511896D01*
X603690Y511953D01*
X603859Y512007D01*
X604029Y512056D01*
X604200Y512101D01*
X604373Y512142D01*
X604546Y512179D01*
X604721Y512212D01*
X604896Y512240D01*
X605072Y512264D01*
X605248Y512283D01*
X605424Y512298D01*
X605601Y512309D01*
X605779Y512316D01*
X605956Y512318D01*
X209381Y597662D02*
X203962Y597662D01*
X209381Y597662D02*
X209499Y597664D01*
X209617Y597670D01*
X209735Y597679D01*
X209852Y597693D01*
X209969Y597710D01*
X210086Y597731D01*
X210201Y597756D01*
X210316Y597785D01*
X210430Y597818D01*
X210542Y597854D01*
X210653Y597894D01*
X210763Y597937D01*
X210872Y597984D01*
X210979Y598034D01*
X211084Y598089D01*
X211187Y598146D01*
X211288Y598207D01*
X211388Y598271D01*
X211485Y598338D01*
X211580Y598408D01*
X211672Y598482D01*
X211763Y598558D01*
X211850Y598638D01*
X211935Y598720D01*
X212017Y598805D01*
X212097Y598892D01*
X212173Y598983D01*
X212247Y599075D01*
X212317Y599170D01*
X212384Y599267D01*
X212448Y599367D01*
X212509Y599468D01*
X212566Y599571D01*
X212621Y599676D01*
X212671Y599783D01*
X212718Y599892D01*
X212761Y600002D01*
X212801Y600113D01*
X212837Y600225D01*
X212870Y600339D01*
X212899Y600454D01*
X212924Y600569D01*
X212945Y600686D01*
X212962Y600803D01*
X212976Y600920D01*
X212985Y601038D01*
X212991Y601156D01*
X212993Y601274D01*
X212993Y603081D01*
X212991Y603199D01*
X212985Y603317D01*
X212976Y603435D01*
X212962Y603552D01*
X212945Y603669D01*
X212924Y603786D01*
X212899Y603901D01*
X212870Y604016D01*
X212837Y604130D01*
X212801Y604242D01*
X212761Y604353D01*
X212718Y604463D01*
X212671Y604572D01*
X212621Y604679D01*
X212566Y604784D01*
X212509Y604887D01*
X212448Y604988D01*
X212384Y605088D01*
X212317Y605185D01*
X212247Y605280D01*
X212173Y605372D01*
X212097Y605463D01*
X212017Y605550D01*
X211935Y605635D01*
X211850Y605717D01*
X211763Y605797D01*
X211672Y605873D01*
X211580Y605947D01*
X211485Y606017D01*
X211388Y606084D01*
X211288Y606148D01*
X211187Y606209D01*
X211084Y606266D01*
X210979Y606321D01*
X210872Y606371D01*
X210763Y606418D01*
X210653Y606461D01*
X210542Y606501D01*
X210430Y606537D01*
X210316Y606570D01*
X210201Y606599D01*
X210086Y606624D01*
X209969Y606645D01*
X209852Y606662D01*
X209735Y606676D01*
X209617Y606685D01*
X209499Y606691D01*
X209381Y606693D01*
X203962Y606693D01*
X203962Y613918D01*
X212993Y613918D01*
X218933Y608499D02*
X222546Y597662D01*
X226158Y608499D01*
D11*
X485000Y586600D03*
X495200Y561200D03*
X505400Y586600D03*
X515600Y561200D03*
X525800Y586600D03*
X536000Y561200D03*
X546200Y586600D03*
X556400Y561200D03*
D12*
X439450Y561200D03*
X601950Y561200D03*
D13*
X279400Y431800D03*
X330200Y431800D03*
X381000Y431800D03*
X482600Y431800D03*
X533400Y431800D03*
X584200Y431800D03*
D14*
X292100Y609600D03*
D15*
X292100Y558800D03*
D16*
X381000Y711200D03*
X381000Y609600D03*
D17*
X292100Y685800D03*
X317500Y685800D03*
D18*
X317500Y635000D02*
X292100Y609600D01*
X434990Y635000D02*
X435548Y635558D01*
X532842Y635558D01*
X569142Y599258D02*
X569142Y598848D01*
X571500Y596490D01*
X571500Y576300D02*
X556400Y561200D01*
X434990Y635000D02*
X317500Y635000D01*
X532842Y635558D02*
X569142Y599258D01*
X571500Y596490D02*
X571500Y576300D01*
D19*
X368300Y469900D02*
X330200Y431800D01*
X368300Y469900D02*
X406400Y469900D01*
X431800Y495300D01*
X490300Y571500D02*
X505400Y586600D01*
X490300Y571500D02*
X482600Y571500D01*
X431800Y520700D02*
X431800Y495300D01*
X431800Y520700D02*
X482600Y571500D01*
M02*
