G04 EAGLE Gerber RS-274X export*
G75*
%MOMM*%
%FSLAX34Y34*%
%LPD*%
%IN*%
%IPPOS*%
%AMOC8*
5,1,8,0,0,1.08239X$1,22.5*%
G01*
%ADD10C,0.254000*%


D10*
X152400Y317500D02*
X720600Y317500D01*
X720600Y736500D01*
X152400Y736500D01*
X152400Y317500D01*
X459050Y609099D02*
X458971Y608100D01*
X458815Y607111D01*
X458581Y606136D01*
X458271Y605184D01*
X457888Y604258D01*
X457433Y603365D01*
X456909Y602511D01*
X456321Y601700D01*
X455670Y600939D01*
X454961Y600230D01*
X454200Y599579D01*
X453389Y598991D01*
X452535Y598467D01*
X451642Y598012D01*
X450716Y597629D01*
X449764Y597319D01*
X448789Y597085D01*
X447800Y596929D01*
X446801Y596850D01*
X445799Y596850D01*
X444800Y596929D01*
X443811Y597085D01*
X442836Y597319D01*
X441884Y597629D01*
X440958Y598012D01*
X440065Y598467D01*
X439211Y598991D01*
X438400Y599579D01*
X437639Y600230D01*
X436930Y600939D01*
X436279Y601700D01*
X435691Y602511D01*
X435167Y603365D01*
X434712Y604258D01*
X434329Y605184D01*
X434019Y606136D01*
X433785Y607111D01*
X433629Y608100D01*
X433550Y609099D01*
X433550Y610101D01*
X433629Y611100D01*
X433785Y612089D01*
X434019Y613064D01*
X434329Y614016D01*
X434712Y614942D01*
X435167Y615835D01*
X435691Y616689D01*
X436279Y617500D01*
X436930Y618261D01*
X437639Y618970D01*
X438400Y619621D01*
X439211Y620209D01*
X440065Y620733D01*
X440958Y621188D01*
X441884Y621571D01*
X442836Y621881D01*
X443811Y622115D01*
X444800Y622271D01*
X445799Y622350D01*
X446801Y622350D01*
X447800Y622271D01*
X448789Y622115D01*
X449764Y621881D01*
X450716Y621571D01*
X451642Y621188D01*
X452535Y620733D01*
X453389Y620209D01*
X454200Y619621D01*
X454961Y618970D01*
X455670Y618261D01*
X456321Y617500D01*
X456909Y616689D01*
X457433Y615835D01*
X457888Y614942D01*
X458271Y614016D01*
X458581Y613064D01*
X458815Y612089D01*
X458971Y611100D01*
X459050Y610101D01*
X459050Y609099D01*
X607850Y609099D02*
X607771Y608100D01*
X607615Y607111D01*
X607381Y606136D01*
X607071Y605184D01*
X606688Y604258D01*
X606233Y603365D01*
X605709Y602511D01*
X605121Y601700D01*
X604470Y600939D01*
X603761Y600230D01*
X603000Y599579D01*
X602189Y598991D01*
X601335Y598467D01*
X600442Y598012D01*
X599516Y597629D01*
X598564Y597319D01*
X597589Y597085D01*
X596600Y596929D01*
X595601Y596850D01*
X594599Y596850D01*
X593600Y596929D01*
X592611Y597085D01*
X591636Y597319D01*
X590684Y597629D01*
X589758Y598012D01*
X588865Y598467D01*
X588011Y598991D01*
X587200Y599579D01*
X586439Y600230D01*
X585730Y600939D01*
X585079Y601700D01*
X584491Y602511D01*
X583967Y603365D01*
X583512Y604258D01*
X583129Y605184D01*
X582819Y606136D01*
X582585Y607111D01*
X582429Y608100D01*
X582350Y609099D01*
X582350Y610101D01*
X582429Y611100D01*
X582585Y612089D01*
X582819Y613064D01*
X583129Y614016D01*
X583512Y614942D01*
X583967Y615835D01*
X584491Y616689D01*
X585079Y617500D01*
X585730Y618261D01*
X586439Y618970D01*
X587200Y619621D01*
X588011Y620209D01*
X588865Y620733D01*
X589758Y621188D01*
X590684Y621571D01*
X591636Y621881D01*
X592611Y622115D01*
X593600Y622271D01*
X594599Y622350D01*
X595601Y622350D01*
X596600Y622271D01*
X597589Y622115D01*
X598564Y621881D01*
X599516Y621571D01*
X600442Y621188D01*
X601335Y620733D01*
X602189Y620209D01*
X603000Y619621D01*
X603761Y618970D01*
X604470Y618261D01*
X605121Y617500D01*
X605709Y616689D01*
X606233Y615835D01*
X606688Y614942D01*
X607071Y614016D01*
X607381Y613064D01*
X607615Y612089D01*
X607771Y611100D01*
X607850Y610101D01*
X607850Y609099D01*
X219200Y685276D02*
X219132Y684231D01*
X218995Y683192D01*
X218790Y682165D01*
X218519Y681153D01*
X218183Y680161D01*
X217782Y679193D01*
X217318Y678254D01*
X216795Y677346D01*
X216213Y676475D01*
X215575Y675644D01*
X214884Y674857D01*
X214143Y674116D01*
X213356Y673425D01*
X212525Y672788D01*
X211654Y672206D01*
X210746Y671682D01*
X209807Y671218D01*
X208839Y670817D01*
X207847Y670481D01*
X206835Y670210D01*
X205808Y670005D01*
X204769Y669869D01*
X203724Y669800D01*
X202676Y669800D01*
X201631Y669869D01*
X200592Y670005D01*
X199565Y670210D01*
X198553Y670481D01*
X197561Y670817D01*
X196593Y671218D01*
X195654Y671682D01*
X194746Y672206D01*
X193875Y672788D01*
X193044Y673425D01*
X192257Y674116D01*
X191516Y674857D01*
X190825Y675644D01*
X190188Y676475D01*
X189606Y677346D01*
X189082Y678254D01*
X188618Y679193D01*
X188217Y680161D01*
X187881Y681153D01*
X187610Y682165D01*
X187405Y683192D01*
X187269Y684231D01*
X187200Y685276D01*
X187200Y686324D01*
X187269Y687369D01*
X187405Y688408D01*
X187610Y689435D01*
X187881Y690447D01*
X188217Y691439D01*
X188618Y692407D01*
X189082Y693346D01*
X189606Y694254D01*
X190188Y695125D01*
X190825Y695956D01*
X191516Y696743D01*
X192257Y697484D01*
X193044Y698175D01*
X193875Y698813D01*
X194746Y699395D01*
X195654Y699918D01*
X196593Y700382D01*
X197561Y700783D01*
X198553Y701119D01*
X199565Y701390D01*
X200592Y701595D01*
X201631Y701732D01*
X202676Y701800D01*
X203724Y701800D01*
X204769Y701732D01*
X205808Y701595D01*
X206835Y701390D01*
X207847Y701119D01*
X208839Y700783D01*
X209807Y700382D01*
X210746Y699918D01*
X211654Y699395D01*
X212525Y698813D01*
X213356Y698175D01*
X214143Y697484D01*
X214884Y696743D01*
X215575Y695956D01*
X216213Y695125D01*
X216795Y694254D01*
X217318Y693346D01*
X217782Y692407D01*
X218183Y691439D01*
X218519Y690447D01*
X218790Y689435D01*
X218995Y688408D01*
X219132Y687369D01*
X219200Y686324D01*
X219200Y685276D01*
X689100Y685276D02*
X689032Y684231D01*
X688895Y683192D01*
X688690Y682165D01*
X688419Y681153D01*
X688083Y680161D01*
X687682Y679193D01*
X687218Y678254D01*
X686695Y677346D01*
X686113Y676475D01*
X685475Y675644D01*
X684784Y674857D01*
X684043Y674116D01*
X683256Y673425D01*
X682425Y672788D01*
X681554Y672206D01*
X680646Y671682D01*
X679707Y671218D01*
X678739Y670817D01*
X677747Y670481D01*
X676735Y670210D01*
X675708Y670005D01*
X674669Y669869D01*
X673624Y669800D01*
X672576Y669800D01*
X671531Y669869D01*
X670492Y670005D01*
X669465Y670210D01*
X668453Y670481D01*
X667461Y670817D01*
X666493Y671218D01*
X665554Y671682D01*
X664646Y672206D01*
X663775Y672788D01*
X662944Y673425D01*
X662157Y674116D01*
X661416Y674857D01*
X660725Y675644D01*
X660088Y676475D01*
X659506Y677346D01*
X658982Y678254D01*
X658518Y679193D01*
X658117Y680161D01*
X657781Y681153D01*
X657510Y682165D01*
X657305Y683192D01*
X657169Y684231D01*
X657100Y685276D01*
X657100Y686324D01*
X657169Y687369D01*
X657305Y688408D01*
X657510Y689435D01*
X657781Y690447D01*
X658117Y691439D01*
X658518Y692407D01*
X658982Y693346D01*
X659506Y694254D01*
X660088Y695125D01*
X660725Y695956D01*
X661416Y696743D01*
X662157Y697484D01*
X662944Y698175D01*
X663775Y698813D01*
X664646Y699395D01*
X665554Y699918D01*
X666493Y700382D01*
X667461Y700783D01*
X668453Y701119D01*
X669465Y701390D01*
X670492Y701595D01*
X671531Y701732D01*
X672576Y701800D01*
X673624Y701800D01*
X674669Y701732D01*
X675708Y701595D01*
X676735Y701390D01*
X677747Y701119D01*
X678739Y700783D01*
X679707Y700382D01*
X680646Y699918D01*
X681554Y699395D01*
X682425Y698813D01*
X683256Y698175D01*
X684043Y697484D01*
X684784Y696743D01*
X685475Y695956D01*
X686113Y695125D01*
X686695Y694254D01*
X687218Y693346D01*
X687682Y692407D01*
X688083Y691439D01*
X688419Y690447D01*
X688690Y689435D01*
X688895Y688408D01*
X689032Y687369D01*
X689100Y686324D01*
X689100Y685276D01*
X689100Y367776D02*
X689032Y366731D01*
X688895Y365692D01*
X688690Y364665D01*
X688419Y363653D01*
X688083Y362661D01*
X687682Y361693D01*
X687218Y360754D01*
X686695Y359846D01*
X686113Y358975D01*
X685475Y358144D01*
X684784Y357357D01*
X684043Y356616D01*
X683256Y355925D01*
X682425Y355288D01*
X681554Y354706D01*
X680646Y354182D01*
X679707Y353718D01*
X678739Y353317D01*
X677747Y352981D01*
X676735Y352710D01*
X675708Y352505D01*
X674669Y352369D01*
X673624Y352300D01*
X672576Y352300D01*
X671531Y352369D01*
X670492Y352505D01*
X669465Y352710D01*
X668453Y352981D01*
X667461Y353317D01*
X666493Y353718D01*
X665554Y354182D01*
X664646Y354706D01*
X663775Y355288D01*
X662944Y355925D01*
X662157Y356616D01*
X661416Y357357D01*
X660725Y358144D01*
X660088Y358975D01*
X659506Y359846D01*
X658982Y360754D01*
X658518Y361693D01*
X658117Y362661D01*
X657781Y363653D01*
X657510Y364665D01*
X657305Y365692D01*
X657169Y366731D01*
X657100Y367776D01*
X657100Y368824D01*
X657169Y369869D01*
X657305Y370908D01*
X657510Y371935D01*
X657781Y372947D01*
X658117Y373939D01*
X658518Y374907D01*
X658982Y375846D01*
X659506Y376754D01*
X660088Y377625D01*
X660725Y378456D01*
X661416Y379243D01*
X662157Y379984D01*
X662944Y380675D01*
X663775Y381313D01*
X664646Y381895D01*
X665554Y382418D01*
X666493Y382882D01*
X667461Y383283D01*
X668453Y383619D01*
X669465Y383890D01*
X670492Y384095D01*
X671531Y384232D01*
X672576Y384300D01*
X673624Y384300D01*
X674669Y384232D01*
X675708Y384095D01*
X676735Y383890D01*
X677747Y383619D01*
X678739Y383283D01*
X679707Y382882D01*
X680646Y382418D01*
X681554Y381895D01*
X682425Y381313D01*
X683256Y380675D01*
X684043Y379984D01*
X684784Y379243D01*
X685475Y378456D01*
X686113Y377625D01*
X686695Y376754D01*
X687218Y375846D01*
X687682Y374907D01*
X688083Y373939D01*
X688419Y372947D01*
X688690Y371935D01*
X688895Y370908D01*
X689032Y369869D01*
X689100Y368824D01*
X689100Y367776D01*
X219200Y367776D02*
X219132Y366731D01*
X218995Y365692D01*
X218790Y364665D01*
X218519Y363653D01*
X218183Y362661D01*
X217782Y361693D01*
X217318Y360754D01*
X216795Y359846D01*
X216213Y358975D01*
X215575Y358144D01*
X214884Y357357D01*
X214143Y356616D01*
X213356Y355925D01*
X212525Y355288D01*
X211654Y354706D01*
X210746Y354182D01*
X209807Y353718D01*
X208839Y353317D01*
X207847Y352981D01*
X206835Y352710D01*
X205808Y352505D01*
X204769Y352369D01*
X203724Y352300D01*
X202676Y352300D01*
X201631Y352369D01*
X200592Y352505D01*
X199565Y352710D01*
X198553Y352981D01*
X197561Y353317D01*
X196593Y353718D01*
X195654Y354182D01*
X194746Y354706D01*
X193875Y355288D01*
X193044Y355925D01*
X192257Y356616D01*
X191516Y357357D01*
X190825Y358144D01*
X190188Y358975D01*
X189606Y359846D01*
X189082Y360754D01*
X188618Y361693D01*
X188217Y362661D01*
X187881Y363653D01*
X187610Y364665D01*
X187405Y365692D01*
X187269Y366731D01*
X187200Y367776D01*
X187200Y368824D01*
X187269Y369869D01*
X187405Y370908D01*
X187610Y371935D01*
X187881Y372947D01*
X188217Y373939D01*
X188618Y374907D01*
X189082Y375846D01*
X189606Y376754D01*
X190188Y377625D01*
X190825Y378456D01*
X191516Y379243D01*
X192257Y379984D01*
X193044Y380675D01*
X193875Y381313D01*
X194746Y381895D01*
X195654Y382418D01*
X196593Y382882D01*
X197561Y383283D01*
X198553Y383619D01*
X199565Y383890D01*
X200592Y384095D01*
X201631Y384232D01*
X202676Y384300D01*
X203724Y384300D01*
X204769Y384232D01*
X205808Y384095D01*
X206835Y383890D01*
X207847Y383619D01*
X208839Y383283D01*
X209807Y382882D01*
X210746Y382418D01*
X211654Y381895D01*
X212525Y381313D01*
X213356Y380675D01*
X214143Y379984D01*
X214884Y379243D01*
X215575Y378456D01*
X216213Y377625D01*
X216795Y376754D01*
X217318Y375846D01*
X217782Y374907D01*
X218183Y373939D01*
X218519Y372947D01*
X218790Y371935D01*
X218995Y370908D01*
X219132Y369869D01*
X219200Y368824D01*
X219200Y367776D01*
M02*
