G04 EAGLE Gerber RS-274X export*
G75*
%MOMM*%
%FSLAX34Y34*%
%LPD*%
%INSilkscreen Top*%
%IPPOS*%
%AMOC8*
5,1,8,0,0,1.08239X$1,22.5*%
G01*
%ADD10C,0.101600*%
%ADD11C,0.100000*%
%ADD12C,0.200000*%
%ADD13C,0.127000*%
%ADD14C,0.152400*%
%ADD15C,0.203200*%
%ADD16R,0.609600X0.863600*%
%ADD17C,0.254000*%


D10*
X441226Y525272D02*
X441226Y513588D01*
X439928Y513588D02*
X442524Y513588D01*
X442524Y525272D02*
X439928Y525272D01*
X447506Y525272D02*
X447506Y513588D01*
X453997Y513588D02*
X447506Y525272D01*
X453997Y525272D02*
X453997Y513588D01*
X459867Y513588D02*
X459867Y525272D01*
X463113Y525272D01*
X463226Y525270D01*
X463339Y525264D01*
X463452Y525254D01*
X463565Y525240D01*
X463677Y525223D01*
X463788Y525201D01*
X463898Y525176D01*
X464008Y525146D01*
X464116Y525113D01*
X464223Y525076D01*
X464329Y525036D01*
X464433Y524991D01*
X464536Y524943D01*
X464637Y524892D01*
X464736Y524837D01*
X464833Y524779D01*
X464928Y524717D01*
X465021Y524652D01*
X465111Y524584D01*
X465199Y524513D01*
X465285Y524438D01*
X465368Y524361D01*
X465448Y524281D01*
X465525Y524198D01*
X465600Y524112D01*
X465671Y524024D01*
X465739Y523934D01*
X465804Y523841D01*
X465866Y523746D01*
X465924Y523649D01*
X465979Y523550D01*
X466030Y523449D01*
X466078Y523346D01*
X466123Y523242D01*
X466163Y523136D01*
X466200Y523029D01*
X466233Y522921D01*
X466263Y522811D01*
X466288Y522701D01*
X466310Y522590D01*
X466327Y522478D01*
X466341Y522365D01*
X466351Y522252D01*
X466357Y522139D01*
X466359Y522026D01*
X466357Y521913D01*
X466351Y521800D01*
X466341Y521687D01*
X466327Y521574D01*
X466310Y521462D01*
X466288Y521351D01*
X466263Y521241D01*
X466233Y521131D01*
X466200Y521023D01*
X466163Y520916D01*
X466123Y520810D01*
X466078Y520706D01*
X466030Y520603D01*
X465979Y520502D01*
X465924Y520403D01*
X465866Y520306D01*
X465804Y520211D01*
X465739Y520118D01*
X465671Y520028D01*
X465600Y519940D01*
X465525Y519854D01*
X465448Y519771D01*
X465368Y519691D01*
X465285Y519614D01*
X465199Y519539D01*
X465111Y519468D01*
X465021Y519400D01*
X464928Y519335D01*
X464833Y519273D01*
X464736Y519215D01*
X464637Y519160D01*
X464536Y519109D01*
X464433Y519061D01*
X464329Y519016D01*
X464223Y518976D01*
X464116Y518939D01*
X464008Y518906D01*
X463898Y518876D01*
X463788Y518851D01*
X463677Y518829D01*
X463565Y518812D01*
X463452Y518798D01*
X463339Y518788D01*
X463226Y518782D01*
X463113Y518780D01*
X463113Y518781D02*
X459867Y518781D01*
X471128Y516834D02*
X471128Y525272D01*
X471127Y516834D02*
X471129Y516721D01*
X471135Y516608D01*
X471145Y516495D01*
X471159Y516382D01*
X471176Y516270D01*
X471198Y516159D01*
X471223Y516049D01*
X471253Y515939D01*
X471286Y515831D01*
X471323Y515724D01*
X471363Y515618D01*
X471408Y515514D01*
X471456Y515411D01*
X471507Y515310D01*
X471562Y515211D01*
X471620Y515114D01*
X471682Y515019D01*
X471747Y514926D01*
X471815Y514836D01*
X471886Y514748D01*
X471961Y514662D01*
X472038Y514579D01*
X472118Y514499D01*
X472201Y514422D01*
X472287Y514347D01*
X472375Y514276D01*
X472465Y514208D01*
X472558Y514143D01*
X472653Y514081D01*
X472750Y514023D01*
X472849Y513968D01*
X472950Y513917D01*
X473053Y513869D01*
X473157Y513824D01*
X473263Y513784D01*
X473370Y513747D01*
X473478Y513714D01*
X473588Y513684D01*
X473698Y513659D01*
X473809Y513637D01*
X473921Y513620D01*
X474034Y513606D01*
X474147Y513596D01*
X474260Y513590D01*
X474373Y513588D01*
X474486Y513590D01*
X474599Y513596D01*
X474712Y513606D01*
X474825Y513620D01*
X474937Y513637D01*
X475048Y513659D01*
X475158Y513684D01*
X475268Y513714D01*
X475376Y513747D01*
X475483Y513784D01*
X475589Y513824D01*
X475693Y513869D01*
X475796Y513917D01*
X475897Y513968D01*
X475996Y514023D01*
X476093Y514081D01*
X476188Y514143D01*
X476281Y514208D01*
X476371Y514276D01*
X476459Y514347D01*
X476545Y514422D01*
X476628Y514499D01*
X476708Y514579D01*
X476785Y514662D01*
X476860Y514748D01*
X476931Y514836D01*
X476999Y514926D01*
X477064Y515019D01*
X477126Y515114D01*
X477184Y515211D01*
X477239Y515310D01*
X477290Y515411D01*
X477338Y515514D01*
X477383Y515618D01*
X477423Y515724D01*
X477460Y515831D01*
X477493Y515939D01*
X477523Y516049D01*
X477548Y516159D01*
X477570Y516270D01*
X477587Y516382D01*
X477601Y516495D01*
X477611Y516608D01*
X477617Y516721D01*
X477619Y516834D01*
X477619Y525272D01*
X485422Y525272D02*
X485422Y513588D01*
X482177Y525272D02*
X488668Y525272D01*
D11*
X406400Y472800D02*
X254000Y472800D01*
X406400Y472800D02*
X406400Y390800D01*
X254000Y390800D01*
X254000Y472800D01*
D10*
X252899Y374142D02*
X252899Y362458D01*
X251601Y362458D02*
X254198Y362458D01*
X254198Y374142D02*
X251601Y374142D01*
X259179Y374142D02*
X259179Y362458D01*
X265670Y362458D02*
X259179Y374142D01*
X265670Y374142D02*
X265670Y362458D01*
X270496Y361160D02*
X275689Y361160D01*
X280134Y371546D02*
X283379Y374142D01*
X283379Y362458D01*
X280134Y362458D02*
X286625Y362458D01*
X291070Y361160D02*
X296263Y361160D01*
X300708Y362458D02*
X303953Y362458D01*
X304066Y362460D01*
X304179Y362466D01*
X304292Y362476D01*
X304405Y362490D01*
X304517Y362507D01*
X304628Y362529D01*
X304738Y362554D01*
X304848Y362584D01*
X304956Y362617D01*
X305063Y362654D01*
X305169Y362694D01*
X305273Y362739D01*
X305376Y362787D01*
X305477Y362838D01*
X305576Y362893D01*
X305673Y362951D01*
X305768Y363013D01*
X305861Y363078D01*
X305951Y363146D01*
X306039Y363217D01*
X306125Y363292D01*
X306208Y363369D01*
X306288Y363449D01*
X306365Y363532D01*
X306440Y363618D01*
X306511Y363706D01*
X306579Y363796D01*
X306644Y363889D01*
X306706Y363984D01*
X306764Y364081D01*
X306819Y364180D01*
X306870Y364281D01*
X306918Y364384D01*
X306963Y364488D01*
X307003Y364594D01*
X307040Y364701D01*
X307073Y364809D01*
X307103Y364919D01*
X307128Y365029D01*
X307150Y365140D01*
X307167Y365252D01*
X307181Y365365D01*
X307191Y365478D01*
X307197Y365591D01*
X307199Y365704D01*
X307197Y365817D01*
X307191Y365930D01*
X307181Y366043D01*
X307167Y366156D01*
X307150Y366268D01*
X307128Y366379D01*
X307103Y366489D01*
X307073Y366599D01*
X307040Y366707D01*
X307003Y366814D01*
X306963Y366920D01*
X306918Y367024D01*
X306870Y367127D01*
X306819Y367228D01*
X306764Y367327D01*
X306706Y367424D01*
X306644Y367519D01*
X306579Y367612D01*
X306511Y367702D01*
X306440Y367790D01*
X306365Y367876D01*
X306288Y367959D01*
X306208Y368039D01*
X306125Y368116D01*
X306039Y368191D01*
X305951Y368262D01*
X305861Y368330D01*
X305768Y368395D01*
X305673Y368457D01*
X305576Y368515D01*
X305477Y368570D01*
X305376Y368621D01*
X305273Y368669D01*
X305169Y368714D01*
X305063Y368754D01*
X304956Y368791D01*
X304848Y368824D01*
X304738Y368854D01*
X304628Y368879D01*
X304517Y368901D01*
X304405Y368918D01*
X304292Y368932D01*
X304179Y368942D01*
X304066Y368948D01*
X303953Y368950D01*
X304602Y374142D02*
X300708Y374142D01*
X304602Y374142D02*
X304703Y374140D01*
X304803Y374134D01*
X304903Y374124D01*
X305003Y374111D01*
X305102Y374093D01*
X305201Y374072D01*
X305298Y374047D01*
X305395Y374018D01*
X305490Y373985D01*
X305584Y373949D01*
X305676Y373909D01*
X305767Y373866D01*
X305856Y373819D01*
X305943Y373769D01*
X306029Y373715D01*
X306112Y373658D01*
X306192Y373598D01*
X306271Y373535D01*
X306347Y373468D01*
X306420Y373399D01*
X306490Y373327D01*
X306558Y373253D01*
X306623Y373176D01*
X306684Y373096D01*
X306743Y373014D01*
X306798Y372930D01*
X306850Y372844D01*
X306899Y372756D01*
X306944Y372666D01*
X306986Y372574D01*
X307024Y372481D01*
X307058Y372386D01*
X307089Y372291D01*
X307116Y372194D01*
X307139Y372096D01*
X307159Y371997D01*
X307174Y371897D01*
X307186Y371797D01*
X307194Y371697D01*
X307198Y371596D01*
X307198Y371496D01*
X307194Y371395D01*
X307186Y371295D01*
X307174Y371195D01*
X307159Y371095D01*
X307139Y370996D01*
X307116Y370898D01*
X307089Y370801D01*
X307058Y370706D01*
X307024Y370611D01*
X306986Y370518D01*
X306944Y370426D01*
X306899Y370336D01*
X306850Y370248D01*
X306798Y370162D01*
X306743Y370078D01*
X306684Y369996D01*
X306623Y369916D01*
X306558Y369839D01*
X306490Y369765D01*
X306420Y369693D01*
X306347Y369624D01*
X306271Y369557D01*
X306192Y369494D01*
X306112Y369434D01*
X306029Y369377D01*
X305943Y369323D01*
X305856Y369273D01*
X305767Y369226D01*
X305676Y369183D01*
X305584Y369143D01*
X305490Y369107D01*
X305395Y369074D01*
X305298Y369045D01*
X305201Y369020D01*
X305102Y368999D01*
X305003Y368981D01*
X304903Y368968D01*
X304803Y368958D01*
X304703Y368952D01*
X304602Y368950D01*
X304602Y368949D02*
X302006Y368949D01*
D11*
X457200Y472800D02*
X609600Y472800D01*
X609600Y390800D01*
X457200Y390800D01*
X457200Y472800D01*
D10*
X456099Y374142D02*
X456099Y362458D01*
X454801Y362458D02*
X457398Y362458D01*
X457398Y374142D02*
X454801Y374142D01*
X462379Y374142D02*
X462379Y362458D01*
X468870Y362458D02*
X462379Y374142D01*
X468870Y374142D02*
X468870Y362458D01*
X473696Y361160D02*
X478889Y361160D01*
X483334Y365054D02*
X485930Y374142D01*
X483334Y365054D02*
X489825Y365054D01*
X487878Y367651D02*
X487878Y362458D01*
X494270Y361160D02*
X499463Y361160D01*
X503908Y368949D02*
X507802Y368949D01*
X507901Y368947D01*
X508001Y368941D01*
X508100Y368932D01*
X508198Y368919D01*
X508296Y368902D01*
X508394Y368881D01*
X508490Y368856D01*
X508585Y368828D01*
X508679Y368796D01*
X508772Y368761D01*
X508864Y368722D01*
X508954Y368679D01*
X509042Y368634D01*
X509129Y368584D01*
X509213Y368532D01*
X509296Y368476D01*
X509376Y368418D01*
X509454Y368356D01*
X509529Y368291D01*
X509602Y368223D01*
X509672Y368153D01*
X509740Y368080D01*
X509805Y368005D01*
X509867Y367927D01*
X509925Y367847D01*
X509981Y367764D01*
X510033Y367680D01*
X510083Y367593D01*
X510128Y367505D01*
X510171Y367415D01*
X510210Y367323D01*
X510245Y367230D01*
X510277Y367136D01*
X510305Y367041D01*
X510330Y366945D01*
X510351Y366847D01*
X510368Y366749D01*
X510381Y366651D01*
X510390Y366552D01*
X510396Y366452D01*
X510398Y366353D01*
X510399Y366353D02*
X510399Y365704D01*
X510397Y365591D01*
X510391Y365478D01*
X510381Y365365D01*
X510367Y365252D01*
X510350Y365140D01*
X510328Y365029D01*
X510303Y364919D01*
X510273Y364809D01*
X510240Y364701D01*
X510203Y364594D01*
X510163Y364488D01*
X510118Y364384D01*
X510070Y364281D01*
X510019Y364180D01*
X509964Y364081D01*
X509906Y363984D01*
X509844Y363889D01*
X509779Y363796D01*
X509711Y363706D01*
X509640Y363618D01*
X509565Y363532D01*
X509488Y363449D01*
X509408Y363369D01*
X509325Y363292D01*
X509239Y363217D01*
X509151Y363146D01*
X509061Y363078D01*
X508968Y363013D01*
X508873Y362951D01*
X508776Y362893D01*
X508677Y362838D01*
X508576Y362787D01*
X508473Y362739D01*
X508369Y362694D01*
X508263Y362654D01*
X508156Y362617D01*
X508048Y362584D01*
X507938Y362554D01*
X507828Y362529D01*
X507717Y362507D01*
X507605Y362490D01*
X507492Y362476D01*
X507379Y362466D01*
X507266Y362460D01*
X507153Y362458D01*
X507040Y362460D01*
X506927Y362466D01*
X506814Y362476D01*
X506701Y362490D01*
X506589Y362507D01*
X506478Y362529D01*
X506368Y362554D01*
X506258Y362584D01*
X506150Y362617D01*
X506043Y362654D01*
X505937Y362694D01*
X505833Y362739D01*
X505730Y362787D01*
X505629Y362838D01*
X505530Y362893D01*
X505433Y362951D01*
X505338Y363013D01*
X505245Y363078D01*
X505155Y363146D01*
X505067Y363217D01*
X504981Y363292D01*
X504898Y363369D01*
X504818Y363449D01*
X504741Y363532D01*
X504666Y363618D01*
X504595Y363706D01*
X504527Y363796D01*
X504462Y363889D01*
X504400Y363984D01*
X504342Y364081D01*
X504287Y364180D01*
X504236Y364281D01*
X504188Y364384D01*
X504143Y364488D01*
X504103Y364594D01*
X504066Y364701D01*
X504033Y364809D01*
X504003Y364919D01*
X503978Y365029D01*
X503956Y365140D01*
X503939Y365252D01*
X503925Y365365D01*
X503915Y365478D01*
X503909Y365591D01*
X503907Y365704D01*
X503908Y365704D02*
X503908Y368949D01*
X503910Y369092D01*
X503916Y369235D01*
X503926Y369378D01*
X503940Y369520D01*
X503957Y369662D01*
X503979Y369804D01*
X504004Y369945D01*
X504034Y370085D01*
X504067Y370224D01*
X504104Y370362D01*
X504145Y370499D01*
X504189Y370635D01*
X504238Y370770D01*
X504290Y370903D01*
X504345Y371035D01*
X504405Y371165D01*
X504468Y371294D01*
X504534Y371421D01*
X504604Y371545D01*
X504677Y371668D01*
X504754Y371789D01*
X504834Y371908D01*
X504917Y372024D01*
X505003Y372139D01*
X505092Y372250D01*
X505185Y372360D01*
X505280Y372466D01*
X505379Y372570D01*
X505480Y372671D01*
X505584Y372770D01*
X505690Y372865D01*
X505800Y372958D01*
X505911Y373047D01*
X506026Y373133D01*
X506142Y373216D01*
X506261Y373296D01*
X506382Y373373D01*
X506504Y373446D01*
X506629Y373516D01*
X506756Y373582D01*
X506885Y373645D01*
X507015Y373705D01*
X507147Y373760D01*
X507280Y373812D01*
X507415Y373861D01*
X507551Y373905D01*
X507688Y373946D01*
X507826Y373983D01*
X507965Y374016D01*
X508105Y374046D01*
X508246Y374071D01*
X508388Y374093D01*
X508530Y374110D01*
X508672Y374124D01*
X508815Y374134D01*
X508958Y374140D01*
X509101Y374142D01*
D12*
X342100Y609600D02*
X342102Y609663D01*
X342108Y609725D01*
X342118Y609787D01*
X342131Y609849D01*
X342149Y609909D01*
X342170Y609968D01*
X342195Y610026D01*
X342224Y610082D01*
X342256Y610136D01*
X342291Y610188D01*
X342329Y610237D01*
X342371Y610285D01*
X342415Y610329D01*
X342463Y610371D01*
X342512Y610409D01*
X342564Y610444D01*
X342618Y610476D01*
X342674Y610505D01*
X342732Y610530D01*
X342791Y610551D01*
X342851Y610569D01*
X342913Y610582D01*
X342975Y610592D01*
X343037Y610598D01*
X343100Y610600D01*
X343163Y610598D01*
X343225Y610592D01*
X343287Y610582D01*
X343349Y610569D01*
X343409Y610551D01*
X343468Y610530D01*
X343526Y610505D01*
X343582Y610476D01*
X343636Y610444D01*
X343688Y610409D01*
X343737Y610371D01*
X343785Y610329D01*
X343829Y610285D01*
X343871Y610237D01*
X343909Y610188D01*
X343944Y610136D01*
X343976Y610082D01*
X344005Y610026D01*
X344030Y609968D01*
X344051Y609909D01*
X344069Y609849D01*
X344082Y609787D01*
X344092Y609725D01*
X344098Y609663D01*
X344100Y609600D01*
X344098Y609537D01*
X344092Y609475D01*
X344082Y609413D01*
X344069Y609351D01*
X344051Y609291D01*
X344030Y609232D01*
X344005Y609174D01*
X343976Y609118D01*
X343944Y609064D01*
X343909Y609012D01*
X343871Y608963D01*
X343829Y608915D01*
X343785Y608871D01*
X343737Y608829D01*
X343688Y608791D01*
X343636Y608756D01*
X343582Y608724D01*
X343526Y608695D01*
X343468Y608670D01*
X343409Y608649D01*
X343349Y608631D01*
X343287Y608618D01*
X343225Y608608D01*
X343163Y608602D01*
X343100Y608600D01*
X343037Y608602D01*
X342975Y608608D01*
X342913Y608618D01*
X342851Y608631D01*
X342791Y608649D01*
X342732Y608670D01*
X342674Y608695D01*
X342618Y608724D01*
X342564Y608756D01*
X342512Y608791D01*
X342463Y608829D01*
X342415Y608871D01*
X342371Y608915D01*
X342329Y608963D01*
X342291Y609012D01*
X342256Y609064D01*
X342224Y609118D01*
X342195Y609174D01*
X342170Y609232D01*
X342149Y609291D01*
X342131Y609351D01*
X342118Y609413D01*
X342108Y609475D01*
X342102Y609537D01*
X342100Y609600D01*
D13*
X333100Y635000D02*
X251100Y635000D01*
X251100Y533400D02*
X333100Y533400D01*
X333100Y635000D01*
X251100Y635000D02*
X251100Y533400D01*
D14*
X343862Y546248D02*
X360118Y551667D01*
X343862Y557085D01*
X360118Y566355D02*
X360118Y569968D01*
X360118Y566355D02*
X360116Y566237D01*
X360110Y566119D01*
X360101Y566001D01*
X360087Y565884D01*
X360070Y565767D01*
X360049Y565650D01*
X360024Y565535D01*
X359995Y565420D01*
X359962Y565306D01*
X359926Y565194D01*
X359886Y565083D01*
X359843Y564973D01*
X359796Y564864D01*
X359746Y564757D01*
X359691Y564652D01*
X359634Y564549D01*
X359573Y564448D01*
X359509Y564348D01*
X359442Y564251D01*
X359372Y564156D01*
X359298Y564064D01*
X359222Y563973D01*
X359142Y563886D01*
X359060Y563801D01*
X358975Y563719D01*
X358888Y563639D01*
X358797Y563563D01*
X358705Y563489D01*
X358610Y563419D01*
X358513Y563352D01*
X358413Y563288D01*
X358312Y563227D01*
X358209Y563170D01*
X358104Y563115D01*
X357997Y563065D01*
X357888Y563018D01*
X357778Y562975D01*
X357667Y562935D01*
X357555Y562899D01*
X357441Y562866D01*
X357326Y562837D01*
X357211Y562812D01*
X357094Y562791D01*
X356977Y562774D01*
X356860Y562760D01*
X356742Y562751D01*
X356624Y562745D01*
X356506Y562743D01*
X347474Y562743D01*
X347474Y562742D02*
X347356Y562744D01*
X347238Y562750D01*
X347120Y562759D01*
X347002Y562773D01*
X346885Y562790D01*
X346769Y562811D01*
X346654Y562836D01*
X346539Y562865D01*
X346425Y562898D01*
X346313Y562934D01*
X346201Y562974D01*
X346091Y563017D01*
X345983Y563064D01*
X345876Y563115D01*
X345771Y563169D01*
X345668Y563226D01*
X345566Y563287D01*
X345467Y563351D01*
X345370Y563418D01*
X345275Y563489D01*
X345182Y563562D01*
X345092Y563639D01*
X345004Y563718D01*
X344919Y563800D01*
X344837Y563885D01*
X344758Y563973D01*
X344681Y564063D01*
X344608Y564156D01*
X344537Y564250D01*
X344470Y564348D01*
X344406Y564447D01*
X344345Y564548D01*
X344288Y564652D01*
X344234Y564757D01*
X344183Y564864D01*
X344136Y564972D01*
X344093Y565082D01*
X344053Y565194D01*
X344017Y565306D01*
X343984Y565420D01*
X343955Y565535D01*
X343930Y565650D01*
X343909Y565766D01*
X343892Y565883D01*
X343878Y566001D01*
X343869Y566119D01*
X343863Y566237D01*
X343861Y566355D01*
X343862Y566355D02*
X343862Y569968D01*
X360118Y579381D02*
X360118Y582994D01*
X360118Y579381D02*
X360116Y579263D01*
X360110Y579145D01*
X360101Y579027D01*
X360087Y578910D01*
X360070Y578793D01*
X360049Y578676D01*
X360024Y578561D01*
X359995Y578446D01*
X359962Y578332D01*
X359926Y578220D01*
X359886Y578109D01*
X359843Y577999D01*
X359796Y577890D01*
X359746Y577783D01*
X359691Y577678D01*
X359634Y577575D01*
X359573Y577474D01*
X359509Y577374D01*
X359442Y577277D01*
X359372Y577182D01*
X359298Y577090D01*
X359222Y576999D01*
X359142Y576912D01*
X359060Y576827D01*
X358975Y576745D01*
X358888Y576665D01*
X358797Y576589D01*
X358705Y576515D01*
X358610Y576445D01*
X358513Y576378D01*
X358413Y576314D01*
X358312Y576253D01*
X358209Y576196D01*
X358104Y576141D01*
X357997Y576091D01*
X357888Y576044D01*
X357778Y576001D01*
X357667Y575961D01*
X357555Y575925D01*
X357441Y575892D01*
X357326Y575863D01*
X357211Y575838D01*
X357094Y575817D01*
X356977Y575800D01*
X356860Y575786D01*
X356742Y575777D01*
X356624Y575771D01*
X356506Y575769D01*
X347474Y575769D01*
X347474Y575768D02*
X347356Y575770D01*
X347238Y575776D01*
X347120Y575785D01*
X347002Y575799D01*
X346885Y575816D01*
X346769Y575837D01*
X346654Y575862D01*
X346539Y575891D01*
X346425Y575924D01*
X346313Y575960D01*
X346201Y576000D01*
X346091Y576043D01*
X345983Y576090D01*
X345876Y576141D01*
X345771Y576195D01*
X345668Y576252D01*
X345566Y576313D01*
X345467Y576377D01*
X345370Y576444D01*
X345275Y576515D01*
X345182Y576588D01*
X345092Y576665D01*
X345004Y576744D01*
X344919Y576826D01*
X344837Y576911D01*
X344758Y576999D01*
X344681Y577089D01*
X344608Y577182D01*
X344537Y577276D01*
X344470Y577374D01*
X344406Y577473D01*
X344345Y577574D01*
X344288Y577678D01*
X344234Y577783D01*
X344183Y577890D01*
X344136Y577998D01*
X344093Y578108D01*
X344053Y578220D01*
X344017Y578332D01*
X343984Y578446D01*
X343955Y578561D01*
X343930Y578676D01*
X343909Y578792D01*
X343892Y578909D01*
X343878Y579027D01*
X343869Y579145D01*
X343863Y579263D01*
X343861Y579381D01*
X343862Y579381D02*
X343862Y582994D01*
X361924Y588174D02*
X361924Y595399D01*
X351087Y608182D02*
X351087Y610891D01*
X360118Y610891D01*
X360118Y605473D01*
X360116Y605355D01*
X360110Y605237D01*
X360101Y605119D01*
X360087Y605002D01*
X360070Y604885D01*
X360049Y604768D01*
X360024Y604653D01*
X359995Y604538D01*
X359962Y604424D01*
X359926Y604312D01*
X359886Y604201D01*
X359843Y604091D01*
X359796Y603982D01*
X359746Y603875D01*
X359691Y603770D01*
X359634Y603667D01*
X359573Y603566D01*
X359509Y603466D01*
X359442Y603369D01*
X359372Y603274D01*
X359298Y603182D01*
X359222Y603091D01*
X359142Y603004D01*
X359060Y602919D01*
X358975Y602837D01*
X358888Y602757D01*
X358797Y602681D01*
X358705Y602607D01*
X358610Y602537D01*
X358513Y602470D01*
X358413Y602406D01*
X358312Y602345D01*
X358209Y602288D01*
X358104Y602233D01*
X357997Y602183D01*
X357888Y602136D01*
X357778Y602093D01*
X357667Y602053D01*
X357555Y602017D01*
X357441Y601984D01*
X357326Y601955D01*
X357211Y601930D01*
X357094Y601909D01*
X356977Y601892D01*
X356860Y601878D01*
X356742Y601869D01*
X356624Y601863D01*
X356506Y601861D01*
X356506Y601860D02*
X347474Y601860D01*
X347356Y601862D01*
X347238Y601868D01*
X347120Y601877D01*
X347002Y601891D01*
X346885Y601908D01*
X346769Y601929D01*
X346654Y601954D01*
X346539Y601983D01*
X346425Y602016D01*
X346313Y602052D01*
X346201Y602092D01*
X346091Y602135D01*
X345983Y602182D01*
X345876Y602233D01*
X345771Y602287D01*
X345668Y602344D01*
X345566Y602405D01*
X345467Y602469D01*
X345370Y602536D01*
X345275Y602607D01*
X345182Y602680D01*
X345092Y602757D01*
X345004Y602836D01*
X344919Y602918D01*
X344837Y603003D01*
X344758Y603091D01*
X344681Y603181D01*
X344608Y603274D01*
X344537Y603368D01*
X344470Y603466D01*
X344406Y603565D01*
X344345Y603666D01*
X344288Y603770D01*
X344234Y603875D01*
X344183Y603982D01*
X344136Y604090D01*
X344093Y604200D01*
X344053Y604312D01*
X344017Y604424D01*
X343984Y604538D01*
X343955Y604653D01*
X343930Y604768D01*
X343909Y604884D01*
X343892Y605001D01*
X343878Y605119D01*
X343869Y605237D01*
X343863Y605355D01*
X343861Y605473D01*
X343862Y605473D02*
X343862Y610891D01*
X343862Y618534D02*
X360118Y618534D01*
X360118Y627565D02*
X343862Y618534D01*
X343862Y627565D02*
X360118Y627565D01*
X360118Y635207D02*
X343862Y635207D01*
X343862Y639722D01*
X343864Y639853D01*
X343870Y639985D01*
X343879Y640116D01*
X343893Y640246D01*
X343910Y640377D01*
X343931Y640506D01*
X343955Y640635D01*
X343984Y640763D01*
X344016Y640891D01*
X344052Y641017D01*
X344091Y641142D01*
X344134Y641267D01*
X344181Y641389D01*
X344231Y641511D01*
X344285Y641631D01*
X344342Y641749D01*
X344403Y641865D01*
X344467Y641980D01*
X344534Y642093D01*
X344605Y642204D01*
X344679Y642312D01*
X344756Y642419D01*
X344836Y642523D01*
X344919Y642625D01*
X345004Y642724D01*
X345093Y642821D01*
X345185Y642915D01*
X345279Y643007D01*
X345376Y643096D01*
X345475Y643181D01*
X345577Y643264D01*
X345681Y643344D01*
X345788Y643421D01*
X345896Y643495D01*
X346007Y643566D01*
X346120Y643633D01*
X346235Y643697D01*
X346351Y643758D01*
X346469Y643815D01*
X346589Y643869D01*
X346711Y643919D01*
X346833Y643966D01*
X346958Y644009D01*
X347083Y644048D01*
X347209Y644084D01*
X347337Y644116D01*
X347465Y644145D01*
X347594Y644169D01*
X347723Y644190D01*
X347854Y644207D01*
X347984Y644221D01*
X348115Y644230D01*
X348247Y644236D01*
X348378Y644238D01*
X355602Y644238D01*
X355733Y644236D01*
X355865Y644230D01*
X355996Y644221D01*
X356126Y644207D01*
X356257Y644190D01*
X356386Y644169D01*
X356515Y644145D01*
X356643Y644116D01*
X356771Y644084D01*
X356897Y644048D01*
X357022Y644009D01*
X357147Y643966D01*
X357269Y643919D01*
X357391Y643869D01*
X357511Y643815D01*
X357629Y643758D01*
X357745Y643697D01*
X357860Y643633D01*
X357973Y643566D01*
X358084Y643495D01*
X358192Y643421D01*
X358299Y643344D01*
X358403Y643264D01*
X358505Y643181D01*
X358604Y643096D01*
X358701Y643007D01*
X358795Y642915D01*
X358887Y642821D01*
X358976Y642724D01*
X359061Y642625D01*
X359144Y642523D01*
X359224Y642419D01*
X359301Y642312D01*
X359375Y642204D01*
X359446Y642093D01*
X359513Y641980D01*
X359577Y641865D01*
X359638Y641749D01*
X359695Y641631D01*
X359749Y641511D01*
X359799Y641389D01*
X359846Y641267D01*
X359889Y641142D01*
X359928Y641017D01*
X359964Y640891D01*
X359996Y640763D01*
X360025Y640635D01*
X360049Y640506D01*
X360070Y640376D01*
X360087Y640246D01*
X360101Y640116D01*
X360110Y639985D01*
X360116Y639853D01*
X360118Y639722D01*
X360118Y635207D01*
X168910Y685800D02*
X168920Y686642D01*
X168951Y687483D01*
X169003Y688323D01*
X169075Y689161D01*
X169168Y689997D01*
X169281Y690831D01*
X169415Y691662D01*
X169569Y692490D01*
X169743Y693313D01*
X169938Y694132D01*
X170152Y694946D01*
X170387Y695754D01*
X170641Y696556D01*
X170914Y697352D01*
X171208Y698141D01*
X171520Y698922D01*
X171852Y699696D01*
X172202Y700461D01*
X172571Y701217D01*
X172959Y701964D01*
X173365Y702701D01*
X173788Y703429D01*
X174230Y704145D01*
X174689Y704851D01*
X175165Y705544D01*
X175658Y706227D01*
X176168Y706896D01*
X176693Y707553D01*
X177235Y708197D01*
X177793Y708828D01*
X178366Y709444D01*
X178953Y710047D01*
X179556Y710634D01*
X180172Y711207D01*
X180803Y711765D01*
X181447Y712307D01*
X182104Y712832D01*
X182773Y713342D01*
X183456Y713835D01*
X184149Y714311D01*
X184855Y714770D01*
X185571Y715212D01*
X186299Y715635D01*
X187036Y716041D01*
X187783Y716429D01*
X188539Y716798D01*
X189304Y717148D01*
X190078Y717480D01*
X190859Y717792D01*
X191648Y718086D01*
X192444Y718359D01*
X193246Y718613D01*
X194054Y718848D01*
X194868Y719062D01*
X195687Y719257D01*
X196510Y719431D01*
X197338Y719585D01*
X198169Y719719D01*
X199003Y719832D01*
X199839Y719925D01*
X200677Y719997D01*
X201517Y720049D01*
X202358Y720080D01*
X203200Y720090D01*
X204042Y720080D01*
X204883Y720049D01*
X205723Y719997D01*
X206561Y719925D01*
X207397Y719832D01*
X208231Y719719D01*
X209062Y719585D01*
X209890Y719431D01*
X210713Y719257D01*
X211532Y719062D01*
X212346Y718848D01*
X213154Y718613D01*
X213956Y718359D01*
X214752Y718086D01*
X215541Y717792D01*
X216322Y717480D01*
X217096Y717148D01*
X217861Y716798D01*
X218617Y716429D01*
X219364Y716041D01*
X220101Y715635D01*
X220829Y715212D01*
X221545Y714770D01*
X222251Y714311D01*
X222944Y713835D01*
X223627Y713342D01*
X224296Y712832D01*
X224953Y712307D01*
X225597Y711765D01*
X226228Y711207D01*
X226844Y710634D01*
X227447Y710047D01*
X228034Y709444D01*
X228607Y708828D01*
X229165Y708197D01*
X229707Y707553D01*
X230232Y706896D01*
X230742Y706227D01*
X231235Y705544D01*
X231711Y704851D01*
X232170Y704145D01*
X232612Y703429D01*
X233035Y702701D01*
X233441Y701964D01*
X233829Y701217D01*
X234198Y700461D01*
X234548Y699696D01*
X234880Y698922D01*
X235192Y698141D01*
X235486Y697352D01*
X235759Y696556D01*
X236013Y695754D01*
X236248Y694946D01*
X236462Y694132D01*
X236657Y693313D01*
X236831Y692490D01*
X236985Y691662D01*
X237119Y690831D01*
X237232Y689997D01*
X237325Y689161D01*
X237397Y688323D01*
X237449Y687483D01*
X237480Y686642D01*
X237490Y685800D01*
X237480Y684958D01*
X237449Y684117D01*
X237397Y683277D01*
X237325Y682439D01*
X237232Y681603D01*
X237119Y680769D01*
X236985Y679938D01*
X236831Y679110D01*
X236657Y678287D01*
X236462Y677468D01*
X236248Y676654D01*
X236013Y675846D01*
X235759Y675044D01*
X235486Y674248D01*
X235192Y673459D01*
X234880Y672678D01*
X234548Y671904D01*
X234198Y671139D01*
X233829Y670383D01*
X233441Y669636D01*
X233035Y668899D01*
X232612Y668171D01*
X232170Y667455D01*
X231711Y666749D01*
X231235Y666056D01*
X230742Y665373D01*
X230232Y664704D01*
X229707Y664047D01*
X229165Y663403D01*
X228607Y662772D01*
X228034Y662156D01*
X227447Y661553D01*
X226844Y660966D01*
X226228Y660393D01*
X225597Y659835D01*
X224953Y659293D01*
X224296Y658768D01*
X223627Y658258D01*
X222944Y657765D01*
X222251Y657289D01*
X221545Y656830D01*
X220829Y656388D01*
X220101Y655965D01*
X219364Y655559D01*
X218617Y655171D01*
X217861Y654802D01*
X217096Y654452D01*
X216322Y654120D01*
X215541Y653808D01*
X214752Y653514D01*
X213956Y653241D01*
X213154Y652987D01*
X212346Y652752D01*
X211532Y652538D01*
X210713Y652343D01*
X209890Y652169D01*
X209062Y652015D01*
X208231Y651881D01*
X207397Y651768D01*
X206561Y651675D01*
X205723Y651603D01*
X204883Y651551D01*
X204042Y651520D01*
X203200Y651510D01*
X202358Y651520D01*
X201517Y651551D01*
X200677Y651603D01*
X199839Y651675D01*
X199003Y651768D01*
X198169Y651881D01*
X197338Y652015D01*
X196510Y652169D01*
X195687Y652343D01*
X194868Y652538D01*
X194054Y652752D01*
X193246Y652987D01*
X192444Y653241D01*
X191648Y653514D01*
X190859Y653808D01*
X190078Y654120D01*
X189304Y654452D01*
X188539Y654802D01*
X187783Y655171D01*
X187036Y655559D01*
X186299Y655965D01*
X185571Y656388D01*
X184855Y656830D01*
X184149Y657289D01*
X183456Y657765D01*
X182773Y658258D01*
X182104Y658768D01*
X181447Y659293D01*
X180803Y659835D01*
X180172Y660393D01*
X179556Y660966D01*
X178953Y661553D01*
X178366Y662156D01*
X177793Y662772D01*
X177235Y663403D01*
X176693Y664047D01*
X176168Y664704D01*
X175658Y665373D01*
X175165Y666056D01*
X174689Y666749D01*
X174230Y667455D01*
X173788Y668171D01*
X173365Y668899D01*
X172959Y669636D01*
X172571Y670383D01*
X172202Y671139D01*
X171852Y671904D01*
X171520Y672678D01*
X171208Y673459D01*
X170914Y674248D01*
X170641Y675044D01*
X170387Y675846D01*
X170152Y676654D01*
X169938Y677468D01*
X169743Y678287D01*
X169569Y679110D01*
X169415Y679938D01*
X169281Y680769D01*
X169168Y681603D01*
X169075Y682439D01*
X169003Y683277D01*
X168951Y684117D01*
X168920Y684958D01*
X168910Y685800D01*
D15*
X186200Y685800D02*
X186205Y686217D01*
X186220Y686634D01*
X186246Y687051D01*
X186282Y687466D01*
X186328Y687881D01*
X186384Y688294D01*
X186450Y688706D01*
X186527Y689117D01*
X186613Y689525D01*
X186709Y689931D01*
X186816Y690334D01*
X186932Y690735D01*
X187058Y691133D01*
X187194Y691527D01*
X187339Y691918D01*
X187494Y692306D01*
X187658Y692689D01*
X187832Y693068D01*
X188015Y693443D01*
X188207Y693814D01*
X188409Y694179D01*
X188619Y694540D01*
X188837Y694895D01*
X189065Y695245D01*
X189301Y695589D01*
X189545Y695927D01*
X189798Y696259D01*
X190059Y696585D01*
X190327Y696904D01*
X190604Y697217D01*
X190888Y697522D01*
X191179Y697821D01*
X191478Y698112D01*
X191783Y698396D01*
X192096Y698673D01*
X192415Y698941D01*
X192741Y699202D01*
X193073Y699455D01*
X193411Y699699D01*
X193755Y699935D01*
X194105Y700163D01*
X194460Y700381D01*
X194821Y700591D01*
X195186Y700793D01*
X195557Y700985D01*
X195932Y701168D01*
X196311Y701342D01*
X196694Y701506D01*
X197082Y701661D01*
X197473Y701806D01*
X197867Y701942D01*
X198265Y702068D01*
X198666Y702184D01*
X199069Y702291D01*
X199475Y702387D01*
X199883Y702473D01*
X200294Y702550D01*
X200706Y702616D01*
X201119Y702672D01*
X201534Y702718D01*
X201949Y702754D01*
X202366Y702780D01*
X202783Y702795D01*
X203200Y702800D01*
X203617Y702795D01*
X204034Y702780D01*
X204451Y702754D01*
X204866Y702718D01*
X205281Y702672D01*
X205694Y702616D01*
X206106Y702550D01*
X206517Y702473D01*
X206925Y702387D01*
X207331Y702291D01*
X207734Y702184D01*
X208135Y702068D01*
X208533Y701942D01*
X208927Y701806D01*
X209318Y701661D01*
X209706Y701506D01*
X210089Y701342D01*
X210468Y701168D01*
X210843Y700985D01*
X211214Y700793D01*
X211579Y700591D01*
X211940Y700381D01*
X212295Y700163D01*
X212645Y699935D01*
X212989Y699699D01*
X213327Y699455D01*
X213659Y699202D01*
X213985Y698941D01*
X214304Y698673D01*
X214617Y698396D01*
X214922Y698112D01*
X215221Y697821D01*
X215512Y697522D01*
X215796Y697217D01*
X216073Y696904D01*
X216341Y696585D01*
X216602Y696259D01*
X216855Y695927D01*
X217099Y695589D01*
X217335Y695245D01*
X217563Y694895D01*
X217781Y694540D01*
X217991Y694179D01*
X218193Y693814D01*
X218385Y693443D01*
X218568Y693068D01*
X218742Y692689D01*
X218906Y692306D01*
X219061Y691918D01*
X219206Y691527D01*
X219342Y691133D01*
X219468Y690735D01*
X219584Y690334D01*
X219691Y689931D01*
X219787Y689525D01*
X219873Y689117D01*
X219950Y688706D01*
X220016Y688294D01*
X220072Y687881D01*
X220118Y687466D01*
X220154Y687051D01*
X220180Y686634D01*
X220195Y686217D01*
X220200Y685800D01*
X220195Y685383D01*
X220180Y684966D01*
X220154Y684549D01*
X220118Y684134D01*
X220072Y683719D01*
X220016Y683306D01*
X219950Y682894D01*
X219873Y682483D01*
X219787Y682075D01*
X219691Y681669D01*
X219584Y681266D01*
X219468Y680865D01*
X219342Y680467D01*
X219206Y680073D01*
X219061Y679682D01*
X218906Y679294D01*
X218742Y678911D01*
X218568Y678532D01*
X218385Y678157D01*
X218193Y677786D01*
X217991Y677421D01*
X217781Y677060D01*
X217563Y676705D01*
X217335Y676355D01*
X217099Y676011D01*
X216855Y675673D01*
X216602Y675341D01*
X216341Y675015D01*
X216073Y674696D01*
X215796Y674383D01*
X215512Y674078D01*
X215221Y673779D01*
X214922Y673488D01*
X214617Y673204D01*
X214304Y672927D01*
X213985Y672659D01*
X213659Y672398D01*
X213327Y672145D01*
X212989Y671901D01*
X212645Y671665D01*
X212295Y671437D01*
X211940Y671219D01*
X211579Y671009D01*
X211214Y670807D01*
X210843Y670615D01*
X210468Y670432D01*
X210089Y670258D01*
X209706Y670094D01*
X209318Y669939D01*
X208927Y669794D01*
X208533Y669658D01*
X208135Y669532D01*
X207734Y669416D01*
X207331Y669309D01*
X206925Y669213D01*
X206517Y669127D01*
X206106Y669050D01*
X205694Y668984D01*
X205281Y668928D01*
X204866Y668882D01*
X204451Y668846D01*
X204034Y668820D01*
X203617Y668805D01*
X203200Y668800D01*
X202783Y668805D01*
X202366Y668820D01*
X201949Y668846D01*
X201534Y668882D01*
X201119Y668928D01*
X200706Y668984D01*
X200294Y669050D01*
X199883Y669127D01*
X199475Y669213D01*
X199069Y669309D01*
X198666Y669416D01*
X198265Y669532D01*
X197867Y669658D01*
X197473Y669794D01*
X197082Y669939D01*
X196694Y670094D01*
X196311Y670258D01*
X195932Y670432D01*
X195557Y670615D01*
X195186Y670807D01*
X194821Y671009D01*
X194460Y671219D01*
X194105Y671437D01*
X193755Y671665D01*
X193411Y671901D01*
X193073Y672145D01*
X192741Y672398D01*
X192415Y672659D01*
X192096Y672927D01*
X191783Y673204D01*
X191478Y673488D01*
X191179Y673779D01*
X190888Y674078D01*
X190604Y674383D01*
X190327Y674696D01*
X190059Y675015D01*
X189798Y675341D01*
X189545Y675673D01*
X189301Y676011D01*
X189065Y676355D01*
X188837Y676705D01*
X188619Y677060D01*
X188409Y677421D01*
X188207Y677786D01*
X188015Y678157D01*
X187832Y678532D01*
X187658Y678911D01*
X187494Y679294D01*
X187339Y679682D01*
X187194Y680073D01*
X187058Y680467D01*
X186932Y680865D01*
X186816Y681266D01*
X186709Y681669D01*
X186613Y682075D01*
X186527Y682483D01*
X186450Y682894D01*
X186384Y683306D01*
X186328Y683719D01*
X186282Y684134D01*
X186246Y684549D01*
X186220Y684966D01*
X186205Y685383D01*
X186200Y685800D01*
D14*
X638810Y685800D02*
X638820Y686642D01*
X638851Y687483D01*
X638903Y688323D01*
X638975Y689161D01*
X639068Y689997D01*
X639181Y690831D01*
X639315Y691662D01*
X639469Y692490D01*
X639643Y693313D01*
X639838Y694132D01*
X640052Y694946D01*
X640287Y695754D01*
X640541Y696556D01*
X640814Y697352D01*
X641108Y698141D01*
X641420Y698922D01*
X641752Y699696D01*
X642102Y700461D01*
X642471Y701217D01*
X642859Y701964D01*
X643265Y702701D01*
X643688Y703429D01*
X644130Y704145D01*
X644589Y704851D01*
X645065Y705544D01*
X645558Y706227D01*
X646068Y706896D01*
X646593Y707553D01*
X647135Y708197D01*
X647693Y708828D01*
X648266Y709444D01*
X648853Y710047D01*
X649456Y710634D01*
X650072Y711207D01*
X650703Y711765D01*
X651347Y712307D01*
X652004Y712832D01*
X652673Y713342D01*
X653356Y713835D01*
X654049Y714311D01*
X654755Y714770D01*
X655471Y715212D01*
X656199Y715635D01*
X656936Y716041D01*
X657683Y716429D01*
X658439Y716798D01*
X659204Y717148D01*
X659978Y717480D01*
X660759Y717792D01*
X661548Y718086D01*
X662344Y718359D01*
X663146Y718613D01*
X663954Y718848D01*
X664768Y719062D01*
X665587Y719257D01*
X666410Y719431D01*
X667238Y719585D01*
X668069Y719719D01*
X668903Y719832D01*
X669739Y719925D01*
X670577Y719997D01*
X671417Y720049D01*
X672258Y720080D01*
X673100Y720090D01*
X673942Y720080D01*
X674783Y720049D01*
X675623Y719997D01*
X676461Y719925D01*
X677297Y719832D01*
X678131Y719719D01*
X678962Y719585D01*
X679790Y719431D01*
X680613Y719257D01*
X681432Y719062D01*
X682246Y718848D01*
X683054Y718613D01*
X683856Y718359D01*
X684652Y718086D01*
X685441Y717792D01*
X686222Y717480D01*
X686996Y717148D01*
X687761Y716798D01*
X688517Y716429D01*
X689264Y716041D01*
X690001Y715635D01*
X690729Y715212D01*
X691445Y714770D01*
X692151Y714311D01*
X692844Y713835D01*
X693527Y713342D01*
X694196Y712832D01*
X694853Y712307D01*
X695497Y711765D01*
X696128Y711207D01*
X696744Y710634D01*
X697347Y710047D01*
X697934Y709444D01*
X698507Y708828D01*
X699065Y708197D01*
X699607Y707553D01*
X700132Y706896D01*
X700642Y706227D01*
X701135Y705544D01*
X701611Y704851D01*
X702070Y704145D01*
X702512Y703429D01*
X702935Y702701D01*
X703341Y701964D01*
X703729Y701217D01*
X704098Y700461D01*
X704448Y699696D01*
X704780Y698922D01*
X705092Y698141D01*
X705386Y697352D01*
X705659Y696556D01*
X705913Y695754D01*
X706148Y694946D01*
X706362Y694132D01*
X706557Y693313D01*
X706731Y692490D01*
X706885Y691662D01*
X707019Y690831D01*
X707132Y689997D01*
X707225Y689161D01*
X707297Y688323D01*
X707349Y687483D01*
X707380Y686642D01*
X707390Y685800D01*
X707380Y684958D01*
X707349Y684117D01*
X707297Y683277D01*
X707225Y682439D01*
X707132Y681603D01*
X707019Y680769D01*
X706885Y679938D01*
X706731Y679110D01*
X706557Y678287D01*
X706362Y677468D01*
X706148Y676654D01*
X705913Y675846D01*
X705659Y675044D01*
X705386Y674248D01*
X705092Y673459D01*
X704780Y672678D01*
X704448Y671904D01*
X704098Y671139D01*
X703729Y670383D01*
X703341Y669636D01*
X702935Y668899D01*
X702512Y668171D01*
X702070Y667455D01*
X701611Y666749D01*
X701135Y666056D01*
X700642Y665373D01*
X700132Y664704D01*
X699607Y664047D01*
X699065Y663403D01*
X698507Y662772D01*
X697934Y662156D01*
X697347Y661553D01*
X696744Y660966D01*
X696128Y660393D01*
X695497Y659835D01*
X694853Y659293D01*
X694196Y658768D01*
X693527Y658258D01*
X692844Y657765D01*
X692151Y657289D01*
X691445Y656830D01*
X690729Y656388D01*
X690001Y655965D01*
X689264Y655559D01*
X688517Y655171D01*
X687761Y654802D01*
X686996Y654452D01*
X686222Y654120D01*
X685441Y653808D01*
X684652Y653514D01*
X683856Y653241D01*
X683054Y652987D01*
X682246Y652752D01*
X681432Y652538D01*
X680613Y652343D01*
X679790Y652169D01*
X678962Y652015D01*
X678131Y651881D01*
X677297Y651768D01*
X676461Y651675D01*
X675623Y651603D01*
X674783Y651551D01*
X673942Y651520D01*
X673100Y651510D01*
X672258Y651520D01*
X671417Y651551D01*
X670577Y651603D01*
X669739Y651675D01*
X668903Y651768D01*
X668069Y651881D01*
X667238Y652015D01*
X666410Y652169D01*
X665587Y652343D01*
X664768Y652538D01*
X663954Y652752D01*
X663146Y652987D01*
X662344Y653241D01*
X661548Y653514D01*
X660759Y653808D01*
X659978Y654120D01*
X659204Y654452D01*
X658439Y654802D01*
X657683Y655171D01*
X656936Y655559D01*
X656199Y655965D01*
X655471Y656388D01*
X654755Y656830D01*
X654049Y657289D01*
X653356Y657765D01*
X652673Y658258D01*
X652004Y658768D01*
X651347Y659293D01*
X650703Y659835D01*
X650072Y660393D01*
X649456Y660966D01*
X648853Y661553D01*
X648266Y662156D01*
X647693Y662772D01*
X647135Y663403D01*
X646593Y664047D01*
X646068Y664704D01*
X645558Y665373D01*
X645065Y666056D01*
X644589Y666749D01*
X644130Y667455D01*
X643688Y668171D01*
X643265Y668899D01*
X642859Y669636D01*
X642471Y670383D01*
X642102Y671139D01*
X641752Y671904D01*
X641420Y672678D01*
X641108Y673459D01*
X640814Y674248D01*
X640541Y675044D01*
X640287Y675846D01*
X640052Y676654D01*
X639838Y677468D01*
X639643Y678287D01*
X639469Y679110D01*
X639315Y679938D01*
X639181Y680769D01*
X639068Y681603D01*
X638975Y682439D01*
X638903Y683277D01*
X638851Y684117D01*
X638820Y684958D01*
X638810Y685800D01*
D15*
X656100Y685800D02*
X656105Y686217D01*
X656120Y686634D01*
X656146Y687051D01*
X656182Y687466D01*
X656228Y687881D01*
X656284Y688294D01*
X656350Y688706D01*
X656427Y689117D01*
X656513Y689525D01*
X656609Y689931D01*
X656716Y690334D01*
X656832Y690735D01*
X656958Y691133D01*
X657094Y691527D01*
X657239Y691918D01*
X657394Y692306D01*
X657558Y692689D01*
X657732Y693068D01*
X657915Y693443D01*
X658107Y693814D01*
X658309Y694179D01*
X658519Y694540D01*
X658737Y694895D01*
X658965Y695245D01*
X659201Y695589D01*
X659445Y695927D01*
X659698Y696259D01*
X659959Y696585D01*
X660227Y696904D01*
X660504Y697217D01*
X660788Y697522D01*
X661079Y697821D01*
X661378Y698112D01*
X661683Y698396D01*
X661996Y698673D01*
X662315Y698941D01*
X662641Y699202D01*
X662973Y699455D01*
X663311Y699699D01*
X663655Y699935D01*
X664005Y700163D01*
X664360Y700381D01*
X664721Y700591D01*
X665086Y700793D01*
X665457Y700985D01*
X665832Y701168D01*
X666211Y701342D01*
X666594Y701506D01*
X666982Y701661D01*
X667373Y701806D01*
X667767Y701942D01*
X668165Y702068D01*
X668566Y702184D01*
X668969Y702291D01*
X669375Y702387D01*
X669783Y702473D01*
X670194Y702550D01*
X670606Y702616D01*
X671019Y702672D01*
X671434Y702718D01*
X671849Y702754D01*
X672266Y702780D01*
X672683Y702795D01*
X673100Y702800D01*
X673517Y702795D01*
X673934Y702780D01*
X674351Y702754D01*
X674766Y702718D01*
X675181Y702672D01*
X675594Y702616D01*
X676006Y702550D01*
X676417Y702473D01*
X676825Y702387D01*
X677231Y702291D01*
X677634Y702184D01*
X678035Y702068D01*
X678433Y701942D01*
X678827Y701806D01*
X679218Y701661D01*
X679606Y701506D01*
X679989Y701342D01*
X680368Y701168D01*
X680743Y700985D01*
X681114Y700793D01*
X681479Y700591D01*
X681840Y700381D01*
X682195Y700163D01*
X682545Y699935D01*
X682889Y699699D01*
X683227Y699455D01*
X683559Y699202D01*
X683885Y698941D01*
X684204Y698673D01*
X684517Y698396D01*
X684822Y698112D01*
X685121Y697821D01*
X685412Y697522D01*
X685696Y697217D01*
X685973Y696904D01*
X686241Y696585D01*
X686502Y696259D01*
X686755Y695927D01*
X686999Y695589D01*
X687235Y695245D01*
X687463Y694895D01*
X687681Y694540D01*
X687891Y694179D01*
X688093Y693814D01*
X688285Y693443D01*
X688468Y693068D01*
X688642Y692689D01*
X688806Y692306D01*
X688961Y691918D01*
X689106Y691527D01*
X689242Y691133D01*
X689368Y690735D01*
X689484Y690334D01*
X689591Y689931D01*
X689687Y689525D01*
X689773Y689117D01*
X689850Y688706D01*
X689916Y688294D01*
X689972Y687881D01*
X690018Y687466D01*
X690054Y687051D01*
X690080Y686634D01*
X690095Y686217D01*
X690100Y685800D01*
X690095Y685383D01*
X690080Y684966D01*
X690054Y684549D01*
X690018Y684134D01*
X689972Y683719D01*
X689916Y683306D01*
X689850Y682894D01*
X689773Y682483D01*
X689687Y682075D01*
X689591Y681669D01*
X689484Y681266D01*
X689368Y680865D01*
X689242Y680467D01*
X689106Y680073D01*
X688961Y679682D01*
X688806Y679294D01*
X688642Y678911D01*
X688468Y678532D01*
X688285Y678157D01*
X688093Y677786D01*
X687891Y677421D01*
X687681Y677060D01*
X687463Y676705D01*
X687235Y676355D01*
X686999Y676011D01*
X686755Y675673D01*
X686502Y675341D01*
X686241Y675015D01*
X685973Y674696D01*
X685696Y674383D01*
X685412Y674078D01*
X685121Y673779D01*
X684822Y673488D01*
X684517Y673204D01*
X684204Y672927D01*
X683885Y672659D01*
X683559Y672398D01*
X683227Y672145D01*
X682889Y671901D01*
X682545Y671665D01*
X682195Y671437D01*
X681840Y671219D01*
X681479Y671009D01*
X681114Y670807D01*
X680743Y670615D01*
X680368Y670432D01*
X679989Y670258D01*
X679606Y670094D01*
X679218Y669939D01*
X678827Y669794D01*
X678433Y669658D01*
X678035Y669532D01*
X677634Y669416D01*
X677231Y669309D01*
X676825Y669213D01*
X676417Y669127D01*
X676006Y669050D01*
X675594Y668984D01*
X675181Y668928D01*
X674766Y668882D01*
X674351Y668846D01*
X673934Y668820D01*
X673517Y668805D01*
X673100Y668800D01*
X672683Y668805D01*
X672266Y668820D01*
X671849Y668846D01*
X671434Y668882D01*
X671019Y668928D01*
X670606Y668984D01*
X670194Y669050D01*
X669783Y669127D01*
X669375Y669213D01*
X668969Y669309D01*
X668566Y669416D01*
X668165Y669532D01*
X667767Y669658D01*
X667373Y669794D01*
X666982Y669939D01*
X666594Y670094D01*
X666211Y670258D01*
X665832Y670432D01*
X665457Y670615D01*
X665086Y670807D01*
X664721Y671009D01*
X664360Y671219D01*
X664005Y671437D01*
X663655Y671665D01*
X663311Y671901D01*
X662973Y672145D01*
X662641Y672398D01*
X662315Y672659D01*
X661996Y672927D01*
X661683Y673204D01*
X661378Y673488D01*
X661079Y673779D01*
X660788Y674078D01*
X660504Y674383D01*
X660227Y674696D01*
X659959Y675015D01*
X659698Y675341D01*
X659445Y675673D01*
X659201Y676011D01*
X658965Y676355D01*
X658737Y676705D01*
X658519Y677060D01*
X658309Y677421D01*
X658107Y677786D01*
X657915Y678157D01*
X657732Y678532D01*
X657558Y678911D01*
X657394Y679294D01*
X657239Y679682D01*
X657094Y680073D01*
X656958Y680467D01*
X656832Y680865D01*
X656716Y681266D01*
X656609Y681669D01*
X656513Y682075D01*
X656427Y682483D01*
X656350Y682894D01*
X656284Y683306D01*
X656228Y683719D01*
X656182Y684134D01*
X656146Y684549D01*
X656120Y684966D01*
X656105Y685383D01*
X656100Y685800D01*
D14*
X638810Y368300D02*
X638820Y369142D01*
X638851Y369983D01*
X638903Y370823D01*
X638975Y371661D01*
X639068Y372497D01*
X639181Y373331D01*
X639315Y374162D01*
X639469Y374990D01*
X639643Y375813D01*
X639838Y376632D01*
X640052Y377446D01*
X640287Y378254D01*
X640541Y379056D01*
X640814Y379852D01*
X641108Y380641D01*
X641420Y381422D01*
X641752Y382196D01*
X642102Y382961D01*
X642471Y383717D01*
X642859Y384464D01*
X643265Y385201D01*
X643688Y385929D01*
X644130Y386645D01*
X644589Y387351D01*
X645065Y388044D01*
X645558Y388727D01*
X646068Y389396D01*
X646593Y390053D01*
X647135Y390697D01*
X647693Y391328D01*
X648266Y391944D01*
X648853Y392547D01*
X649456Y393134D01*
X650072Y393707D01*
X650703Y394265D01*
X651347Y394807D01*
X652004Y395332D01*
X652673Y395842D01*
X653356Y396335D01*
X654049Y396811D01*
X654755Y397270D01*
X655471Y397712D01*
X656199Y398135D01*
X656936Y398541D01*
X657683Y398929D01*
X658439Y399298D01*
X659204Y399648D01*
X659978Y399980D01*
X660759Y400292D01*
X661548Y400586D01*
X662344Y400859D01*
X663146Y401113D01*
X663954Y401348D01*
X664768Y401562D01*
X665587Y401757D01*
X666410Y401931D01*
X667238Y402085D01*
X668069Y402219D01*
X668903Y402332D01*
X669739Y402425D01*
X670577Y402497D01*
X671417Y402549D01*
X672258Y402580D01*
X673100Y402590D01*
X673942Y402580D01*
X674783Y402549D01*
X675623Y402497D01*
X676461Y402425D01*
X677297Y402332D01*
X678131Y402219D01*
X678962Y402085D01*
X679790Y401931D01*
X680613Y401757D01*
X681432Y401562D01*
X682246Y401348D01*
X683054Y401113D01*
X683856Y400859D01*
X684652Y400586D01*
X685441Y400292D01*
X686222Y399980D01*
X686996Y399648D01*
X687761Y399298D01*
X688517Y398929D01*
X689264Y398541D01*
X690001Y398135D01*
X690729Y397712D01*
X691445Y397270D01*
X692151Y396811D01*
X692844Y396335D01*
X693527Y395842D01*
X694196Y395332D01*
X694853Y394807D01*
X695497Y394265D01*
X696128Y393707D01*
X696744Y393134D01*
X697347Y392547D01*
X697934Y391944D01*
X698507Y391328D01*
X699065Y390697D01*
X699607Y390053D01*
X700132Y389396D01*
X700642Y388727D01*
X701135Y388044D01*
X701611Y387351D01*
X702070Y386645D01*
X702512Y385929D01*
X702935Y385201D01*
X703341Y384464D01*
X703729Y383717D01*
X704098Y382961D01*
X704448Y382196D01*
X704780Y381422D01*
X705092Y380641D01*
X705386Y379852D01*
X705659Y379056D01*
X705913Y378254D01*
X706148Y377446D01*
X706362Y376632D01*
X706557Y375813D01*
X706731Y374990D01*
X706885Y374162D01*
X707019Y373331D01*
X707132Y372497D01*
X707225Y371661D01*
X707297Y370823D01*
X707349Y369983D01*
X707380Y369142D01*
X707390Y368300D01*
X707380Y367458D01*
X707349Y366617D01*
X707297Y365777D01*
X707225Y364939D01*
X707132Y364103D01*
X707019Y363269D01*
X706885Y362438D01*
X706731Y361610D01*
X706557Y360787D01*
X706362Y359968D01*
X706148Y359154D01*
X705913Y358346D01*
X705659Y357544D01*
X705386Y356748D01*
X705092Y355959D01*
X704780Y355178D01*
X704448Y354404D01*
X704098Y353639D01*
X703729Y352883D01*
X703341Y352136D01*
X702935Y351399D01*
X702512Y350671D01*
X702070Y349955D01*
X701611Y349249D01*
X701135Y348556D01*
X700642Y347873D01*
X700132Y347204D01*
X699607Y346547D01*
X699065Y345903D01*
X698507Y345272D01*
X697934Y344656D01*
X697347Y344053D01*
X696744Y343466D01*
X696128Y342893D01*
X695497Y342335D01*
X694853Y341793D01*
X694196Y341268D01*
X693527Y340758D01*
X692844Y340265D01*
X692151Y339789D01*
X691445Y339330D01*
X690729Y338888D01*
X690001Y338465D01*
X689264Y338059D01*
X688517Y337671D01*
X687761Y337302D01*
X686996Y336952D01*
X686222Y336620D01*
X685441Y336308D01*
X684652Y336014D01*
X683856Y335741D01*
X683054Y335487D01*
X682246Y335252D01*
X681432Y335038D01*
X680613Y334843D01*
X679790Y334669D01*
X678962Y334515D01*
X678131Y334381D01*
X677297Y334268D01*
X676461Y334175D01*
X675623Y334103D01*
X674783Y334051D01*
X673942Y334020D01*
X673100Y334010D01*
X672258Y334020D01*
X671417Y334051D01*
X670577Y334103D01*
X669739Y334175D01*
X668903Y334268D01*
X668069Y334381D01*
X667238Y334515D01*
X666410Y334669D01*
X665587Y334843D01*
X664768Y335038D01*
X663954Y335252D01*
X663146Y335487D01*
X662344Y335741D01*
X661548Y336014D01*
X660759Y336308D01*
X659978Y336620D01*
X659204Y336952D01*
X658439Y337302D01*
X657683Y337671D01*
X656936Y338059D01*
X656199Y338465D01*
X655471Y338888D01*
X654755Y339330D01*
X654049Y339789D01*
X653356Y340265D01*
X652673Y340758D01*
X652004Y341268D01*
X651347Y341793D01*
X650703Y342335D01*
X650072Y342893D01*
X649456Y343466D01*
X648853Y344053D01*
X648266Y344656D01*
X647693Y345272D01*
X647135Y345903D01*
X646593Y346547D01*
X646068Y347204D01*
X645558Y347873D01*
X645065Y348556D01*
X644589Y349249D01*
X644130Y349955D01*
X643688Y350671D01*
X643265Y351399D01*
X642859Y352136D01*
X642471Y352883D01*
X642102Y353639D01*
X641752Y354404D01*
X641420Y355178D01*
X641108Y355959D01*
X640814Y356748D01*
X640541Y357544D01*
X640287Y358346D01*
X640052Y359154D01*
X639838Y359968D01*
X639643Y360787D01*
X639469Y361610D01*
X639315Y362438D01*
X639181Y363269D01*
X639068Y364103D01*
X638975Y364939D01*
X638903Y365777D01*
X638851Y366617D01*
X638820Y367458D01*
X638810Y368300D01*
D15*
X656100Y368300D02*
X656105Y368717D01*
X656120Y369134D01*
X656146Y369551D01*
X656182Y369966D01*
X656228Y370381D01*
X656284Y370794D01*
X656350Y371206D01*
X656427Y371617D01*
X656513Y372025D01*
X656609Y372431D01*
X656716Y372834D01*
X656832Y373235D01*
X656958Y373633D01*
X657094Y374027D01*
X657239Y374418D01*
X657394Y374806D01*
X657558Y375189D01*
X657732Y375568D01*
X657915Y375943D01*
X658107Y376314D01*
X658309Y376679D01*
X658519Y377040D01*
X658737Y377395D01*
X658965Y377745D01*
X659201Y378089D01*
X659445Y378427D01*
X659698Y378759D01*
X659959Y379085D01*
X660227Y379404D01*
X660504Y379717D01*
X660788Y380022D01*
X661079Y380321D01*
X661378Y380612D01*
X661683Y380896D01*
X661996Y381173D01*
X662315Y381441D01*
X662641Y381702D01*
X662973Y381955D01*
X663311Y382199D01*
X663655Y382435D01*
X664005Y382663D01*
X664360Y382881D01*
X664721Y383091D01*
X665086Y383293D01*
X665457Y383485D01*
X665832Y383668D01*
X666211Y383842D01*
X666594Y384006D01*
X666982Y384161D01*
X667373Y384306D01*
X667767Y384442D01*
X668165Y384568D01*
X668566Y384684D01*
X668969Y384791D01*
X669375Y384887D01*
X669783Y384973D01*
X670194Y385050D01*
X670606Y385116D01*
X671019Y385172D01*
X671434Y385218D01*
X671849Y385254D01*
X672266Y385280D01*
X672683Y385295D01*
X673100Y385300D01*
X673517Y385295D01*
X673934Y385280D01*
X674351Y385254D01*
X674766Y385218D01*
X675181Y385172D01*
X675594Y385116D01*
X676006Y385050D01*
X676417Y384973D01*
X676825Y384887D01*
X677231Y384791D01*
X677634Y384684D01*
X678035Y384568D01*
X678433Y384442D01*
X678827Y384306D01*
X679218Y384161D01*
X679606Y384006D01*
X679989Y383842D01*
X680368Y383668D01*
X680743Y383485D01*
X681114Y383293D01*
X681479Y383091D01*
X681840Y382881D01*
X682195Y382663D01*
X682545Y382435D01*
X682889Y382199D01*
X683227Y381955D01*
X683559Y381702D01*
X683885Y381441D01*
X684204Y381173D01*
X684517Y380896D01*
X684822Y380612D01*
X685121Y380321D01*
X685412Y380022D01*
X685696Y379717D01*
X685973Y379404D01*
X686241Y379085D01*
X686502Y378759D01*
X686755Y378427D01*
X686999Y378089D01*
X687235Y377745D01*
X687463Y377395D01*
X687681Y377040D01*
X687891Y376679D01*
X688093Y376314D01*
X688285Y375943D01*
X688468Y375568D01*
X688642Y375189D01*
X688806Y374806D01*
X688961Y374418D01*
X689106Y374027D01*
X689242Y373633D01*
X689368Y373235D01*
X689484Y372834D01*
X689591Y372431D01*
X689687Y372025D01*
X689773Y371617D01*
X689850Y371206D01*
X689916Y370794D01*
X689972Y370381D01*
X690018Y369966D01*
X690054Y369551D01*
X690080Y369134D01*
X690095Y368717D01*
X690100Y368300D01*
X690095Y367883D01*
X690080Y367466D01*
X690054Y367049D01*
X690018Y366634D01*
X689972Y366219D01*
X689916Y365806D01*
X689850Y365394D01*
X689773Y364983D01*
X689687Y364575D01*
X689591Y364169D01*
X689484Y363766D01*
X689368Y363365D01*
X689242Y362967D01*
X689106Y362573D01*
X688961Y362182D01*
X688806Y361794D01*
X688642Y361411D01*
X688468Y361032D01*
X688285Y360657D01*
X688093Y360286D01*
X687891Y359921D01*
X687681Y359560D01*
X687463Y359205D01*
X687235Y358855D01*
X686999Y358511D01*
X686755Y358173D01*
X686502Y357841D01*
X686241Y357515D01*
X685973Y357196D01*
X685696Y356883D01*
X685412Y356578D01*
X685121Y356279D01*
X684822Y355988D01*
X684517Y355704D01*
X684204Y355427D01*
X683885Y355159D01*
X683559Y354898D01*
X683227Y354645D01*
X682889Y354401D01*
X682545Y354165D01*
X682195Y353937D01*
X681840Y353719D01*
X681479Y353509D01*
X681114Y353307D01*
X680743Y353115D01*
X680368Y352932D01*
X679989Y352758D01*
X679606Y352594D01*
X679218Y352439D01*
X678827Y352294D01*
X678433Y352158D01*
X678035Y352032D01*
X677634Y351916D01*
X677231Y351809D01*
X676825Y351713D01*
X676417Y351627D01*
X676006Y351550D01*
X675594Y351484D01*
X675181Y351428D01*
X674766Y351382D01*
X674351Y351346D01*
X673934Y351320D01*
X673517Y351305D01*
X673100Y351300D01*
X672683Y351305D01*
X672266Y351320D01*
X671849Y351346D01*
X671434Y351382D01*
X671019Y351428D01*
X670606Y351484D01*
X670194Y351550D01*
X669783Y351627D01*
X669375Y351713D01*
X668969Y351809D01*
X668566Y351916D01*
X668165Y352032D01*
X667767Y352158D01*
X667373Y352294D01*
X666982Y352439D01*
X666594Y352594D01*
X666211Y352758D01*
X665832Y352932D01*
X665457Y353115D01*
X665086Y353307D01*
X664721Y353509D01*
X664360Y353719D01*
X664005Y353937D01*
X663655Y354165D01*
X663311Y354401D01*
X662973Y354645D01*
X662641Y354898D01*
X662315Y355159D01*
X661996Y355427D01*
X661683Y355704D01*
X661378Y355988D01*
X661079Y356279D01*
X660788Y356578D01*
X660504Y356883D01*
X660227Y357196D01*
X659959Y357515D01*
X659698Y357841D01*
X659445Y358173D01*
X659201Y358511D01*
X658965Y358855D01*
X658737Y359205D01*
X658519Y359560D01*
X658309Y359921D01*
X658107Y360286D01*
X657915Y360657D01*
X657732Y361032D01*
X657558Y361411D01*
X657394Y361794D01*
X657239Y362182D01*
X657094Y362573D01*
X656958Y362967D01*
X656832Y363365D01*
X656716Y363766D01*
X656609Y364169D01*
X656513Y364575D01*
X656427Y364983D01*
X656350Y365394D01*
X656284Y365806D01*
X656228Y366219D01*
X656182Y366634D01*
X656146Y367049D01*
X656120Y367466D01*
X656105Y367883D01*
X656100Y368300D01*
D14*
X168910Y368300D02*
X168920Y369142D01*
X168951Y369983D01*
X169003Y370823D01*
X169075Y371661D01*
X169168Y372497D01*
X169281Y373331D01*
X169415Y374162D01*
X169569Y374990D01*
X169743Y375813D01*
X169938Y376632D01*
X170152Y377446D01*
X170387Y378254D01*
X170641Y379056D01*
X170914Y379852D01*
X171208Y380641D01*
X171520Y381422D01*
X171852Y382196D01*
X172202Y382961D01*
X172571Y383717D01*
X172959Y384464D01*
X173365Y385201D01*
X173788Y385929D01*
X174230Y386645D01*
X174689Y387351D01*
X175165Y388044D01*
X175658Y388727D01*
X176168Y389396D01*
X176693Y390053D01*
X177235Y390697D01*
X177793Y391328D01*
X178366Y391944D01*
X178953Y392547D01*
X179556Y393134D01*
X180172Y393707D01*
X180803Y394265D01*
X181447Y394807D01*
X182104Y395332D01*
X182773Y395842D01*
X183456Y396335D01*
X184149Y396811D01*
X184855Y397270D01*
X185571Y397712D01*
X186299Y398135D01*
X187036Y398541D01*
X187783Y398929D01*
X188539Y399298D01*
X189304Y399648D01*
X190078Y399980D01*
X190859Y400292D01*
X191648Y400586D01*
X192444Y400859D01*
X193246Y401113D01*
X194054Y401348D01*
X194868Y401562D01*
X195687Y401757D01*
X196510Y401931D01*
X197338Y402085D01*
X198169Y402219D01*
X199003Y402332D01*
X199839Y402425D01*
X200677Y402497D01*
X201517Y402549D01*
X202358Y402580D01*
X203200Y402590D01*
X204042Y402580D01*
X204883Y402549D01*
X205723Y402497D01*
X206561Y402425D01*
X207397Y402332D01*
X208231Y402219D01*
X209062Y402085D01*
X209890Y401931D01*
X210713Y401757D01*
X211532Y401562D01*
X212346Y401348D01*
X213154Y401113D01*
X213956Y400859D01*
X214752Y400586D01*
X215541Y400292D01*
X216322Y399980D01*
X217096Y399648D01*
X217861Y399298D01*
X218617Y398929D01*
X219364Y398541D01*
X220101Y398135D01*
X220829Y397712D01*
X221545Y397270D01*
X222251Y396811D01*
X222944Y396335D01*
X223627Y395842D01*
X224296Y395332D01*
X224953Y394807D01*
X225597Y394265D01*
X226228Y393707D01*
X226844Y393134D01*
X227447Y392547D01*
X228034Y391944D01*
X228607Y391328D01*
X229165Y390697D01*
X229707Y390053D01*
X230232Y389396D01*
X230742Y388727D01*
X231235Y388044D01*
X231711Y387351D01*
X232170Y386645D01*
X232612Y385929D01*
X233035Y385201D01*
X233441Y384464D01*
X233829Y383717D01*
X234198Y382961D01*
X234548Y382196D01*
X234880Y381422D01*
X235192Y380641D01*
X235486Y379852D01*
X235759Y379056D01*
X236013Y378254D01*
X236248Y377446D01*
X236462Y376632D01*
X236657Y375813D01*
X236831Y374990D01*
X236985Y374162D01*
X237119Y373331D01*
X237232Y372497D01*
X237325Y371661D01*
X237397Y370823D01*
X237449Y369983D01*
X237480Y369142D01*
X237490Y368300D01*
X237480Y367458D01*
X237449Y366617D01*
X237397Y365777D01*
X237325Y364939D01*
X237232Y364103D01*
X237119Y363269D01*
X236985Y362438D01*
X236831Y361610D01*
X236657Y360787D01*
X236462Y359968D01*
X236248Y359154D01*
X236013Y358346D01*
X235759Y357544D01*
X235486Y356748D01*
X235192Y355959D01*
X234880Y355178D01*
X234548Y354404D01*
X234198Y353639D01*
X233829Y352883D01*
X233441Y352136D01*
X233035Y351399D01*
X232612Y350671D01*
X232170Y349955D01*
X231711Y349249D01*
X231235Y348556D01*
X230742Y347873D01*
X230232Y347204D01*
X229707Y346547D01*
X229165Y345903D01*
X228607Y345272D01*
X228034Y344656D01*
X227447Y344053D01*
X226844Y343466D01*
X226228Y342893D01*
X225597Y342335D01*
X224953Y341793D01*
X224296Y341268D01*
X223627Y340758D01*
X222944Y340265D01*
X222251Y339789D01*
X221545Y339330D01*
X220829Y338888D01*
X220101Y338465D01*
X219364Y338059D01*
X218617Y337671D01*
X217861Y337302D01*
X217096Y336952D01*
X216322Y336620D01*
X215541Y336308D01*
X214752Y336014D01*
X213956Y335741D01*
X213154Y335487D01*
X212346Y335252D01*
X211532Y335038D01*
X210713Y334843D01*
X209890Y334669D01*
X209062Y334515D01*
X208231Y334381D01*
X207397Y334268D01*
X206561Y334175D01*
X205723Y334103D01*
X204883Y334051D01*
X204042Y334020D01*
X203200Y334010D01*
X202358Y334020D01*
X201517Y334051D01*
X200677Y334103D01*
X199839Y334175D01*
X199003Y334268D01*
X198169Y334381D01*
X197338Y334515D01*
X196510Y334669D01*
X195687Y334843D01*
X194868Y335038D01*
X194054Y335252D01*
X193246Y335487D01*
X192444Y335741D01*
X191648Y336014D01*
X190859Y336308D01*
X190078Y336620D01*
X189304Y336952D01*
X188539Y337302D01*
X187783Y337671D01*
X187036Y338059D01*
X186299Y338465D01*
X185571Y338888D01*
X184855Y339330D01*
X184149Y339789D01*
X183456Y340265D01*
X182773Y340758D01*
X182104Y341268D01*
X181447Y341793D01*
X180803Y342335D01*
X180172Y342893D01*
X179556Y343466D01*
X178953Y344053D01*
X178366Y344656D01*
X177793Y345272D01*
X177235Y345903D01*
X176693Y346547D01*
X176168Y347204D01*
X175658Y347873D01*
X175165Y348556D01*
X174689Y349249D01*
X174230Y349955D01*
X173788Y350671D01*
X173365Y351399D01*
X172959Y352136D01*
X172571Y352883D01*
X172202Y353639D01*
X171852Y354404D01*
X171520Y355178D01*
X171208Y355959D01*
X170914Y356748D01*
X170641Y357544D01*
X170387Y358346D01*
X170152Y359154D01*
X169938Y359968D01*
X169743Y360787D01*
X169569Y361610D01*
X169415Y362438D01*
X169281Y363269D01*
X169168Y364103D01*
X169075Y364939D01*
X169003Y365777D01*
X168951Y366617D01*
X168920Y367458D01*
X168910Y368300D01*
D15*
X186200Y368300D02*
X186205Y368717D01*
X186220Y369134D01*
X186246Y369551D01*
X186282Y369966D01*
X186328Y370381D01*
X186384Y370794D01*
X186450Y371206D01*
X186527Y371617D01*
X186613Y372025D01*
X186709Y372431D01*
X186816Y372834D01*
X186932Y373235D01*
X187058Y373633D01*
X187194Y374027D01*
X187339Y374418D01*
X187494Y374806D01*
X187658Y375189D01*
X187832Y375568D01*
X188015Y375943D01*
X188207Y376314D01*
X188409Y376679D01*
X188619Y377040D01*
X188837Y377395D01*
X189065Y377745D01*
X189301Y378089D01*
X189545Y378427D01*
X189798Y378759D01*
X190059Y379085D01*
X190327Y379404D01*
X190604Y379717D01*
X190888Y380022D01*
X191179Y380321D01*
X191478Y380612D01*
X191783Y380896D01*
X192096Y381173D01*
X192415Y381441D01*
X192741Y381702D01*
X193073Y381955D01*
X193411Y382199D01*
X193755Y382435D01*
X194105Y382663D01*
X194460Y382881D01*
X194821Y383091D01*
X195186Y383293D01*
X195557Y383485D01*
X195932Y383668D01*
X196311Y383842D01*
X196694Y384006D01*
X197082Y384161D01*
X197473Y384306D01*
X197867Y384442D01*
X198265Y384568D01*
X198666Y384684D01*
X199069Y384791D01*
X199475Y384887D01*
X199883Y384973D01*
X200294Y385050D01*
X200706Y385116D01*
X201119Y385172D01*
X201534Y385218D01*
X201949Y385254D01*
X202366Y385280D01*
X202783Y385295D01*
X203200Y385300D01*
X203617Y385295D01*
X204034Y385280D01*
X204451Y385254D01*
X204866Y385218D01*
X205281Y385172D01*
X205694Y385116D01*
X206106Y385050D01*
X206517Y384973D01*
X206925Y384887D01*
X207331Y384791D01*
X207734Y384684D01*
X208135Y384568D01*
X208533Y384442D01*
X208927Y384306D01*
X209318Y384161D01*
X209706Y384006D01*
X210089Y383842D01*
X210468Y383668D01*
X210843Y383485D01*
X211214Y383293D01*
X211579Y383091D01*
X211940Y382881D01*
X212295Y382663D01*
X212645Y382435D01*
X212989Y382199D01*
X213327Y381955D01*
X213659Y381702D01*
X213985Y381441D01*
X214304Y381173D01*
X214617Y380896D01*
X214922Y380612D01*
X215221Y380321D01*
X215512Y380022D01*
X215796Y379717D01*
X216073Y379404D01*
X216341Y379085D01*
X216602Y378759D01*
X216855Y378427D01*
X217099Y378089D01*
X217335Y377745D01*
X217563Y377395D01*
X217781Y377040D01*
X217991Y376679D01*
X218193Y376314D01*
X218385Y375943D01*
X218568Y375568D01*
X218742Y375189D01*
X218906Y374806D01*
X219061Y374418D01*
X219206Y374027D01*
X219342Y373633D01*
X219468Y373235D01*
X219584Y372834D01*
X219691Y372431D01*
X219787Y372025D01*
X219873Y371617D01*
X219950Y371206D01*
X220016Y370794D01*
X220072Y370381D01*
X220118Y369966D01*
X220154Y369551D01*
X220180Y369134D01*
X220195Y368717D01*
X220200Y368300D01*
X220195Y367883D01*
X220180Y367466D01*
X220154Y367049D01*
X220118Y366634D01*
X220072Y366219D01*
X220016Y365806D01*
X219950Y365394D01*
X219873Y364983D01*
X219787Y364575D01*
X219691Y364169D01*
X219584Y363766D01*
X219468Y363365D01*
X219342Y362967D01*
X219206Y362573D01*
X219061Y362182D01*
X218906Y361794D01*
X218742Y361411D01*
X218568Y361032D01*
X218385Y360657D01*
X218193Y360286D01*
X217991Y359921D01*
X217781Y359560D01*
X217563Y359205D01*
X217335Y358855D01*
X217099Y358511D01*
X216855Y358173D01*
X216602Y357841D01*
X216341Y357515D01*
X216073Y357196D01*
X215796Y356883D01*
X215512Y356578D01*
X215221Y356279D01*
X214922Y355988D01*
X214617Y355704D01*
X214304Y355427D01*
X213985Y355159D01*
X213659Y354898D01*
X213327Y354645D01*
X212989Y354401D01*
X212645Y354165D01*
X212295Y353937D01*
X211940Y353719D01*
X211579Y353509D01*
X211214Y353307D01*
X210843Y353115D01*
X210468Y352932D01*
X210089Y352758D01*
X209706Y352594D01*
X209318Y352439D01*
X208927Y352294D01*
X208533Y352158D01*
X208135Y352032D01*
X207734Y351916D01*
X207331Y351809D01*
X206925Y351713D01*
X206517Y351627D01*
X206106Y351550D01*
X205694Y351484D01*
X205281Y351428D01*
X204866Y351382D01*
X204451Y351346D01*
X204034Y351320D01*
X203617Y351305D01*
X203200Y351300D01*
X202783Y351305D01*
X202366Y351320D01*
X201949Y351346D01*
X201534Y351382D01*
X201119Y351428D01*
X200706Y351484D01*
X200294Y351550D01*
X199883Y351627D01*
X199475Y351713D01*
X199069Y351809D01*
X198666Y351916D01*
X198265Y352032D01*
X197867Y352158D01*
X197473Y352294D01*
X197082Y352439D01*
X196694Y352594D01*
X196311Y352758D01*
X195932Y352932D01*
X195557Y353115D01*
X195186Y353307D01*
X194821Y353509D01*
X194460Y353719D01*
X194105Y353937D01*
X193755Y354165D01*
X193411Y354401D01*
X193073Y354645D01*
X192741Y354898D01*
X192415Y355159D01*
X192096Y355427D01*
X191783Y355704D01*
X191478Y355988D01*
X191179Y356279D01*
X190888Y356578D01*
X190604Y356883D01*
X190327Y357196D01*
X190059Y357515D01*
X189798Y357841D01*
X189545Y358173D01*
X189301Y358511D01*
X189065Y358855D01*
X188837Y359205D01*
X188619Y359560D01*
X188409Y359921D01*
X188207Y360286D01*
X188015Y360657D01*
X187832Y361032D01*
X187658Y361411D01*
X187494Y361794D01*
X187339Y362182D01*
X187194Y362573D01*
X187058Y362967D01*
X186932Y363365D01*
X186816Y363766D01*
X186709Y364169D01*
X186613Y364575D01*
X186527Y364983D01*
X186450Y365394D01*
X186384Y365806D01*
X186328Y366219D01*
X186282Y366634D01*
X186246Y367049D01*
X186220Y367466D01*
X186205Y367883D01*
X186200Y368300D01*
D14*
X392430Y689610D02*
X392428Y689710D01*
X392422Y689809D01*
X392412Y689909D01*
X392399Y690007D01*
X392381Y690106D01*
X392360Y690203D01*
X392335Y690299D01*
X392306Y690395D01*
X392273Y690489D01*
X392237Y690582D01*
X392197Y690673D01*
X392153Y690763D01*
X392106Y690851D01*
X392056Y690937D01*
X392002Y691021D01*
X391945Y691103D01*
X391885Y691182D01*
X391821Y691260D01*
X391755Y691334D01*
X391686Y691406D01*
X391614Y691475D01*
X391540Y691541D01*
X391462Y691605D01*
X391383Y691665D01*
X391301Y691722D01*
X391217Y691776D01*
X391131Y691826D01*
X391043Y691873D01*
X390953Y691917D01*
X390862Y691957D01*
X390769Y691993D01*
X390675Y692026D01*
X390579Y692055D01*
X390483Y692080D01*
X390386Y692101D01*
X390287Y692119D01*
X390189Y692132D01*
X390089Y692142D01*
X389990Y692148D01*
X389890Y692150D01*
X372110Y692150D02*
X372010Y692148D01*
X371911Y692142D01*
X371811Y692132D01*
X371713Y692119D01*
X371614Y692101D01*
X371517Y692080D01*
X371421Y692055D01*
X371325Y692026D01*
X371231Y691993D01*
X371138Y691957D01*
X371047Y691917D01*
X370957Y691873D01*
X370869Y691826D01*
X370783Y691776D01*
X370699Y691722D01*
X370617Y691665D01*
X370538Y691605D01*
X370460Y691541D01*
X370386Y691475D01*
X370314Y691406D01*
X370245Y691334D01*
X370179Y691260D01*
X370115Y691182D01*
X370055Y691103D01*
X369998Y691021D01*
X369944Y690937D01*
X369894Y690851D01*
X369847Y690763D01*
X369803Y690673D01*
X369763Y690582D01*
X369727Y690489D01*
X369694Y690395D01*
X369665Y690299D01*
X369640Y690203D01*
X369619Y690106D01*
X369601Y690007D01*
X369588Y689909D01*
X369578Y689809D01*
X369572Y689710D01*
X369570Y689610D01*
X369570Y631190D02*
X369572Y631090D01*
X369578Y630991D01*
X369588Y630891D01*
X369601Y630793D01*
X369619Y630694D01*
X369640Y630597D01*
X369665Y630501D01*
X369694Y630405D01*
X369727Y630311D01*
X369763Y630218D01*
X369803Y630127D01*
X369847Y630037D01*
X369894Y629949D01*
X369944Y629863D01*
X369998Y629779D01*
X370055Y629697D01*
X370115Y629618D01*
X370179Y629540D01*
X370245Y629466D01*
X370314Y629394D01*
X370386Y629325D01*
X370460Y629259D01*
X370538Y629195D01*
X370617Y629135D01*
X370699Y629078D01*
X370783Y629024D01*
X370869Y628974D01*
X370957Y628927D01*
X371047Y628883D01*
X371138Y628843D01*
X371231Y628807D01*
X371325Y628774D01*
X371421Y628745D01*
X371517Y628720D01*
X371614Y628699D01*
X371713Y628681D01*
X371811Y628668D01*
X371911Y628658D01*
X372010Y628652D01*
X372110Y628650D01*
X389890Y628650D02*
X389990Y628652D01*
X390089Y628658D01*
X390189Y628668D01*
X390287Y628681D01*
X390386Y628699D01*
X390483Y628720D01*
X390579Y628745D01*
X390675Y628774D01*
X390769Y628807D01*
X390862Y628843D01*
X390953Y628883D01*
X391043Y628927D01*
X391131Y628974D01*
X391217Y629024D01*
X391301Y629078D01*
X391383Y629135D01*
X391462Y629195D01*
X391540Y629259D01*
X391614Y629325D01*
X391686Y629394D01*
X391755Y629466D01*
X391821Y629540D01*
X391885Y629618D01*
X391945Y629697D01*
X392002Y629779D01*
X392056Y629863D01*
X392106Y629949D01*
X392153Y630037D01*
X392197Y630127D01*
X392237Y630218D01*
X392273Y630311D01*
X392306Y630405D01*
X392335Y630501D01*
X392360Y630597D01*
X392381Y630694D01*
X392399Y630793D01*
X392412Y630891D01*
X392422Y630991D01*
X392428Y631090D01*
X392430Y631190D01*
X389890Y692150D02*
X372110Y692150D01*
X392430Y689610D02*
X392430Y685800D01*
X391160Y684530D01*
X369570Y685800D02*
X369570Y689610D01*
X369570Y685800D02*
X370840Y684530D01*
X391160Y636270D02*
X392430Y635000D01*
X391160Y636270D02*
X391160Y684530D01*
X370840Y636270D02*
X369570Y635000D01*
X370840Y636270D02*
X370840Y684530D01*
X392430Y635000D02*
X392430Y631190D01*
X369570Y631190D02*
X369570Y635000D01*
X372110Y628650D02*
X389890Y628650D01*
D16*
X381000Y624332D03*
X381000Y696468D03*
D13*
X396875Y672548D02*
X408305Y672548D01*
X396875Y672548D02*
X396875Y675723D01*
X396877Y675834D01*
X396883Y675944D01*
X396892Y676055D01*
X396906Y676165D01*
X396923Y676274D01*
X396944Y676383D01*
X396969Y676491D01*
X396998Y676598D01*
X397030Y676704D01*
X397066Y676809D01*
X397106Y676912D01*
X397149Y677014D01*
X397196Y677115D01*
X397247Y677214D01*
X397300Y677311D01*
X397357Y677405D01*
X397418Y677498D01*
X397481Y677589D01*
X397548Y677678D01*
X397618Y677764D01*
X397691Y677847D01*
X397766Y677929D01*
X397844Y678007D01*
X397926Y678082D01*
X398009Y678155D01*
X398095Y678225D01*
X398184Y678292D01*
X398275Y678355D01*
X398368Y678416D01*
X398463Y678473D01*
X398559Y678526D01*
X398658Y678577D01*
X398759Y678624D01*
X398861Y678667D01*
X398964Y678707D01*
X399069Y678743D01*
X399175Y678775D01*
X399282Y678804D01*
X399390Y678829D01*
X399499Y678850D01*
X399608Y678867D01*
X399718Y678881D01*
X399829Y678890D01*
X399939Y678896D01*
X400050Y678898D01*
X400161Y678896D01*
X400271Y678890D01*
X400382Y678881D01*
X400492Y678867D01*
X400601Y678850D01*
X400710Y678829D01*
X400818Y678804D01*
X400925Y678775D01*
X401031Y678743D01*
X401136Y678707D01*
X401239Y678667D01*
X401341Y678624D01*
X401442Y678577D01*
X401541Y678526D01*
X401638Y678473D01*
X401732Y678416D01*
X401825Y678355D01*
X401916Y678292D01*
X402005Y678225D01*
X402091Y678155D01*
X402174Y678082D01*
X402256Y678007D01*
X402334Y677929D01*
X402409Y677847D01*
X402482Y677764D01*
X402552Y677678D01*
X402619Y677589D01*
X402682Y677498D01*
X402743Y677405D01*
X402800Y677311D01*
X402853Y677214D01*
X402904Y677115D01*
X402951Y677014D01*
X402994Y676912D01*
X403034Y676809D01*
X403070Y676704D01*
X403102Y676598D01*
X403131Y676491D01*
X403156Y676383D01*
X403177Y676274D01*
X403194Y676165D01*
X403208Y676055D01*
X403217Y675944D01*
X403223Y675834D01*
X403225Y675723D01*
X403225Y672548D01*
X403225Y676358D02*
X408305Y678898D01*
X399415Y683895D02*
X396875Y687070D01*
X408305Y687070D01*
X408305Y683895D02*
X408305Y690245D01*
D15*
X330200Y704850D02*
X330200Y666750D01*
D17*
X329726Y666134D01*
X329237Y665529D01*
X328733Y664937D01*
X328215Y664357D01*
X327683Y663790D01*
X327137Y663236D01*
X326578Y662696D01*
X326005Y662170D01*
X325420Y661657D01*
X324823Y661160D01*
X324214Y660677D01*
X323593Y660209D01*
X322960Y659756D01*
X322317Y659319D01*
X321663Y658898D01*
X320999Y658494D01*
X320326Y658105D01*
X319643Y657733D01*
X318951Y657378D01*
X318251Y657040D01*
X317543Y656719D01*
X316827Y656416D01*
X316103Y656130D01*
X315374Y655862D01*
X314637Y655612D01*
X313895Y655381D01*
X313147Y655167D01*
X312395Y654972D01*
X311637Y654795D01*
X310876Y654637D01*
X310111Y654497D01*
X309343Y654377D01*
X308572Y654275D01*
X307799Y654192D01*
X307024Y654128D01*
X306248Y654083D01*
X305471Y654057D01*
X304693Y654050D01*
X303916Y654062D01*
X303139Y654093D01*
X302363Y654144D01*
X301588Y654213D01*
X300816Y654301D01*
X300046Y654408D01*
X299278Y654534D01*
X298514Y654678D01*
X297754Y654842D01*
X296998Y655024D01*
X296247Y655224D01*
X295500Y655442D01*
X294760Y655679D01*
X294025Y655934D01*
X293297Y656207D01*
X292576Y656498D01*
X291862Y656806D01*
X291156Y657131D01*
X290458Y657474D01*
X289768Y657834D01*
X289088Y658210D01*
X288417Y658603D01*
X287756Y659013D01*
X287105Y659438D01*
X286465Y659879D01*
X285836Y660336D01*
X285218Y660808D01*
X284612Y661295D01*
X284018Y661797D01*
X283436Y662313D01*
X282867Y662843D01*
X282312Y663387D01*
X281769Y663945D01*
X281241Y664515D01*
X280727Y665098D01*
X280227Y665694D01*
X279742Y666302D01*
X279272Y666921D01*
X278818Y667552D01*
X278379Y668194D01*
X277955Y668846D01*
X277548Y669509D01*
X277157Y670181D01*
X276783Y670863D01*
X276426Y671553D01*
X276086Y672252D01*
X275762Y672960D01*
X275457Y673674D01*
X275168Y674397D01*
X274898Y675126D01*
X274646Y675861D01*
X274411Y676603D01*
X274195Y677350D01*
X273997Y678102D01*
X273818Y678858D01*
X273657Y679619D01*
X273515Y680383D01*
X273392Y681151D01*
X273288Y681922D01*
X273202Y682695D01*
X273136Y683469D01*
X273088Y684245D01*
X273060Y685022D01*
X273050Y685800D01*
X273060Y686578D01*
X273088Y687355D01*
X273136Y688131D01*
X273202Y688905D01*
X273288Y689678D01*
X273392Y690449D01*
X273515Y691217D01*
X273657Y691981D01*
X273818Y692742D01*
X273997Y693498D01*
X274195Y694250D01*
X274411Y694997D01*
X274646Y695739D01*
X274898Y696474D01*
X275168Y697203D01*
X275457Y697926D01*
X275762Y698640D01*
X276086Y699348D01*
X276426Y700047D01*
X276783Y700737D01*
X277157Y701419D01*
X277548Y702091D01*
X277955Y702754D01*
X278379Y703406D01*
X278818Y704048D01*
X279272Y704679D01*
X279742Y705298D01*
X280227Y705906D01*
X280727Y706502D01*
X281241Y707085D01*
X281769Y707655D01*
X282312Y708213D01*
X282867Y708757D01*
X283436Y709287D01*
X284018Y709803D01*
X284612Y710305D01*
X285218Y710792D01*
X285836Y711264D01*
X286465Y711721D01*
X287105Y712162D01*
X287756Y712587D01*
X288417Y712997D01*
X289088Y713390D01*
X289768Y713766D01*
X290458Y714126D01*
X291156Y714469D01*
X291862Y714794D01*
X292576Y715102D01*
X293297Y715393D01*
X294025Y715666D01*
X294760Y715921D01*
X295500Y716158D01*
X296247Y716376D01*
X296998Y716576D01*
X297754Y716758D01*
X298514Y716922D01*
X299278Y717066D01*
X300046Y717192D01*
X300816Y717299D01*
X301588Y717387D01*
X302363Y717456D01*
X303139Y717507D01*
X303916Y717538D01*
X304693Y717550D01*
X305471Y717543D01*
X306248Y717517D01*
X307024Y717472D01*
X307799Y717408D01*
X308572Y717325D01*
X309343Y717223D01*
X310111Y717103D01*
X310876Y716963D01*
X311637Y716805D01*
X312395Y716628D01*
X313147Y716433D01*
X313895Y716219D01*
X314637Y715988D01*
X315374Y715738D01*
X316103Y715470D01*
X316827Y715184D01*
X317543Y714881D01*
X318251Y714560D01*
X318951Y714222D01*
X319643Y713867D01*
X320326Y713495D01*
X320999Y713106D01*
X321663Y712702D01*
X322317Y712281D01*
X322960Y711844D01*
X323593Y711391D01*
X324214Y710923D01*
X324823Y710440D01*
X325420Y709943D01*
X326005Y709430D01*
X326578Y708904D01*
X327137Y708364D01*
X327683Y707810D01*
X328215Y707243D01*
X328733Y706663D01*
X329237Y706071D01*
X329726Y705466D01*
X330200Y704850D01*
D14*
X279400Y685800D02*
X279408Y686423D01*
X279431Y687046D01*
X279469Y687669D01*
X279522Y688290D01*
X279591Y688909D01*
X279675Y689527D01*
X279774Y690142D01*
X279888Y690755D01*
X280017Y691365D01*
X280161Y691972D01*
X280320Y692575D01*
X280494Y693173D01*
X280682Y693768D01*
X280885Y694357D01*
X281102Y694941D01*
X281333Y695520D01*
X281579Y696093D01*
X281839Y696660D01*
X282112Y697220D01*
X282399Y697773D01*
X282700Y698320D01*
X283014Y698858D01*
X283341Y699389D01*
X283681Y699911D01*
X284033Y700426D01*
X284399Y700931D01*
X284776Y701427D01*
X285166Y701914D01*
X285567Y702391D01*
X285980Y702858D01*
X286404Y703314D01*
X286839Y703761D01*
X287286Y704196D01*
X287742Y704620D01*
X288209Y705033D01*
X288686Y705434D01*
X289173Y705824D01*
X289669Y706201D01*
X290174Y706567D01*
X290689Y706919D01*
X291211Y707259D01*
X291742Y707586D01*
X292280Y707900D01*
X292827Y708201D01*
X293380Y708488D01*
X293940Y708761D01*
X294507Y709021D01*
X295080Y709267D01*
X295659Y709498D01*
X296243Y709715D01*
X296832Y709918D01*
X297427Y710106D01*
X298025Y710280D01*
X298628Y710439D01*
X299235Y710583D01*
X299845Y710712D01*
X300458Y710826D01*
X301073Y710925D01*
X301691Y711009D01*
X302310Y711078D01*
X302931Y711131D01*
X303554Y711169D01*
X304177Y711192D01*
X304800Y711200D01*
X305423Y711192D01*
X306046Y711169D01*
X306669Y711131D01*
X307290Y711078D01*
X307909Y711009D01*
X308527Y710925D01*
X309142Y710826D01*
X309755Y710712D01*
X310365Y710583D01*
X310972Y710439D01*
X311575Y710280D01*
X312173Y710106D01*
X312768Y709918D01*
X313357Y709715D01*
X313941Y709498D01*
X314520Y709267D01*
X315093Y709021D01*
X315660Y708761D01*
X316220Y708488D01*
X316773Y708201D01*
X317320Y707900D01*
X317858Y707586D01*
X318389Y707259D01*
X318911Y706919D01*
X319426Y706567D01*
X319931Y706201D01*
X320427Y705824D01*
X320914Y705434D01*
X321391Y705033D01*
X321858Y704620D01*
X322314Y704196D01*
X322761Y703761D01*
X323196Y703314D01*
X323620Y702858D01*
X324033Y702391D01*
X324434Y701914D01*
X324824Y701427D01*
X325201Y700931D01*
X325567Y700426D01*
X325919Y699911D01*
X326259Y699389D01*
X326586Y698858D01*
X326900Y698320D01*
X327201Y697773D01*
X327488Y697220D01*
X327761Y696660D01*
X328021Y696093D01*
X328267Y695520D01*
X328498Y694941D01*
X328715Y694357D01*
X328918Y693768D01*
X329106Y693173D01*
X329280Y692575D01*
X329439Y691972D01*
X329583Y691365D01*
X329712Y690755D01*
X329826Y690142D01*
X329925Y689527D01*
X330009Y688909D01*
X330078Y688290D01*
X330131Y687669D01*
X330169Y687046D01*
X330192Y686423D01*
X330200Y685800D01*
X330192Y685177D01*
X330169Y684554D01*
X330131Y683931D01*
X330078Y683310D01*
X330009Y682691D01*
X329925Y682073D01*
X329826Y681458D01*
X329712Y680845D01*
X329583Y680235D01*
X329439Y679628D01*
X329280Y679025D01*
X329106Y678427D01*
X328918Y677832D01*
X328715Y677243D01*
X328498Y676659D01*
X328267Y676080D01*
X328021Y675507D01*
X327761Y674940D01*
X327488Y674380D01*
X327201Y673827D01*
X326900Y673280D01*
X326586Y672742D01*
X326259Y672211D01*
X325919Y671689D01*
X325567Y671174D01*
X325201Y670669D01*
X324824Y670173D01*
X324434Y669686D01*
X324033Y669209D01*
X323620Y668742D01*
X323196Y668286D01*
X322761Y667839D01*
X322314Y667404D01*
X321858Y666980D01*
X321391Y666567D01*
X320914Y666166D01*
X320427Y665776D01*
X319931Y665399D01*
X319426Y665033D01*
X318911Y664681D01*
X318389Y664341D01*
X317858Y664014D01*
X317320Y663700D01*
X316773Y663399D01*
X316220Y663112D01*
X315660Y662839D01*
X315093Y662579D01*
X314520Y662333D01*
X313941Y662102D01*
X313357Y661885D01*
X312768Y661682D01*
X312173Y661494D01*
X311575Y661320D01*
X310972Y661161D01*
X310365Y661017D01*
X309755Y660888D01*
X309142Y660774D01*
X308527Y660675D01*
X307909Y660591D01*
X307290Y660522D01*
X306669Y660469D01*
X306046Y660431D01*
X305423Y660408D01*
X304800Y660400D01*
X304177Y660408D01*
X303554Y660431D01*
X302931Y660469D01*
X302310Y660522D01*
X301691Y660591D01*
X301073Y660675D01*
X300458Y660774D01*
X299845Y660888D01*
X299235Y661017D01*
X298628Y661161D01*
X298025Y661320D01*
X297427Y661494D01*
X296832Y661682D01*
X296243Y661885D01*
X295659Y662102D01*
X295080Y662333D01*
X294507Y662579D01*
X293940Y662839D01*
X293380Y663112D01*
X292827Y663399D01*
X292280Y663700D01*
X291742Y664014D01*
X291211Y664341D01*
X290689Y664681D01*
X290174Y665033D01*
X289669Y665399D01*
X289173Y665776D01*
X288686Y666166D01*
X288209Y666567D01*
X287742Y666980D01*
X287286Y667404D01*
X286839Y667839D01*
X286404Y668286D01*
X285980Y668742D01*
X285567Y669209D01*
X285166Y669686D01*
X284776Y670173D01*
X284399Y670669D01*
X284033Y671174D01*
X283681Y671689D01*
X283341Y672211D01*
X283014Y672742D01*
X282700Y673280D01*
X282399Y673827D01*
X282112Y674380D01*
X281839Y674940D01*
X281579Y675507D01*
X281333Y676080D01*
X281102Y676659D01*
X280885Y677243D01*
X280682Y677832D01*
X280494Y678427D01*
X280320Y679025D01*
X280161Y679628D01*
X280017Y680235D01*
X279888Y680845D01*
X279774Y681458D01*
X279675Y682073D01*
X279591Y682691D01*
X279522Y683310D01*
X279469Y683931D01*
X279431Y684554D01*
X279408Y685177D01*
X279400Y685800D01*
D13*
X337185Y691769D02*
X337185Y703199D01*
X337185Y691769D02*
X342265Y691769D01*
X347091Y691769D02*
X352171Y691769D01*
X347091Y691769D02*
X347091Y703199D01*
X352171Y703199D01*
X350901Y698119D02*
X347091Y698119D01*
X356972Y703199D02*
X356972Y691769D01*
X356972Y703199D02*
X360147Y703199D01*
X360258Y703197D01*
X360368Y703191D01*
X360479Y703182D01*
X360589Y703168D01*
X360698Y703151D01*
X360807Y703130D01*
X360915Y703105D01*
X361022Y703076D01*
X361128Y703044D01*
X361233Y703008D01*
X361336Y702968D01*
X361438Y702925D01*
X361539Y702878D01*
X361638Y702827D01*
X361735Y702774D01*
X361829Y702717D01*
X361922Y702656D01*
X362013Y702593D01*
X362102Y702526D01*
X362188Y702456D01*
X362271Y702383D01*
X362353Y702308D01*
X362431Y702230D01*
X362506Y702148D01*
X362579Y702065D01*
X362649Y701979D01*
X362716Y701890D01*
X362779Y701799D01*
X362840Y701706D01*
X362897Y701612D01*
X362950Y701515D01*
X363001Y701416D01*
X363048Y701315D01*
X363091Y701213D01*
X363131Y701110D01*
X363167Y701005D01*
X363199Y700899D01*
X363228Y700792D01*
X363253Y700684D01*
X363274Y700575D01*
X363291Y700466D01*
X363305Y700356D01*
X363314Y700245D01*
X363320Y700135D01*
X363322Y700024D01*
X363322Y694944D01*
X363320Y694833D01*
X363314Y694723D01*
X363305Y694612D01*
X363291Y694502D01*
X363274Y694393D01*
X363253Y694284D01*
X363228Y694176D01*
X363199Y694069D01*
X363167Y693963D01*
X363131Y693858D01*
X363091Y693755D01*
X363048Y693653D01*
X363001Y693552D01*
X362950Y693453D01*
X362897Y693357D01*
X362840Y693262D01*
X362779Y693169D01*
X362716Y693078D01*
X362649Y692989D01*
X362579Y692903D01*
X362506Y692820D01*
X362431Y692738D01*
X362353Y692660D01*
X362271Y692585D01*
X362188Y692512D01*
X362102Y692442D01*
X362013Y692375D01*
X361922Y692312D01*
X361829Y692251D01*
X361735Y692194D01*
X361638Y692141D01*
X361539Y692090D01*
X361438Y692043D01*
X361336Y692000D01*
X361233Y691960D01*
X361128Y691924D01*
X361022Y691892D01*
X360915Y691863D01*
X360807Y691838D01*
X360698Y691817D01*
X360589Y691800D01*
X360479Y691786D01*
X360368Y691777D01*
X360258Y691771D01*
X360147Y691769D01*
X356972Y691769D01*
X368783Y700659D02*
X371958Y703199D01*
X371958Y691769D01*
X368783Y691769D02*
X375133Y691769D01*
M02*
